<svg width="1440" height="300" viewBox="0 0 1440 300" fill="none" xmlns="http://www.w3.org/2000/svg">
<mask id="mask0" mask-type="alpha" maskUnits="userSpaceOnUse" x="0" y="0" width="1440" height="300">
<rect width="1440" height="300" fill="#C4C4C4"/>
</mask>
<g mask="url(#mask0)">
<path d="M1232.82 72.0499H1210.98C1210.83 72.0034 1210.67 71.9927 1210.52 72.0188C1210.36 72.0448 1210.22 72.1068 1210.09 72.1997C1209.96 72.2926 1209.86 72.4139 1209.79 72.5538C1209.72 72.6937 1209.68 72.8482 1209.68 73.0049C1209.68 73.1616 1209.72 73.3161 1209.79 73.456C1209.86 73.5958 1209.96 73.7171 1210.09 73.8101C1210.22 73.903 1210.36 73.965 1210.52 73.991C1210.67 74.017 1210.83 74.0064 1210.98 73.9599H1232.82C1232.97 74.0064 1233.13 74.017 1233.28 73.991C1233.44 73.965 1233.58 73.903 1233.71 73.8101C1233.84 73.7171 1233.94 73.5958 1234.01 73.456C1234.08 73.3161 1234.12 73.1616 1234.12 73.0049C1234.12 72.8482 1234.08 72.6937 1234.01 72.5538C1233.94 72.4139 1233.84 72.2926 1233.71 72.1997C1233.58 72.1068 1233.44 72.0448 1233.28 72.0188C1233.13 71.9927 1232.97 72.0034 1232.82 72.0499Z" fill="#243453"/>
<path d="M1204.02 72.04H1199.75C1199.54 72.1006 1199.36 72.2269 1199.23 72.4C1199.1 72.5731 1199.03 72.7836 1199.03 73C1199.03 73.2164 1199.1 73.4269 1199.23 73.6C1199.36 73.7731 1199.54 73.8994 1199.75 73.96H1204.02C1204.17 74.0035 1204.33 74.0116 1204.48 73.9839C1204.63 73.9561 1204.78 73.8932 1204.9 73.8C1205.02 73.7069 1205.12 73.5861 1205.19 73.4472C1205.26 73.3084 1205.3 73.1552 1205.3 73C1205.3 72.8448 1205.26 72.6916 1205.19 72.5528C1205.12 72.4139 1205.02 72.2932 1204.9 72.2C1204.78 72.1069 1204.63 72.0439 1204.48 72.0161C1204.33 71.9884 1204.17 71.9965 1204.02 72.04Z" fill="#243453"/>
<path d="M1222.56 79.6602C1222.56 79.9255 1222.45 80.1798 1222.27 80.3674C1222.08 80.5549 1221.83 80.6602 1221.56 80.6602H1218.87C1218.66 80.5997 1218.48 80.4733 1218.35 80.3002C1218.22 80.1271 1218.15 79.9166 1218.15 79.7002C1218.15 79.4839 1218.22 79.2733 1218.35 79.1002C1218.48 78.9271 1218.66 78.8008 1218.87 78.7402H1221.6C1221.84 78.7493 1222.08 78.848 1222.26 79.0176C1222.43 79.1872 1222.54 79.4159 1222.56 79.6602ZM1215.05 79.6602C1215.05 79.9255 1214.94 80.1798 1214.76 80.3674C1214.57 80.5549 1214.32 80.6602 1214.05 80.6602H1209.27C1209.06 80.5997 1208.88 80.4733 1208.75 80.3002C1208.62 80.1271 1208.55 79.9166 1208.55 79.7002C1208.55 79.4839 1208.62 79.2733 1208.75 79.1002C1208.88 78.9271 1209.06 78.8008 1209.27 78.7402H1214.05C1214.3 78.7394 1214.54 78.8337 1214.73 79.0043C1214.92 79.1749 1215.03 79.4091 1215.05 79.6602ZM1205.49 79.6602C1205.49 79.9255 1205.38 80.1798 1205.2 80.3674C1205.01 80.5549 1204.76 80.6602 1204.49 80.6602H1199.72C1199.51 80.5997 1199.33 80.4733 1199.2 80.3002C1199.07 80.1271 1199 79.9166 1199 79.7002C1199 79.4839 1199.07 79.2733 1199.2 79.1002C1199.33 78.9271 1199.51 78.8008 1199.72 78.7402H1204.49C1204.74 78.7394 1204.98 78.8337 1205.17 79.0043C1205.36 79.1749 1205.47 79.4091 1205.49 79.6602Z" fill="#243453"/>
<path d="M95.1295 62.8599C94.7931 63.4386 94.636 64.1041 94.6783 64.7721C94.7206 65.4402 94.9604 66.0806 95.3671 66.6122C95.7737 67.1439 96.3291 67.5428 96.9628 67.7584C97.5964 67.974 98.2799 67.9966 98.9264 67.8234C99.573 67.6502 100.153 67.2888 100.594 66.7853C101.035 66.2817 101.317 65.6586 101.403 64.9948C101.49 64.3311 101.377 63.6566 101.08 63.0569C100.782 62.4573 100.314 61.9594 99.733 61.6264C98.9589 61.1795 98.0391 61.0584 97.1758 61.2898C96.3124 61.5211 95.5764 62.0859 95.1295 62.8599Z" fill="#243453"/>
<path d="M89.6472 116.956C89.6472 116.956 86.1181 125.669 76.8094 120.052C76.8094 120.052 84.8531 124.8 80.2666 132.244C80.2666 132.244 84.429 126.715 92.6209 129.666C92.6209 129.666 85.5208 127.484 89.6472 116.956Z" fill="#243453"/>
<path d="M924.57 41C924.57 41 925.87 50.31 915 50.1C915 50.1 924.34 50.19 924.1 58.93C924.1 58.93 924.94 52.05 933.51 50.52C933.51 50.51 926.26 52.17 924.57 41Z" fill="#243453"/>
<path d="M1174.16 140.319H1153C1151.7 140.34 1150.44 139.842 1149.5 138.934C1148.56 138.027 1148.02 136.784 1148 135.479C1147.98 134.174 1148.48 132.914 1149.39 131.977C1150.29 131.039 1151.54 130.5 1152.84 130.479C1152.87 128.848 1153.42 127.269 1154.41 125.975C1155.41 124.681 1156.79 123.741 1158.36 123.293C1159.93 122.845 1161.6 122.912 1163.13 123.486C1164.65 124.06 1165.96 125.109 1166.84 126.479C1168.18 126.281 1169.54 126.579 1170.67 127.316C1171.8 128.053 1172.62 129.178 1172.98 130.479H1174.22C1175.53 130.479 1176.78 130.997 1177.7 131.92C1178.62 132.843 1179.14 134.094 1179.14 135.399C1179.14 136.704 1178.62 137.955 1177.7 138.878C1176.78 139.801 1175.53 140.319 1174.22 140.319H1174.16ZM1153 131.929C1152.53 131.904 1152.06 131.975 1151.62 132.137C1151.17 132.3 1150.77 132.551 1150.43 132.875C1150.09 133.2 1149.81 133.59 1149.63 134.023C1149.44 134.456 1149.34 134.923 1149.34 135.394C1149.34 135.865 1149.44 136.332 1149.63 136.765C1149.81 137.198 1150.09 137.588 1150.43 137.913C1150.77 138.237 1151.17 138.488 1151.62 138.651C1152.06 138.813 1152.53 138.884 1153 138.859H1174.21C1175.1 138.811 1175.93 138.425 1176.54 137.781C1177.15 137.136 1177.49 136.282 1177.49 135.394C1177.49 134.506 1177.15 133.652 1176.54 133.007C1175.93 132.362 1175.1 131.977 1174.21 131.929H1171.76L1171.66 131.319C1171.58 130.759 1171.38 130.222 1171.07 129.743C1170.77 129.265 1170.37 128.855 1169.9 128.539C1169.43 128.224 1168.9 128.01 1168.34 127.912C1167.78 127.814 1167.21 127.833 1166.66 127.969L1166.13 128.089L1165.86 127.609C1165.19 126.421 1164.15 125.487 1162.9 124.953C1161.64 124.419 1160.25 124.315 1158.93 124.658C1157.61 125 1156.44 125.77 1155.61 126.847C1154.77 127.923 1154.32 129.246 1154.31 130.609C1154.31 130.789 1154.31 130.969 1154.31 131.139L1154.38 131.929H1153Z" fill="#243453"/>
<path d="M931.423 274.445C931.166 274.458 930.925 274.569 930.748 274.755C930.571 274.941 930.472 275.189 930.473 275.445V277.655C930.426 277.805 930.416 277.963 930.442 278.118C930.468 278.273 930.53 278.419 930.623 278.545C930.715 278.671 930.837 278.774 930.977 278.844C931.117 278.915 931.271 278.952 931.428 278.952C931.584 278.952 931.739 278.915 931.879 278.844C932.019 278.774 932.14 278.671 932.233 278.545C932.326 278.419 932.388 278.273 932.414 278.118C932.44 277.963 932.429 277.805 932.383 277.655V275.445C932.383 275.187 932.283 274.938 932.104 274.752C931.925 274.566 931.681 274.456 931.423 274.445Z" fill="#243453"/>
<path d="M928.923 272.265H926.703C926.5 272.328 926.321 272.455 926.195 272.627C926.068 272.799 926 273.006 926 273.22C926 273.433 926.068 273.641 926.195 273.813C926.321 273.985 926.5 274.111 926.703 274.175H928.923C929.073 274.221 929.232 274.232 929.386 274.206C929.541 274.18 929.687 274.118 929.813 274.025C929.939 273.932 930.042 273.811 930.112 273.671C930.183 273.531 930.22 273.376 930.22 273.22C930.22 273.063 930.183 272.909 930.112 272.769C930.042 272.629 929.939 272.507 929.813 272.415C929.687 272.322 929.541 272.26 929.386 272.234C929.232 272.208 929.073 272.218 928.923 272.265Z" fill="#243453"/>
<path d="M931.423 267.665C931.166 267.678 930.925 267.789 930.748 267.975C930.571 268.161 930.472 268.408 930.473 268.665V270.875C930.426 271.025 930.416 271.183 930.442 271.338C930.468 271.492 930.53 271.639 930.623 271.765C930.715 271.891 930.837 271.993 930.977 272.064C931.117 272.135 931.271 272.172 931.428 272.172C931.584 272.172 931.739 272.135 931.879 272.064C932.019 271.993 932.14 271.891 932.233 271.765C932.326 271.639 932.388 271.492 932.414 271.338C932.44 271.183 932.429 271.025 932.383 270.875V268.665C932.383 268.407 932.283 268.158 932.104 267.972C931.925 267.785 931.681 267.675 931.423 267.665Z" fill="#243453"/>
<path d="M936.143 272.105H933.923C933.715 272.166 933.533 272.292 933.403 272.465C933.273 272.639 933.203 272.849 933.203 273.065C933.203 273.282 933.273 273.492 933.403 273.665C933.533 273.839 933.715 273.965 933.923 274.025H936.143C936.351 273.965 936.533 273.839 936.663 273.665C936.793 273.492 936.863 273.282 936.863 273.065C936.863 272.849 936.793 272.639 936.663 272.465C936.533 272.292 936.351 272.166 936.143 272.105Z" fill="#243453"/>
<path d="M1171.82 212.525C1171.69 212.524 1171.57 212.549 1171.45 212.599C1171.33 212.65 1171.22 212.724 1171.13 212.818C1171.04 212.912 1170.97 213.023 1170.93 213.145C1170.88 213.267 1170.86 213.396 1170.87 213.525V215.745C1170.94 215.949 1171.06 216.127 1171.23 216.254C1171.41 216.381 1171.61 216.449 1171.83 216.449C1172.04 216.449 1172.25 216.381 1172.42 216.254C1172.59 216.127 1172.72 215.949 1172.78 215.745V213.445C1172.76 213.201 1172.66 212.972 1172.48 212.803C1172.3 212.633 1172.07 212.534 1171.82 212.525Z" fill="#243453"/>
<path d="M1169.32 210.295H1167.1C1166.9 210.358 1166.72 210.485 1166.59 210.657C1166.47 210.829 1166.4 211.037 1166.4 211.25C1166.4 211.463 1166.47 211.671 1166.59 211.843C1166.72 212.015 1166.9 212.142 1167.1 212.205H1169.32C1169.47 212.251 1169.63 212.262 1169.78 212.236C1169.94 212.21 1170.09 212.148 1170.21 212.055C1170.34 211.962 1170.44 211.841 1170.51 211.701C1170.58 211.561 1170.62 211.407 1170.62 211.25C1170.62 211.093 1170.58 210.939 1170.51 210.799C1170.44 210.659 1170.34 210.538 1170.21 210.445C1170.09 210.352 1169.94 210.29 1169.78 210.264C1169.63 210.238 1169.47 210.249 1169.32 210.295Z" fill="#243453"/>
<path d="M1171.82 205.705C1171.58 205.717 1171.34 205.821 1171.16 205.997C1170.99 206.172 1170.89 206.407 1170.87 206.655V208.875C1170.83 209.025 1170.82 209.183 1170.84 209.338C1170.87 209.492 1170.93 209.639 1171.02 209.765C1171.12 209.891 1171.24 209.993 1171.38 210.064C1171.52 210.135 1171.67 210.172 1171.83 210.172C1171.98 210.172 1172.14 210.135 1172.28 210.064C1172.42 209.993 1172.54 209.891 1172.63 209.765C1172.73 209.639 1172.79 209.492 1172.81 209.338C1172.84 209.183 1172.83 209.025 1172.78 208.875V206.655C1172.77 206.405 1172.67 206.169 1172.49 205.994C1172.31 205.818 1172.07 205.715 1171.82 205.705Z" fill="#243453"/>
<path d="M1176.54 210.145H1174.32C1174.12 210.208 1173.94 210.335 1173.81 210.507C1173.69 210.678 1173.62 210.886 1173.62 211.1C1173.62 211.313 1173.69 211.521 1173.81 211.693C1173.94 211.864 1174.12 211.991 1174.32 212.055H1176.54C1176.69 212.101 1176.85 212.112 1177.01 212.086C1177.16 212.06 1177.31 211.998 1177.43 211.905C1177.56 211.812 1177.66 211.691 1177.73 211.551C1177.8 211.411 1177.84 211.256 1177.84 211.1C1177.84 210.943 1177.8 210.788 1177.73 210.649C1177.66 210.509 1177.56 210.387 1177.43 210.294C1177.31 210.202 1177.16 210.14 1177.01 210.113C1176.85 210.087 1176.69 210.098 1176.54 210.145Z" fill="#243453"/>
<path d="M1082.72 165.045H1060.87C1060.72 165.001 1060.57 164.993 1060.41 165.021C1060.26 165.049 1060.12 165.112 1059.99 165.205C1059.87 165.298 1059.77 165.419 1059.7 165.558C1059.63 165.697 1059.59 165.85 1059.59 166.005C1059.59 166.16 1059.63 166.313 1059.7 166.452C1059.77 166.591 1059.87 166.712 1059.99 166.805C1060.12 166.898 1060.26 166.961 1060.41 166.989C1060.57 167.017 1060.72 167.008 1060.87 166.965H1082.72C1082.93 166.904 1083.11 166.778 1083.24 166.605C1083.37 166.432 1083.44 166.221 1083.44 166.005C1083.44 165.789 1083.37 165.578 1083.24 165.405C1083.11 165.232 1082.93 165.105 1082.72 165.045Z" fill="#243453"/>
<path d="M1053.92 165.045H1049.65C1049.5 164.999 1049.34 164.988 1049.19 165.014C1049.03 165.04 1048.89 165.102 1048.76 165.195C1048.64 165.288 1048.53 165.409 1048.46 165.549C1048.39 165.689 1048.36 165.843 1048.36 166C1048.36 166.157 1048.39 166.311 1048.46 166.451C1048.53 166.591 1048.64 166.712 1048.76 166.805C1048.89 166.898 1049.03 166.96 1049.19 166.986C1049.34 167.012 1049.5 167.001 1049.65 166.955H1053.92C1054.13 166.892 1054.3 166.765 1054.43 166.593C1054.56 166.421 1054.63 166.213 1054.63 166C1054.63 165.787 1054.56 165.579 1054.43 165.407C1054.3 165.235 1054.13 165.108 1053.92 165.045Z" fill="#243453"/>
<path d="M1072.42 172.665C1072.42 172.922 1072.32 173.169 1072.15 173.355C1071.97 173.541 1071.73 173.652 1071.47 173.665H1068.73C1068.53 173.602 1068.35 173.475 1068.22 173.303C1068.1 173.131 1068.03 172.923 1068.03 172.71C1068.03 172.497 1068.1 172.289 1068.22 172.117C1068.35 171.945 1068.53 171.818 1068.73 171.755H1071.47C1071.71 171.766 1071.94 171.864 1072.12 172.032C1072.29 172.199 1072.4 172.424 1072.42 172.665ZM1064.91 172.665C1064.91 172.922 1064.81 173.169 1064.64 173.355C1064.46 173.541 1064.22 173.652 1063.96 173.665H1059.18C1059.03 173.711 1058.87 173.722 1058.72 173.696C1058.57 173.67 1058.42 173.608 1058.29 173.515C1058.17 173.422 1058.06 173.301 1057.99 173.161C1057.92 173.021 1057.89 172.867 1057.89 172.71C1057.89 172.553 1057.92 172.399 1057.99 172.259C1058.06 172.119 1058.17 171.998 1058.29 171.905C1058.42 171.812 1058.57 171.75 1058.72 171.724C1058.87 171.698 1059.03 171.708 1059.18 171.755H1063.96C1064.21 171.759 1064.45 171.854 1064.63 172.022C1064.81 172.19 1064.92 172.419 1064.94 172.665H1064.91ZM1055.35 172.665C1055.35 172.922 1055.25 173.169 1055.08 173.355C1054.9 173.541 1054.66 173.652 1054.4 173.665H1049.62C1049.47 173.711 1049.31 173.722 1049.16 173.696C1049.01 173.67 1048.86 173.608 1048.73 173.515C1048.61 173.422 1048.5 173.301 1048.43 173.161C1048.36 173.021 1048.33 172.867 1048.33 172.71C1048.33 172.553 1048.36 172.399 1048.43 172.259C1048.5 172.119 1048.61 171.998 1048.73 171.905C1048.86 171.812 1049.01 171.75 1049.16 171.724C1049.31 171.698 1049.47 171.708 1049.62 171.755H1054.42C1054.67 171.754 1054.91 171.847 1055.1 172.015C1055.29 172.184 1055.4 172.416 1055.42 172.665H1055.35Z" fill="#243453"/>
<path d="M606.57 147C606.57 147 607.88 156.31 597 156.09C597 156.09 606.34 156.19 606.1 164.93C606.1 164.93 606.94 158.05 615.51 156.52C615.51 156.52 608.27 158.18 606.57 147Z" fill="#243453"/>
<path d="M958.072 174.645C958.072 174.645 958.522 177.885 954.732 177.815C954.732 177.815 957.992 177.815 957.902 180.895C958.064 180.12 958.469 179.417 959.06 178.889C959.65 178.362 960.394 178.038 961.182 177.965C961.182 177.965 958.662 178.545 958.072 174.645Z" fill="#243453"/>
<path d="M1128.36 286.515C1128.36 286.515 1128.81 289.755 1125.03 289.685C1125.03 289.685 1128.28 289.685 1128.19 292.765C1128.36 291.988 1128.76 291.284 1129.35 290.757C1129.95 290.229 1130.69 289.906 1131.48 289.835C1131.48 289.835 1128.95 290.445 1128.36 286.515Z" fill="#243453"/>
<path d="M1017.11 251.795H995.903C995.257 251.806 994.615 251.689 994.014 251.451C993.413 251.214 992.865 250.86 992.401 250.411C991.936 249.961 991.565 249.425 991.308 248.832C991.051 248.239 990.914 247.601 990.903 246.955C990.892 246.309 991.009 245.667 991.247 245.066C991.484 244.465 991.838 243.917 992.287 243.453C992.737 242.989 993.273 242.617 993.866 242.36C994.459 242.103 995.097 241.966 995.743 241.955C995.778 240.328 996.333 238.754 997.327 237.465C998.322 236.176 999.703 235.239 1001.27 234.792C1002.83 234.345 1004.5 234.411 1006.03 234.98C1007.55 235.549 1008.85 236.592 1009.74 237.955C1011.08 237.758 1012.44 238.056 1013.57 238.793C1014.7 239.53 1015.52 240.655 1015.87 241.955H1017.11C1018.42 241.955 1019.67 242.474 1020.59 243.396C1021.51 244.319 1022.03 245.57 1022.03 246.875C1022.03 248.18 1021.51 249.431 1020.59 250.354C1019.67 251.277 1018.42 251.795 1017.11 251.795ZM995.903 243.445C995.432 243.42 994.961 243.491 994.519 243.653C994.077 243.816 993.672 244.067 993.33 244.392C992.988 244.716 992.715 245.106 992.529 245.539C992.343 245.972 992.247 246.439 992.247 246.91C992.247 247.382 992.343 247.848 992.529 248.281C992.715 248.714 992.988 249.105 993.33 249.429C993.672 249.753 994.077 250.004 994.519 250.167C994.961 250.33 995.432 250.4 995.903 250.375H1017.11C1017.58 250.4 1018.05 250.33 1018.5 250.167C1018.94 250.004 1019.34 249.753 1019.69 249.429C1020.03 249.105 1020.3 248.714 1020.49 248.281C1020.67 247.848 1020.77 247.382 1020.77 246.91C1020.77 246.439 1020.67 245.972 1020.49 245.539C1020.3 245.106 1020.03 244.716 1019.69 244.392C1019.34 244.067 1018.94 243.816 1018.5 243.653C1018.05 243.491 1017.58 243.42 1017.11 243.445H1014.66L1014.57 242.835C1014.49 242.275 1014.29 241.738 1013.99 241.26C1013.68 240.781 1013.28 240.371 1012.81 240.056C1012.34 239.74 1011.81 239.527 1011.25 239.428C1010.7 239.33 1010.12 239.35 1009.57 239.485L1009.03 239.615L1008.76 239.125C1008.1 237.934 1007.06 236.997 1005.8 236.461C1004.55 235.925 1003.15 235.82 1001.83 236.164C1000.51 236.507 999.344 237.278 998.51 238.357C997.676 239.436 997.223 240.761 997.223 242.125C997.223 242.305 997.223 242.485 997.223 242.655L997.293 243.445H995.903Z" fill="#243453"/>
<path d="M427.921 76.9463C427.664 76.9591 427.423 77.0701 427.246 77.2563C427.069 77.4424 426.97 77.6895 426.971 77.9463V80.1563C426.924 80.306 426.914 80.4644 426.94 80.619C426.966 80.7735 427.028 80.9198 427.121 81.0459C427.214 81.1721 427.335 81.2747 427.475 81.3454C427.615 81.4161 427.769 81.4529 427.926 81.4529C428.082 81.4529 428.237 81.4161 428.377 81.3454C428.517 81.2747 428.638 81.1721 428.731 81.0459C428.824 80.9198 428.886 80.7735 428.912 80.619C428.938 80.4644 428.927 80.306 428.881 80.1563V77.9463C428.881 77.6879 428.781 77.4394 428.602 77.253C428.423 77.0665 428.179 76.9566 427.921 76.9463Z" fill="#243453"/>
<path d="M425.421 74.7657H423.201C422.998 74.829 422.819 74.9558 422.693 75.1277C422.566 75.2995 422.498 75.5073 422.498 75.7207C422.498 75.9341 422.566 76.1419 422.693 76.3137C422.819 76.4856 422.998 76.6124 423.201 76.6757H425.421C425.571 76.7222 425.73 76.7328 425.884 76.7068C426.039 76.6808 426.185 76.6188 426.311 76.5259C426.437 76.4329 426.54 76.3117 426.611 76.1718C426.681 76.0319 426.718 75.8774 426.718 75.7207C426.718 75.564 426.681 75.4095 426.611 75.2696C426.54 75.1298 426.437 75.0085 426.311 74.9155C426.185 74.8226 426.039 74.7606 425.884 74.7346C425.73 74.7086 425.571 74.7192 425.421 74.7657Z" fill="#243453"/>
<path d="M427.921 70.166C427.664 70.1789 427.423 70.2899 427.246 70.476C427.069 70.6622 426.97 70.9092 426.971 71.166V73.376C426.924 73.5257 426.914 73.6842 426.94 73.8387C426.966 73.9932 427.028 74.1395 427.121 74.2657C427.214 74.3918 427.335 74.4944 427.475 74.5651C427.615 74.6358 427.769 74.6726 427.926 74.6726C428.082 74.6726 428.237 74.6358 428.377 74.5651C428.517 74.4944 428.638 74.3918 428.731 74.2657C428.824 74.1395 428.886 73.9932 428.912 73.8387C428.938 73.6842 428.927 73.5257 428.881 73.376V71.166C428.881 70.9076 428.781 70.6591 428.602 70.4727C428.423 70.2863 428.179 70.1764 427.921 70.166Z" fill="#243453"/>
<path d="M432.641 74.6064H430.421C430.213 74.667 430.031 74.7933 429.901 74.9664C429.771 75.1395 429.701 75.3501 429.701 75.5664C429.701 75.7828 429.771 75.9933 429.901 76.1664C430.031 76.3395 430.213 76.4659 430.421 76.5264H432.641C432.849 76.4659 433.031 76.3395 433.161 76.1664C433.291 75.9933 433.361 75.7828 433.361 75.5664C433.361 75.3501 433.291 75.1395 433.161 74.9664C433.031 74.7933 432.849 74.667 432.641 74.6064Z" fill="#243453"/>
<path d="M371.621 233.036H393.471C393.675 232.973 393.853 232.846 393.98 232.674C394.106 232.502 394.175 232.294 394.175 232.081C394.175 231.868 394.106 231.66 393.98 231.488C393.853 231.316 393.675 231.189 393.471 231.126H371.621C371.418 231.189 371.239 231.316 371.113 231.488C370.986 231.66 370.918 231.868 370.918 232.081C370.918 232.294 370.986 232.502 371.113 232.674C371.239 232.846 371.418 232.973 371.621 233.036Z" fill="#243453"/>
<path d="M360.4 233.046H364.67C364.874 232.983 365.052 232.856 365.179 232.684C365.305 232.512 365.374 232.304 365.374 232.091C365.374 231.877 365.305 231.67 365.179 231.498C365.052 231.326 364.874 231.199 364.67 231.136H360.4C360.25 231.089 360.092 231.079 359.937 231.105C359.783 231.131 359.637 231.193 359.51 231.286C359.384 231.379 359.282 231.5 359.211 231.64C359.14 231.78 359.104 231.934 359.104 232.091C359.104 232.248 359.14 232.402 359.211 232.542C359.282 232.682 359.384 232.803 359.51 232.896C359.637 232.989 359.783 233.051 359.937 233.077C360.092 233.103 360.25 233.092 360.4 233.046Z" fill="#243453"/>
<path d="M309.34 144.476C309.34 144.476 309.79 147.726 306 147.646C306 147.646 309.26 147.646 309.17 150.726C309.33 149.95 309.735 149.246 310.326 148.719C310.916 148.191 311.661 147.867 312.45 147.796C312.45 147.796 309.92 148.376 309.34 144.476Z" fill="#243453"/>
<path d="M463.64 179.656H442.43C441.125 179.677 439.866 179.179 438.928 178.271C437.99 177.363 437.452 176.12 437.43 174.816C437.409 173.511 437.907 172.251 438.815 171.313C439.722 170.375 440.965 169.837 442.27 169.816C442.305 168.188 442.861 166.615 443.855 165.326C444.849 164.037 446.23 163.1 447.795 162.653C449.36 162.205 451.028 162.271 452.553 162.84C454.078 163.41 455.381 164.452 456.27 165.816C457.605 165.62 458.966 165.919 460.096 166.655C461.227 167.392 462.049 168.515 462.41 169.816H463.65C464.955 169.816 466.207 170.334 467.129 171.257C468.052 172.179 468.57 173.431 468.57 174.736C468.57 176.04 468.052 177.292 467.129 178.214C466.207 179.137 464.955 179.656 463.65 179.656H463.64ZM442.43 171.276C441.96 171.25 441.489 171.321 441.046 171.484C440.604 171.647 440.199 171.898 439.857 172.222C439.515 172.546 439.243 172.937 439.056 173.37C438.87 173.803 438.774 174.269 438.774 174.741C438.774 175.212 438.87 175.678 439.056 176.111C439.243 176.544 439.515 176.935 439.857 177.259C440.199 177.583 440.604 177.835 441.046 177.997C441.489 178.16 441.96 178.231 442.43 178.206H463.64C464.527 178.158 465.362 177.772 465.973 177.127C466.584 176.483 466.924 175.629 466.924 174.741C466.924 173.852 466.584 172.998 465.973 172.354C465.362 171.709 464.527 171.323 463.64 171.276H461.19L461.09 170.656C461.007 170.095 460.807 169.559 460.504 169.08C460.201 168.601 459.801 168.191 459.33 167.876C458.86 167.561 458.329 167.347 457.771 167.249C457.213 167.151 456.64 167.17 456.09 167.306L455.56 167.436L455.29 166.956C454.628 165.759 453.587 164.817 452.331 164.278C451.075 163.738 449.675 163.632 448.352 163.976C447.028 164.319 445.857 165.093 445.022 166.176C444.187 167.259 443.736 168.588 443.74 169.956C443.74 170.136 443.74 170.316 443.74 170.496L443.81 171.286L442.43 171.276Z" fill="#243453"/>
<path d="M513.611 54.2962H492.401C491.755 54.3067 491.113 54.1898 490.512 53.9523C489.911 53.7147 489.363 53.3611 488.899 52.9117C488.434 52.4623 488.063 51.9258 487.806 51.3329C487.549 50.74 487.412 50.1023 487.401 49.4562C487.391 48.8101 487.507 48.1682 487.745 47.5673C487.982 46.9663 488.336 46.4181 488.786 45.9538C489.235 45.4895 489.771 45.1183 490.364 44.8613C490.957 44.6043 491.595 44.4667 492.241 44.4562C492.276 42.8287 492.831 41.2551 493.826 39.9661C494.82 38.6771 496.201 37.7404 497.766 37.2932C499.331 36.846 500.998 36.9118 502.524 37.481C504.049 38.0502 505.352 39.0928 506.241 40.4562C507.575 40.2591 508.935 40.5571 510.064 41.294C511.194 42.031 512.014 43.1558 512.371 44.4562H513.611C514.916 44.4562 516.167 44.9745 517.09 45.8972C518.013 46.8199 518.531 48.0713 518.531 49.3762C518.531 50.681 518.013 51.9325 517.09 52.8551C516.167 53.7778 514.916 54.2962 513.611 54.2962ZM492.401 45.9462C491.93 45.9209 491.459 45.9917 491.017 46.1545C490.575 46.3172 490.17 46.5683 489.828 46.8925C489.486 47.2168 489.213 47.6073 489.027 48.0403C488.841 48.4734 488.745 48.9398 488.745 49.4112C488.745 49.8825 488.841 50.349 489.027 50.782C489.213 51.215 489.486 51.6056 489.828 51.9298C490.17 52.2541 490.575 52.5052 491.017 52.6679C491.459 52.8306 491.93 52.9015 492.401 52.8762H513.611C514.082 52.9015 514.553 52.8306 514.995 52.6679C515.437 52.5052 515.842 52.2541 516.184 51.9298C516.526 51.6056 516.799 51.215 516.985 50.782C517.171 50.349 517.267 49.8825 517.267 49.4112C517.267 48.9398 517.171 48.4734 516.985 48.0403C516.799 47.6073 516.526 47.2168 516.184 46.8925C515.842 46.5683 515.437 46.3172 514.995 46.1545C514.553 45.9917 514.082 45.9209 513.611 45.9462H511.161L511.071 45.3362C510.987 44.7759 510.788 44.2392 510.484 43.7606C510.181 43.2819 509.782 42.8718 509.311 42.5565C508.841 42.2412 508.309 42.0276 507.751 41.9294C507.193 41.8311 506.621 41.8505 506.071 41.9862L505.531 42.1162L505.261 41.6262C504.597 40.435 503.556 39.498 502.302 38.962C501.048 38.426 499.651 38.3214 498.331 38.6645C497.011 39.0077 495.842 39.7792 495.008 40.8581C494.174 41.937 493.721 43.2623 493.721 44.6262C493.721 44.8062 493.721 44.9862 493.721 45.1562L493.791 45.9462H492.401Z" fill="#243453"/>
<path d="M551.262 53.0297C550.99 53.0276 550.729 52.9195 550.535 52.7283C550.344 52.5345 550.236 52.2731 550.236 52.0008C550.236 51.7285 550.344 51.4672 550.535 51.2734L560.365 41.4429C560.458 41.3367 560.572 41.2507 560.699 41.1903C560.827 41.1299 560.966 41.0964 561.107 41.0918C561.248 41.0873 561.388 41.1118 561.519 41.1638C561.651 41.2158 561.77 41.2943 561.869 41.3943C561.969 41.4943 562.047 41.6137 562.098 41.7451C562.149 41.8765 562.173 42.0171 562.168 42.1581C562.163 42.2991 562.129 42.4376 562.068 42.5648C562.007 42.6921 561.92 42.8054 561.814 42.8979L551.983 52.7283C551.792 52.9203 551.533 53.0287 551.262 53.0297Z" fill="#243453"/>
<path d="M544.282 47.0008C544.009 47.0008 543.748 46.8924 543.555 46.6994C543.362 46.5065 543.253 46.2448 543.253 45.9719V32.111C543.242 31.9694 543.26 31.827 543.306 31.6928C543.353 31.5585 543.427 31.4353 543.523 31.331C543.619 31.2266 543.736 31.1433 543.866 31.0864C543.996 31.0294 544.137 31 544.279 31C544.421 31 544.561 31.0294 544.692 31.0864C544.822 31.1433 544.939 31.2266 545.035 31.331C545.131 31.4353 545.205 31.5585 545.251 31.6928C545.298 31.827 545.316 31.9694 545.305 32.111V45.9719C545.305 46.1067 545.28 46.2403 545.229 46.3651C545.178 46.4899 545.102 46.6034 545.007 46.699C544.912 46.7947 544.799 46.8706 544.675 46.9223C544.55 46.9741 544.417 47.0008 544.282 47.0008Z" fill="#243453"/>
<path d="M571.14 59.9969H557.272C557.014 59.9763 556.774 59.8593 556.598 59.6692C556.423 59.4792 556.325 59.23 556.325 58.9713C556.325 58.7126 556.423 58.4634 556.598 58.2734C556.774 58.0833 557.014 57.9663 557.272 57.9457H571.14C571.281 57.9343 571.423 57.9524 571.558 57.9988C571.692 58.0452 571.815 58.119 571.92 58.2153C572.024 58.3116 572.107 58.4286 572.164 58.5587C572.221 58.6888 572.25 58.8293 572.25 58.9713C572.25 59.1133 572.221 59.2538 572.164 59.3839C572.107 59.5141 572.024 59.631 571.92 59.7273C571.815 59.8237 571.692 59.8973 571.558 59.9437C571.423 59.9902 571.281 60.0083 571.14 59.9969Z" fill="#243453"/>
<path d="M985.794 138.502L994.509 143.952L1040.35 108.596L985.794 138.502Z" fill="#243453"/>
<path d="M981.785 113.9L978.747 122.952L984.213 129.563L976.832 132.948L974.018 149.782L1041.87 107.652L981.785 113.9Z" fill="#2E4166"/>
<path d="M984.213 129.562L978.747 122.952L1019.24 114.103L984.213 129.562Z" fill="#243453"/>
<path d="M1000.29 205.129L998.588 205.586C998.452 205.621 998.31 205.629 998.171 205.61C998.032 205.59 997.898 205.544 997.776 205.472C997.655 205.401 997.55 205.306 997.465 205.193C997.381 205.081 997.32 204.953 997.285 204.816C997.248 204.68 997.238 204.538 997.256 204.398C997.275 204.258 997.322 204.123 997.393 204.002C997.465 203.88 997.561 203.774 997.674 203.691C997.788 203.607 997.917 203.546 998.054 203.513C1000.74 202.828 1003.4 202.082 1006.28 201.168L1006.33 201.155C1006.59 201.101 1006.87 201.148 1007.1 201.288C1007.33 201.428 1007.5 201.649 1007.57 201.909C1007.65 202.169 1007.62 202.447 1007.5 202.689C1007.38 202.93 1007.17 203.117 1006.92 203.212C1004.6 203.924 1002.47 204.545 1000.29 205.129ZM990.193 207.431L990.101 207.456C987.183 207.976 984.284 208.357 981.476 208.6C981.335 208.612 981.193 208.597 981.059 208.555C980.924 208.513 980.799 208.444 980.691 208.353C980.583 208.263 980.495 208.151 980.43 208.026C980.365 207.9 980.326 207.763 980.315 207.622C980.296 207.34 980.388 207.062 980.57 206.845C980.752 206.629 981.011 206.491 981.292 206.462C984.059 206.223 986.875 205.851 989.725 205.342C990.006 205.294 990.294 205.358 990.527 205.521C990.76 205.683 990.919 205.932 990.971 206.211C991.016 206.475 990.962 206.746 990.819 206.972C990.675 207.198 990.452 207.362 990.193 207.431ZM973.057 208.824C972.954 208.852 972.848 208.864 972.741 208.859C969.824 208.754 966.919 208.448 964.045 207.941C963.9 207.923 963.761 207.875 963.636 207.802C963.51 207.728 963.401 207.629 963.315 207.512C963.228 207.395 963.167 207.262 963.134 207.12C963.101 206.978 963.097 206.831 963.122 206.688C963.148 206.545 963.202 206.408 963.282 206.287C963.362 206.165 963.466 206.061 963.587 205.981C963.709 205.9 963.845 205.846 963.988 205.82C964.132 205.794 964.279 205.798 964.42 205.83C967.195 206.321 970.001 206.617 972.818 206.716C972.96 206.722 973.1 206.757 973.228 206.819C973.357 206.88 973.472 206.967 973.566 207.073C973.661 207.18 973.733 207.304 973.779 207.439C973.824 207.574 973.842 207.717 973.832 207.859C973.81 208.075 973.724 208.28 973.584 208.446C973.444 208.612 973.257 208.733 973.048 208.791L973.057 208.824ZM956.176 205.782C955.973 205.836 955.758 205.827 955.561 205.755C952.787 204.819 950.091 203.667 947.497 202.311C947.245 202.179 947.057 201.953 946.972 201.683C946.888 201.412 946.914 201.119 947.046 200.868C947.178 200.616 947.404 200.428 947.675 200.343C947.945 200.259 948.238 200.285 948.49 200.417C950.988 201.719 953.582 202.827 956.25 203.731C956.467 203.806 956.654 203.949 956.784 204.138C956.913 204.328 956.979 204.554 956.971 204.783C956.963 205.013 956.881 205.234 956.738 205.413C956.595 205.593 956.398 205.722 956.176 205.782ZM940.972 197.824C940.816 197.866 940.653 197.872 940.494 197.842C940.336 197.812 940.186 197.747 940.056 197.652C937.703 195.911 935.487 193.992 933.429 191.911C933.225 191.706 933.112 191.428 933.113 191.139C933.115 190.85 933.231 190.573 933.437 190.37C933.642 190.167 933.92 190.053 934.209 190.055C934.498 190.056 934.775 190.173 934.978 190.378C936.963 192.379 939.097 194.225 941.363 195.9C941.526 196.02 941.652 196.183 941.727 196.371C941.801 196.559 941.82 196.764 941.782 196.963C941.744 197.162 941.65 197.345 941.512 197.493C941.373 197.64 941.196 197.745 941 197.795L940.972 197.824ZM928.922 185.631C928.713 185.688 928.491 185.681 928.286 185.609C928.081 185.538 927.903 185.406 927.774 185.231C926.062 182.851 924.554 180.332 923.265 177.699C923.203 177.573 923.167 177.436 923.158 177.295C923.15 177.155 923.169 177.015 923.214 176.882C923.26 176.749 923.331 176.627 923.424 176.521C923.517 176.416 923.63 176.33 923.756 176.268C923.882 176.207 924.019 176.171 924.159 176.162C924.299 176.153 924.44 176.172 924.573 176.218C924.705 176.263 924.828 176.335 924.933 176.427C925.038 176.52 925.124 176.633 925.186 176.759C926.427 179.284 927.875 181.701 929.515 183.986C929.677 184.216 929.742 184.5 929.696 184.778C929.65 185.055 929.496 185.303 929.268 185.468C929.163 185.543 929.046 185.599 928.922 185.631ZM921.27 170.278C921.007 170.348 920.727 170.314 920.487 170.185C920.248 170.057 920.066 169.841 919.979 169.584C919.414 167.923 918.884 166.155 918.399 164.345L918.286 163.923C918.045 163.025 917.804 162.127 917.608 161.21C917.546 160.938 917.592 160.653 917.735 160.415C917.878 160.176 918.107 160.002 918.376 159.928L918.409 159.919C918.546 159.887 918.689 159.882 918.828 159.905C918.967 159.928 919.1 159.978 919.22 160.052C919.34 160.127 919.444 160.224 919.526 160.338C919.608 160.453 919.667 160.583 919.699 160.72C919.936 161.605 920.125 162.495 920.354 163.375L920.466 163.792C920.942 165.568 921.465 167.282 922.006 168.906C922.051 169.039 922.07 169.18 922.06 169.32C922.051 169.46 922.014 169.597 921.952 169.723C921.89 169.849 921.803 169.961 921.698 170.053C921.592 170.145 921.469 170.216 921.336 170.261L921.27 170.278Z" fill="#243453"/>
<path d="M925.567 151.504C923.982 151.929 922.43 152.344 920.884 152.702C920.609 152.776 920.316 152.737 920.07 152.595C919.823 152.453 919.643 152.218 919.57 151.943C919.496 151.668 919.535 151.375 919.677 151.129C919.819 150.882 920.054 150.702 920.329 150.629C923.018 149.979 925.776 149.24 928.603 148.412C928.737 148.363 928.88 148.344 929.022 148.356C929.164 148.367 929.303 148.409 929.428 148.478C929.553 148.547 929.661 148.642 929.747 148.756C929.832 148.87 929.892 149.001 929.923 149.141C929.963 149.276 929.976 149.417 929.961 149.557C929.946 149.697 929.903 149.832 929.836 149.956C929.768 150.079 929.677 150.188 929.567 150.276C929.457 150.364 929.331 150.429 929.196 150.468C928.013 150.834 926.782 151.178 925.567 151.504ZM937.46 147.949C937.195 148.007 936.919 147.963 936.685 147.826C936.452 147.688 936.279 147.468 936.201 147.208C936.124 146.949 936.147 146.67 936.267 146.427C936.387 146.184 936.594 145.995 936.847 145.898C939.487 145.028 942.212 144.079 944.953 143.082C945.088 143.022 945.233 142.99 945.381 142.989C945.528 142.987 945.675 143.016 945.81 143.074C945.946 143.131 946.069 143.216 946.17 143.323C946.272 143.43 946.35 143.557 946.401 143.696C946.451 143.834 946.472 143.982 946.463 144.129C946.454 144.276 946.414 144.42 946.347 144.551C946.279 144.683 946.186 144.799 946.072 144.892C945.957 144.986 945.825 145.055 945.683 145.095C942.924 146.103 940.179 147.058 937.518 147.927L937.46 147.949ZM912.497 154.496L912.411 154.519C909.474 155.073 906.584 155.515 903.835 155.848C903.553 155.88 903.27 155.798 903.048 155.622C902.825 155.445 902.682 155.188 902.649 154.906C902.619 154.625 902.7 154.343 902.874 154.121C903.048 153.899 903.302 153.753 903.582 153.715C906.285 153.394 909.121 152.938 912.024 152.415C912.293 152.374 912.567 152.435 912.792 152.588C913.016 152.741 913.175 152.973 913.235 153.238C913.295 153.503 913.253 153.781 913.116 154.015C912.979 154.25 912.759 154.425 912.499 154.503L912.497 154.496ZM953.638 142.057C953.378 142.116 953.106 142.076 952.873 141.945C952.641 141.813 952.466 141.601 952.383 141.347C952.299 141.094 952.312 140.819 952.421 140.575C952.529 140.332 952.724 140.137 952.967 140.029C955.57 138.992 958.218 137.914 960.902 136.756C961.031 136.701 961.171 136.671 961.312 136.669C961.453 136.667 961.593 136.693 961.724 136.746C961.855 136.798 961.974 136.876 962.075 136.974C962.176 137.073 962.257 137.19 962.313 137.32C962.368 137.449 962.398 137.589 962.4 137.73C962.401 137.871 962.375 138.011 962.323 138.142C962.271 138.273 962.193 138.392 962.095 138.493C961.996 138.594 961.879 138.675 961.749 138.73C959.042 139.88 956.38 140.983 953.755 142.019L953.638 142.057ZM895.405 156.529C895.332 156.555 895.257 156.575 895.18 156.589C893.079 156.67 890.962 156.693 888.979 156.637C888.131 156.616 887.293 156.579 886.467 156.531C886.181 156.514 885.913 156.384 885.723 156.169C885.533 155.955 885.435 155.674 885.453 155.388C885.47 155.101 885.6 154.834 885.814 154.644C886.029 154.453 886.31 154.356 886.596 154.373C887.401 154.42 888.218 154.456 889.039 154.483C890.985 154.535 893.018 154.514 895.091 154.433C895.354 154.423 895.611 154.511 895.813 154.678C896.016 154.846 896.15 155.082 896.19 155.342C896.23 155.602 896.173 155.868 896.03 156.089C895.887 156.309 895.668 156.47 895.415 156.54L895.405 156.529ZM878.265 155.424C878.106 155.463 877.941 155.469 877.781 155.44C874.901 154.895 872.072 154.109 869.324 153.092C869.183 153.05 869.052 152.979 868.94 152.884C868.827 152.79 868.736 152.673 868.67 152.541C868.605 152.409 868.567 152.266 868.56 152.119C868.552 151.972 868.575 151.825 868.626 151.687C868.678 151.55 868.757 151.424 868.859 151.318C868.961 151.213 869.084 151.129 869.22 151.072C869.356 151.016 869.501 150.988 869.648 150.99C869.796 150.993 869.94 151.025 870.074 151.086C872.712 152.059 875.425 152.811 878.186 153.336C878.43 153.376 878.653 153.499 878.817 153.685C878.98 153.87 879.075 154.106 879.084 154.353C879.094 154.6 879.018 154.843 878.869 155.04C878.721 155.238 878.508 155.378 878.268 155.437L878.265 155.424ZM913.673 144.938C913.537 144.976 913.396 144.986 913.256 144.968C913.117 144.95 912.982 144.905 912.86 144.835C912.738 144.765 912.631 144.672 912.545 144.561C912.459 144.449 912.397 144.322 912.36 144.186L912.261 143.816C911.562 141.208 910.74 138.562 909.838 136.015C909.744 135.748 909.76 135.453 909.882 135.198C910.005 134.942 910.224 134.745 910.492 134.651C910.759 134.557 911.053 134.573 911.309 134.695C911.565 134.818 911.762 135.037 911.856 135.305C912.784 137.922 913.615 140.601 914.328 143.262L914.427 143.632C914.463 143.769 914.471 143.912 914.451 144.053C914.431 144.193 914.383 144.328 914.31 144.45C914.237 144.571 914.141 144.677 914.027 144.761C913.912 144.845 913.783 144.906 913.645 144.939L913.673 144.938ZM862.305 149.296C862.161 149.335 862.011 149.344 861.863 149.321C861.716 149.298 861.575 149.245 861.449 149.165C858.957 147.574 856.663 145.691 854.617 143.557C854.513 143.457 854.43 143.337 854.373 143.204C854.316 143.07 854.287 142.927 854.287 142.782C854.287 142.638 854.317 142.495 854.374 142.362C854.431 142.228 854.514 142.108 854.618 142.008C854.723 141.908 854.846 141.83 854.982 141.779C855.117 141.728 855.261 141.705 855.406 141.711C855.551 141.717 855.692 141.752 855.823 141.815C855.954 141.877 856.07 141.965 856.166 142.074C858.096 144.085 860.258 145.86 862.608 147.361C862.726 147.437 862.829 147.535 862.909 147.65C862.99 147.765 863.047 147.895 863.077 148.032C863.107 148.169 863.11 148.311 863.085 148.45C863.061 148.588 863.009 148.72 862.933 148.838C862.783 149.071 862.547 149.236 862.277 149.297L862.305 149.296ZM907.838 128.709C907.594 128.774 907.335 128.751 907.106 128.644C906.876 128.537 906.692 128.354 906.584 128.125C905.412 125.546 904.088 123.039 902.619 120.617C902.546 120.497 902.497 120.364 902.475 120.225C902.453 120.087 902.458 119.945 902.491 119.808C902.524 119.672 902.583 119.543 902.665 119.429C902.748 119.316 902.852 119.219 902.972 119.146C903.092 119.072 903.225 119.023 903.363 119.001C903.502 118.979 903.644 118.985 903.78 119.017C903.917 119.05 904.046 119.11 904.159 119.192C904.273 119.275 904.369 119.379 904.443 119.498C905.958 121.992 907.325 124.573 908.538 127.227C908.654 127.485 908.665 127.779 908.566 128.045C908.468 128.311 908.269 128.528 908.013 128.648L907.838 128.709ZM850.449 137.009C850.223 137.069 849.983 137.054 849.766 136.965C849.549 136.876 849.368 136.719 849.249 136.517C849 136.083 848.756 135.646 848.515 135.206C847.745 133.79 847.143 132.288 846.722 130.732C846.485 129.848 846.315 128.948 846.212 128.038C846.188 127.894 846.194 127.747 846.229 127.605C846.263 127.464 846.327 127.331 846.415 127.214C846.503 127.098 846.613 127.001 846.74 126.929C846.867 126.856 847.007 126.811 847.152 126.795C847.297 126.779 847.443 126.792 847.583 126.834C847.722 126.877 847.852 126.947 847.963 127.041C848.075 127.135 848.166 127.251 848.231 127.381C848.296 127.512 848.334 127.654 848.342 127.8C848.431 128.607 848.581 129.407 848.792 130.192C849.171 131.573 849.709 132.906 850.395 134.165C850.621 134.585 850.853 135.004 851.085 135.395C851.158 135.516 851.207 135.65 851.227 135.79C851.248 135.929 851.24 136.072 851.205 136.208C851.17 136.345 851.107 136.473 851.022 136.585C850.937 136.698 850.829 136.792 850.707 136.862C850.635 136.917 850.557 136.961 850.474 136.996L850.449 137.009ZM898.807 114.101C898.612 114.153 898.406 114.148 898.214 114.088C898.021 114.029 897.85 113.916 897.718 113.763C895.918 111.632 893.877 109.716 891.638 108.053C891.522 107.97 891.425 107.866 891.35 107.746C891.275 107.625 891.225 107.491 891.202 107.352C891.179 107.212 891.184 107.069 891.216 106.931C891.248 106.793 891.307 106.663 891.39 106.548C891.473 106.433 891.577 106.335 891.697 106.261C891.818 106.186 891.951 106.136 892.091 106.113C892.231 106.09 892.374 106.094 892.512 106.127C892.65 106.159 892.78 106.218 892.895 106.3C895.268 108.066 897.43 110.099 899.338 112.359C899.43 112.465 899.5 112.589 899.545 112.722C899.589 112.856 899.606 112.997 899.596 113.137C899.586 113.277 899.547 113.414 899.484 113.54C899.42 113.665 899.333 113.777 899.226 113.868C899.105 113.976 898.961 114.053 898.805 114.094L898.807 114.101ZM848.816 120.532C848.581 120.603 848.329 120.593 848.1 120.504C847.838 120.395 847.629 120.186 847.52 119.924C847.411 119.661 847.411 119.366 847.52 119.103C848.688 116.329 850.365 113.799 852.463 111.642C852.557 111.529 852.673 111.437 852.804 111.37C852.935 111.304 853.078 111.266 853.225 111.257C853.371 111.248 853.518 111.269 853.656 111.32C853.794 111.37 853.92 111.448 854.027 111.549C854.133 111.65 854.218 111.772 854.276 111.906C854.333 112.041 854.363 112.187 854.362 112.334C854.361 112.48 854.33 112.625 854.271 112.76C854.212 112.894 854.126 113.015 854.019 113.115C852.093 115.082 850.552 117.391 849.474 119.924C849.414 120.067 849.325 120.195 849.211 120.3C849.097 120.405 848.963 120.484 848.816 120.532ZM884.951 104.254C884.749 104.308 884.537 104.303 884.338 104.241C881.724 103.385 878.983 102.98 876.233 103.044C876.079 103.074 875.92 103.069 875.768 103.031C875.616 102.993 875.474 102.922 875.353 102.824C875.231 102.725 875.132 102.601 875.064 102.46C874.995 102.319 874.958 102.165 874.955 102.008C874.953 101.851 874.984 101.696 875.048 101.553C875.112 101.41 875.207 101.282 875.325 101.18C875.443 101.077 875.583 101.001 875.733 100.958C875.884 100.915 876.042 100.905 876.197 100.93C879.186 100.86 882.165 101.302 885.004 102.236C885.224 102.307 885.415 102.447 885.548 102.636C885.681 102.825 885.75 103.052 885.743 103.282C885.736 103.513 885.655 103.736 885.511 103.916C885.367 104.097 885.168 104.226 884.944 104.283L884.951 104.254ZM860.26 108.038C860.012 108.101 859.75 108.073 859.521 107.96C859.292 107.846 859.111 107.655 859.01 107.42C858.91 107.185 858.896 106.922 858.973 106.678C859.049 106.434 859.21 106.225 859.426 106.089C861.868 104.599 864.463 103.374 867.167 102.437L867.477 102.354C867.75 102.292 868.036 102.332 868.281 102.468C868.526 102.603 868.713 102.823 868.806 103.087C868.846 103.222 868.859 103.364 868.844 103.504C868.829 103.643 868.786 103.779 868.719 103.902C868.651 104.026 868.56 104.135 868.45 104.222C868.34 104.31 868.214 104.376 868.079 104.415L867.848 104.477C865.299 105.362 862.851 106.516 860.546 107.919C860.459 107.976 860.363 108.019 860.261 108.045L860.26 108.038Z" fill="#243453"/>
<path d="M283.158 43H327.863C330.551 43 333.13 44.068 335.031 45.9691C336.932 47.8702 338 50.4486 338 53.1371V76.1963C338 78.8848 336.932 81.4632 335.031 83.3643C333.13 85.2654 330.551 86.3334 327.863 86.3334H298.631L288.094 95.5688V86.2907H283.137C280.449 86.2907 277.87 85.2227 275.969 83.3216C274.068 81.4205 273 78.8421 273 76.1536V53.1104C273.007 50.4228 274.081 47.848 275.986 45.9521C277.891 44.0562 280.471 42.9944 283.158 43Z" fill="#243453"/>
<path d="M289.661 57.2725H321.358C321.695 57.2725 322.018 57.1387 322.256 56.9006C322.494 56.6625 322.628 56.3395 322.628 56.0027C322.628 55.6659 322.494 55.343 322.256 55.1048C322.018 54.8667 321.695 54.7329 321.358 54.7329H289.661C289.325 54.7329 289.002 54.8667 288.764 55.1048C288.525 55.343 288.392 55.6659 288.392 56.0027C288.392 56.3395 288.525 56.6625 288.764 56.9006C289.002 57.1387 289.325 57.2725 289.661 57.2725Z" fill="#2E4268"/>
<path d="M289.661 65.7227H321.358C321.695 65.7227 322.018 65.5889 322.256 65.3508C322.494 65.1127 322.628 64.7897 322.628 64.4529C322.628 64.1161 322.494 63.7932 322.256 63.555C322.018 63.3169 321.695 63.1831 321.358 63.1831H289.661C289.325 63.1831 289.002 63.3169 288.764 63.555C288.525 63.7932 288.392 64.1161 288.392 64.4529C288.392 64.7897 288.525 65.1127 288.764 65.3508C289.002 65.5889 289.325 65.7227 289.661 65.7227Z" fill="#2E4268"/>
<path d="M316.708 74.1749H321.361C321.697 74.1749 322.02 74.0411 322.259 73.8029C322.497 73.5648 322.63 73.2418 322.63 72.9051C322.63 72.5683 322.497 72.2453 322.259 72.0072C322.02 71.769 321.697 71.6353 321.361 71.6353H316.708C316.372 71.6353 316.049 71.769 315.81 72.0072C315.572 72.2453 315.438 72.5683 315.438 72.9051C315.438 73.2418 315.572 73.5648 315.81 73.8029C316.049 74.0411 316.372 74.1749 316.708 74.1749Z" fill="#2E4268"/>
<path d="M306.145 74.1749H310.792C311.129 74.1749 311.452 74.0411 311.69 73.8029C311.928 73.5648 312.062 73.2418 312.062 72.9051C312.062 72.5683 311.928 72.2453 311.69 72.0072C311.452 71.769 311.129 71.6353 310.792 71.6353H306.145C305.808 71.6353 305.485 71.769 305.247 72.0072C305.009 72.2453 304.875 72.5683 304.875 72.9051C304.875 73.2418 305.009 73.5648 305.247 73.8029C305.485 74.0411 305.808 74.1749 306.145 74.1749Z" fill="#2E4268"/>
<path d="M289.661 74.1749H300.225C300.562 74.1749 300.885 74.0411 301.123 73.8029C301.361 73.5648 301.495 73.2418 301.495 72.9051C301.495 72.5683 301.361 72.2453 301.123 72.0072C300.885 71.769 300.562 71.6353 300.225 71.6353H289.661C289.325 71.6353 289.002 71.769 288.764 72.0072C288.525 72.2453 288.392 72.5683 288.392 72.9051C288.392 73.2418 288.525 73.5648 288.764 73.8029C289.002 74.0411 289.325 74.1749 289.661 74.1749Z" fill="#2E4268"/>
<path d="M1303.5 175H1263.69C1261.81 175 1260.01 175.747 1258.68 177.076C1257.35 178.405 1256.6 180.207 1256.6 182.087V205.048C1256.6 206.837 1257.28 208.56 1258.5 209.87C1259.71 211.18 1261.38 211.98 1263.17 212.111L1255 225.546L1276.63 212.123H1303.52C1305.4 212.123 1307.21 211.376 1308.53 210.047C1309.86 208.718 1310.61 206.916 1310.61 205.036V182.075C1310.61 181.143 1310.42 180.221 1310.06 179.361C1309.71 178.501 1309.18 177.72 1308.52 177.063C1307.86 176.405 1307.08 175.885 1306.22 175.531C1305.35 175.177 1304.43 174.997 1303.5 175Z" fill="#243453"/>
<path d="M1286.94 191.323C1288.78 189.483 1288.78 186.501 1286.94 184.662C1285.1 182.822 1282.11 182.822 1280.27 184.662C1278.44 186.501 1278.44 189.483 1280.27 191.323C1282.11 193.162 1285.1 193.162 1286.94 191.323Z" fill="#2E4268" stroke="#2E4268" stroke-width="2.76" stroke-linecap="round" stroke-linejoin="round"/>
<path d="M1294.72 203.845H1272.46C1272.46 202.907 1272.65 201.978 1273 201.112C1273.36 200.245 1273.89 199.457 1274.55 198.794C1275.21 198.131 1276 197.605 1276.87 197.245C1277.73 196.886 1278.66 196.702 1279.6 196.702H1287.6C1289.49 196.707 1291.3 197.462 1292.64 198.801C1293.97 200.14 1294.72 201.954 1294.72 203.845Z" fill="#2E4268" stroke="#2E4268" stroke-width="2.76" stroke-linecap="round" stroke-linejoin="round"/>
<path d="M1396.04 86C1394.46 86.0003 1392.88 85.8382 1391.34 85.5165C1391.19 85.4863 1391.04 85.4267 1390.92 85.3411C1390.79 85.2554 1390.68 85.1455 1390.6 85.0175C1390.51 84.8896 1390.45 84.7462 1390.43 84.5956C1390.4 84.445 1390.4 84.2903 1390.43 84.1403C1390.5 83.8397 1390.68 83.5767 1390.93 83.4072C1391.19 83.2378 1391.5 83.1752 1391.81 83.2327C1394.21 83.7302 1396.69 83.7981 1399.13 83.4336C1399.28 83.4106 1399.43 83.4178 1399.58 83.4547C1399.73 83.4916 1399.87 83.5576 1399.99 83.6487C1400.12 83.7399 1400.22 83.8546 1400.3 83.9861C1400.38 84.1177 1400.43 84.2636 1400.46 84.4155C1400.48 84.5674 1400.47 84.7224 1400.44 84.8715C1400.4 85.0206 1400.33 85.161 1400.24 85.2847C1400.15 85.4083 1400.04 85.5128 1399.9 85.5921C1399.77 85.6715 1399.63 85.7241 1399.48 85.7471C1398.34 85.914 1397.19 85.9985 1396.04 86ZM1406.62 83.2773C1406.37 83.2762 1406.12 83.1897 1405.91 83.0313C1405.71 82.8729 1405.56 82.6515 1405.5 82.4017C1405.43 82.1519 1405.45 81.8878 1405.56 81.6506C1405.66 81.4133 1405.83 81.2163 1406.06 81.0903C1408.21 79.8948 1410.13 78.3311 1411.73 76.4707C1411.94 76.2359 1412.22 76.0911 1412.53 76.0681C1412.84 76.0451 1413.15 76.1457 1413.38 76.348C1413.62 76.5502 1413.76 76.8374 1413.78 77.1464C1413.81 77.4554 1413.71 77.7609 1413.51 77.9957C1411.72 80.0668 1409.58 81.8048 1407.19 83.1286C1407.02 83.2262 1406.82 83.2775 1406.62 83.2773ZM1384.4 82.6525C1384.19 82.6531 1383.97 82.5912 1383.79 82.4739C1381.47 81.0149 1379.44 79.1589 1377.77 76.9914C1377.6 76.7456 1377.53 76.4431 1377.57 76.1464C1377.62 75.8498 1377.77 75.5819 1378.01 75.3982C1378.25 75.2145 1378.55 75.1292 1378.84 75.1599C1379.14 75.1906 1379.42 75.335 1379.61 75.5632C1381.11 77.517 1382.94 79.1875 1385.02 80.4952C1385.24 80.6297 1385.4 80.8303 1385.49 81.0667C1385.58 81.3031 1385.59 81.5625 1385.52 81.8059C1385.45 82.0493 1385.31 82.2635 1385.11 82.4162C1384.9 82.5689 1384.66 82.6518 1384.4 82.6525ZM1416.55 71.7395C1416.41 71.7402 1416.27 71.715 1416.15 71.6652C1416 71.613 1415.87 71.5329 1415.76 71.4297C1415.65 71.3265 1415.56 71.2022 1415.49 71.0639C1415.43 70.9255 1415.39 70.776 1415.39 70.6238C1415.38 70.4717 1415.41 70.3199 1415.46 70.1774C1416.31 67.8694 1416.75 65.4289 1416.75 62.969C1416.77 62.6763 1416.9 62.4032 1417.12 62.204C1417.34 62.0048 1417.62 61.8943 1417.91 61.8943C1418.21 61.8943 1418.49 62.0048 1418.7 62.204C1418.92 62.4032 1419.05 62.6763 1419.08 62.969C1419.08 65.7064 1418.59 68.4223 1417.64 70.9882C1417.56 71.2102 1417.41 71.4012 1417.21 71.5356C1417.02 71.6699 1416.78 71.7411 1416.55 71.7395ZM1375.13 70.5791C1374.89 70.5789 1374.64 70.4986 1374.44 70.35C1374.24 70.2013 1374.09 69.9922 1374.02 69.7533C1373.34 67.5533 1373 65.2638 1373 62.9616C1373 62.5301 1373 62.0987 1373.04 61.6746C1373.07 61.3708 1373.21 61.0892 1373.44 60.8854C1373.66 60.6816 1373.96 60.5704 1374.26 60.5737C1374.57 60.591 1374.86 60.7299 1375.07 60.9599C1375.28 61.19 1375.38 61.4925 1375.37 61.8011C1375.37 62.1879 1375.37 62.545 1375.37 62.9616C1375.37 65.0315 1375.67 67.0898 1376.28 69.0689C1376.33 69.2154 1376.35 69.3704 1376.34 69.5248C1376.33 69.6792 1376.29 69.83 1376.22 69.9685C1376.15 70.1069 1376.05 70.2302 1375.94 70.3312C1375.82 70.4322 1375.68 70.5088 1375.54 70.5567C1375.41 70.589 1375.27 70.5965 1375.13 70.5791ZM1417.28 58.8553C1417.02 58.856 1416.76 58.7691 1416.56 58.6086C1416.35 58.448 1416.21 58.2231 1416.15 57.9701C1415.56 55.5788 1414.55 53.3115 1413.17 51.275C1413.01 51.0194 1412.96 50.7123 1413.02 50.4178C1413.08 50.1233 1413.25 49.8641 1413.5 49.6943C1413.75 49.5245 1414.06 49.4571 1414.35 49.5063C1414.65 49.5555 1414.92 49.7174 1415.1 49.9583C1416.64 52.2198 1417.77 54.739 1418.43 57.3972C1418.47 57.569 1418.47 57.7474 1418.43 57.9196C1418.39 58.0918 1418.32 58.2533 1418.21 58.3924C1418.1 58.5315 1417.96 58.6445 1417.81 58.7233C1417.65 58.8021 1417.48 58.8447 1417.3 58.8478L1417.28 58.8553ZM1375.98 55.3813C1375.82 55.3816 1375.67 55.3486 1375.52 55.2846C1375.38 55.2239 1375.25 55.1361 1375.15 55.0261C1375.04 54.9161 1374.96 54.7862 1374.9 54.6438C1374.85 54.5013 1374.82 54.3492 1374.82 54.1962C1374.82 54.0432 1374.86 53.8923 1374.92 53.7522C1376.01 51.2435 1377.55 48.9509 1379.45 46.9827C1379.56 46.8728 1379.68 46.7849 1379.82 46.7239C1379.96 46.6629 1380.11 46.6301 1380.27 46.6274C1380.42 46.6246 1380.57 46.6519 1380.71 46.7078C1380.85 46.7637 1380.98 46.847 1381.09 46.953C1381.2 47.059 1381.29 47.1855 1381.35 47.3255C1381.41 47.4655 1381.45 47.6161 1381.45 47.7688C1381.45 47.9215 1381.42 48.0732 1381.37 48.2153C1381.31 48.3574 1381.23 48.4871 1381.12 48.597C1379.42 50.3678 1378.04 52.4283 1377.05 54.682C1376.96 54.8902 1376.81 55.0672 1376.62 55.1914C1376.43 55.3156 1376.21 55.3816 1375.98 55.3813ZM1408.71 46.2834C1408.47 46.2861 1408.23 46.2105 1408.04 46.0677C1406.03 44.6435 1403.79 43.5903 1401.42 42.9583C1401.16 42.8469 1400.95 42.6465 1400.83 42.3937C1400.71 42.1409 1400.68 41.8527 1400.75 41.5817C1400.83 41.3107 1400.99 41.0752 1401.23 40.9181C1401.46 40.7611 1401.74 40.6931 1402.02 40.7266C1404.65 41.4241 1407.14 42.5854 1409.37 44.1559C1409.57 44.2978 1409.73 44.5012 1409.81 44.7363C1409.88 44.9715 1409.89 45.2259 1409.81 45.4623C1409.74 45.6987 1409.59 45.9045 1409.38 46.0497C1409.18 46.1948 1408.94 46.2715 1408.69 46.2686L1408.71 46.2834ZM1386.57 44.4163C1386.3 44.4219 1386.04 44.3344 1385.83 44.1687C1385.61 44.003 1385.46 43.7692 1385.41 43.5068C1385.35 43.2444 1385.38 42.9695 1385.5 42.7286C1385.62 42.4877 1385.82 42.2955 1386.06 42.1846C1388.53 40.9982 1391.19 40.2601 1393.91 40.005C1394.06 39.9908 1394.22 40.0069 1394.36 40.0523C1394.51 40.0978 1394.65 40.1716 1394.77 40.2697C1394.88 40.3678 1394.98 40.4882 1395.05 40.624C1395.12 40.7598 1395.17 40.9084 1395.18 41.0613C1395.2 41.2142 1395.18 41.3684 1395.14 41.515C1395.09 41.6617 1395.02 41.798 1394.92 41.9161C1394.82 42.0342 1394.7 42.1319 1394.56 42.2035C1394.43 42.2751 1394.28 42.3192 1394.13 42.3334C1391.68 42.5549 1389.29 43.2177 1387.07 44.2898C1386.91 44.3711 1386.73 44.4144 1386.55 44.4163H1386.57Z" fill="#243453"/>
<path d="M1409.41 58.8101H1382.3V74.1864H1409.41V58.8101Z" fill="#2E4062"/>
<path d="M1405.75 55.6793V71.6805H1387.26V55.6793C1387.26 55.0144 1387.52 54.3768 1388 53.9066C1388.47 53.4365 1389.1 53.1724 1389.77 53.1724H1408.05L1407.54 53.2765C1407.02 53.4304 1406.57 53.7474 1406.24 54.1804C1405.92 54.6134 1405.75 55.1391 1405.75 55.6793Z" fill="#394B6D"/>
<path d="M1392.51 55.7676H1388.41V59.978H1392.51V55.7676Z" fill="#243453"/>
<path d="M1393.76 55.7461H1404.18" stroke="#243453" stroke-width="0.66" stroke-linecap="round" stroke-linejoin="round"/>
<path d="M1393.76 57.166H1404.18" stroke="#243453" stroke-width="0.66" stroke-linecap="round" stroke-linejoin="round"/>
<path d="M1393.76 58.5801H1404.18" stroke="#243453" stroke-width="0.66" stroke-linecap="round" stroke-linejoin="round"/>
<path d="M1393.86 60.001H1404.28" stroke="#243453" stroke-width="0.66" stroke-linecap="round" stroke-linejoin="round"/>
<path d="M1388.41 61.3994H1404.19" stroke="#243453" stroke-width="0.66" stroke-linecap="round" stroke-linejoin="round"/>
<path d="M1388.41 62.813H1404.19" stroke="#243453" stroke-width="0.66" stroke-linecap="round" stroke-linejoin="round"/>
<path d="M1388.41 64.1963H1404.19" stroke="#243453" stroke-width="0.66" stroke-linecap="round" stroke-linejoin="round"/>
<path d="M1388.41 65.6172H1396.08" stroke="#243453" stroke-width="0.66" stroke-linecap="round" stroke-linejoin="round"/>
<path d="M1405.7 57.5986V55.7165C1405.7 55.0497 1405.96 54.4101 1406.43 53.9386C1406.9 53.4671 1407.54 53.2021 1408.21 53.2021C1408.54 53.2021 1408.87 53.2672 1409.17 53.3937C1409.48 53.5201 1409.75 53.7055 1409.98 53.939C1410.22 54.1726 1410.4 54.4499 1410.53 54.7549C1410.65 55.0599 1410.72 55.3867 1410.72 55.7165V58.8334H1405.7" fill="#243453"/>
<path d="M1402.76 74.1868H1382.3V58.8105L1402.76 74.1868Z" fill="#243453"/>
<path d="M1388.96 74.1868H1409.42V58.8105L1388.96 74.1868Z" fill="#243453"/>
<path d="M1409.41 74.1873H1382.3L1394.48 67.6856C1394.88 67.4061 1395.36 67.2563 1395.86 67.2563C1396.35 67.2563 1396.83 67.4061 1397.24 67.6856L1409.41 74.1873Z" fill="#243453"/>
<path d="M43.0385 237C41.4589 237 39.8835 236.838 38.337 236.516C38.1868 236.486 38.0439 236.427 37.9168 236.341C37.7897 236.255 37.6808 236.145 37.5964 236.018C37.512 235.89 37.4538 235.746 37.4252 235.596C37.3965 235.445 37.398 235.29 37.4295 235.14C37.4957 234.84 37.6764 234.577 37.9334 234.407C38.1904 234.238 38.5033 234.175 38.8057 234.233C41.2148 234.73 43.6928 234.798 46.1256 234.434C46.2775 234.411 46.4325 234.418 46.5816 234.455C46.7307 234.492 46.8711 234.558 46.9948 234.649C47.1184 234.74 47.2229 234.855 47.3022 234.986C47.3816 235.118 47.4342 235.264 47.4571 235.416C47.4801 235.567 47.473 235.722 47.436 235.871C47.3991 236.021 47.3332 236.161 47.242 236.285C47.1508 236.408 47.0361 236.513 46.9046 236.592C46.773 236.671 46.6272 236.724 46.4752 236.747C45.3372 236.914 44.1887 236.999 43.0385 237ZM53.6241 234.277C53.3661 234.276 53.1157 234.19 52.912 234.031C52.7084 233.873 52.5629 233.652 52.4984 233.402C52.4338 233.152 52.4538 232.888 52.5551 232.651C52.6565 232.413 52.8336 232.216 53.0587 232.09C55.2066 230.895 57.1278 229.331 58.7346 227.471C58.9368 227.236 59.224 227.091 59.533 227.068C59.8421 227.045 60.1475 227.146 60.3823 227.348C60.6171 227.55 60.7619 227.837 60.785 228.146C60.808 228.455 60.7073 228.761 60.5051 228.996C58.7202 231.067 56.5818 232.805 54.1894 234.129C54.017 234.226 53.8222 234.277 53.6241 234.277ZM31.4039 233.652C31.1853 233.653 30.971 233.591 30.7865 233.474C28.4734 232.015 26.4361 230.159 24.7684 227.991C24.5963 227.746 24.5255 227.443 24.5705 227.146C24.6155 226.85 24.773 226.582 25.0102 226.398C25.2475 226.215 25.5463 226.129 25.8447 226.16C26.1432 226.191 26.4184 226.335 26.6132 226.563C28.1068 228.517 29.9385 230.187 32.0213 231.495C32.2358 231.63 32.4008 231.83 32.4914 232.067C32.5819 232.303 32.5933 232.563 32.5236 232.806C32.4539 233.049 32.307 233.263 32.1051 233.416C31.9032 233.569 31.6571 233.652 31.4039 233.652ZM63.5476 222.74C63.4102 222.74 63.2739 222.715 63.1459 222.665C63.0029 222.613 62.8716 222.533 62.7597 222.43C62.6477 222.327 62.5574 222.202 62.4937 222.064C62.4301 221.926 62.3945 221.776 62.3889 221.624C62.3834 221.472 62.4081 221.32 62.4615 221.177C63.3128 218.869 63.7485 216.429 63.7485 213.969C63.7719 213.676 63.9047 213.403 64.1205 213.204C64.3362 213.005 64.619 212.894 64.9127 212.894C65.2063 212.894 65.4892 213.005 65.7049 213.204C65.9207 213.403 66.0534 213.676 66.0769 213.969C66.0808 216.706 65.5946 219.422 64.6411 221.988C64.5575 222.21 64.4079 222.401 64.2124 222.536C64.0168 222.67 63.7848 222.741 63.5476 222.74ZM22.135 221.579C21.8851 221.579 21.6419 221.499 21.4411 221.35C21.2402 221.201 21.0924 220.992 21.0191 220.753C20.341 218.553 19.9975 216.264 20 213.962C20 213.53 20 213.099 20.0372 212.675C20.067 212.371 20.2096 212.089 20.4368 211.885C20.664 211.682 20.9594 211.57 21.2646 211.574C21.5732 211.591 21.8623 211.73 22.0687 211.96C22.2751 212.19 22.3818 212.492 22.3656 212.801C22.3656 213.188 22.3656 213.545 22.3656 213.962C22.3661 216.031 22.6744 218.09 23.2806 220.069C23.3306 220.215 23.351 220.37 23.3405 220.525C23.3301 220.679 23.2891 220.83 23.2199 220.968C23.1506 221.107 23.0546 221.23 22.9374 221.331C22.8201 221.432 22.6838 221.509 22.5367 221.557C22.4053 221.589 22.2691 221.597 22.135 221.579ZM64.2766 209.855C64.0162 209.856 63.763 209.769 63.5579 209.609C63.3528 209.448 63.2077 209.223 63.1459 208.97C62.561 206.579 61.5533 204.311 60.1703 202.275C60.0115 202.019 59.9574 201.712 60.0195 201.418C60.0815 201.123 60.2548 200.864 60.5033 200.694C60.7518 200.524 61.0563 200.457 61.3532 200.506C61.6501 200.556 61.9166 200.717 62.097 200.958C63.6419 203.22 64.7705 205.739 65.4297 208.397C65.4696 208.569 65.4707 208.747 65.4328 208.92C65.3948 209.092 65.3189 209.253 65.2105 209.392C65.1021 209.531 64.964 209.645 64.8063 209.723C64.6486 209.802 64.4752 209.845 64.2989 209.848L64.2766 209.855ZM22.983 206.381C22.8242 206.382 22.6671 206.349 22.5218 206.285C22.3813 206.224 22.2542 206.136 22.1477 206.026C22.0413 205.916 21.9577 205.786 21.9017 205.644C21.8457 205.501 21.8184 205.349 21.8214 205.196C21.8244 205.043 21.8577 204.892 21.9193 204.752C23.0135 202.244 24.5478 199.951 26.4496 197.983C26.5556 197.873 26.6822 197.785 26.8222 197.724C26.9621 197.663 27.1128 197.63 27.2654 197.627C27.4181 197.625 27.5698 197.652 27.7119 197.708C27.854 197.764 27.9837 197.847 28.0936 197.953C28.2035 198.059 28.2914 198.186 28.3524 198.326C28.4134 198.466 28.4462 198.616 28.449 198.769C28.4517 198.921 28.4244 199.073 28.3685 199.215C28.3126 199.357 28.2293 199.487 28.1233 199.597C26.4167 201.368 25.0388 203.428 24.0542 205.682C23.9631 205.89 23.8131 206.067 23.6229 206.191C23.4326 206.316 23.2103 206.382 22.983 206.381ZM55.7144 197.283C55.4714 197.286 55.234 197.211 55.0374 197.068C53.0344 195.643 50.792 194.59 48.4168 193.958C48.1591 193.847 47.9502 193.647 47.8282 193.394C47.7062 193.141 47.6793 192.853 47.7525 192.582C47.8257 192.311 47.994 192.075 48.2266 191.918C48.4592 191.761 48.7407 191.693 49.0194 191.727C51.6535 192.424 54.1423 193.585 56.369 195.156C56.5727 195.298 56.7256 195.501 56.8051 195.736C56.8846 195.971 56.8867 196.226 56.8109 196.462C56.7352 196.699 56.5856 196.905 56.3843 197.05C56.1829 197.195 55.9403 197.272 55.6921 197.269L55.7144 197.283ZM33.5686 195.416C33.2997 195.422 33.037 195.334 32.825 195.169C32.6131 195.003 32.4648 194.769 32.4053 194.507C32.3458 194.244 32.3788 193.97 32.4986 193.729C32.6184 193.488 32.8177 193.296 33.0628 193.185C35.5288 191.998 38.1863 191.26 40.9109 191.005C41.0638 190.991 41.2179 191.007 41.3646 191.052C41.5113 191.098 41.6476 191.172 41.7657 191.27C41.8838 191.368 41.9815 191.488 42.0531 191.624C42.1247 191.76 42.1688 191.908 42.183 192.061C42.1971 192.214 42.181 192.368 42.1356 192.515C42.0902 192.662 42.0163 192.798 41.9183 192.916C41.8202 193.034 41.6998 193.132 41.5639 193.203C41.4281 193.275 41.2795 193.319 41.1266 193.333C38.6772 193.555 36.288 194.218 34.0745 195.29C33.9102 195.371 33.7297 195.414 33.5464 195.416H33.5686Z" fill="#243453"/>
<path d="M56.4138 209.81H29.2988V225.186H56.4138V209.81Z" fill="#2E4062"/>
<path d="M52.7466 206.679V222.68H34.2607V206.679C34.2607 206.014 34.5249 205.377 34.995 204.907C35.4652 204.436 36.1028 204.172 36.7677 204.172H55.0452L54.5393 204.277C54.0215 204.43 53.5672 204.747 53.2442 205.18C52.9211 205.613 52.7466 206.139 52.7466 206.679Z" fill="#394B6D"/>
<path d="M39.5061 206.768H35.4072V210.978H39.5061V206.768Z" fill="#243453"/>
<path d="M40.7627 206.746H51.1847" stroke="#243453" stroke-width="0.66" stroke-linecap="round" stroke-linejoin="round"/>
<path d="M40.7627 208.166H51.1847" stroke="#243453" stroke-width="0.66" stroke-linecap="round" stroke-linejoin="round"/>
<path d="M40.7627 209.58H51.1847" stroke="#243453" stroke-width="0.66" stroke-linecap="round" stroke-linejoin="round"/>
<path d="M40.8594 211.001H51.2813" stroke="#243453" stroke-width="0.66" stroke-linecap="round" stroke-linejoin="round"/>
<path d="M35.4072 212.399H51.1852" stroke="#243453" stroke-width="0.66" stroke-linecap="round" stroke-linejoin="round"/>
<path d="M35.4072 213.813H51.1852" stroke="#243453" stroke-width="0.66" stroke-linecap="round" stroke-linejoin="round"/>
<path d="M35.4072 215.196H51.1852" stroke="#243453" stroke-width="0.66" stroke-linecap="round" stroke-linejoin="round"/>
<path d="M35.4072 216.617H43.0768" stroke="#243453" stroke-width="0.66" stroke-linecap="round" stroke-linejoin="round"/>
<path d="M52.6953 208.599V206.717C52.6953 206.05 52.9602 205.41 53.4318 204.939C53.9033 204.467 54.5428 204.202 55.2097 204.202C55.5395 204.202 55.8661 204.267 56.1707 204.394C56.4754 204.52 56.7521 204.705 56.985 204.939C57.2179 205.173 57.4024 205.45 57.5279 205.755C57.6535 206.06 57.7176 206.387 57.7166 206.717V209.833H52.6953" fill="#243453"/>
<path d="M49.7559 225.187H29.2988V209.811L49.7559 225.187Z" fill="#243453"/>
<path d="M35.958 225.187H56.4151V209.811L35.958 225.187Z" fill="#243453"/>
<path d="M56.4138 225.187H29.2988L41.4764 218.686C41.8822 218.406 42.3635 218.256 42.8563 218.256C43.3491 218.256 43.8304 218.406 44.2362 218.686L56.4138 225.187Z" fill="#243453"/>
</g>
</svg>
