<svg width="1170" height="567" viewBox="0 0 1170 567" fill="none" xmlns="http://www.w3.org/2000/svg">
<mask id="mask0" mask-type="alpha" maskUnits="userSpaceOnUse" x="0" y="0" width="1170" height="567">
<rect width="1170" height="567" fill="#C4C4C4"/>
</mask>
<g mask="url(#mask0)">
<path d="M809.475 700.546L676.299 459.497L309.034 557.388L809.475 700.546Z" fill="#33415C"/>
<path d="M825.82 296.382L676.306 459.499L309.041 557.39L825.82 296.382Z" fill="#15223C"/>
<path d="M825.813 296.38L676.299 459.497L809.475 700.546L825.813 296.38Z" fill="#1D3053"/>
<path d="M899.202 512.454L845.255 414.809L696.482 454.463L899.202 512.454Z" fill="#1C2B49"/>
<path d="M905.818 348.732L845.253 414.808L696.48 454.462L905.818 348.732Z" fill="#15223C"/>
<path d="M905.82 348.733L845.255 414.809L899.202 512.454L905.82 348.733Z" fill="#1D3053"/>
<path d="M503.188 231.875L383.407 314.659L454.665 502.026L503.188 231.875Z" fill="#1C2B49"/>
<path d="M289.489 244.995L383.406 314.656L454.664 502.022L289.489 244.995Z" fill="#15223C"/>
<path d="M289.49 244.998L383.407 314.659L503.188 231.875L289.49 244.998Z" fill="#1D3053"/>
<path d="M798.402 412.58L524.988 376.361L385.794 729.393L798.402 412.58Z" fill="#3A4A68"/>
<path d="M482.283 159.431L524.989 376.355L385.795 729.387L482.283 159.431Z" fill="#15223C"/>
<path d="M482.282 159.437L524.988 376.361L798.402 412.58L482.282 159.437Z" fill="#1D3053"/>
<path d="M380.441 545.571L542.221 505.699L542.409 276.486L380.441 545.571Z" fill="#1C2B49"/>
<path d="M614.222 618.288L542.218 505.7L542.406 276.487L614.222 618.288Z" fill="#15223C"/>
<path d="M614.225 618.288L542.221 505.699L380.441 545.571L614.225 618.288Z" fill="#1D3053"/>
<path d="M476.398 627.243L541.933 611.092L542.009 518.241L476.398 627.243Z" fill="#1C2B49"/>
<path d="M571.098 656.697L541.931 611.09L542.007 518.239L571.098 656.697Z" fill="#15223C"/>
<path d="M702.396 440.471L672.718 357.762L552.012 369.966L702.396 440.471Z" fill="#1C2B49"/>
<path d="M728.141 313.958L672.72 357.765L552.014 369.969L728.141 313.958Z" fill="#15223C"/>
<path d="M728.139 313.955L672.718 357.762L702.396 440.471L728.139 313.955Z" fill="#1D3053"/>
<path d="M550.567 584.156L614.501 430.576L429.83 294.3L550.567 584.156Z" fill="#25385C"/>
<path d="M748.027 439.623L614.501 430.575L429.83 294.299L748.027 439.623Z" fill="#15223C"/>
<path d="M748.027 439.624L614.501 430.576L550.567 584.156L748.027 439.624Z" fill="#1D3053"/>
<path d="M705.641 564.728L872.594 568.01L932.343 346.195L705.641 564.728Z" fill="#1B2841"/>
<path d="M913.031 695.625L872.595 568.009L932.343 346.195L913.031 695.625Z" fill="#15223C"/>
<path d="M913.03 695.625L872.594 568.01L705.641 564.728L913.03 695.625Z" fill="#1D3053"/>
<path d="M1044.59 546.332L1037.35 458.593L917.347 439.162L1044.59 546.332Z" fill="#1C2B49"/>
<path d="M1102.39 430.534L1037.36 458.591L917.353 439.16L1102.39 430.534Z" fill="#15223C"/>
<path d="M1102.38 430.536L1037.35 458.593L1044.59 546.332L1102.38 430.536Z" fill="#1D3053"/>
<path d="M860.283 646.109L962.079 514.002L818.744 334.296L860.283 646.109Z" fill="#1C2C49"/>
<path d="M1088.98 557.323L962.083 514.003L818.748 334.297L1088.98 557.323Z" fill="#15223C"/>
<path d="M1088.97 557.321L962.079 514.002L860.283 646.109L1088.97 557.321Z" fill="#1D3053"/>
<path d="M852.096 485.582L824.069 582.321L944.415 651.81L852.096 485.582Z" fill="#1C2B49"/>
<path d="M743.122 585.902L824.069 582.306L944.433 651.791L743.122 585.902Z" fill="#15223C"/>
<path d="M743.133 585.92L824.069 582.321L852.096 485.582L743.133 585.92Z" fill="#1D3053"/>
<path d="M780.144 511.069L768.791 550.251L817.548 578.398L780.144 511.069Z" fill="#1C2B49"/>
<path d="M736.003 551.706L768.794 550.249L817.551 578.397L736.003 551.706Z" fill="#15223C"/>
<path d="M736 551.707L768.791 550.251L780.144 511.069L736 551.707Z" fill="#1D3053"/>
<path d="M780.329 562.922L841.661 642.869L969.159 587.488L780.329 562.922Z" fill="#1C2B49"/>
<path d="M796.487 710.001L841.661 642.869L780.329 562.922L796.487 710.001Z" fill="#1D3053"/>
<path d="M102.649 542.075L269.603 545.356L329.352 323.542L102.649 542.075Z" fill="#1C2B49"/>
<path d="M310.039 672.97L269.604 545.355L329.352 323.54L310.039 672.97Z" fill="#15223C"/>
<path d="M310.039 672.972L269.603 545.356L102.649 542.075L310.039 672.972Z" fill="#1D3053"/>
<path d="M174.304 645.962L241.934 647.292L266.137 557.438L174.304 645.962Z" fill="#1C2B49"/>
<path d="M258.317 698.989L241.937 647.294L266.14 557.44L258.317 698.989Z" fill="#15223C"/>
<path d="M441.593 523.676L434.36 435.938L314.353 416.506L441.593 523.676Z" fill="#1C2B49"/>
<path d="M499.392 407.881L434.364 435.938L314.357 416.506L499.392 407.881Z" fill="#15223C"/>
<path d="M499.388 407.881L434.36 435.938L441.593 523.676L499.388 407.881Z" fill="#1D3053"/>
<path d="M257.287 623.453L359.083 491.345L215.747 311.64L257.287 623.453Z" fill="#1E3156"/>
<path d="M485.981 534.666L359.088 491.347L215.753 311.641L485.981 534.666Z" fill="#15223C"/>
<path d="M485.975 534.665L359.083 491.345L257.287 623.453L485.975 534.665Z" fill="#24385F"/>
<path d="M249.097 462.926L221.07 559.665L341.416 629.154L249.097 462.926Z" fill="#15223C"/>
<path d="M140.121 563.247L221.068 559.651L341.432 629.136L140.121 563.247Z" fill="#15223C"/>
<path d="M140.134 563.264L221.07 559.665L249.097 462.926L140.134 563.264Z" fill="#1D3053"/>
<path d="M177.145 488.414L165.792 527.595L214.549 555.743L177.145 488.414Z" fill="#1C2B49"/>
<path d="M133.001 529.052L165.791 527.595L214.548 555.742L133.001 529.052Z" fill="#15223C"/>
<path d="M133.001 529.052L165.792 527.595L177.145 488.414L133.001 529.052Z" fill="#1D3053"/>
<path d="M177.328 540.268L238.66 620.215L366.158 564.833L177.328 540.268Z" fill="#1C2B49"/>
<path d="M193.487 687.349L238.661 620.217L366.159 564.835L193.487 687.349Z" fill="#15223C"/>
<path d="M193.486 687.346L238.66 620.215L177.328 540.268L193.486 687.346Z" fill="#1D3053"/>
</g>
</svg>
