<svg width="1440" height="270" viewBox="0 0 1440 270" fill="none" xmlns="http://www.w3.org/2000/svg">
<mask id="mask0" mask-type="alpha" maskUnits="userSpaceOnUse" x="0" y="0" width="1440" height="270">
<rect width="1440" height="270" fill="#C4C4C4"/>
</mask>
<g mask="url(#mask0)">
<g opacity="0.1">
<circle cx="818.677" cy="139.586" r="56" transform="rotate(165 818.677 139.586)" fill="url(#paint0_linear)"/>
<circle cx="762.177" cy="167.085" r="86.5" fill="url(#paint1_linear)"/>
<circle cx="859.784" cy="210.692" r="41.7283" transform="rotate(105 859.784 210.692)" fill="url(#paint2_linear)"/>
<circle cx="664.856" cy="146.943" r="31.7258" transform="rotate(105 664.856 146.943)" fill="url(#paint3_linear)"/>
<circle cx="678.349" cy="122.257" r="18.0606" transform="rotate(150 678.349 122.257)" fill="url(#paint4_linear)"/>
<path d="M843.33 180.008L800.473 155.201C798.146 153.855 794.079 154.02 791.388 155.564L701.522 207.303C698.83 208.847 698.531 211.2 700.859 212.545L743.716 237.348C746.044 238.698 750.11 238.534 752.801 236.984L842.673 185.251C845.364 183.701 845.658 181.354 843.33 180.008Z" fill="#D2E1FF"/>
<path d="M846.764 160.653L802.187 134.838C799.058 133.029 793.586 133.249 789.968 135.337L698.771 187.817C695.153 189.9 694.754 193.055 697.884 194.869L742.461 220.683C745.59 222.497 751.062 222.278 754.685 220.185L845.882 167.704C849.5 165.636 849.899 162.457 846.764 160.653Z" fill="#D2E1FF"/>
<path d="M747.793 222.143C745.898 222.198 744.02 221.764 742.341 220.883L697.764 195.073C696.319 194.236 695.527 193.08 695.532 191.789C695.532 190.254 696.668 188.724 698.651 187.583L789.848 135.103C793.531 132.985 799.123 132.765 802.307 134.604L846.884 160.419C848.324 161.256 849.117 162.412 849.117 163.703C849.117 165.233 847.975 166.762 845.992 167.904L754.795 220.384C752.647 221.554 750.238 222.159 747.793 222.143ZM796.87 133.852C794.506 133.831 792.176 134.41 790.098 135.536L698.901 188.017C697.077 189.063 696.03 190.439 696.03 191.789C696.03 192.886 696.733 193.897 698.023 194.64L742.59 220.454C745.645 222.223 751.017 222.004 754.551 219.956L845.748 167.475C847.572 166.424 848.623 165.048 848.623 163.703C848.623 162.606 847.921 161.595 846.63 160.852L802.053 135.038C800.455 134.207 798.671 133.799 796.87 133.852Z" fill="#4164A9"/>
<path d="M848.867 163.762C848.842 165.138 847.835 166.573 845.877 167.699L754.68 220.18C751.057 222.263 745.585 222.482 742.455 220.678L697.878 194.864C696.433 194.027 695.75 192.905 695.78 191.734V198.213C695.731 199.404 696.413 200.545 697.878 201.392L742.455 227.206C745.585 229.02 751.062 228.801 754.68 226.708L845.877 174.227C847.92 173.051 848.937 171.531 848.867 170.106V163.777V163.762Z" fill="#4164A9"/>
<path d="M747.773 228.642C745.878 228.698 744.001 228.265 742.321 227.386L697.744 201.577C696.284 200.73 695.497 199.549 695.522 198.238C695.519 198.22 695.519 198.201 695.522 198.183V191.705C695.521 191.654 695.536 191.605 695.565 191.563C695.593 191.521 695.633 191.489 695.68 191.471C695.727 191.452 695.779 191.449 695.828 191.46C695.877 191.472 695.921 191.498 695.955 191.535C696.001 191.586 696.028 191.651 696.03 191.72C696 192.841 696.703 193.877 698.023 194.63L742.59 220.454C745.645 222.223 751.017 222.004 754.551 219.956L845.748 167.475C847.542 166.443 848.588 165.083 848.613 163.747C848.613 163.69 848.635 163.635 848.673 163.593C848.707 163.556 848.751 163.53 848.8 163.52C848.849 163.509 848.901 163.514 848.947 163.533C848.994 163.551 849.035 163.584 849.063 163.625C849.092 163.667 849.107 163.717 849.106 163.767V170.091C849.161 171.666 848.025 173.236 845.987 174.412L754.79 226.893C752.637 228.061 750.222 228.663 747.773 228.642ZM696.01 198.113C696.015 198.138 696.015 198.163 696.01 198.188C695.965 199.329 696.668 200.381 698.003 201.143L742.55 226.957C745.61 228.727 750.977 228.507 754.511 226.459L845.708 173.978C847.591 172.892 848.638 171.487 848.573 170.081C848.571 170.068 848.571 170.055 848.573 170.042V165.462C847.93 166.493 847.026 167.335 845.952 167.904L754.755 220.384C751.067 222.507 745.476 222.727 742.296 220.883L697.719 195.073C697.015 194.689 696.418 194.136 695.98 193.464L696.01 198.113Z" fill="#4164A9"/>
<path d="M833.319 166.698L784.481 138.491L742.655 162.84L740.312 164.186L789.006 192.297C790.865 193.374 794.119 193.239 796.272 191.993L832.82 170.894C834.948 169.653 835.182 167.774 833.319 166.698Z" fill="#D2E1FF"/>
<path d="M843.33 161.649L800.473 136.847C798.146 135.501 794.079 135.661 791.388 137.211L701.522 188.954C698.83 190.504 698.531 192.851 700.859 194.201L743.716 219.004C746.044 220.349 750.11 220.19 752.801 218.64L842.673 166.907C845.364 165.357 845.658 163.01 843.33 161.649Z" fill="white"/>
<path d="M739.56 218.705L781.431 194.535L744.733 173.346L702.678 197.63L736.799 217.1L739.56 218.705Z" fill="#D2E1FF"/>
<path d="M843.33 161.649L800.473 136.847C798.146 135.501 794.079 135.661 791.388 137.211L701.522 188.954C698.83 190.504 698.531 192.851 700.859 194.201L743.716 219.004C746.044 220.349 750.11 220.19 752.801 218.64L842.673 166.907C845.364 165.357 845.658 163.01 843.33 161.649Z" fill="#4164A9"/>
<path d="M819.958 230.75C826.85 230.75 832.437 227.524 832.437 223.544C832.437 219.564 826.85 216.338 819.958 216.338C813.066 216.338 807.479 219.564 807.479 223.544C807.479 227.524 813.066 230.75 819.958 230.75Z" fill="#4E73BC"/>
<path d="M830.782 219.651C824.802 223.105 815.114 223.105 809.139 219.651C806.149 217.927 804.654 215.665 804.654 213.407V215.899C804.654 218.161 806.149 220.424 809.139 222.148C815.119 225.597 824.802 225.597 830.782 222.148C833.772 220.424 835.267 218.161 835.267 215.899V213.407C835.242 215.67 833.747 217.927 830.782 219.651Z" fill="#4164A9"/>
<path d="M819.958 224.984C815.996 224.984 812.034 224.112 808.994 222.368C805.954 220.624 804.39 218.381 804.39 215.889V213.398C804.39 213.332 804.416 213.268 804.463 213.221C804.509 213.175 804.573 213.148 804.639 213.148C804.705 213.148 804.768 213.175 804.815 213.221C804.862 213.268 804.888 213.332 804.888 213.398C804.888 215.665 806.433 217.803 809.244 219.428C815.144 222.831 824.737 222.831 830.637 219.428C833.443 217.808 834.993 215.665 834.993 213.398C834.993 213.332 835.019 213.268 835.066 213.221C835.113 213.175 835.176 213.148 835.242 213.148C835.308 213.148 835.372 213.175 835.418 213.221C835.465 213.268 835.491 213.332 835.491 213.398V215.889C835.491 218.341 833.857 220.639 830.887 222.368C827.916 224.097 823.925 224.984 819.958 224.984ZM804.908 215.71V215.904C804.908 218.172 806.453 220.315 809.263 221.939C815.164 225.343 824.757 225.343 830.657 221.939C833.463 220.315 835.013 218.172 835.013 215.904V215.71C834.32 217.275 832.92 218.7 830.907 219.871C824.867 223.36 815.049 223.36 809.014 219.871C807.001 218.705 805.601 217.275 804.908 215.71Z" fill="#4164A9"/>
<path d="M819.958 222.243C828.41 222.243 835.262 218.287 835.262 213.407C835.262 208.528 828.41 204.572 819.958 204.572C811.506 204.572 804.654 208.528 804.654 213.407C804.654 218.287 811.506 222.243 819.958 222.243Z" fill="#D2E1FF"/>
<path d="M819.958 222.482C815.996 222.482 812.034 221.61 808.994 219.871C805.954 218.132 804.39 215.859 804.39 213.393C804.39 210.926 806.024 208.643 808.994 206.914C815.029 203.426 824.847 203.426 830.887 206.914C833.877 208.628 835.491 210.926 835.491 213.393C835.491 215.859 833.857 218.142 830.887 219.871C827.916 221.6 823.925 222.482 819.958 222.482ZM819.958 204.821C816.086 204.821 812.214 205.673 809.263 207.373C806.453 208.997 804.908 211.14 804.908 213.408C804.908 215.675 806.453 217.818 809.263 219.438C815.159 222.841 824.757 222.841 830.657 219.438C833.463 217.818 835.013 215.675 835.013 213.408C835.013 211.14 833.463 208.997 830.657 207.373C827.707 205.673 823.83 204.821 819.958 204.821Z" fill="#4164A9"/>
<path d="M814.761 216.049L815.723 215.496C815.065 215.077 814.771 214.653 814.84 214.22C814.91 213.786 815.339 213.318 816.176 212.815L817.93 213.562C817.573 213.736 817.26 213.988 817.013 214.3C816.899 214.499 816.958 214.663 817.188 214.798C817.35 214.881 817.532 214.918 817.714 214.905C817.896 214.892 818.071 214.829 818.219 214.723C818.414 214.625 818.585 214.483 818.718 214.31C818.813 214.183 818.875 214.033 818.897 213.876C818.921 213.697 818.921 213.516 818.897 213.338L818.802 212.57C818.784 212.405 818.784 212.238 818.802 212.072C818.815 211.918 818.852 211.766 818.912 211.624C818.984 211.447 819.095 211.289 819.236 211.16C819.418 210.99 819.621 210.843 819.839 210.722C820.444 210.368 821.132 210.181 821.832 210.178C822.556 210.179 823.27 210.349 823.915 210.677L824.832 210.148L825.331 210.442L824.389 210.986C824.564 211.092 824.72 211.227 824.852 211.384C824.952 211.492 825.025 211.622 825.067 211.763C825.101 211.882 825.101 212.008 825.067 212.127C825.034 212.249 824.978 212.364 824.902 212.466C824.817 212.58 824.72 212.686 824.613 212.78C824.488 212.889 824.374 212.979 824.264 213.059C824.155 213.139 824.025 213.218 823.88 213.308L822.146 212.535L822.47 212.336L822.729 212.157C822.797 212.106 822.861 212.049 822.919 211.987C822.956 211.942 822.983 211.889 822.998 211.833C823.012 211.811 823.019 211.786 823.019 211.761C823.019 211.735 823.012 211.71 822.998 211.688C822.95 211.632 822.891 211.586 822.824 211.554C822.656 211.464 822.463 211.433 822.276 211.464C822.081 211.483 821.893 211.543 821.723 211.638C821.591 211.711 821.47 211.801 821.364 211.908C821.278 211.997 821.219 212.11 821.194 212.232C821.174 212.323 821.162 212.417 821.159 212.511C821.159 212.58 821.159 212.685 821.159 212.835L821.239 213.577C821.257 213.763 821.257 213.95 821.239 214.135C821.217 214.317 821.17 214.494 821.1 214.663C821.016 214.864 820.892 215.046 820.736 215.197C820.54 215.391 820.318 215.559 820.078 215.695C819.51 216.014 818.871 216.185 818.219 216.193C817.533 216.227 816.848 216.092 816.226 215.8L815.229 216.363L814.761 216.049Z" fill="white"/>
<path d="M682.251 239.585C689.142 239.585 694.729 236.359 694.729 232.379C694.729 228.4 689.142 225.173 682.251 225.173C675.359 225.173 669.772 228.4 669.772 232.379C669.772 236.359 675.359 239.585 682.251 239.585Z" fill="#4E73BC"/>
<path d="M693.07 228.487C687.089 231.941 677.407 231.941 671.431 228.487C668.441 226.763 666.946 224.501 666.946 222.243V224.735C666.946 226.997 668.441 229.26 671.431 230.984C677.412 234.433 687.094 234.433 693.07 230.984C696.06 229.26 697.555 226.997 697.555 224.735V222.243C697.555 224.501 696.06 226.763 693.07 228.487Z" fill="#4164A9"/>
<path d="M682.251 233.815C678.289 233.815 674.322 232.947 671.287 231.203C668.252 229.459 666.677 227.192 666.677 224.725V222.233C666.677 222.167 666.704 222.104 666.75 222.057C666.797 222.01 666.86 221.984 666.926 221.984C666.993 221.984 667.056 222.01 667.103 222.057C667.149 222.104 667.176 222.167 667.176 222.233C667.176 224.501 668.725 226.638 671.536 228.263C677.432 231.667 687.03 231.667 692.925 228.263C695.736 226.638 697.286 224.501 697.286 222.233C697.286 222.167 697.312 222.104 697.359 222.057C697.405 222.01 697.469 221.984 697.535 221.984C697.601 221.984 697.664 222.01 697.711 222.057C697.758 222.104 697.784 222.167 697.784 222.233V224.725C697.784 227.177 696.144 229.474 693.174 231.203C690.204 232.933 686.237 233.815 682.251 233.815ZM667.196 224.545V224.74C667.196 227.007 668.745 229.15 671.556 230.77C677.451 234.178 687.05 234.178 692.945 230.77C695.756 229.145 697.305 227.002 697.305 224.735V224.54C696.613 226.105 695.212 227.53 693.194 228.702C687.159 232.19 677.342 232.19 671.307 228.702C669.294 227.54 667.888 226.11 667.196 224.545Z" fill="#4164A9"/>
<path d="M682.25 231.079C690.703 231.079 697.555 227.123 697.555 222.243C697.555 217.363 690.703 213.407 682.25 213.407C673.798 213.407 666.946 217.363 666.946 222.243C666.946 227.123 673.798 231.079 682.25 231.079Z" fill="#D2E1FF"/>
<path d="M682.251 231.318C678.289 231.318 674.322 230.446 671.287 228.707C668.252 226.967 666.677 224.695 666.677 222.228C666.677 219.761 668.317 217.479 671.287 215.75C677.322 212.261 687.139 212.261 693.174 215.75C696.164 217.464 697.784 219.761 697.784 222.228C697.784 224.695 696.144 226.972 693.174 228.707C690.179 230.446 686.237 231.318 682.251 231.318ZM682.251 213.657C678.378 213.657 674.501 214.509 671.556 216.208C668.745 217.833 667.196 219.976 667.196 222.243C667.196 224.511 668.745 226.648 671.556 228.273C677.451 231.677 687.05 231.677 692.945 228.273C695.756 226.648 697.305 224.511 697.305 222.243C697.305 219.976 695.756 217.833 692.945 216.208C690 214.509 686.123 213.657 682.251 213.657Z" fill="#4164A9"/>
<path d="M677.047 224.884L678.014 224.331C677.356 223.913 677.057 223.484 677.127 223.055C677.197 222.627 677.625 222.153 678.463 221.65L680.217 222.393C679.862 222.57 679.55 222.823 679.305 223.135C679.19 223.33 679.25 223.499 679.479 223.634C679.642 223.717 679.824 223.754 680.006 223.74C680.187 223.727 680.362 223.664 680.511 223.559C680.705 223.459 680.875 223.318 681.009 223.145C681.105 223.018 681.167 222.869 681.189 222.712C681.21 222.533 681.21 222.352 681.189 222.173L681.094 221.406C681.076 221.24 681.076 221.073 681.094 220.908C681.107 220.754 681.142 220.603 681.199 220.459C681.273 220.284 681.383 220.126 681.522 219.996C681.707 219.826 681.911 219.679 682.13 219.557C682.736 219.204 683.423 219.017 684.124 219.014C684.848 219.014 685.561 219.185 686.207 219.512L687.124 218.979L687.622 219.273L686.71 219.801C686.884 219.908 687.04 220.041 687.174 220.195C687.271 220.306 687.343 220.437 687.383 220.579C687.415 220.698 687.415 220.823 687.383 220.942C687.345 221.063 687.29 221.177 687.219 221.281C687.132 221.395 687.035 221.5 686.93 221.595C686.817 221.695 686.699 221.788 686.576 221.874C686.466 221.949 686.341 222.034 686.197 222.124L684.463 221.351L684.787 221.152L685.046 220.972C685.115 220.923 685.177 220.864 685.23 220.798C685.27 220.755 685.299 220.704 685.315 220.648C685.326 220.626 685.331 220.601 685.331 220.576C685.331 220.551 685.326 220.527 685.315 220.504C685.268 220.447 685.208 220.401 685.14 220.369C684.971 220.279 684.777 220.246 684.587 220.275C684.393 220.3 684.206 220.36 684.034 220.454C683.903 220.527 683.782 220.618 683.675 220.723C683.593 220.815 683.536 220.926 683.511 221.047C683.488 221.138 683.476 221.232 683.476 221.326C683.47 221.434 683.47 221.542 683.476 221.65L683.561 222.393C683.581 222.578 683.581 222.765 683.561 222.951C683.542 223.133 683.497 223.311 683.426 223.479C683.343 223.68 683.219 223.861 683.062 224.012C682.863 224.205 682.641 224.373 682.4 224.511C681.832 224.83 681.192 225.002 680.541 225.009C679.862 225.039 679.187 224.904 678.572 224.615L677.576 225.178L677.047 224.884Z" fill="white"/>
<path d="M833.319 166.698L786.833 139.857L742.426 165.417L788.986 192.298C790.845 193.374 794.099 193.24 796.252 191.994L832.801 170.894C834.948 169.653 835.183 167.774 833.319 166.698Z" fill="#DEDEDE"/>
<path d="M836.608 162.192L834.903 161.923L761.398 119.484C759.439 118.353 756.01 118.488 753.748 119.803L715.271 142.014C714.885 142.233 714.53 142.501 714.214 142.812L713.397 142.682V144.511C713.422 144.921 713.559 145.315 713.791 145.653C714.024 145.991 714.344 146.26 714.718 146.43L788.602 189.088C790.566 190.219 793.989 190.085 796.257 188.769L834.744 166.563C835.995 165.84 836.628 164.913 836.618 164.041L836.608 162.192Z" fill="#4164A9"/>
<path d="M791.931 190.1C790.733 190.134 789.546 189.862 788.482 189.308L714.598 146.649C714.195 146.459 713.85 146.167 713.596 145.801C713.343 145.436 713.19 145.01 713.153 144.566C713.15 144.548 713.15 144.53 713.153 144.512V142.683C713.154 142.647 713.163 142.611 713.178 142.579C713.193 142.546 713.215 142.517 713.242 142.493C713.269 142.47 713.301 142.453 713.336 142.443C713.37 142.434 713.407 142.432 713.442 142.438L714.134 142.548C714.436 142.26 714.77 142.009 715.131 141.801L753.608 119.589C755.936 118.244 759.479 118.094 761.507 119.27L834.973 161.684L836.632 161.949C836.691 161.958 836.744 161.988 836.782 162.032C836.82 162.077 836.841 162.134 836.842 162.193V164.081C836.842 165.078 836.104 166.075 834.848 166.778L796.371 188.994C795.008 189.732 793.481 190.112 791.931 190.1ZM713.646 144.467C713.649 144.483 713.649 144.5 713.646 144.516C713.675 144.881 713.802 145.232 714.012 145.532C714.222 145.831 714.509 146.069 714.842 146.221L788.727 188.879C790.615 189.97 793.934 189.826 796.132 188.56L834.604 166.349C835.726 165.701 836.363 164.854 836.353 164.047V162.407L834.858 162.168C834.829 162.163 834.8 162.153 834.774 162.138L761.268 119.704C759.379 118.613 756.06 118.752 753.867 120.018L715.395 142.214C715.033 142.422 714.698 142.675 714.399 142.967C714.372 142.995 714.338 143.017 714.3 143.029C714.263 143.041 714.223 143.044 714.184 143.036L713.656 142.957L713.646 144.467Z" fill="#4164A9"/>
<path d="M788.607 187.205L714.722 144.546C712.759 143.415 713.003 141.437 715.271 140.126L753.748 117.915C756.01 116.604 759.439 116.465 761.397 117.596L835.287 160.254C837.245 161.385 837.001 163.364 834.734 164.674L796.262 186.886C793.994 188.196 790.57 188.336 788.607 187.205Z" fill="#D2E1FF"/>
<path d="M791.931 188.211C790.733 188.245 789.546 187.973 788.483 187.419L714.598 144.76C714.185 144.571 713.831 144.272 713.576 143.896C713.32 143.52 713.172 143.082 713.148 142.628C713.148 141.631 713.876 140.634 715.141 139.912L753.618 117.7C755.946 116.35 759.489 116.205 761.517 117.381L835.407 160.04C835.818 160.232 836.169 160.532 836.423 160.907C836.677 161.283 836.826 161.72 836.852 162.173C836.852 163.169 836.124 164.166 834.859 164.889L796.371 187.1C795.01 187.842 793.482 188.224 791.931 188.211ZM758.074 117.077C756.607 117.066 755.161 117.428 753.873 118.129L715.395 140.345C714.284 140.983 713.646 141.815 713.646 142.628C713.677 142.993 713.804 143.343 714.015 143.643C714.226 143.943 714.513 144.18 714.847 144.332L788.732 186.99C790.621 188.077 793.945 187.937 796.137 186.671L834.609 164.455C835.721 163.817 836.359 162.985 836.359 162.173C836.329 161.808 836.203 161.457 835.993 161.158C835.782 160.858 835.496 160.62 835.163 160.468L761.273 117.795C760.284 117.289 759.184 117.042 758.074 117.077Z" fill="#4164A9"/>
<path d="M720.284 137.231L801.275 183.99L808.282 179.944L727.291 133.184L720.284 137.231Z" fill="#4164A9"/>
<path d="M801.275 184.24C801.231 184.241 801.187 184.229 801.15 184.205L720.16 137.45C720.121 137.428 720.089 137.397 720.067 137.359C720.045 137.321 720.033 137.277 720.033 137.233C720.033 137.189 720.045 137.146 720.067 137.108C720.089 137.07 720.121 137.038 720.16 137.016L727.166 132.97C727.204 132.948 727.247 132.937 727.291 132.937C727.335 132.937 727.378 132.948 727.415 132.97L808.406 179.73C808.445 179.751 808.477 179.783 808.499 179.821C808.521 179.859 808.533 179.902 808.533 179.946C808.533 179.99 808.521 180.034 808.499 180.072C808.477 180.11 808.445 180.141 808.406 180.163L801.4 184.205C801.362 184.228 801.319 184.24 801.275 184.24ZM720.782 137.231L801.275 183.706L807.783 179.944L727.291 133.473L720.782 137.231Z" fill="#4164A9"/>
<path d="M772.336 148.533L749.756 135.501L757.232 131.186L779.807 144.217L772.336 148.533Z" fill="white"/>
<path d="M741.374 217.659L781.431 194.535L744.733 173.346L704.731 196.444L741.374 217.659Z" fill="#DEDEDE"/>
<path d="M675.508 201.163C671.621 199.005 669.199 194.281 669.174 187.513C669.134 174.118 678.518 157.742 690.104 151.01L698.457 146.151L698.855 146.375L737.183 167.934L727.475 174.243L723.827 176.909L718.809 182.151L718.002 182.889L712.664 190.982L710.711 196.035L709.261 200.067L708.065 208.514L707.985 209.246L708.419 212.809L709.65 217.22L711.389 220.21L713.915 223.2L675.508 201.163Z" fill="#E8EEFB"/>
<path d="M715.017 224.137L674.481 200.859H674.561C670.943 198.367 668.955 193.688 668.935 187.509C668.895 174.053 678.333 157.563 689.985 150.791L698.457 145.857L698.985 146.156L737.671 167.909L727.6 174.452L723.987 177.098L719.003 182.316L718.206 183.078L712.894 191.122L710.945 196.16L709.505 200.147L708.234 209.261L708.663 212.8L709.879 217.14L711.603 220.1L715.017 224.137ZM676.539 201.467L712.814 222.303L711.194 220.379L709.41 217.295L708.164 212.884L707.726 209.256L707.811 208.499L709.017 199.992L710.467 195.96L712.46 190.842L717.842 182.705L718.65 181.967L723.633 176.739L727.311 174.043L736.69 167.949L698.442 146.435L690.224 151.224C678.712 157.917 669.383 174.198 669.423 187.514C669.448 193.992 671.651 198.736 675.627 200.969L676.569 201.467H676.539Z" fill="#4164A9"/>
<path d="M742.58 167.769V169.184L717.165 183.955C717.688 182.957 718.393 182.065 719.243 181.324L742.58 167.769Z" fill="#D2E1FF"/>
<path d="M780.908 189.781L742.58 167.769L719.377 181.698L716.472 185.077L712.106 192.746L709.37 200.406L708.473 206.396L708.364 212.376L712.106 220.927L716.975 223.773L721.979 224.032L727.984 221.54L775.441 193.623L780.908 189.781Z" fill="#D2E1FF"/>
<path d="M721.979 224.281L716.97 224.022C716.932 224.019 716.894 224.007 716.861 223.987L711.992 221.142C711.946 221.115 711.91 221.075 711.887 221.027L708.135 212.48C708.128 212.446 708.128 212.41 708.135 212.376L708.244 206.396L709.141 200.376L711.892 192.666L716.273 184.962L719.208 181.538C719.224 181.518 719.245 181.501 719.268 181.488L742.471 167.535C742.509 167.513 742.553 167.501 742.598 167.501C742.642 167.501 742.686 167.513 742.725 167.535L781.033 189.557C781.068 189.579 781.096 189.61 781.116 189.647C781.136 189.683 781.147 189.724 781.147 189.766C781.147 189.808 781.136 189.849 781.116 189.885C781.096 189.922 781.068 189.953 781.033 189.975L775.551 193.817L728.078 221.725L722.044 224.216C722.027 224.243 722.005 224.265 721.979 224.281ZM717.05 223.524L721.939 223.778L727.889 221.311L775.312 193.404L780.425 189.806L742.55 168.058L719.502 181.892L716.627 185.241L712.291 192.866L709.57 200.49L708.688 206.431L708.578 212.326L712.266 220.753L717.05 223.524Z" fill="#4164A9"/>
<path d="M669.538 191.635C669.303 190.274 669.184 188.895 669.184 187.514C669.184 186.517 669.239 185.52 669.334 184.523L708.304 206.859L708.065 208.539L707.985 209.271L708.419 212.834L708.783 214.14L669.538 191.635Z" fill="#4164A9"/>
<path d="M780.923 191.201V189.781L728.597 220.18C717.693 226.519 708.792 221.416 708.752 208.803C708.713 196.19 717.548 180.771 728.452 174.417L737.208 169.324V167.909L728.452 173.002C716.876 179.734 707.487 196.11 707.522 209.506C707.556 222.901 717.015 228.318 728.597 221.585L780.923 191.201Z" fill="#4164A9"/>
<path d="M719.183 224.76C717.229 224.784 715.304 224.292 713.601 223.334C709.535 221.002 707.287 216.098 707.267 209.53C707.222 196.075 716.666 179.58 728.312 172.807L737.068 167.714C737.106 167.692 737.149 167.681 737.192 167.681C737.236 167.681 737.279 167.692 737.317 167.714C737.355 167.735 737.386 167.767 737.408 167.804C737.43 167.842 737.442 167.885 737.442 167.928V169.349C737.443 169.393 737.431 169.437 737.41 169.475C737.388 169.514 737.356 169.546 737.317 169.568L728.566 174.656C717.732 180.96 708.952 196.279 708.992 208.813C708.992 214.823 711.04 219.278 714.713 221.391C718.385 223.504 723.269 222.995 728.462 219.975L780.788 189.576C780.826 189.555 780.869 189.543 780.913 189.543C780.956 189.543 780.999 189.555 781.037 189.576C781.076 189.597 781.107 189.628 781.129 189.666C781.151 189.704 781.163 189.747 781.162 189.791V191.211C781.163 191.255 781.151 191.298 781.129 191.336C781.107 191.373 781.076 191.404 781.037 191.425L728.711 221.824C725.362 223.773 722.118 224.76 719.183 224.76ZM736.949 168.362L728.561 173.241C717.055 179.933 707.721 196.209 707.766 209.525C707.766 215.914 709.948 220.663 713.85 222.901C717.752 225.138 722.945 224.605 728.467 221.406L780.663 191.052V190.209L728.711 220.404C723.359 223.519 718.301 224.022 714.468 221.824C710.636 219.627 708.513 215.007 708.488 208.817C708.448 196.125 717.339 180.606 728.312 174.227L736.944 169.209L736.949 168.362Z" fill="#4164A9"/>
<path d="M760.082 193.544L739.605 181.982C739.101 181.757 738.551 181.654 738 181.683C737.449 181.711 736.913 181.87 736.435 182.146L724.734 189.058C723.802 189.612 723.708 190.434 724.525 190.892L745.002 202.454C745.507 202.675 746.056 202.775 746.606 202.746C747.156 202.718 747.692 202.561 748.171 202.29L759.873 195.368C760.804 194.824 760.899 194.002 760.082 193.544Z" fill="#D2E1FF"/>
<path d="M744.494 198.148L723.444 186.283C723.27 186.205 723.12 186.081 723.011 185.925C722.901 185.769 722.835 185.586 722.821 185.396V183.054L723.992 184.015L737.068 176.266C737.616 175.954 738.228 175.774 738.857 175.741C739.487 175.708 740.115 175.823 740.691 176.077L760.815 187.414L762.354 186.507L762.379 188.874C762.347 189.127 762.251 189.367 762.1 189.572C761.949 189.777 761.749 189.94 761.517 190.045L748.122 197.969C747.573 198.28 746.959 198.458 746.329 198.489C745.699 198.52 745.071 198.404 744.494 198.148Z" fill="#4164A9"/>
<path d="M746.039 198.746C745.462 198.762 744.891 198.629 744.379 198.362L723.329 186.502C723.133 186.409 722.963 186.269 722.832 186.096C722.702 185.922 722.616 185.719 722.581 185.505C722.576 185.477 722.576 185.448 722.581 185.42V183.078C722.58 183.031 722.592 182.984 722.616 182.943C722.641 182.902 722.677 182.869 722.72 182.849C722.762 182.828 722.81 182.82 722.858 182.826C722.905 182.833 722.949 182.853 722.985 182.884L724.027 183.736L736.984 176.066C737.568 175.729 738.225 175.535 738.899 175.502C739.574 175.469 740.246 175.598 740.861 175.877L760.854 187.145L762.27 186.307C762.308 186.286 762.351 186.274 762.394 186.274C762.438 186.274 762.481 186.286 762.519 186.307C762.557 186.329 762.589 186.36 762.612 186.397C762.635 186.435 762.647 186.478 762.648 186.522L762.673 188.889C762.676 188.917 762.676 188.945 762.673 188.974C762.623 189.254 762.507 189.519 762.333 189.745C762.16 189.971 761.935 190.153 761.677 190.274L748.286 198.193C747.598 198.571 746.823 198.762 746.039 198.746ZM744.623 197.929C745.162 198.163 745.748 198.269 746.335 198.237C746.921 198.205 747.492 198.036 748.002 197.744L761.393 189.821C761.587 189.736 761.757 189.603 761.887 189.435C762.017 189.267 762.102 189.069 762.135 188.859C762.132 188.841 762.132 188.822 762.135 188.804V186.94L760.964 187.633C760.926 187.654 760.883 187.665 760.839 187.665C760.796 187.665 760.753 187.654 760.715 187.633L740.597 176.296C740.058 176.061 739.472 175.955 738.885 175.987C738.299 176.019 737.728 176.188 737.218 176.48L724.111 184.239C724.067 184.265 724.016 184.276 723.965 184.271C723.915 184.267 723.866 184.247 723.827 184.214L723.04 183.576V185.311C723.043 185.332 723.043 185.354 723.04 185.376C723.057 185.522 723.112 185.661 723.2 185.78C723.287 185.899 723.404 185.993 723.538 186.053L744.623 197.929Z" fill="#4164A9"/>
<path d="M761.727 185.57L740.676 173.709C740.099 173.455 739.471 173.339 738.841 173.371C738.211 173.403 737.597 173.582 737.049 173.894L723.658 181.817C722.587 182.445 722.482 183.387 723.419 183.915L744.469 195.776C745.046 196.031 745.675 196.147 746.305 196.114C746.936 196.081 747.549 195.9 748.097 195.587L761.487 187.653C762.554 187.02 762.663 186.068 761.727 185.57Z" fill="#D2E1FF"/>
<path d="M746.009 196.359C745.433 196.374 744.862 196.244 744.349 195.981L723.294 184.115C723.078 184.015 722.894 183.858 722.759 183.662C722.625 183.465 722.546 183.236 722.532 182.999C722.561 182.697 722.668 182.408 722.843 182.161C723.018 181.914 723.254 181.716 723.528 181.588L736.924 173.665C737.508 173.328 738.164 173.135 738.837 173.102C739.51 173.069 740.182 173.197 740.796 173.475L761.851 185.336C762.067 185.437 762.252 185.594 762.387 185.792C762.521 185.989 762.599 186.219 762.614 186.457C762.585 186.759 762.477 187.047 762.303 187.295C762.128 187.542 761.891 187.74 761.617 187.867L748.221 195.786C747.547 196.167 746.784 196.365 746.009 196.359ZM739.142 173.61C738.455 173.604 737.779 173.776 737.178 174.108L723.783 182.032C723.284 182.316 723.025 182.67 723.03 183.029C723.047 183.176 723.101 183.318 723.189 183.438C723.276 183.559 723.393 183.654 723.528 183.716L744.593 195.537C745.131 195.773 745.716 195.879 746.302 195.847C746.888 195.815 747.459 195.646 747.967 195.353L761.363 187.434C761.861 187.15 762.12 186.791 762.115 186.437C762.098 186.289 762.043 186.147 761.956 186.026C761.869 185.905 761.752 185.808 761.617 185.745L740.557 173.909C740.118 173.692 739.631 173.589 739.142 173.61Z" fill="#4164A9"/>
<path d="M739.645 182.48C740.417 182.021 740.407 181.289 739.645 180.85C739.205 180.633 738.719 180.522 738.228 180.527C737.737 180.532 737.255 180.653 736.819 180.88C736.047 181.339 736.052 182.066 736.819 182.51C737.26 182.726 737.745 182.837 738.236 182.831C738.726 182.826 739.209 182.706 739.645 182.48Z" fill="white"/>
<path d="M743.945 184.902C744.718 184.444 744.713 183.716 743.945 183.273C743.505 183.055 743.02 182.944 742.529 182.949C742.038 182.955 741.555 183.076 741.12 183.303C740.342 183.761 740.352 184.494 741.12 184.932C741.56 185.15 742.045 185.261 742.536 185.256C743.027 185.25 743.51 185.129 743.945 184.902Z" fill="white"/>
<path d="M748.246 187.329C749.024 186.871 749.014 186.138 748.246 185.699C747.806 185.482 747.321 185.371 746.83 185.376C746.339 185.381 745.856 185.502 745.421 185.729C744.648 186.188 744.653 186.915 745.421 187.359C745.861 187.576 746.346 187.687 746.837 187.682C747.328 187.676 747.811 187.556 748.246 187.329Z" fill="white"/>
<path d="M793.087 166.14C799.932 166.14 805.481 162.936 805.481 158.983C805.481 155.031 799.932 151.827 793.087 151.827C786.242 151.827 780.693 155.031 780.693 158.983C780.693 162.936 786.242 166.14 793.087 166.14Z" fill="#D2E1FF"/>
<path d="M806.882 152.619V150.083H806.149C805.336 148.779 804.195 147.712 802.84 146.988C797.458 143.878 788.722 143.878 783.335 146.988C781.981 147.714 780.841 148.781 780.026 150.083H779.298V152.599C779.298 154.643 780.634 156.691 783.335 158.251C788.722 161.36 797.458 161.36 802.84 158.251C805.536 156.696 806.882 154.672 806.882 152.619Z" fill="#4164A9"/>
<path d="M793.087 160.827C789.514 160.827 785.936 160.04 783.21 158.465C780.484 156.89 779.039 154.827 779.049 152.6V150.083C779.048 150.018 779.074 149.955 779.119 149.909C779.142 149.884 779.17 149.865 779.201 149.853C779.231 149.84 779.265 149.833 779.298 149.834H779.886C780.721 148.552 781.863 147.5 783.21 146.774C788.657 143.629 797.518 143.629 802.964 146.774C804.313 147.498 805.458 148.55 806.293 149.834H806.881C806.948 149.834 807.011 149.86 807.058 149.907C807.104 149.953 807.131 150.017 807.131 150.083V152.62C807.131 154.837 805.636 156.915 802.969 158.465C800.303 160.015 796.665 160.827 793.087 160.827ZM779.547 150.332V152.6C779.547 154.643 780.928 156.586 783.459 158.037C788.772 161.101 797.413 161.101 802.72 158.037C805.242 156.576 806.632 154.653 806.632 152.62V150.332H806.134C806.09 150.332 806.048 150.32 806.01 150.298C805.973 150.277 805.941 150.245 805.92 150.208C805.125 148.947 804.016 147.917 802.7 147.217C797.393 144.153 788.747 144.153 783.444 147.217C782.131 147.92 781.022 148.95 780.225 150.208C780.204 150.246 780.173 150.278 780.135 150.3C780.097 150.322 780.054 150.333 780.011 150.332H779.547Z" fill="#4164A9"/>
<path d="M793.088 158.046C800.706 158.046 806.882 154.481 806.882 150.083C806.882 145.685 800.706 142.119 793.088 142.119C785.469 142.119 779.293 145.685 779.293 150.083C779.293 154.481 785.469 158.046 793.088 158.046Z" fill="#D2E1FF"/>
<path d="M793.087 158.291C789.514 158.291 785.936 157.503 783.21 155.928C780.484 154.354 779.044 152.306 779.044 150.083C779.044 147.86 780.539 145.787 783.21 144.237C788.657 141.093 797.518 141.093 802.964 144.237C805.651 145.787 807.131 147.865 807.131 150.083C807.131 152.301 805.636 154.379 802.969 155.928C800.244 157.503 796.665 158.291 793.087 158.291ZM793.087 142.369C789.599 142.369 786.11 143.136 783.459 144.666C780.933 146.126 779.542 148.05 779.542 150.083C779.542 152.116 780.938 154.04 783.459 155.5C788.772 158.565 797.413 158.565 802.72 155.5C805.242 154.04 806.632 152.116 806.632 150.083C806.632 148.05 805.242 146.126 802.715 144.666C800.064 143.136 796.576 142.369 793.087 142.369Z" fill="#4164A9"/>
<path d="M786.439 152.719C786.341 152.675 786.255 152.606 786.192 152.518C786.128 152.431 786.088 152.328 786.076 152.221V147.033C786.076 146.639 786.634 146.315 787.322 146.315C788.009 146.315 788.557 146.639 788.557 147.038V151.339L801.046 149.809C801.714 149.729 802.372 149.973 802.516 150.362C802.661 150.751 802.232 151.129 801.559 151.209L787.571 152.923C787.217 152.972 786.856 152.922 786.529 152.779L786.439 152.719Z" fill="white"/>
</g>
<path d="M32.921 183.191C33.171 183.624 33.7174 183.77 34.1504 183.52L55.8011 171.02C56.2341 170.77 56.3805 170.224 56.1305 169.791L47.6805 155.155C47.4305 154.722 46.8841 154.575 46.4511 154.825L24.8004 167.325C24.3674 167.575 24.221 168.122 24.471 168.555L32.921 183.191Z" stroke="#243453" stroke-width="3" stroke-miterlimit="10"/>
<path d="M45.635 155.412C42.435 149.869 35.2817 147.879 29.6525 151.129C24.11 154.329 22.12 161.483 25.37 167.112" stroke="#243453" stroke-width="3" stroke-miterlimit="10"/>
<path d="M41.2799 171.668L39.9799 169.416L40.4995 169.116L41.7995 171.368L41.2799 171.668Z" fill="#243453" stroke="#243453"/>
<path d="M40.3261 169.216C39.6992 169.578 38.9122 169.367 38.5503 168.74C38.1884 168.113 38.3993 167.326 39.0261 166.964C39.653 166.602 40.44 166.813 40.802 167.44C41.1639 168.067 40.953 168.854 40.3261 169.216Z" fill="#243453" stroke="#243453"/>
<path d="M376.6 186.3C376.6 188.7 374.7 190.6 372.3 190.6C369.9 190.6 368 188.7 368 186.3C368 183.9 369.9 182 372.3 182C374.7 182 376.6 184 376.6 186.3Z" stroke="#243453" stroke-width="3" stroke-miterlimit="10" stroke-linecap="round" stroke-linejoin="round"/>
<path d="M65.3005 75.1C65.3005 76.8 63.9005 78.3 62.1005 78.3C60.4005 78.3 59.0005 76.9 59.0005 75.1C59.0005 73.4 60.4005 72 62.1005 72C63.9005 72 65.3005 73.4 65.3005 75.1Z" stroke="#243453" stroke-width="3" stroke-miterlimit="10" stroke-linecap="round" stroke-linejoin="round"/>
<path d="M380.5 85V93.9" stroke="#243453" stroke-width="3" stroke-miterlimit="10" stroke-linecap="round" stroke-linejoin="round"/>
<path d="M384.9 89.3999H376" stroke="#243453" stroke-width="3" stroke-miterlimit="10" stroke-linecap="round" stroke-linejoin="round"/>
<path d="M919.5 75V83.9" stroke="#243453" stroke-width="3" stroke-miterlimit="10" stroke-linecap="round" stroke-linejoin="round"/>
<path d="M923.9 79.3999H915" stroke="#243453" stroke-width="3" stroke-miterlimit="10" stroke-linecap="round" stroke-linejoin="round"/>
<path d="M221.501 144.3C221.501 146.7 219.601 148.6 217.201 148.6C214.801 148.6 212.901 146.7 212.901 144.3C212.901 141.9 214.801 140 217.201 140C219.601 140 221.501 142 221.501 144.3Z" stroke="#243453" stroke-width="3" stroke-miterlimit="10" stroke-linecap="round" stroke-linejoin="round"/>
<path d="M149.5 134V142.9" stroke="#243453" stroke-width="3" stroke-miterlimit="10" stroke-linecap="round" stroke-linejoin="round"/>
<path d="M153.9 138.4H145" stroke="#243453" stroke-width="3" stroke-miterlimit="10" stroke-linecap="round" stroke-linejoin="round"/>
<path d="M443.902 214H421.702" stroke="#243453" stroke-width="3" stroke-miterlimit="10" stroke-linecap="round" stroke-linejoin="round"/>
<path d="M463.2 214H449.1" stroke="#243453" stroke-width="3" stroke-miterlimit="10" stroke-linecap="round" stroke-linejoin="round"/>
<path d="M440.5 221.4H408" stroke="#243453" stroke-width="3" stroke-miterlimit="10" stroke-linecap="round" stroke-linejoin="round"/>
<path d="M948 187.3C948 184.9 949.9 183 952.3 183C954.7 183 956.6 184.9 956.6 187.3C956.6 189.7 954.7 191.6 952.3 191.6C949.9 191.6 948 189.6 948 187.3Z" stroke="#243453" stroke-width="3" stroke-miterlimit="10" stroke-linecap="round" stroke-linejoin="round"/>
<path d="M1317.3 194.3C1317.3 192.6 1318.7 191.1 1320.5 191.1C1322.2 191.1 1323.6 192.5 1323.6 194.3C1323.6 196 1322.2 197.4 1320.5 197.4C1318.7 197.4 1317.3 196 1317.3 194.3Z" stroke="#243453" stroke-width="3" stroke-miterlimit="10" stroke-linecap="round" stroke-linejoin="round"/>
<path d="M1114 197.4L1114 188.5" stroke="#243453" stroke-width="3" stroke-miterlimit="10" stroke-linecap="round" stroke-linejoin="round"/>
<path d="M1109.6 193L1118.5 193" stroke="#243453" stroke-width="3" stroke-miterlimit="10" stroke-linecap="round" stroke-linejoin="round"/>
<path d="M19.2985 110.4L41.4985 110.4" stroke="#243453" stroke-width="3" stroke-miterlimit="10" stroke-linecap="round" stroke-linejoin="round"/>
<path d="M9.15527e-05 110.4L14.1001 110.4" stroke="#243453" stroke-width="3" stroke-miterlimit="10" stroke-linecap="round" stroke-linejoin="round"/>
<path d="M22.6997 103L55.1997 103" stroke="#243453" stroke-width="3" stroke-miterlimit="10" stroke-linecap="round" stroke-linejoin="round"/>
<path d="M521.801 97.4V102.1C521.801 104.3 520.001 106 517.901 106H491.001C488.801 106 487.101 104.2 487.101 102.1V84.9C487.101 82.7 488.901 81 491.001 81H517.901C520.101 81 521.801 82.8 521.801 84.9V88.8" stroke="#243453" stroke-width="3" stroke-miterlimit="10"/>
<path d="M525.301 94.8001C525.301 96.0001 524.301 97.1001 523.001 97.1001H515.501C514.301 97.1001 513.201 96.1001 513.201 94.8001V91.9001C513.201 90.7001 514.201 89.6001 515.501 89.6001H523.001C524.201 89.6001 525.301 90.6001 525.301 91.9001V94.8001Z" stroke="#243453" stroke-width="3" stroke-miterlimit="10"/>
<path d="M487 85.7998H521.8" stroke="#243453" stroke-width="3" stroke-miterlimit="10"/>
<path d="M1259.8 152.3C1259.8 154 1258.4 155.3 1256.8 155.3H1225C1223.3 155.3 1222 153.9 1222 152.3V135C1222 133.3 1223.4 132 1225 132H1256.7C1258.4 132 1259.7 133.4 1259.7 135V152.3H1259.8Z" stroke="#243453" stroke-width="3" stroke-miterlimit="10" stroke-linecap="round" stroke-linejoin="round"/>
<path d="M1259.8 137.2H1222V141.9H1259.8V137.2Z" stroke="#243453" stroke-width="3" stroke-miterlimit="10" stroke-linecap="round" stroke-linejoin="round"/>
<path d="M1254.8 146.2H1242.2V151.1H1254.8V146.2Z" stroke="#243453" stroke-width="3" stroke-miterlimit="10" stroke-linecap="round" stroke-linejoin="round"/>
<path d="M1227.5 147H1226V150.6H1227.5V147Z" stroke="#243453" stroke-width="3" stroke-miterlimit="10" stroke-linecap="round" stroke-linejoin="round"/>
<path d="M1230 147H1228.5V150.6H1230V147Z" stroke="#243453" stroke-width="3" stroke-miterlimit="10" stroke-linecap="round" stroke-linejoin="round"/>
<path d="M1232.5 147H1231V150.6H1232.5V147Z" stroke="#243453" stroke-width="3" stroke-miterlimit="10" stroke-linecap="round" stroke-linejoin="round"/>
<path d="M1084.1 107.3C1085.59 107.3 1086.8 106.091 1086.8 104.6C1086.8 103.109 1085.59 101.9 1084.1 101.9C1082.61 101.9 1081.4 103.109 1081.4 104.6C1081.4 106.091 1082.61 107.3 1084.1 107.3Z" stroke="#243453" stroke-width="3" stroke-miterlimit="10" stroke-linecap="round" stroke-linejoin="round"/>
<path d="M1072.8 104.6C1072.8 106.1 1071.6 107.3 1070.1 107.3C1068.6 107.3 1067.4 106.1 1067.4 104.6C1067.4 103.1 1068.6 101.9 1070.1 101.9C1071.6 101.9 1072.8 103.1 1072.8 104.6Z" stroke="#243453" stroke-width="3" stroke-miterlimit="10" stroke-linecap="round" stroke-linejoin="round"/>
<path d="M1066.6 83.3999H1088.6L1083 96.1999H1070.1L1066.6 83.3999Z" stroke="#243453" stroke-width="3" stroke-miterlimit="10" stroke-linecap="round" stroke-linejoin="round"/>
<path d="M1062 82H1065.9L1066.6 83.4" stroke="#243453" stroke-width="3" stroke-miterlimit="10" stroke-linecap="round" stroke-linejoin="round"/>
<path d="M1070.1 96.2002C1070.1 96.2002 1067.4 97.4002 1067.4 99.0002C1067.4 100.7 1068.8 101 1068.8 101H1086" stroke="#243453" stroke-width="3" stroke-miterlimit="10" stroke-linecap="round" stroke-linejoin="round"/>
<path d="M535.201 236V244.5" stroke="#243453" stroke-width="3" stroke-miterlimit="10" stroke-linecap="round" stroke-linejoin="round"/>
<path d="M539.5 240.2H531" stroke="#243453" stroke-width="3" stroke-miterlimit="10" stroke-linecap="round" stroke-linejoin="round"/>
<path d="M484.401 130.401C484.201 133.101 481.801 135.201 479.101 135.001C476.301 134.801 474.301 132.401 474.501 129.701C474.701 126.901 477.101 124.901 479.801 125.101C482.601 125.301 484.601 127.701 484.401 130.401Z" stroke="#243453" stroke-width="3" stroke-miterlimit="10" stroke-linecap="round" stroke-linejoin="round"/>
<path d="M1326.44 64.9998L1320 72.6538L1327.65 79.0898L1334.09 71.4358L1326.44 64.9998Z" stroke="#243453" stroke-width="3" stroke-miterlimit="10" stroke-linecap="round" stroke-linejoin="round"/>
<path d="M1388.3 162.6H1373.2C1366.4 162.6 1361 168.9 1361 176.7V207.3" stroke="#243453" stroke-width="3" stroke-miterlimit="10" stroke-linecap="round" stroke-linejoin="round" stroke-dasharray="11 11"/>
<path d="M1396 162.6H1435.1C1441.9 162.6 1447.3 156.3 1447.3 148.5V99.1C1447.3 91.3 1441.8 85 1435.1 85H1389.6" stroke="#243453" stroke-width="3" stroke-miterlimit="10" stroke-linecap="round" stroke-linejoin="round" stroke-dasharray="11 11"/>
</g>
<defs>
<linearGradient id="paint0_linear" x1="814.495" y1="84.9984" x2="807.788" y2="242.63" gradientUnits="userSpaceOnUse">
<stop stop-color="#1A2C4A"/>
<stop offset="1" stop-color="#4164A9"/>
</linearGradient>
<linearGradient id="paint1_linear" x1="755.717" y1="82.7676" x2="745.561" y2="233.167" gradientUnits="userSpaceOnUse">
<stop stop-color="#223657"/>
<stop offset="1" stop-color="#1A2C4A"/>
</linearGradient>
<linearGradient id="paint2_linear" x1="866.93" y1="214.591" x2="842.691" y2="291.764" gradientUnits="userSpaceOnUse">
<stop stop-color="#1A2C4A"/>
<stop offset="1" stop-color="#4164A9"/>
</linearGradient>
<linearGradient id="paint3_linear" x1="662.487" y1="116.017" x2="658.687" y2="205.321" gradientUnits="userSpaceOnUse">
<stop stop-color="#1A2C4A"/>
<stop offset="1" stop-color="#4164A9"/>
</linearGradient>
<linearGradient id="paint4_linear" x1="761.203" y1="109.092" x2="632.815" y2="128.617" gradientUnits="userSpaceOnUse">
<stop stop-color="#1A2C4A"/>
<stop offset="1" stop-color="#4164A9"/>
</linearGradient>
</defs>
</svg>
