<svg width="399" height="416" viewBox="0 0 399 416" fill="none" xmlns="http://www.w3.org/2000/svg">
<path d="M198.273 265.668C198.273 263.301 198.273 260.913 198.273 258.525C198.284 258.43 198.284 258.334 198.273 258.24V265.383C198.284 265.477 198.284 265.573 198.273 265.668Z" fill="#BFBFBF"/>
<path d="M154.822 199.996V209.755C152.197 208.421 149.294 207.726 146.35 207.726C143.406 207.726 140.504 208.421 137.879 209.755L137.979 199.996C140.589 198.674 143.474 197.985 146.4 197.985C149.326 197.985 152.211 198.674 154.822 199.996Z" fill="#8899B7"/>
<path d="M154.798 215.621C150.806 213.286 144.82 212.947 141.547 214.863V205.104C144.82 203.109 150.747 203.528 154.778 205.863C154.818 208.796 154.798 212.707 154.798 215.621Z" fill="#213556"/>
<path d="M357.275 316.819L357.235 326.578L154.801 209.695L154.821 199.937L357.275 316.819Z" fill="#8899B7"/>
<path d="M348.853 317.896L348.833 327.654L154.801 215.641L154.821 205.862L348.853 317.896Z" fill="#213556"/>
<path d="M179.968 227.494L179.948 237.252L151.092 220.589L151.112 210.831L179.968 227.494Z" fill="#BFBFBF"/>
<path d="M173.719 228.774L173.68 238.532L148.914 224.224L148.934 214.465L173.719 228.774Z" fill="#BFBFBF"/>
<path d="M151.112 210.831V220.589C149.802 219.92 148.352 219.571 146.881 219.571C145.41 219.571 143.96 219.92 142.65 220.589V210.831C143.961 210.165 145.411 209.817 146.881 209.817C148.351 209.817 149.801 210.165 151.112 210.831Z" fill="#BFBFBF"/>
<path d="M148.933 214.463V224.222C148.495 223.996 148.009 223.878 147.516 223.878C147.024 223.878 146.538 223.996 146.1 224.222V214.463C146.538 214.237 147.024 214.12 147.516 214.12C148.009 214.12 148.495 214.237 148.933 214.463Z" fill="#BFBFBF"/>
<path d="M168.093 232.045L168.053 241.804L143.268 227.495L143.307 217.737L168.093 232.045Z" fill="#7185A8"/>
<path d="M146.101 214.465L146.081 224.224L143.268 225.86L143.288 216.102L146.101 214.465Z" fill="#BFBFBF"/>
<path d="M142.668 226.678V216.919C142.684 216.744 142.746 216.576 142.847 216.432C142.949 216.289 143.087 216.174 143.247 216.101V225.86C143.087 225.933 142.949 226.047 142.847 226.191C142.746 226.334 142.684 226.502 142.668 226.678Z" fill="#BFBFBF"/>
<path d="M142.668 226.676V216.918C142.689 217.092 142.753 217.257 142.854 217.4C142.955 217.543 143.09 217.658 143.247 217.736V227.495C143.088 227.42 142.951 227.305 142.85 227.162C142.748 227.018 142.686 226.851 142.668 226.676Z" fill="#7185A8"/>
<path d="M174.303 229.591V239.349C174.292 239.173 174.232 239.003 174.13 238.858C174.027 238.714 173.887 238.601 173.725 238.531V228.772C173.886 228.844 174.025 228.958 174.127 229.102C174.229 229.246 174.29 229.415 174.303 229.591Z" fill="#BFBFBF"/>
<path d="M181.745 229.93V239.689C181.685 239.153 181.481 238.643 181.154 238.214C180.827 237.785 180.39 237.453 179.889 237.254V227.496C180.387 227.699 180.822 228.032 181.149 228.46C181.475 228.888 181.681 229.396 181.745 229.93Z" fill="#BFBFBF"/>
<path d="M174.303 229.591V239.35C174.288 239.525 174.226 239.693 174.124 239.837C174.022 239.981 173.885 240.095 173.725 240.168V230.41C173.883 230.335 174.02 230.22 174.122 230.077C174.223 229.933 174.286 229.766 174.303 229.591Z" fill="#7185A8"/>
<path d="M144.784 243.042L144.764 252.801L124.369 241.027L124.389 231.268L144.784 243.042Z" fill="#BFBFBF"/>
<path d="M141.99 244.679L141.95 254.437L121.555 242.663L121.575 232.905L141.99 244.679Z" fill="#7185A8"/>
<path d="M79.2071 266.968V257.21C79.2128 257.163 79.2305 257.118 79.2584 257.079C79.2864 257.041 79.3236 257.01 79.3667 256.99V266.769C79.321 266.778 79.2799 266.803 79.2508 266.84C79.2216 266.876 79.2061 266.922 79.2071 266.968Z" fill="#BFBFBF"/>
<path d="M52.4863 282.493V272.735C52.4863 272.735 52.4863 272.595 52.646 272.535V282.294C52.5262 282.354 52.4863 282.413 52.4863 282.493Z" fill="#BFBFBF"/>
<path d="M45.4416 286.584V276.826C45.4396 276.782 45.4522 276.738 45.4775 276.702C45.5027 276.666 45.5393 276.639 45.5813 276.626V286.384C45.5409 286.4 45.5061 286.428 45.4812 286.463C45.4564 286.499 45.4426 286.541 45.4416 286.584Z" fill="#BFBFBF"/>
<path d="M15.0273 290.278V280.52C15.0641 279.858 15.2804 279.218 15.6531 278.67C16.0257 278.121 16.5407 277.685 17.1427 277.407V287.165C16.542 287.445 16.0282 287.882 15.6558 288.43C15.2834 288.978 15.0662 289.617 15.0273 290.278Z" fill="#213556"/>
<path d="M137.878 199.937L137.858 209.695L8.46289 284.889L8.48285 275.131L137.878 199.937Z" fill="#8899B7"/>
<path d="M25.8669 288.442C25.4072 288.666 25.0143 289.007 24.7273 289.431C24.4402 289.855 24.2689 290.346 24.2305 290.856V281.098C24.279 280.575 24.4653 280.074 24.7702 279.646C25.0752 279.219 25.488 278.879 25.9666 278.663C25.9666 281.537 25.9666 284.41 25.9666 287.284L25.8669 288.442Z" fill="#BFBFBF"/>
<path d="M173.72 230.409L173.681 240.168L170.887 241.804L170.907 232.046L173.72 230.409Z" fill="#7185A8"/>
<path d="M181.745 229.932V239.69C181.692 240.233 181.491 240.751 181.164 241.188C180.836 241.624 180.395 241.962 179.889 242.165V232.406C180.395 232.204 180.836 231.866 181.164 231.429C181.491 230.993 181.692 230.475 181.745 229.932Z" fill="#BFBFBF"/>
<path d="M170.888 232.044V241.902C170.451 242.119 169.969 242.231 169.481 242.231C168.993 242.231 168.512 242.119 168.074 241.902V232.044C168.512 232.26 168.993 232.373 169.481 232.373C169.969 232.373 170.451 232.26 170.888 232.044Z" fill="#7185A8"/>
<path d="M144.803 243.44L144.783 253.198L142.668 254.436L142.688 244.677L144.803 243.44Z" fill="#7185A8"/>
<path d="M144.942 243.24V252.998C144.937 252.956 144.922 252.916 144.897 252.881C144.873 252.846 144.841 252.818 144.803 252.799V243.04C144.84 243.061 144.871 243.089 144.895 243.124C144.92 243.158 144.936 243.198 144.942 243.24Z" fill="#BFBFBF"/>
<path d="M144.942 243.242V253.001C144.942 253.001 144.942 253.14 144.803 253.2V243.442C144.803 243.442 144.942 243.322 144.942 243.242Z" fill="#7185A8"/>
<path d="M142.689 244.677V254.435C142.58 254.49 142.461 254.518 142.339 254.518C142.218 254.518 142.099 254.49 141.99 254.435V244.677C142.099 244.728 142.219 244.755 142.339 244.755C142.46 244.755 142.579 244.728 142.689 244.677Z" fill="#7185A8"/>
<path d="M137.98 247.331V257.089C137.978 257.044 137.964 256.999 137.939 256.961C137.915 256.922 137.88 256.891 137.84 256.87V247.111C137.88 247.132 137.915 247.164 137.939 247.202C137.964 247.241 137.978 247.285 137.98 247.331Z" fill="#BFBFBF"/>
<path d="M137.98 247.332V257.091C137.98 257.091 137.98 257.23 137.84 257.29V247.532C137.84 247.532 137.98 247.412 137.98 247.332Z" fill="#7185A8"/>
<path d="M123.69 231.248L123.67 241.026L121.555 242.243L121.575 232.485L123.69 231.248Z" fill="#BFBFBF"/>
<path d="M121.395 242.444V232.685C121.395 232.685 121.395 232.546 121.554 232.486V242.244C121.554 242.244 121.395 242.364 121.395 242.444Z" fill="#BFBFBF"/>
<path d="M121.395 242.442V232.684C121.397 232.729 121.414 232.773 121.442 232.809C121.471 232.845 121.51 232.871 121.554 232.883V242.662C121.508 242.645 121.469 242.616 121.44 242.577C121.412 242.537 121.396 242.491 121.395 242.442Z" fill="#7185A8"/>
<path d="M137.761 247.132L137.741 256.891L117.346 245.117L117.366 235.338L137.761 247.132Z" fill="#BFBFBF"/>
<path d="M137.76 247.531L137.74 257.289L135.625 258.527L135.645 248.768L137.76 247.531Z" fill="#7185A8"/>
<path d="M135.644 248.768V258.527C135.535 258.581 135.416 258.61 135.295 258.61C135.173 258.61 135.054 258.581 134.945 258.527V248.749C135.052 248.806 135.171 248.838 135.292 248.841C135.413 248.845 135.534 248.82 135.644 248.768Z" fill="#7185A8"/>
<path d="M134.966 248.77L134.926 258.528L114.531 246.734L114.551 236.976L134.966 248.77Z" fill="#7185A8"/>
<path d="M117.364 235.34V245.099C117.256 245.044 117.137 245.016 117.015 245.016C116.894 245.016 116.774 245.044 116.666 245.099V235.34C116.775 235.288 116.894 235.262 117.015 235.262C117.136 235.262 117.255 235.288 117.364 235.34Z" fill="#BFBFBF"/>
<path d="M116.651 235.338L116.631 245.117L114.516 246.334L114.556 236.576L116.651 235.338Z" fill="#BFBFBF"/>
<path d="M114.373 246.535V236.776C114.373 236.776 114.373 236.637 114.513 236.577V246.335C114.413 246.395 114.373 246.455 114.373 246.535Z" fill="#BFBFBF"/>
<path d="M114.373 246.534V236.775C114.382 236.819 114.401 236.86 114.429 236.894C114.456 236.929 114.492 236.957 114.533 236.975V246.733C114.413 246.674 114.373 246.594 114.373 246.534Z" fill="#7185A8"/>
<path d="M130.732 251.226L130.692 260.984L110.297 249.21L110.317 239.432L130.732 251.226Z" fill="#BFBFBF"/>
<path d="M130.731 251.622L130.711 261.38L128.596 262.617L128.616 252.839L130.731 251.622Z" fill="#7185A8"/>
<path d="M130.874 251.424V261.183C130.869 261.135 130.851 261.091 130.823 261.052C130.795 261.014 130.758 260.983 130.715 260.963V251.205C130.758 251.225 130.795 251.255 130.823 251.294C130.851 251.332 130.869 251.377 130.874 251.424Z" fill="#BFBFBF"/>
<path d="M130.87 251.421V261.18C130.87 261.18 130.87 261.32 130.73 261.379V251.621C130.768 251.602 130.801 251.573 130.825 251.539C130.85 251.504 130.865 251.464 130.87 251.421Z" fill="#7185A8"/>
<path d="M128.617 252.838V262.597C128.506 262.656 128.383 262.687 128.258 262.687C128.132 262.687 128.009 262.656 127.898 262.597V252.838C128.009 252.898 128.132 252.929 128.258 252.929C128.383 252.929 128.506 252.898 128.617 252.838Z" fill="#7185A8"/>
<path d="M127.921 252.84L127.901 262.619L107.486 250.825L107.526 241.066L127.921 252.84Z" fill="#7185A8"/>
<path d="M123.853 255.494V265.253C123.847 265.21 123.832 265.17 123.808 265.135C123.783 265.101 123.751 265.072 123.713 265.053V255.294C123.75 255.315 123.781 255.344 123.806 255.378C123.83 255.413 123.846 255.452 123.853 255.494Z" fill="#BFBFBF"/>
<path d="M123.853 255.494V265.253C123.851 265.298 123.837 265.343 123.812 265.381C123.788 265.42 123.753 265.451 123.713 265.472V255.714C123.752 255.691 123.786 255.659 123.81 255.621C123.834 255.583 123.849 255.539 123.853 255.494Z" fill="#7185A8"/>
<path d="M110.322 239.429V249.188C110.215 249.129 110.094 249.097 109.972 249.097C109.85 249.097 109.73 249.129 109.623 249.188V239.429C109.73 239.37 109.85 239.339 109.972 239.339C110.094 239.339 110.215 239.37 110.322 239.429Z" fill="#BFBFBF"/>
<path d="M109.642 239.432L109.602 249.19L107.486 250.427L107.526 240.669L109.642 239.432Z" fill="#BFBFBF"/>
<path d="M107.328 250.625V240.866C107.33 240.821 107.344 240.776 107.368 240.738C107.393 240.699 107.427 240.668 107.468 240.647V250.405C107.428 250.428 107.395 250.46 107.371 250.498C107.347 250.536 107.332 250.58 107.328 250.625Z" fill="#BFBFBF"/>
<path d="M107.328 250.624V240.865C107.333 240.907 107.349 240.948 107.373 240.982C107.397 241.017 107.43 241.046 107.468 241.065V250.823C107.431 250.803 107.399 250.774 107.375 250.74C107.351 250.705 107.335 250.665 107.328 250.624Z" fill="#7185A8"/>
<path d="M123.706 255.294L123.667 265.053L103.271 253.279L103.291 243.52L123.706 255.294Z" fill="#BFBFBF"/>
<path d="M123.71 255.713L123.67 265.472L121.555 266.709L121.595 256.931L123.71 255.713Z" fill="#7185A8"/>
<path d="M121.575 256.931V266.69C121.469 266.749 121.348 266.78 121.226 266.78C121.104 266.78 120.984 266.749 120.877 266.69V256.931C120.984 256.991 121.104 257.022 121.226 257.022C121.348 257.022 121.469 256.991 121.575 256.931Z" fill="#7185A8"/>
<path d="M120.894 256.93L120.854 266.688L100.459 254.914L100.499 245.156L120.894 256.93Z" fill="#7185A8"/>
<path d="M116.806 259.585V269.343C116.797 269.3 116.778 269.259 116.75 269.224C116.723 269.19 116.687 269.162 116.646 269.144V259.385C116.766 259.445 116.806 259.525 116.806 259.585Z" fill="#BFBFBF"/>
<path d="M116.806 259.584V269.342C116.8 269.39 116.783 269.435 116.755 269.473C116.727 269.511 116.69 269.542 116.646 269.562V259.803C116.691 259.785 116.729 259.755 116.757 259.716C116.785 259.678 116.802 259.632 116.806 259.584Z" fill="#7185A8"/>
<path d="M103.295 243.521V253.28C103.184 253.22 103.061 253.189 102.935 253.189C102.81 253.189 102.687 253.22 102.576 253.28V243.521C102.687 243.462 102.81 243.431 102.935 243.431C103.061 243.431 103.184 243.462 103.295 243.521Z" fill="#BFBFBF"/>
<path d="M102.594 243.52L102.554 253.279L100.459 254.516L100.479 244.757L102.594 243.52Z" fill="#BFBFBF"/>
<path d="M100.301 254.696V244.937C100.309 244.896 100.325 244.857 100.349 244.823C100.373 244.788 100.405 244.759 100.44 244.738V254.496C100.403 254.516 100.37 254.544 100.346 254.579C100.321 254.613 100.306 254.654 100.301 254.696Z" fill="#BFBFBF"/>
<path d="M100.301 254.694V244.936C100.307 244.983 100.324 245.028 100.352 245.066C100.38 245.104 100.417 245.135 100.46 245.155V254.914C100.417 254.894 100.38 254.863 100.352 254.825C100.324 254.786 100.307 254.741 100.301 254.694Z" fill="#7185A8"/>
<path d="M116.665 259.384L116.646 269.142L96.2305 257.368L96.2704 247.61L116.665 259.384Z" fill="#BFBFBF"/>
<path d="M116.667 259.804L116.647 269.563L114.531 270.78L114.571 261.022L116.667 259.804Z" fill="#7185A8"/>
<path d="M114.55 261.023V270.782C114.44 270.841 114.317 270.872 114.191 270.872C114.066 270.872 113.942 270.841 113.832 270.782V261.023C113.941 261.086 114.065 261.12 114.191 261.12C114.317 261.12 114.441 261.086 114.55 261.023Z" fill="#7185A8"/>
<path d="M113.851 261.021L113.831 270.779L93.4355 259.005L93.4555 249.247L113.851 261.021Z" fill="#7185A8"/>
<path d="M109.783 263.676V273.435C109.78 273.389 109.764 273.345 109.735 273.309C109.706 273.273 109.667 273.247 109.623 273.235V263.457C109.666 263.477 109.703 263.507 109.731 263.546C109.759 263.584 109.777 263.629 109.783 263.676Z" fill="#BFBFBF"/>
<path d="M109.783 263.677V273.436C109.783 273.436 109.783 273.575 109.623 273.635V263.877C109.623 263.877 109.783 263.857 109.783 263.677Z" fill="#7185A8"/>
<path d="M96.2497 247.612V257.371C96.1393 257.311 96.0158 257.28 95.8905 257.28C95.7651 257.28 95.6417 257.311 95.5312 257.371V247.612C95.6405 247.549 95.7644 247.516 95.8905 247.516C96.0166 247.516 96.1405 247.549 96.2497 247.612Z" fill="#BFBFBF"/>
<path d="M95.5533 247.61L95.5333 257.368L93.418 258.586L93.4579 248.827L95.5533 247.61Z" fill="#BFBFBF"/>
<path d="M93.2578 258.786V249.027C93.263 248.985 93.2784 248.945 93.3028 248.91C93.3271 248.875 93.3597 248.847 93.3975 248.828V258.586C93.3607 258.607 93.329 258.635 93.3048 258.67C93.2806 258.704 93.2645 258.744 93.2578 258.786Z" fill="#BFBFBF"/>
<path d="M93.2578 258.785V249.026C93.2597 249.072 93.2736 249.116 93.2982 249.155C93.3227 249.193 93.357 249.225 93.3975 249.246V259.004C93.3582 258.982 93.3249 258.95 93.3005 258.912C93.2762 258.874 93.2615 258.83 93.2578 258.785Z" fill="#7185A8"/>
<path d="M109.638 263.477L109.598 273.235L89.2031 261.461L89.243 251.703L109.638 263.477Z" fill="#BFBFBF"/>
<path d="M109.639 263.876L109.619 273.634L107.504 274.872L107.524 265.113L109.639 263.876Z" fill="#7185A8"/>
<path d="M107.525 265.113V274.871C107.416 274.926 107.297 274.954 107.175 274.954C107.054 274.954 106.935 274.926 106.826 274.871V265.113C106.935 265.164 107.055 265.191 107.175 265.191C107.296 265.191 107.415 265.164 107.525 265.113Z" fill="#7185A8"/>
<path d="M106.806 265.111L106.786 274.869L86.3906 263.095L86.4106 253.336L106.806 265.111Z" fill="#7185A8"/>
<path d="M102.736 267.845V277.604C102.737 277.557 102.721 277.511 102.692 277.475C102.663 277.438 102.622 277.413 102.576 277.404V267.625C102.62 267.644 102.659 267.674 102.687 267.713C102.715 267.751 102.732 267.797 102.736 267.845Z" fill="#BFBFBF"/>
<path d="M102.736 267.847V277.606C102.736 277.606 102.736 277.745 102.576 277.805V268.047C102.618 268.03 102.654 268.003 102.682 267.968C102.71 267.933 102.729 267.891 102.736 267.847Z" fill="#7185A8"/>
<path d="M89.2243 251.681V261.44C89.111 261.39 88.9887 261.365 88.8651 261.365C88.7414 261.365 88.6192 261.39 88.5059 261.44V251.681C88.6168 251.623 88.74 251.593 88.8651 251.593C88.9901 251.593 89.1133 251.623 89.2243 251.681Z" fill="#BFBFBF"/>
<path d="M88.5259 251.703L88.506 261.461L86.3906 262.678L86.4106 252.92L88.5259 251.703Z" fill="#BFBFBF"/>
<path d="M86.2344 262.877V253.118C86.2344 253.118 86.2344 252.978 86.394 252.918V262.677C86.3525 262.694 86.3159 262.721 86.2879 262.756C86.2599 262.791 86.2415 262.832 86.2344 262.877Z" fill="#BFBFBF"/>
<path d="M86.2344 262.878V253.12C86.2401 253.167 86.2578 253.212 86.2857 253.25C86.3137 253.288 86.3509 253.319 86.394 253.339V263.098C86.3497 263.079 86.3114 263.049 86.2832 263.01C86.255 262.972 86.2381 262.926 86.2344 262.878Z" fill="#7185A8"/>
<path d="M102.597 267.568L102.577 277.326L82.1816 265.552L82.2016 255.793L102.597 267.568Z" fill="#BFBFBF"/>
<path d="M102.596 267.965L102.576 277.724L100.48 278.961L100.5 269.203L102.596 267.965Z" fill="#7185A8"/>
<path d="M100.501 269.184V278.942C100.394 279.002 100.274 279.033 100.152 279.033C100.03 279.033 99.9095 279.002 99.8027 278.942V269.184C99.9106 269.24 100.03 269.269 100.152 269.269C100.274 269.269 100.393 269.24 100.501 269.184Z" fill="#7185A8"/>
<path d="M76.1147 283.292V293.051C76.1147 293.051 76.1147 292.911 75.9551 292.851V283.093C75.975 283.153 76.1147 283.213 76.1147 283.292Z" fill="#BFBFBF"/>
<path d="M76.1147 283.295V293.053C76.1147 293.053 76.1147 293.193 75.9551 293.253V283.494C75.975 283.435 76.1147 283.375 76.1147 283.295Z" fill="#7185A8"/>
<path d="M75.8721 283.093L75.8521 292.851L55.457 281.077L55.477 271.319L75.8721 283.093Z" fill="#BFBFBF"/>
<path d="M75.8751 283.511L75.8551 293.269L73.7598 294.487L73.7797 284.728L75.8751 283.511Z" fill="#7185A8"/>
<path d="M73.7785 284.712V294.49C73.6686 294.539 73.5496 294.565 73.4293 294.565C73.309 294.565 73.19 294.539 73.0801 294.49V284.712C73.188 284.768 73.3078 284.797 73.4293 284.797C73.5509 284.797 73.6706 284.768 73.7785 284.712Z" fill="#7185A8"/>
<path d="M73.0654 284.73L73.0455 294.488L52.6504 282.714L52.6703 272.956L73.0654 284.73Z" fill="#7185A8"/>
<path d="M55.4758 271.3V281.079C55.369 281.019 55.2488 280.988 55.1266 280.988C55.0044 280.988 54.8842 281.019 54.7773 281.079V271.3C54.8879 271.254 55.0066 271.229 55.1266 271.229C55.2465 271.229 55.3653 271.254 55.4758 271.3Z" fill="#BFBFBF"/>
<path d="M54.7657 271.319L54.7458 281.077L52.6504 282.295L52.6703 272.536L54.7657 271.319Z" fill="#BFBFBF"/>
<path d="M52.4863 282.495V272.736C52.4863 272.736 52.4863 272.876 52.646 272.936V282.694C52.5262 282.635 52.4863 282.575 52.4863 282.495Z" fill="#7185A8"/>
<path d="M68.833 287.184L68.8131 296.942L48.418 285.168L48.4379 275.41L68.833 287.184Z" fill="#BFBFBF"/>
<path d="M68.8501 287.583L68.8302 297.341L66.7148 298.578L66.7348 288.82L68.8501 287.583Z" fill="#7185A8"/>
<path d="M68.9893 287.383V297.142C68.9893 297.142 68.9893 297.002 68.8496 296.942V287.184C68.8496 287.184 68.9893 287.303 68.9893 287.383Z" fill="#BFBFBF"/>
<path d="M68.9893 287.385V297.143C68.9893 297.143 68.9893 297.283 68.8496 297.343V287.584C68.8496 287.584 68.9893 287.465 68.9893 287.385Z" fill="#7185A8"/>
<path d="M66.7356 288.802V298.56C66.6288 298.62 66.5086 298.651 66.3863 298.651C66.2641 298.651 66.1439 298.62 66.0371 298.56V288.802C66.145 288.858 66.2648 288.887 66.3863 288.887C66.5079 288.887 66.6277 288.858 66.7356 288.802Z" fill="#7185A8"/>
<path d="M173.698 228.772C173.872 228.827 174.024 228.936 174.132 229.083C174.239 229.23 174.297 229.408 174.297 229.59C174.297 229.772 174.239 229.95 174.132 230.097C174.024 230.244 173.872 230.353 173.698 230.408L170.884 232.045C170.447 232.261 169.965 232.373 169.477 232.373C168.989 232.373 168.508 232.261 168.07 232.045L143.285 217.736C143.111 217.681 142.959 217.572 142.851 217.425C142.744 217.278 142.686 217.1 142.686 216.918C142.686 216.735 142.744 216.558 142.851 216.411C142.959 216.264 143.111 216.155 143.285 216.1L146.099 214.463C146.537 214.237 147.023 214.12 147.516 214.12C148.009 214.12 148.494 214.237 148.933 214.463L173.698 228.772Z" fill="#7185A8"/>
<path d="M188.088 246.854C188.088 243.601 188.088 240.348 188.088 237.095C189.394 236.426 190.841 236.077 192.309 236.077C193.776 236.077 195.223 236.426 196.529 237.095V246.854C195.222 246.188 193.776 245.841 192.309 245.841C190.841 245.841 189.395 246.188 188.088 246.854Z" fill="#BFBFBF"/>
<path d="M144.783 243.04C144.983 243.16 144.983 243.339 144.783 243.439L142.668 244.676C142.556 244.731 142.433 244.759 142.309 244.759C142.184 244.759 142.062 244.731 141.95 244.676L121.575 232.882C121.522 232.882 121.471 232.861 121.433 232.824C121.396 232.786 121.375 232.736 121.375 232.683C121.375 232.63 121.396 232.579 121.433 232.542C121.471 232.504 121.522 232.483 121.575 232.483L123.69 231.246C123.798 231.191 123.918 231.163 124.039 231.163C124.16 231.163 124.28 231.191 124.388 231.246L144.783 243.04Z" fill="#7185A8"/>
<path d="M137.755 247.111C137.955 247.231 137.955 247.43 137.755 247.53L135.64 248.767C135.531 248.822 135.412 248.85 135.29 248.85C135.169 248.85 135.05 248.822 134.941 248.767L114.546 236.993C114.347 236.874 114.347 236.694 114.546 236.594L116.661 235.357C116.773 235.302 116.896 235.274 117.021 235.274C117.145 235.274 117.268 235.302 117.38 235.357L137.755 247.111Z" fill="#7185A8"/>
<path d="M244.644 279.499L244.624 289.257L187.77 256.449L187.809 246.671L244.644 279.499Z" fill="#BFBFBF"/>
<path d="M239.013 282.774L238.993 292.533L182.139 259.725L182.159 249.966L239.013 282.774Z" fill="#546F9E"/>
<path d="M187.806 246.671L187.766 256.449L182.139 259.722L182.159 249.944L187.806 246.671Z" fill="#BFBFBF"/>
<path d="M130.717 251.204C130.916 251.323 130.916 251.503 130.717 251.623L128.601 252.84C128.491 252.899 128.368 252.93 128.242 252.93C128.117 252.93 127.993 252.899 127.883 252.84L107.488 241.066C107.288 240.946 107.308 240.767 107.488 240.647L109.603 239.429C109.71 239.37 109.83 239.339 109.953 239.339C110.075 239.339 110.195 239.37 110.302 239.429L130.717 251.204Z" fill="#7185A8"/>
<path d="M218.338 274.091L218.318 283.87L179.324 261.36L179.364 251.581L218.338 274.091Z" fill="#BFBFBF"/>
<path d="M212.739 277.366L212.699 287.125L173.725 264.614L173.745 254.856L212.739 277.366Z" fill="#546F9E"/>
<path d="M179.372 251.581L179.332 261.36L173.725 264.612L173.745 254.854L179.372 251.581Z" fill="#BFBFBF"/>
<path d="M99.7803 269.203L99.7603 278.962L79.3652 267.188L79.3852 257.409L99.7803 269.203Z" fill="#7185A8"/>
<path d="M82.2024 255.873V265.632C82.0956 265.572 81.9754 265.541 81.8531 265.541C81.7309 265.541 81.6107 265.572 81.5039 265.632V255.873C81.6118 255.817 81.7316 255.788 81.8531 255.788C81.9747 255.788 82.0945 255.817 82.2024 255.873Z" fill="#BFBFBF"/>
<path d="M81.4806 255.793L81.4606 265.552L79.3652 266.769L79.3852 257.011L81.4806 255.793Z" fill="#BFBFBF"/>
<path d="M79.207 266.969V257.21C79.2158 257.254 79.2349 257.295 79.2627 257.33C79.2905 257.364 79.3261 257.392 79.3667 257.41V267.169C79.2469 267.109 79.207 267.049 79.207 266.969Z" fill="#7185A8"/>
<path d="M116.644 259.385C116.864 259.505 116.864 259.685 116.644 259.804L114.529 261.022C114.422 261.081 114.302 261.112 114.18 261.112C114.057 261.112 113.937 261.081 113.83 261.022L93.4153 249.247C93.2157 249.128 93.2157 248.948 93.4153 248.828L95.5306 247.611C95.6374 247.552 95.7576 247.521 95.8799 247.521C96.0021 247.521 96.1223 247.552 96.2291 247.611L116.644 259.385Z" fill="#7185A8"/>
<path d="M159.672 264.654V274.413C159.232 274.191 158.747 274.076 158.255 274.076C157.763 274.076 157.277 274.191 156.838 274.413V264.674C157.276 264.45 157.76 264.331 158.252 264.328C158.744 264.324 159.231 264.436 159.672 264.654Z" fill="#BFBFBF"/>
<path d="M172.341 278.502L172.321 288.261L154.021 277.704L154.041 267.926L172.341 278.502Z" fill="#758BB6"/>
<path d="M156.858 264.675L156.818 274.433L154.004 276.07L154.044 266.311L156.858 264.675Z" fill="#BFBFBF"/>
<path d="M153.426 276.867V267.108C153.44 266.935 153.498 266.768 153.596 266.625C153.694 266.481 153.828 266.366 153.985 266.29V276.049C153.829 276.126 153.697 276.242 153.599 276.385C153.501 276.528 153.442 276.694 153.426 276.867Z" fill="#BFBFBF"/>
<path d="M153.426 276.866V267.108C153.437 267.284 153.497 267.454 153.6 267.599C153.702 267.743 153.842 267.856 154.005 267.926V277.685C153.843 277.613 153.704 277.499 153.602 277.355C153.5 277.211 153.439 277.042 153.426 276.866Z" fill="#758BB6"/>
<path d="M129.058 273.056V282.814C128.623 282.589 128.141 282.471 127.651 282.471C127.161 282.471 126.679 282.589 126.244 282.814V273.056C126.68 272.833 127.162 272.717 127.651 272.717C128.14 272.717 128.622 272.833 129.058 273.056Z" fill="#BFBFBF"/>
<path d="M66.0366 288.82L65.9966 298.579L45.6016 286.805L45.6215 277.026L66.0366 288.82Z" fill="#7185A8"/>
<path d="M48.4367 275.389V285.148C48.3268 285.099 48.2078 285.074 48.0875 285.074C47.9672 285.074 47.8482 285.099 47.7383 285.148V275.389C47.8451 275.33 47.9653 275.299 48.0875 275.299C48.2097 275.299 48.3299 275.33 48.4367 275.389Z" fill="#BFBFBF"/>
<path d="M218.339 274.092L218.319 283.871L212.691 287.124L212.731 277.365L218.339 274.092Z" fill="#546F9E"/>
<path d="M219.857 286.386L219.837 296.144L169.488 267.068L169.508 257.31L219.857 286.386Z" fill="#BFBFBF"/>
<path d="M217.043 288.024L217.023 297.782L166.674 268.706L166.694 258.948L217.043 288.024Z" fill="#546F9E"/>
<path d="M178.547 276.05V285.809C178.532 285.633 178.47 285.465 178.368 285.322C178.267 285.178 178.129 285.064 177.969 284.99V275.232C178.131 275.302 178.272 275.415 178.374 275.559C178.476 275.704 178.536 275.874 178.547 276.05Z" fill="#BFBFBF"/>
<path d="M178.55 276.048V285.806C178.53 285.983 178.465 286.152 178.36 286.295C178.255 286.439 178.114 286.552 177.951 286.625V276.866C178.111 276.791 178.25 276.676 178.355 276.533C178.46 276.39 178.527 276.223 178.55 276.048Z" fill="#758BB6"/>
<path d="M47.7369 275.392L47.7169 285.15L45.6016 286.387L45.6215 276.629L47.7369 275.392Z" fill="#BFBFBF"/>
<path d="M218.344 274.091L212.736 277.364L173.742 254.854L179.37 251.581L218.344 274.091Z" fill="#546F9E"/>
<path d="M45.4414 286.586V276.827C45.4414 276.827 45.4414 276.967 45.5811 277.027V286.785C45.5013 286.725 45.4414 286.665 45.4414 286.586Z" fill="#7185A8"/>
<path d="M177.97 276.867L177.951 286.625L175.137 288.262L175.177 278.503L177.97 276.867Z" fill="#758BB6"/>
<path d="M185.034 320.033L185.014 329.811L116.365 290.178L116.405 280.42L185.034 320.033Z" fill="#284C8B"/>
<path d="M126.243 273.055L126.204 282.814L116.365 288.541L116.385 278.783L126.243 273.055Z" fill="#BFBFBF"/>
<path d="M175.156 278.504V288.262C174.715 288.479 174.23 288.592 173.739 288.592C173.248 288.592 172.763 288.479 172.322 288.262V278.504C172.762 278.724 173.247 278.838 173.739 278.838C174.231 278.838 174.716 278.724 175.156 278.504Z" fill="#758BB6"/>
<path d="M177.893 275.23C178.067 275.285 178.219 275.394 178.327 275.541C178.435 275.688 178.493 275.866 178.493 276.048C178.493 276.23 178.435 276.408 178.327 276.555C178.219 276.702 178.067 276.811 177.893 276.866L175.079 278.502C174.642 278.719 174.161 278.831 173.673 278.831C173.184 278.831 172.703 278.719 172.266 278.502L154.046 267.846C153.881 267.782 153.739 267.669 153.64 267.523C153.54 267.377 153.486 267.205 153.486 267.028C153.486 266.851 153.54 266.678 153.64 266.532C153.739 266.386 153.881 266.274 154.046 266.21L156.86 264.593C157.299 264.372 157.784 264.257 158.276 264.257C158.768 264.257 159.254 264.372 159.693 264.593L177.893 275.23Z" fill="#758BB6"/>
<path d="M115.768 289.338V279.58C115.783 279.407 115.844 279.241 115.946 279.101C116.048 278.96 116.187 278.85 116.346 278.782V288.54C116.189 288.612 116.053 288.723 115.951 288.863C115.85 289.003 115.787 289.167 115.768 289.338Z" fill="#BFBFBF"/>
<path d="M61.8276 291.255L61.7877 301.034L41.3926 289.239L41.4125 279.481L61.8276 291.255Z" fill="#BFBFBF"/>
<path d="M59.0112 292.89L58.9713 302.648L38.5762 290.874L38.5961 281.116L59.0112 292.89Z" fill="#7185A8"/>
<path d="M41.4133 279.479V289.238C41.3049 289.183 41.1853 289.155 41.0641 289.155C40.9428 289.155 40.8232 289.183 40.7148 289.238V279.479C40.8227 279.423 40.9425 279.394 41.0641 279.394C41.1856 279.394 41.3054 279.423 41.4133 279.479Z" fill="#BFBFBF"/>
<path d="M4.9707 289.797V279.999C5.0737 278.952 5.45073 277.95 6.06382 277.096C6.67692 276.241 7.50442 275.563 8.46301 275.129V284.888C7.49894 285.324 6.66782 286.009 6.05434 286.871C5.44087 287.734 5.06695 288.743 4.9707 289.797Z" fill="#8899B7"/>
<path d="M143.251 300.815L143.231 310.574L112.359 292.753L112.379 282.995L143.251 300.815Z" fill="#BFBFBF"/>
<path d="M115.768 289.34V279.582C115.783 279.757 115.845 279.925 115.947 280.069C116.048 280.212 116.186 280.327 116.346 280.4V290.178C116.186 290.1 116.048 289.982 115.947 289.835C115.846 289.688 115.784 289.518 115.768 289.34Z" fill="#284C8B"/>
<path d="M40.7158 279.481L40.6759 289.239L38.5605 290.477L38.6005 280.718L40.7158 279.481Z" fill="#BFBFBF"/>
<path d="M38.4199 290.658V280.9C38.4265 280.861 38.4427 280.824 38.4671 280.792C38.4915 280.761 38.5233 280.736 38.5596 280.72V290.479C38.5208 290.491 38.4866 290.515 38.4617 290.547C38.4367 290.579 38.4221 290.618 38.4199 290.658Z" fill="#BFBFBF"/>
<path d="M38.4199 290.657V280.899C38.4257 280.946 38.4434 280.991 38.4713 281.029C38.4992 281.068 38.5365 281.098 38.5796 281.118V290.877C38.5339 290.861 38.4941 290.831 38.4656 290.792C38.4371 290.753 38.4212 290.706 38.4199 290.657Z" fill="#7185A8"/>
<path d="M244.643 279.499L239.015 282.771L182.16 249.964L187.808 246.671L244.643 279.499Z" fill="#546F9E"/>
<path d="M244.64 279.501L244.62 289.26L238.992 292.533L239.012 282.774L244.64 279.501Z" fill="#546F9E"/>
<path d="M54.7827 300.255L54.7627 310.013L25.9062 293.35L25.9262 283.591L54.7827 300.255Z" fill="#BFBFBF"/>
<path d="M212.572 397.083L212.552 406.842L18.5195 294.828L18.5395 285.07L212.572 397.083Z" fill="#BFBFBF"/>
<path d="M24.2305 290.856V281.098C24.28 281.631 24.4707 282.141 24.7828 282.576C25.095 283.011 25.5174 283.355 26.0066 283.572V293.331C25.5149 293.117 25.0903 292.774 24.7776 292.338C24.4649 291.903 24.2759 291.39 24.2305 290.856V290.856Z" fill="#BFBFBF"/>
<path d="M75.8759 283.093C76.0755 283.093 76.0755 283.372 75.8759 283.492L73.7805 284.709C73.6701 284.768 73.5467 284.8 73.4213 284.8C73.2959 284.8 73.1725 284.768 73.0621 284.709L52.667 272.935C52.4674 272.815 52.4475 272.656 52.667 272.536L54.7624 271.299C54.8757 271.249 54.998 271.224 55.1216 271.224C55.2452 271.224 55.3675 271.249 55.4808 271.299L75.8759 283.093Z" fill="#7185A8"/>
<path d="M208.183 403.469L208.143 413.227L5.70898 296.344L5.72894 286.586L208.183 403.469Z" fill="#8899B7"/>
<path d="M4.9707 289.798V280C5.06386 281.065 5.44059 282.086 6.06176 282.956C6.68292 283.826 7.52585 284.514 8.50292 284.949V294.707C7.53138 294.276 6.69211 293.594 6.07134 292.731C5.45057 291.869 5.07068 290.856 4.9707 289.798Z" fill="#213556"/>
<path d="M137.642 304.067L137.602 313.845L106.73 296.005L106.75 286.246L137.642 304.067Z" fill="#283C62"/>
<path d="M112.378 282.995L112.358 292.753L106.73 296.006L106.75 286.247L112.378 282.995Z" fill="#BFBFBF"/>
<path d="M219.859 286.385L219.839 296.143L217.025 297.78L217.045 288.021L219.859 286.385Z" fill="#546F9E"/>
<path d="M100.92 289.4V299.159C100.482 298.933 99.9957 298.815 99.5028 298.815C99.0099 298.815 98.5241 298.933 98.0859 299.159V289.4C98.5241 289.174 99.0099 289.057 99.5028 289.057C99.9957 289.057 100.482 289.174 100.92 289.4Z" fill="#BFBFBF"/>
<path d="M61.9463 291.454V301.232C61.9444 301.187 61.9305 301.142 61.906 301.104C61.8815 301.065 61.8472 301.034 61.8066 301.013V291.254C61.8445 291.274 61.877 291.302 61.9014 291.337C61.9257 291.372 61.9412 291.412 61.9463 291.454Z" fill="#BFBFBF"/>
<path d="M61.9463 291.454V301.233C61.9412 301.275 61.9257 301.315 61.9014 301.35C61.877 301.385 61.8445 301.413 61.8066 301.432V291.674C61.8472 291.653 61.8815 291.621 61.906 291.583C61.9305 291.544 61.9444 291.5 61.9463 291.454Z" fill="#7185A8"/>
<path d="M61.8271 291.673L61.7872 301.432L59.6719 302.669L59.7118 292.911L61.8271 291.673Z" fill="#7185A8"/>
<path d="M59.6926 292.891V302.65C59.5858 302.709 59.4656 302.74 59.3434 302.74C59.2211 302.74 59.1009 302.709 58.9941 302.65V292.891C59.1009 292.951 59.2211 292.982 59.3434 292.982C59.4656 292.982 59.5858 292.951 59.6926 292.891Z" fill="#7185A8"/>
<path d="M255.918 301.033V310.792C255.829 310.511 255.684 310.251 255.492 310.028C255.3 309.806 255.065 309.624 254.8 309.494C253.736 308.931 252.525 308.701 251.328 308.836V299.077C252.517 298.94 253.719 299.163 254.781 299.716C255.048 299.849 255.286 300.034 255.481 300.26C255.677 300.487 255.825 300.749 255.918 301.033Z" fill="#BFBFBF"/>
<path d="M267.692 310.433V302.809C267.662 302.477 267.662 302.143 267.692 301.812C267.692 304.685 267.692 307.559 267.692 310.433Z" fill="#BFBFBF"/>
<path d="M251.328 299.077L251.308 308.835L222.512 311.529L222.532 301.771L251.328 299.077Z" fill="#BFBFBF"/>
<path d="M63.2661 300.256V310.014C61.9562 310.683 60.5063 311.032 59.0354 311.032C57.5645 311.032 56.1146 310.683 54.8047 310.014V300.236C56.1153 300.9 57.5635 301.248 59.033 301.252C60.5025 301.255 61.9523 300.914 63.2661 300.256Z" fill="#BFBFBF"/>
<path d="M179.887 227.494C182.222 228.851 182.262 231.046 179.887 232.403L63.1444 300.254C61.8296 300.918 60.377 301.265 58.9037 301.265C57.4305 301.265 55.9778 300.918 54.6631 300.254L27.1188 284.263C26.3257 283.802 25.3956 283.502 24.7982 282.806C24.7481 282.748 24.7005 282.687 24.6556 282.625C24.341 282.184 24.1719 281.657 24.1719 281.116C24.1719 280.575 24.341 280.047 24.6556 279.607C24.6999 279.545 24.7467 279.486 24.7959 279.428C25.394 278.73 26.3266 278.429 27.1214 277.967L142.669 210.811C143.983 210.141 145.436 209.792 146.91 209.792C148.384 209.792 149.837 210.141 151.151 210.811L179.887 227.494ZM170.844 232.044C170.834 232.044 170.831 232.03 170.839 232.025L173.54 230.455C173.594 230.424 173.652 230.4 173.709 230.374C173.846 230.314 173.966 230.218 174.055 230.097C174.162 229.949 174.221 229.772 174.221 229.589C174.221 229.407 174.162 229.229 174.055 229.082C173.842 228.791 173.464 228.68 173.152 228.499L148.935 214.463C148.497 214.237 148.011 214.119 147.519 214.119C147.026 214.119 146.54 214.237 146.102 214.463L143.757 215.826C143.445 216.008 143.067 216.119 142.854 216.41C142.747 216.557 142.688 216.735 142.688 216.917C142.688 217.1 142.747 217.277 142.854 217.424C143.067 217.715 143.445 217.826 143.758 218.007L168.073 232.044C168.511 232.26 168.992 232.373 169.48 232.373C169.954 232.373 170.422 232.267 170.849 232.063C170.858 232.058 170.855 232.044 170.844 232.044ZM107.527 265.111L109.171 264.134C109.479 263.951 109.95 263.619 109.642 263.435L89.2269 251.681C89.1186 251.626 88.999 251.598 88.8777 251.598C88.7564 251.598 88.6369 251.626 88.5285 251.681L86.4131 252.918C86.2136 253.018 86.2136 253.217 86.4131 253.337L106.808 265.111C106.92 265.166 107.043 265.194 107.167 265.194C107.292 265.194 107.415 265.166 107.527 265.111ZM73.781 284.708L75.8763 283.491C76.0759 283.371 76.0759 283.191 75.8763 283.092L55.4813 271.298C55.368 271.248 55.2457 271.223 55.1221 271.223C54.9984 271.223 54.8761 271.248 54.7628 271.298L52.6675 272.535C52.4479 272.655 52.4679 272.814 52.6675 272.934L73.0625 284.708C73.173 284.767 73.2964 284.798 73.4218 284.798C73.5471 284.798 73.6705 284.767 73.781 284.708ZM100.502 269.231C100.502 269.201 100.518 269.173 100.544 269.158L102.598 267.965C102.797 267.845 102.797 267.666 102.598 267.546L82.2024 255.872C82.092 255.812 81.9686 255.781 81.8432 255.781C81.7178 255.781 81.5944 255.812 81.484 255.872L79.3886 257.089C79.1691 257.209 79.1891 257.388 79.3886 257.508L99.7837 269.282C99.8941 269.341 100.018 269.372 100.143 269.372C100.251 269.372 100.358 269.349 100.457 269.305C100.485 269.292 100.502 269.262 100.502 269.231ZM135.634 248.757C135.64 248.763 135.65 248.764 135.657 248.76L137.76 247.53C137.96 247.43 137.96 247.231 137.76 247.111L117.365 235.337C117.253 235.282 117.13 235.254 117.006 235.254C116.881 235.254 116.758 235.282 116.647 235.337L114.531 236.574C114.352 236.674 114.352 236.853 114.531 236.973L134.926 248.747C135.035 248.802 135.154 248.83 135.276 248.83C135.392 248.83 135.507 248.804 135.613 248.753C135.62 248.75 135.629 248.751 135.634 248.757ZM59.6819 292.89C59.6885 292.89 59.695 292.888 59.7008 292.885L61.8073 291.673C62.0069 291.553 62.0069 291.373 61.8073 291.254L41.4122 279.48C41.3018 279.42 41.1784 279.389 41.053 279.389C40.9277 279.389 40.8042 279.42 40.6938 279.48L39.0284 280.454C38.7338 280.626 38.2945 280.927 38.5785 281.116L58.9736 292.89C59.0804 292.949 59.2006 292.981 59.3228 292.981C59.4417 292.981 59.5588 292.951 59.6634 292.895C59.6691 292.892 59.6754 292.89 59.6819 292.89ZM142.689 244.676L144.805 243.439C144.984 243.339 144.984 243.16 144.805 243.04L124.409 231.266C124.301 231.211 124.182 231.183 124.06 231.183C123.939 231.183 123.819 231.211 123.711 231.266L121.731 232.424C121.642 232.476 121.527 232.489 121.455 232.561C121.417 232.599 121.396 232.65 121.396 232.703C121.396 232.755 121.417 232.806 121.455 232.844C121.527 232.916 121.642 232.929 121.731 232.981L141.971 244.676C142.083 244.731 142.206 244.759 142.33 244.759C142.455 244.759 142.577 244.731 142.689 244.676ZM121.566 256.929C121.572 256.929 121.579 256.927 121.584 256.924L123.691 255.712C123.891 255.592 123.891 255.413 123.691 255.293L103.296 243.519C103.186 243.459 103.062 243.428 102.937 243.428C102.811 243.428 102.688 243.459 102.578 243.519L100.462 244.736C100.283 244.856 100.283 245.035 100.462 245.155L120.857 256.929C120.964 256.989 121.084 257.02 121.207 257.02C121.325 257.02 121.442 256.99 121.547 256.934C121.553 256.931 121.559 256.929 121.566 256.929ZM128.658 252.838C128.642 252.838 128.637 252.817 128.651 252.809L130.716 251.621C130.895 251.501 130.895 251.322 130.716 251.202L110.32 239.428C110.214 239.368 110.093 239.337 109.971 239.337C109.849 239.337 109.729 239.368 109.622 239.428L107.507 240.645C107.327 240.765 107.307 240.944 107.507 241.064L128.002 252.838C128.112 252.898 128.235 252.929 128.361 252.929C128.466 252.929 128.569 252.907 128.665 252.865C128.679 252.859 128.674 252.838 128.658 252.838ZM114.651 261.02L116.667 259.863C116.866 259.743 116.866 259.563 116.667 259.444L96.2714 247.67C96.1646 247.61 96.0444 247.579 95.9222 247.579C95.8 247.579 95.6798 247.61 95.573 247.67L93.4576 248.887C93.2581 249.007 93.2581 249.186 93.4576 249.306L113.873 261.08C113.979 261.139 114.1 261.171 114.222 261.171C114.344 261.171 114.464 261.139 114.571 261.08L114.651 261.02ZM66.7365 288.799L68.8518 287.582C69.0314 287.462 69.0314 287.282 68.8518 287.183L48.4368 275.389C48.33 275.329 48.2098 275.298 48.0875 275.298C47.9653 275.298 47.8451 275.329 47.7383 275.389L45.623 276.626C45.4234 276.726 45.4234 276.905 45.623 277.025L66.0181 288.799C66.1285 288.858 66.2519 288.889 66.3773 288.889C66.5026 288.889 66.6261 288.858 66.7365 288.799Z" fill="url(#paint0_linear)"/>
<path d="M267.694 311.571C267.475 311.674 267.287 311.834 267.15 312.034C267.013 312.234 266.932 312.467 266.916 312.709V302.95C266.923 302.701 267 302.459 267.137 302.251C267.275 302.043 267.468 301.877 267.694 301.773C267.694 303.19 267.694 304.607 267.694 306.024C267.694 307.86 267.694 309.695 267.694 311.531C267.694 308.279 267.694 305.026 267.694 301.773C268.415 301.447 269.203 301.296 269.993 301.331C270.783 301.365 271.555 301.585 272.244 301.972V311.731C271.551 311.35 270.779 311.137 269.988 311.109C269.198 311.081 268.412 311.24 267.694 311.571Z" fill="#BFBFBF"/>
<path d="M273.399 313.246C273.358 312.924 273.233 312.617 273.037 312.358C272.841 312.099 272.581 311.896 272.281 311.769V302.011C272.582 302.133 272.843 302.336 273.036 302.596C273.23 302.856 273.348 303.165 273.379 303.487C273.419 306.421 273.399 310.332 273.399 313.246Z" fill="#BFBFBF"/>
<path d="M73.5801 313.865V304.106C73.5997 303.929 73.6652 303.761 73.7703 303.617C73.8753 303.474 74.0162 303.36 74.1788 303.288V313.047C74.0184 313.122 73.8796 313.236 73.775 313.379C73.6704 313.522 73.6034 313.689 73.5801 313.865Z" fill="#BFBFBF"/>
<path d="M73.5801 313.866V304.107C73.5956 304.285 73.6595 304.456 73.7651 304.6C73.8706 304.744 74.0137 304.857 74.1788 304.926V314.704C74.0158 314.627 73.8753 314.51 73.7705 314.363C73.6657 314.216 73.6002 314.045 73.5801 313.866Z" fill="#244A8A"/>
<path d="M105.469 323.006L105.449 332.765L74.1777 314.704L74.1977 304.946L105.469 323.006Z" fill="#244A8A"/>
<path d="M98.105 289.418L98.0651 299.177L74.1777 313.046L74.1977 303.288L98.105 289.418Z" fill="#BFBFBF"/>
<path d="M143.247 300.814L143.227 310.572L137.6 313.845L137.64 304.067L143.247 300.814Z" fill="#283C62"/>
<path d="M164.36 313.007L164.34 322.766L143.227 310.572L143.247 300.814L164.36 313.007Z" fill="#BFBFBF"/>
<path d="M273.418 303.488V313.247C273.404 313.489 273.324 313.723 273.187 313.923C273.05 314.124 272.861 314.283 272.64 314.384C271.921 314.714 271.134 314.87 270.344 314.839C269.553 314.808 268.781 314.59 268.09 314.204C267.788 314.076 267.526 313.87 267.329 313.607C267.133 313.344 267.01 313.034 266.973 312.708V302.949C267.012 303.275 267.136 303.584 267.332 303.847C267.528 304.109 267.789 304.316 268.09 304.446C268.781 304.832 269.553 305.049 270.344 305.08C271.134 305.111 271.921 304.956 272.64 304.626C272.864 304.528 273.055 304.37 273.193 304.169C273.331 303.968 273.409 303.732 273.418 303.488Z" fill="#5A719B"/>
<path d="M132.209 307.458L132.19 317.217L100.898 299.156L100.938 289.398L132.209 307.458Z" fill="#BFBFBF"/>
<path d="M257.756 308.197L257.736 317.956L255.9 310.792L255.92 301.033L257.756 308.197Z" fill="#BFBFBF"/>
<path d="M132.79 308.278V318.036C132.783 317.858 132.725 317.686 132.622 317.541C132.519 317.396 132.376 317.284 132.211 317.218V307.459C132.371 307.533 132.509 307.647 132.61 307.791C132.712 307.934 132.774 308.102 132.79 308.278Z" fill="#BFBFBF"/>
<path d="M132.79 308.278V318.037C132.771 318.214 132.705 318.382 132.6 318.526C132.495 318.669 132.354 318.783 132.191 318.855V309.097C132.356 309.028 132.5 308.915 132.605 308.771C132.711 308.627 132.775 308.456 132.79 308.278Z" fill="#244A8A"/>
<path d="M286.814 310.213L286.794 319.971L261.689 319.931L261.729 310.173L286.814 310.213Z" fill="#BFBFBF"/>
<path d="M261.706 310.174V319.932C260.719 319.953 259.743 319.719 258.872 319.254C258.605 319.125 258.367 318.943 258.172 318.721C257.976 318.498 257.828 318.238 257.734 317.957V308.198C257.826 308.477 257.972 308.735 258.164 308.958C258.356 309.181 258.59 309.363 258.852 309.495C259.73 309.961 260.712 310.195 261.706 310.174Z" fill="#BFBFBF"/>
<path d="M158.733 316.259L158.713 326.017L137.6 313.844L137.64 304.065L158.733 316.259Z" fill="#395486"/>
<path d="M138.275 310.972V320.731C137.837 320.505 137.351 320.387 136.858 320.387C136.365 320.387 135.88 320.505 135.441 320.731V310.972C135.88 310.746 136.365 310.628 136.858 310.628C137.351 310.628 137.837 310.746 138.275 310.972Z" fill="#BFBFBF"/>
<path d="M290.782 312.531V322.289C290.75 321.931 290.622 321.588 290.412 321.296C290.201 321.004 289.915 320.775 289.585 320.633C288.725 320.18 287.763 319.953 286.791 319.974V310.216C287.763 310.199 288.723 310.425 289.585 310.874C289.915 311.017 290.201 311.246 290.412 311.538C290.622 311.829 290.75 312.172 290.782 312.531Z" fill="#BFBFBF"/>
<path d="M276.834 351.863L276.814 361.622L137.48 281.179L137.52 271.42L276.834 351.863Z" fill="#BFBFBF"/>
<path d="M197.688 312.688L197.668 322.446L129.039 282.814L129.059 273.055L197.688 312.688Z" fill="#BFBFBF"/>
<path d="M290.779 312.528V322.287C290.774 322.524 290.712 322.757 290.6 322.965V313.207C290.714 312.999 290.776 312.766 290.779 312.528Z" fill="#5A719B"/>
<path d="M198.286 313.506V323.265C198.274 323.088 198.214 322.918 198.112 322.774C198.01 322.629 197.87 322.516 197.707 322.446V312.688C197.868 312.759 198.007 312.873 198.109 313.017C198.211 313.161 198.272 313.33 198.286 313.506Z" fill="#BFBFBF"/>
<path d="M198.286 313.506V323.264C198.269 323.437 198.206 323.602 198.104 323.742C198.003 323.882 197.866 323.993 197.707 324.063V314.304C197.864 314.233 198 314.121 198.102 313.981C198.203 313.842 198.267 313.678 198.286 313.506Z" fill="#284C8B"/>
<path d="M164.36 313.007L158.732 316.26L137.639 304.067L143.246 300.814L164.36 313.007Z" fill="#395486"/>
<path d="M164.359 313.007L164.339 322.766L158.711 326.019L158.731 316.26L164.359 313.007Z" fill="#395486"/>
<path d="M205.39 317.138V326.896C204.955 326.671 204.473 326.553 203.983 326.553C203.493 326.553 203.011 326.671 202.576 326.896V317.138C203.011 316.912 203.493 316.794 203.983 316.794C204.473 316.794 204.955 316.912 205.39 317.138Z" fill="#BFBFBF"/>
<path d="M335.904 317.537L335.884 327.296L196.551 246.853L196.591 237.094L335.904 317.537Z" fill="#BFBFBF"/>
<path d="M337.68 319.992V329.751C337.635 329.221 337.448 328.714 337.139 328.282C336.83 327.85 336.41 327.509 335.924 327.296V317.518C336.408 317.74 336.825 318.085 337.134 318.519C337.442 318.954 337.63 319.462 337.68 319.992Z" fill="#BFBFBF"/>
<path d="M197.704 314.324L197.684 324.082L187.826 329.81L187.866 320.031L197.704 314.324Z" fill="#284C8B"/>
<path d="M337.682 319.971V329.73C337.703 329.895 337.703 330.063 337.682 330.229V320.47C337.693 320.304 337.693 320.137 337.682 319.971Z" fill="#BFBFBF"/>
<path d="M187.869 320.032V329.711C187.431 329.936 186.945 330.054 186.452 330.054C185.959 330.054 185.473 329.936 185.035 329.711V319.952C185.466 320.194 185.949 320.327 186.442 320.341C186.936 320.355 187.425 320.249 187.869 320.032Z" fill="#284C8B"/>
<path d="M197.691 312.687C197.858 312.746 198.002 312.856 198.104 313.001C198.206 313.145 198.261 313.318 198.261 313.495C198.261 313.672 198.206 313.845 198.104 313.989C198.002 314.134 197.858 314.244 197.691 314.303L187.873 320.031C187.438 320.256 186.955 320.374 186.466 320.374C185.976 320.374 185.494 320.256 185.059 320.031L116.39 280.398C116.223 280.338 116.079 280.229 115.977 280.084C115.875 279.939 115.82 279.767 115.82 279.59C115.82 279.413 115.875 279.24 115.977 279.095C116.079 278.951 116.223 278.841 116.39 278.781L126.228 273.054C126.667 272.828 127.152 272.71 127.645 272.71C128.138 272.71 128.624 272.828 129.062 273.054L197.691 312.687Z" fill="#284C8B"/>
<path d="M337.541 320.472V330.23C337.498 330.402 337.438 330.57 337.361 330.729C337.242 330.953 337.094 331.161 336.922 331.348V321.589C337.088 321.403 337.229 321.195 337.341 320.971C337.418 320.809 337.485 320.642 337.541 320.472Z" fill="#BFBFBF"/>
<path d="M348.812 327.715C348.812 324.462 348.812 321.209 348.812 317.937C349.735 318.335 350.54 318.966 351.148 319.766C351.756 320.567 352.148 321.51 352.285 322.506V332.265C352.154 331.269 351.765 330.325 351.155 329.527C350.546 328.729 349.738 328.104 348.812 327.715Z" fill="#213556"/>
<path d="M336.999 321.589V331.347C336.91 331.457 336.809 331.557 336.7 331.647C336.466 331.851 336.212 332.032 335.941 332.186V322.427C336.213 322.266 336.474 322.086 336.72 321.888L336.999 321.589Z" fill="#BFBFBF"/>
<path d="M261.389 364.115L261.37 373.874L192.721 334.241L192.741 324.482L261.389 364.115Z" fill="#284C8B"/>
<path d="M202.599 317.138L202.559 326.896L192.721 332.624L192.741 322.865L202.599 317.138Z" fill="#BFBFBF"/>
<path d="M132.211 309.096L132.171 318.855L108.283 332.744L108.303 322.986L132.211 309.096Z" fill="#244A8A"/>
<path d="M192.119 333.422V323.723C192.139 323.547 192.204 323.378 192.309 323.235C192.414 323.091 192.555 322.977 192.718 322.905V332.664C192.563 332.731 192.427 332.835 192.323 332.967C192.218 333.1 192.148 333.256 192.119 333.422Z" fill="#BFBFBF"/>
<path d="M132.211 307.46C132.989 307.899 132.989 308.638 132.211 309.097L108.264 323.066C107.826 323.292 107.34 323.409 106.847 323.409C106.354 323.409 105.868 323.292 105.43 323.066L74.119 304.926C73.9451 304.871 73.7932 304.762 73.6854 304.615C73.5776 304.468 73.5195 304.29 73.5195 304.108C73.5195 303.925 73.5776 303.748 73.6854 303.6C73.7932 303.453 73.9451 303.344 74.119 303.289L98.0662 289.32C98.5044 289.094 98.9902 288.977 99.4831 288.977C99.976 288.977 100.462 289.094 100.9 289.32L132.211 307.46Z" fill="#244A8A"/>
<path d="M108.302 322.984V332.743C107.867 332.969 107.385 333.086 106.895 333.086C106.405 333.086 105.923 332.969 105.488 332.743V322.984C105.924 323.207 106.406 323.323 106.895 323.323C107.384 323.323 107.866 323.207 108.302 322.984Z" fill="#244A8A"/>
<path d="M192.119 333.424V323.726C192.135 323.904 192.199 324.074 192.304 324.218C192.41 324.363 192.553 324.475 192.718 324.544V334.302C192.544 334.229 192.395 334.107 192.289 333.952C192.183 333.796 192.124 333.613 192.119 333.424Z" fill="#284C8B"/>
<path d="M110.939 335.438V325.72C110.955 325.541 111.019 325.371 111.124 325.227C111.23 325.083 111.373 324.97 111.538 324.901V334.66C111.38 334.727 111.241 334.834 111.136 334.97C111.032 335.107 110.964 335.268 110.939 335.438Z" fill="#BFBFBF"/>
<path d="M110.939 335.439V325.721C110.955 325.899 111.019 326.069 111.124 326.213C111.23 326.358 111.373 326.47 111.538 326.539V336.297C111.369 336.224 111.223 336.105 111.117 335.953C111.012 335.802 110.95 335.624 110.939 335.439Z" fill="#3E5B8D"/>
<path d="M142.828 344.556L142.808 354.314L111.537 336.254L111.557 326.496L142.828 344.556Z" fill="#3E5B8D"/>
<path d="M135.464 310.971L135.425 320.729L111.537 334.619L111.557 324.86L135.464 310.971Z" fill="#BFBFBF"/>
<path d="M169.567 329.031L169.547 338.789L138.256 320.729L138.296 310.971L169.567 329.031Z" fill="#BFBFBF"/>
<path d="M170.153 329.851V339.689C170.138 339.511 170.074 339.341 169.968 339.196C169.863 339.052 169.72 338.939 169.555 338.871V329.112C169.708 329.176 169.843 329.277 169.948 329.406C170.052 329.535 170.123 329.688 170.153 329.851Z" fill="#BFBFBF"/>
<path d="M170.153 329.849V339.687C170.134 339.864 170.068 340.032 169.963 340.176C169.858 340.319 169.717 340.433 169.555 340.505V330.667C169.717 330.595 169.858 330.481 169.963 330.338C170.068 330.194 170.134 330.025 170.153 329.849Z" fill="#3E5B8D"/>
<path d="M177.273 333.482V343.24C176.838 343.014 176.356 342.897 175.866 342.897C175.376 342.897 174.894 343.014 174.459 343.24V333.482C174.895 333.259 175.377 333.143 175.866 333.143C176.355 333.143 176.837 333.259 177.273 333.482Z" fill="#BFBFBF"/>
<path d="M279.386 334.601L279.367 344.36L222.512 311.532L222.532 301.773L279.386 334.601Z" fill="#5A719B"/>
<path d="M290.62 313.205L290.6 322.964L279.365 344.356L279.385 334.598L290.62 313.205Z" fill="#5A719B"/>
<path d="M169.566 330.668L169.526 340.426L145.639 354.316L145.659 344.557L169.566 330.668Z" fill="#3E5B8D"/>
<path d="M169.57 329.031C170.348 329.47 170.348 330.208 169.57 330.667L145.622 344.636C145.184 344.862 144.698 344.98 144.205 344.98C143.713 344.98 143.227 344.862 142.789 344.636L111.517 326.676C111.344 326.621 111.192 326.512 111.084 326.365C110.976 326.218 110.918 326.04 110.918 325.858C110.918 325.675 110.976 325.498 111.084 325.35C111.192 325.203 111.344 325.094 111.517 325.039L135.465 311.07C135.903 310.844 136.389 310.727 136.882 310.727C137.374 310.727 137.86 310.844 138.298 311.07L169.57 329.031Z" fill="#3E5B8D"/>
<path d="M145.661 344.557V354.315C145.227 354.541 144.744 354.659 144.255 354.659C143.765 354.659 143.282 354.541 142.848 354.315V344.557C143.283 344.779 143.765 344.895 144.255 344.895C144.744 344.895 145.226 344.779 145.661 344.557Z" fill="#3E5B8D"/>
<path d="M149.953 357.948V348.189C149.969 348.014 150.031 347.846 150.132 347.702C150.234 347.559 150.372 347.444 150.532 347.371V357.13C150.373 357.204 150.236 357.319 150.135 357.463C150.033 357.606 149.971 357.773 149.953 357.948Z" fill="#BFBFBF"/>
<path d="M149.953 357.948V348.19C149.965 348.366 150.025 348.536 150.127 348.681C150.229 348.825 150.369 348.938 150.532 349.008V358.767C150.371 358.695 150.232 358.581 150.13 358.437C150.028 358.293 149.967 358.124 149.953 357.948Z" fill="#244A8A"/>
<path d="M181.823 367.069L181.803 376.828L150.512 358.788L150.552 349.009L181.823 367.069Z" fill="#244A8A"/>
<path d="M174.439 333.482L174.419 343.24L150.512 357.13L150.552 347.371L174.439 333.482Z" fill="#BFBFBF"/>
<path d="M208.565 351.542L208.525 361.301L177.254 343.24L177.274 333.482L208.565 351.542Z" fill="#BFBFBF"/>
<path d="M335.94 322.426L335.9 332.185L285.271 361.62L285.311 351.861L335.94 322.426Z" fill="#BFBFBF"/>
<path d="M209.143 352.359V362.118C209.127 361.942 209.066 361.774 208.964 361.631C208.862 361.487 208.725 361.373 208.564 361.3V351.541C208.726 351.612 208.865 351.726 208.967 351.87C209.068 352.014 209.13 352.183 209.143 352.359Z" fill="#BFBFBF"/>
<path d="M285.298 351.84V361.639L284.599 361.978C283.351 362.474 282.013 362.699 280.672 362.641C279.33 362.583 278.016 362.241 276.816 361.639V351.88C278.013 352.482 279.323 352.823 280.661 352.882C282 352.94 283.335 352.715 284.579 352.22C284.829 352.115 285.07 351.988 285.298 351.84Z" fill="#BFBFBF"/>
<path d="M336.999 321.589L336.7 321.889C336.454 322.087 336.194 322.267 335.922 322.427L285.293 351.843C285.071 351.982 284.837 352.102 284.595 352.202C283.35 352.697 282.015 352.923 280.677 352.864C279.339 352.806 278.028 352.464 276.832 351.863L138.678 272.101C137.894 271.648 136.976 271.352 136.382 270.668C136.327 270.606 136.276 270.541 136.228 270.474C135.913 270.034 135.744 269.506 135.744 268.965C135.744 268.424 135.913 267.897 136.228 267.457C136.272 267.394 136.319 267.334 136.369 267.277C136.967 266.579 137.899 266.278 138.693 265.817L188.127 237.095C188.656 236.783 189.228 236.548 189.823 236.397C190.554 236.208 191.304 236.101 192.058 236.078C193.625 236.015 195.181 236.366 196.569 237.095L335.902 317.518C336.386 317.737 336.804 318.079 337.116 318.51C337.427 318.94 337.621 319.444 337.678 319.973C337.7 320.304 337.635 320.635 337.495 320.936C337.489 320.947 337.484 320.959 337.478 320.971C337.348 321.198 337.187 321.406 336.999 321.589ZM251.328 299.119C242.401 299.941 239.811 311.75 247.575 316.233L266.767 327.314C273.653 331.29 282.464 328.739 286.162 321.699L290.621 313.208C291.06 312.33 290.621 311.452 289.604 310.873C288.742 310.424 287.781 310.197 286.81 310.214H261.705C260.718 310.232 259.743 309.998 258.871 309.536C258.609 309.404 258.375 309.221 258.183 308.998C257.992 308.776 257.846 308.518 257.754 308.239L255.918 301.074C255.825 300.79 255.677 300.528 255.481 300.302C255.286 300.076 255.048 299.891 254.78 299.757C253.719 299.204 252.517 298.982 251.328 299.119ZM239.015 282.73C239.015 282.75 239.037 282.762 239.054 282.752L241.84 281.132C243.088 280.406 243.086 278.602 241.836 277.879L189.259 247.479C188.397 246.98 187.335 246.974 186.467 247.463C184.565 248.533 184.55 251.267 186.44 252.358L239.002 282.707C239.01 282.712 239.015 282.721 239.015 282.73ZM180.764 252.401C179.887 251.895 178.807 251.897 177.932 252.406C176.056 253.497 176.06 256.208 177.94 257.293L211.296 276.549C212.172 277.055 213.253 277.053 214.127 276.544C216.003 275.453 215.999 272.742 214.12 271.657L180.764 252.401ZM216.334 287.614C216.772 287.867 217.313 287.863 217.747 287.605C218.665 287.059 218.657 285.728 217.733 285.193L170.217 257.721C169.779 257.467 169.238 257.468 168.8 257.722C167.863 258.268 167.865 259.623 168.804 260.166L216.334 287.614ZM175.093 278.504C175.121 278.504 175.149 278.496 175.173 278.482L177.423 277.145C177.733 276.961 178.11 276.847 178.323 276.557C178.431 276.41 178.489 276.232 178.489 276.049C178.489 275.867 178.431 275.689 178.323 275.542C178.11 275.251 177.732 275.14 177.42 274.96L159.59 264.655C159.15 264.433 158.665 264.318 158.173 264.318C157.681 264.318 157.196 264.433 156.756 264.655L154.398 266.026C154.095 266.202 153.734 266.324 153.536 266.614C153.436 266.76 153.383 266.932 153.383 267.109C153.383 267.286 153.436 267.459 153.536 267.605C153.734 267.894 154.095 268.015 154.398 268.191L172.242 278.504C172.68 278.72 173.161 278.833 173.649 278.833C174.125 278.833 174.594 278.726 175.023 278.52C175.045 278.51 175.068 278.504 175.093 278.504ZM272.222 302.012C271.538 301.622 270.772 301.397 269.985 301.355C269.199 301.314 268.413 301.457 267.692 301.773C266.514 302.451 266.674 303.629 268.011 304.407C268.702 304.793 269.474 305.01 270.265 305.041C271.055 305.073 271.842 304.917 272.561 304.587C273.739 303.908 273.579 302.731 272.242 301.972" fill="url(#paint1_linear)"/>
<path d="M209.143 352.36V362.118C209.126 362.293 209.063 362.46 208.961 362.604C208.86 362.747 208.723 362.862 208.564 362.937V353.178C208.723 353.103 208.86 352.989 208.961 352.845C209.063 352.702 209.126 352.535 209.143 352.36Z" fill="#244A8A"/>
<path d="M214.63 355.034V364.812C214.196 364.587 213.713 364.469 213.223 364.469C212.734 364.469 212.251 364.587 211.816 364.812V355.054C212.252 354.833 212.733 354.716 213.221 354.712C213.709 354.709 214.192 354.819 214.63 355.034Z" fill="#BFBFBF"/>
<path d="M274.038 356.75L274.018 366.529L205.369 326.896L205.409 317.138L274.038 356.75Z" fill="#BFBFBF"/>
<path d="M274.62 357.65V367.428C274.602 367.248 274.537 367.077 274.432 366.93C274.327 366.783 274.186 366.666 274.021 366.59V356.832C274.182 356.907 274.321 357.021 274.425 357.164C274.53 357.307 274.597 357.474 274.62 357.65Z" fill="#BFBFBF"/>
<path d="M274.618 357.648V367.407C274.599 367.579 274.535 367.743 274.434 367.883C274.332 368.022 274.196 368.134 274.039 368.205V358.387C274.189 358.321 274.32 358.219 274.421 358.09C274.522 357.961 274.589 357.81 274.618 357.648Z" fill="#284C8B"/>
<path d="M274.06 358.388L274.02 368.167L264.182 373.874L264.202 364.116L274.06 358.388Z" fill="#284C8B"/>
<path d="M264.202 364.115V373.874C263.768 374.099 263.285 374.217 262.796 374.217C262.306 374.217 261.823 374.099 261.389 373.874V364.115C261.826 364.333 262.307 364.447 262.796 364.447C263.284 364.447 263.765 364.333 264.202 364.115Z" fill="#284C8B"/>
<path d="M208.558 353.178L208.518 362.936L184.631 376.826L184.651 367.067L208.558 353.178Z" fill="#244A8A"/>
<path d="M184.652 367.068V376.827C184.214 377.053 183.728 377.17 183.235 377.17C182.742 377.17 182.257 377.053 181.818 376.827V367.068C182.257 367.294 182.742 367.412 183.235 367.412C183.728 367.412 184.214 367.294 184.652 367.068Z" fill="#244A8A"/>
<path d="M208.541 351.542C208.715 351.597 208.866 351.706 208.974 351.853C209.082 352 209.14 352.178 209.14 352.36C209.14 352.542 209.082 352.72 208.974 352.867C208.866 353.014 208.715 353.123 208.541 353.178L184.593 367.147C184.155 367.373 183.669 367.491 183.177 367.491C182.684 367.491 182.198 367.373 181.76 367.147L150.469 349.187C150.295 349.132 150.143 349.023 150.035 348.876C149.927 348.729 149.869 348.551 149.869 348.369C149.869 348.186 149.927 348.009 150.035 347.862C150.143 347.715 150.295 347.606 150.469 347.551L174.416 333.581C174.854 333.356 175.34 333.238 175.833 333.238C176.326 333.238 176.811 333.356 177.25 333.581L208.541 351.542Z" fill="#244A8A"/>
<path d="M187.289 379.602V369.764C187.305 369.589 187.367 369.421 187.468 369.277C187.57 369.133 187.708 369.019 187.868 368.946V378.704C187.693 378.78 187.545 378.905 187.442 379.065C187.339 379.225 187.286 379.412 187.289 379.602Z" fill="#BFBFBF"/>
<path d="M187.289 379.6V369.762C187.305 369.937 187.367 370.105 187.468 370.249C187.57 370.392 187.708 370.507 187.868 370.58V380.338C187.714 380.279 187.579 380.179 187.477 380.049C187.375 379.919 187.31 379.764 187.289 379.6Z" fill="#3E5B8D"/>
<path d="M219.18 388.64L219.16 398.398L187.869 380.338L187.909 370.58L219.18 388.64Z" fill="#3E5B8D"/>
<path d="M211.796 355.056L211.776 364.814L187.869 378.704L187.909 368.945L211.796 355.056Z" fill="#BFBFBF"/>
<path d="M245.917 373.116L245.877 382.874L214.605 364.814L214.625 355.056L245.917 373.116Z" fill="#BFBFBF"/>
<path d="M246.499 373.913V383.692C246.481 383.515 246.418 383.345 246.317 383.199C246.216 383.052 246.079 382.933 245.92 382.854V373.095C246.078 373.172 246.213 373.287 246.315 373.43C246.416 373.573 246.479 373.739 246.499 373.913Z" fill="#BFBFBF"/>
<path d="M246.499 373.914V383.692C246.477 383.866 246.413 384.031 246.312 384.174C246.211 384.317 246.077 384.432 245.92 384.51V374.752C246.08 374.674 246.218 374.555 246.319 374.409C246.421 374.262 246.482 374.091 246.499 373.914Z" fill="#3E5B8D"/>
<path d="M245.92 374.75L245.88 384.508L221.992 398.397L222.012 388.639L245.92 374.75Z" fill="#3E5B8D"/>
<path d="M1.00019 289.798V280C1.12667 281.417 1.63005 282.776 2.45813 283.934C3.28622 285.092 4.4089 286.007 5.70982 286.585V296.344C2.55676 294.528 0.980231 292.133 1.00019 289.798Z" fill="#8899B7"/>
<path d="M272.326 302.012C273.663 302.77 273.823 304.008 272.645 304.626C271.926 304.956 271.14 305.112 270.349 305.081C269.558 305.05 268.786 304.832 268.095 304.447C266.758 303.668 266.599 302.451 267.776 301.812C268.497 301.487 269.285 301.335 270.075 301.37C270.865 301.405 271.636 301.625 272.326 302.012Z" fill="#5A719B"/>
<path d="M360.788 321.729V331.487C360.693 330.427 360.318 329.412 359.7 328.546C359.083 327.68 358.246 326.993 357.275 326.558V316.819C358.243 317.253 359.078 317.936 359.696 318.799C360.313 319.661 360.69 320.672 360.788 321.729Z" fill="#8899B7"/>
<path d="M352.33 322.445V332.204C352.302 332.853 352.103 333.483 351.752 334.03C351.402 334.577 350.912 335.021 350.334 335.317V325.558C350.911 325.261 351.399 324.816 351.75 324.27C352.1 323.723 352.3 323.094 352.33 322.445Z" fill="#BFBFBF"/>
<path d="M360.748 331.507C360.65 332.556 360.278 333.56 359.668 334.418C359.058 335.277 358.233 335.959 357.275 336.397C357.275 333.523 357.275 330.649 357.275 327.776V326.618C358.24 326.186 359.074 325.506 359.691 324.647C360.308 323.788 360.686 322.782 360.788 321.729C360.768 324.682 360.768 328.574 360.748 331.507Z" fill="#213556"/>
<path d="M364.778 321.729V331.488C364.646 332.883 364.148 334.219 363.335 335.361C362.523 336.503 361.423 337.411 360.148 337.993V328.235C361.423 327.652 362.523 326.744 363.335 325.602C364.148 324.46 364.646 323.124 364.778 321.729Z" fill="#8899B7"/>
<path d="M222.011 388.641V398.399C221.571 398.616 221.086 398.728 220.595 398.728C220.103 398.728 219.619 398.616 219.178 398.399V388.641C219.619 388.857 220.103 388.97 220.595 388.97C221.086 388.97 221.571 388.857 222.011 388.641Z" fill="#3E5B8D"/>
<path d="M225.787 397.839V407.618C222.515 409.514 216.608 409.174 212.557 406.84V397.081C216.608 399.416 222.535 399.755 225.787 397.839Z" fill="#BFBFBF"/>
<path d="M227.88 411.53C225.257 412.859 222.358 413.552 219.418 413.552C216.478 413.552 213.58 412.859 210.957 411.53V401.772C213.578 403.106 216.477 403.801 219.418 403.801C222.359 403.801 225.259 403.106 227.88 401.772C227.9 404.745 227.88 408.657 227.88 411.53Z" fill="#213556"/>
<path d="M350.211 325.559L350.191 335.318L225.785 407.618L225.805 397.86L350.211 325.559Z" fill="#BFBFBF"/>
<path d="M230.752 403.548V413.306C227.254 415.077 223.388 416 219.467 416C215.546 416 211.68 415.077 208.182 413.306V403.548C211.681 405.316 215.546 406.237 219.467 406.237C223.387 406.237 227.253 405.316 230.752 403.548Z" fill="#8899B7"/>
<path d="M357.316 326.637L357.276 336.395L227.881 411.59L227.921 401.831L357.316 326.637Z" fill="#213556"/>
<path d="M360.071 315.183C366.317 318.795 366.357 324.662 360.071 328.274L230.755 403.548C227.254 405.32 223.384 406.242 219.46 406.242C215.536 406.242 211.667 405.32 208.165 403.548L5.73091 286.586C-0.515332 282.974 -0.555244 277.107 5.73091 273.495L135.046 198.3C138.544 196.529 142.41 195.606 146.331 195.606C150.252 195.606 154.118 196.529 157.616 198.3L360.071 315.183ZM227.902 401.812L357.297 326.618C361.966 323.924 361.946 319.513 357.297 316.819L154.823 199.997C152.212 198.674 149.327 197.986 146.401 197.986C143.475 197.986 140.59 198.674 137.98 199.997L8.48485 275.131C3.81513 277.845 3.85504 282.235 8.48485 284.949L210.979 401.832C213.6 403.166 216.499 403.861 219.44 403.861C222.381 403.861 225.28 403.166 227.902 401.832" fill="#8899B7"/>
<path d="M245.899 373.095C246.071 373.155 246.219 373.268 246.324 373.416C246.429 373.564 246.486 373.741 246.486 373.923C246.486 374.105 246.429 374.282 246.324 374.431C246.219 374.579 246.071 374.691 245.899 374.751L221.952 388.721C221.511 388.937 221.026 389.05 220.535 389.05C220.044 389.05 219.559 388.937 219.118 388.721L187.867 370.581C187.693 370.526 187.541 370.417 187.433 370.27C187.326 370.122 187.268 369.945 187.268 369.762C187.268 369.58 187.326 369.402 187.433 369.255C187.541 369.108 187.693 368.999 187.867 368.944L211.814 354.975C212.254 354.754 212.739 354.639 213.231 354.639C213.723 354.639 214.208 354.754 214.648 354.975L245.899 373.095Z" fill="#3E5B8D"/>
<path d="M154.819 205.862C150.828 203.527 144.841 203.188 141.588 205.104L17.1822 277.404C13.8895 279.4 14.5081 282.733 18.5392 285.068L212.572 397.081C216.563 399.416 222.55 399.755 225.803 397.839L350.209 325.558C353.482 323.563 352.883 320.21 348.852 317.875L154.819 205.862ZM54.7223 300.244C54.7415 300.24 54.7461 300.215 54.7292 300.205L26.8964 284.133C26.249 283.759 25.5104 283.508 24.97 282.991C24.8534 282.88 24.7469 282.757 24.6522 282.625C24.3376 282.185 24.1685 281.657 24.1685 281.116C24.1685 280.575 24.3376 280.048 24.6522 279.608C24.6965 279.546 24.7433 279.486 24.7926 279.428C25.3906 278.73 26.3232 278.429 27.118 277.967L142.666 210.811C143.979 210.142 145.432 209.793 146.907 209.793C148.381 209.793 149.834 210.142 151.147 210.811L179.884 227.494C182.219 228.851 182.259 231.046 179.884 232.404L63.141 300.254C61.8262 300.919 60.3736 301.265 58.9003 301.265C57.4482 301.265 56.0162 300.929 54.7164 300.283C54.6984 300.274 54.7024 300.247 54.7223 300.244ZM116.314 280.409C116.281 280.415 116.247 280.412 116.217 280.399C116.07 280.337 115.943 280.235 115.851 280.104C115.749 279.959 115.694 279.787 115.694 279.61C115.694 279.433 115.749 279.26 115.851 279.115C116.053 278.829 116.416 278.713 116.719 278.536L126.102 273.074C126.541 272.848 127.026 272.73 127.519 272.73C128.012 272.73 128.498 272.848 128.936 273.074L197.685 312.687C198.483 313.126 198.463 313.864 197.685 314.303L187.866 320.031C187.432 320.256 186.949 320.374 186.459 320.374C185.97 320.374 185.487 320.256 185.053 320.031L116.445 280.433C116.405 280.41 116.359 280.402 116.314 280.409ZM164.284 312.986C164.28 312.986 164.277 312.987 164.274 312.989L162.51 314.029C160.175 315.407 157.278 315.42 154.93 314.064L137.617 304.066L110.965 288.681C109.086 287.596 109.082 284.886 110.958 283.795C111.833 283.286 112.913 283.285 113.79 283.791L143.245 300.813L164.294 312.949C164.311 312.959 164.304 312.986 164.284 312.986ZM105.439 322.974C105.45 322.97 105.452 322.955 105.441 322.949L74.5871 305.194C74.2745 305.015 73.8964 304.904 73.6833 304.613C73.5755 304.466 73.5174 304.288 73.5174 304.106C73.5174 303.923 73.5755 303.746 73.6833 303.598C73.8964 303.308 74.274 303.196 74.5855 303.014L98.0641 289.318C98.5023 289.092 98.988 288.975 99.481 288.975C99.9739 288.975 100.46 289.092 100.898 289.318L132.189 307.378C132.967 307.817 132.967 308.556 132.189 309.015L108.242 322.984C107.804 323.21 107.318 323.328 106.825 323.328C106.343 323.328 105.867 323.215 105.437 322.999C105.426 322.993 105.427 322.978 105.439 322.974ZM142.826 344.557L112.005 326.866C111.692 326.687 111.314 326.576 111.101 326.285C110.993 326.138 110.935 325.96 110.935 325.778C110.935 325.595 110.993 325.418 111.101 325.271C111.314 324.98 111.692 324.868 112.003 324.686L135.482 310.99C135.92 310.765 136.406 310.647 136.899 310.647C137.391 310.647 137.877 310.765 138.315 310.99L169.607 328.951C170.385 329.39 170.385 330.128 169.607 330.587L145.659 344.557C145.221 344.782 144.735 344.9 144.242 344.9C143.749 344.9 143.264 344.782 142.826 344.557ZM181.87 367.067C181.873 367.067 181.874 367.063 181.871 367.062L151.059 349.377C150.746 349.197 150.368 349.086 150.155 348.795C150.047 348.648 149.989 348.471 149.989 348.288C149.989 348.106 150.047 347.928 150.155 347.781C150.368 347.49 150.746 347.378 151.057 347.197L174.536 333.501C174.974 333.275 175.46 333.157 175.953 333.157C176.445 333.157 176.931 333.275 177.369 333.501L208.17 351.191C208.483 351.371 208.861 351.481 209.074 351.772C209.182 351.919 209.24 352.097 209.24 352.279C209.24 352.462 209.182 352.64 209.074 352.787C208.861 353.078 208.483 353.189 208.172 353.371L184.693 367.067C184.255 367.293 183.769 367.411 183.276 367.411C182.787 367.411 182.305 367.294 181.869 367.072C181.866 367.07 181.867 367.067 181.87 367.067ZM245.929 374.678C245.935 374.722 245.914 374.764 245.876 374.787L221.991 388.719C221.55 388.936 221.066 389.049 220.574 389.049C220.083 389.049 219.598 388.936 219.157 388.719L188.336 370.851C188.024 370.67 187.646 370.559 187.433 370.268C187.325 370.121 187.267 369.943 187.267 369.761C187.267 369.579 187.325 369.401 187.433 369.254C187.646 368.963 188.024 368.851 188.335 368.669L211.814 354.974C212.253 354.752 212.738 354.637 213.23 354.637C213.723 354.637 214.208 354.752 214.647 354.974L245.449 372.665C245.761 372.844 246.135 372.961 246.343 373.255C246.448 373.403 246.505 373.58 246.505 373.762C246.505 373.944 246.448 374.121 246.343 374.27C246.255 374.394 246.137 374.493 246 374.557C245.954 374.579 245.923 374.627 245.929 374.678ZM274.045 358.316C274.05 358.28 274.01 358.253 273.978 358.272L264.218 363.954C263.779 364.175 263.293 364.29 262.801 364.29C262.309 364.29 261.824 364.175 261.384 363.954L192.736 324.481C191.937 324.022 191.937 323.303 192.736 322.844L202.574 317.137C203.009 316.911 203.491 316.793 203.981 316.793C204.471 316.793 204.953 316.911 205.388 317.137L273.567 356.478C273.879 356.659 274.257 356.77 274.47 357.061C274.578 357.208 274.636 357.385 274.636 357.568C274.636 357.75 274.578 357.928 274.47 358.075C274.376 358.203 274.249 358.302 274.102 358.362C274.072 358.375 274.041 358.349 274.045 358.316ZM335.9 322.465L285.292 351.84C283.983 352.514 282.533 352.866 281.061 352.866C279.589 352.866 278.139 352.514 276.83 351.84L138.676 272.098C137.892 271.645 136.975 271.349 136.381 270.667C136.326 270.604 136.275 270.539 136.226 270.472C135.912 270.031 135.743 269.504 135.743 268.963C135.743 268.422 135.912 267.895 136.226 267.454C136.271 267.392 136.318 267.332 136.368 267.274C136.965 266.577 137.897 266.276 138.691 265.815L188.126 237.093C189.432 236.424 190.879 236.075 192.346 236.075C193.814 236.075 195.261 236.424 196.567 237.093L334.722 316.836C335.506 317.288 336.422 317.584 337.017 318.267C337.071 318.329 337.123 318.394 337.171 318.462C337.486 318.902 337.655 319.43 337.655 319.971C337.655 320.512 337.486 321.039 337.171 321.479C336.857 321.919 336.412 322.25 335.9 322.425" fill="url(#paint2_linear)"/>
<path d="M106.746 286.247L137.638 304.068L143.246 300.815L112.374 282.995L106.746 286.247Z" fill="#283C62"/>
<path d="M360.668 322.726C361.167 320.73 360.029 318.416 357.255 316.739L154.821 199.996C152.211 198.674 149.326 197.985 146.4 197.985C143.474 197.985 140.589 198.674 137.978 199.996L8.48342 275.131C7.10471 275.841 5.99703 276.984 5.33036 278.384C4.39243 280.659 5.4501 283.173 8.52333 284.949L210.977 401.832C213.587 403.212 216.507 403.899 219.459 403.827C221.338 403.841 223.208 403.572 225.007 403.029C225.366 403.029 225.705 402.81 226.024 402.69C226.673 402.443 227.301 402.143 227.9 401.792L357.295 326.617C358.212 326.109 359.024 325.432 359.69 324.622C359.998 324.231 360.253 323.802 360.448 323.345C360.528 323.145 360.608 322.946 360.668 322.726ZM350.211 325.56L225.785 397.841C222.512 399.836 216.585 399.417 212.554 397.082L18.5413 285.069C14.5501 282.734 13.8915 279.302 17.1843 277.406L141.59 205.105C144.863 203.109 150.79 203.529 154.821 205.863L348.854 317.877C352.845 320.212 353.484 323.644 350.211 325.56Z" fill="#213556"/>
<path d="M73.6785 303.768C73.6749 303.715 73.6749 303.662 73.6785 303.608C73.6749 303.662 73.6749 303.715 73.6785 303.768ZM136.241 267.588C136.574 267.147 136.995 266.78 137.478 266.51L179.984 241.904L137.478 266.51C136.995 266.78 136.574 267.147 136.241 267.588ZM74.1175 303.289C73.9695 303.375 73.835 303.483 73.7184 303.608C73.835 303.483 73.9695 303.375 74.1175 303.289Z" fill="#BFBFBF"/>
<path d="M137.019 266.809L136.719 267.048L136.599 267.168L136.42 267.347C136.725 267.014 137.083 266.731 137.477 266.509L137.078 266.769L137.019 266.809ZM135.761 268.804C135.758 269.368 135.921 269.921 136.23 270.393C136.539 270.864 136.98 271.235 137.497 271.458C136.96 271.233 136.505 270.848 136.194 270.356C135.884 269.863 135.733 269.286 135.761 268.704V268.804ZM136.26 267.647V267.767L136.42 267.567L136.26 267.647ZM135.981 267.846V267.966L136.101 267.786L135.981 267.846ZM135.821 268.146V268.305C135.821 268.305 135.821 268.166 135.821 268.086V268.146ZM135.821 268.405C135.814 268.471 135.814 268.538 135.821 268.605V268.405Z" fill="#BFBFBF"/>
<path d="M137.082 271.159L136.902 271.019L136.722 270.879C136.969 271.077 137.229 271.258 137.501 271.418L137.082 271.159ZM136.184 270.261C136.239 270.355 136.306 270.443 136.383 270.52L136.283 270.4C136.274 270.354 136.274 270.307 136.283 270.261H136.184ZM136.184 270.161C136.184 270.161 136.184 270.061 136.184 270.001C136.158 270.052 136.138 270.106 136.124 270.161H136.184ZM135.984 269.842C135.977 269.789 135.977 269.735 135.984 269.682C135.981 269.735 135.981 269.789 135.984 269.842ZM135.864 269.482C135.858 269.436 135.858 269.389 135.864 269.343V269.482ZM136.802 270.8L136.682 270.7C136.641 270.648 136.594 270.601 136.543 270.56L136.802 270.8Z" fill="#BFBFBF"/>
<path d="M137.48 266.509L188.129 237.094L137.48 266.509ZM153.445 266.709C153.445 266.709 153.445 266.709 153.445 266.809V266.709ZM166.856 259.106L169.37 257.649V257.31L166.556 258.946L166.856 259.106Z" fill="#BFBFBF"/>
<path d="M166.693 258.946L169.507 260.562V257.31L166.693 258.946Z" fill="#BFBFBF"/>
<path d="M124.012 231.168H123.792H124.012ZM124.351 234.521L123.652 234.102L124.351 234.521Z" fill="#BFBFBF"/>
<path d="M123.689 255.295C123.888 255.415 123.888 255.595 123.689 255.714L121.573 256.932C121.466 256.991 121.346 257.022 121.224 257.022C121.102 257.022 120.982 256.991 120.875 256.932L100.48 245.158C100.28 245.038 100.28 244.858 100.48 244.738L102.595 243.521C102.706 243.462 102.829 243.431 102.954 243.431C103.08 243.431 103.203 243.462 103.314 243.521L123.689 255.295Z" fill="#7185A8"/>
<path d="M109.623 263.457C109.842 263.577 109.822 263.776 109.623 263.876L107.507 265.113C107.395 265.168 107.273 265.196 107.148 265.196C107.024 265.196 106.901 265.168 106.789 265.113L86.3938 253.339C86.1943 253.219 86.1943 253.02 86.3938 252.92L88.5092 251.683C88.6175 251.628 88.7371 251.6 88.8584 251.6C88.9796 251.6 89.0992 251.628 89.2076 251.683L109.623 263.457Z" fill="#7185A8"/>
<path d="M102.599 267.545C102.798 267.665 102.798 267.844 102.599 267.964L100.503 269.181C100.393 269.241 100.27 269.272 100.144 269.272C100.019 269.272 99.8954 269.241 99.785 269.181L79.3899 257.407C79.1903 257.288 79.1903 257.108 79.3899 256.988L81.4853 255.871C81.5957 255.811 81.7191 255.78 81.8445 255.78C81.9699 255.78 82.0933 255.811 82.2037 255.871L102.599 267.545Z" fill="#7185A8"/>
<path d="M219.856 286.386L217.042 288.022L166.693 258.946L169.507 257.31L219.856 286.386Z" fill="#546F9E"/>
<path d="M68.8332 287.183C69.0327 287.283 69.0327 287.463 68.8332 287.583L66.7178 288.8C66.6074 288.859 66.484 288.89 66.3586 288.89C66.2332 288.89 66.1098 288.859 65.9994 288.8L45.6243 277.026C45.4247 276.906 45.4247 276.726 45.6243 276.627L47.7396 275.389C47.8464 275.33 47.9666 275.299 48.0889 275.299C48.2111 275.299 48.3313 275.33 48.4381 275.389L68.8332 287.183Z" fill="#7185A8"/>
<path d="M61.8078 291.254C62.0073 291.374 62.0073 291.554 61.8078 291.673L59.6924 292.891C59.5856 292.95 59.4654 292.981 59.3432 292.981C59.221 292.981 59.1008 292.95 58.994 292.891L38.5989 281.117C38.3993 280.997 38.3993 280.817 38.5989 280.717L40.7142 279.48C40.8246 279.421 40.9481 279.39 41.0734 279.39C41.1988 279.39 41.3222 279.421 41.4326 279.48L61.8078 291.254Z" fill="#7185A8"/>
<path d="M289.641 310.871C290.639 311.45 291.118 312.328 290.659 313.206L279.424 334.599L222.529 301.771L251.326 299.077C252.515 298.94 253.717 299.163 254.778 299.716C255.046 299.849 255.284 300.034 255.479 300.26C255.674 300.487 255.823 300.749 255.916 301.033L257.752 308.197C257.844 308.476 257.99 308.735 258.181 308.957C258.373 309.18 258.607 309.362 258.869 309.494C259.741 309.957 260.716 310.19 261.703 310.173H286.808C287.796 310.162 288.771 310.402 289.641 310.871Z" fill="#5A719B"/>
<path d="M274.04 356.751C274.214 356.806 274.366 356.915 274.474 357.062C274.582 357.209 274.64 357.386 274.64 357.569C274.64 357.751 274.582 357.929 274.474 358.076C274.366 358.223 274.214 358.332 274.04 358.387L264.202 364.114C263.762 364.336 263.277 364.451 262.785 364.451C262.293 364.451 261.808 364.336 261.368 364.114L192.739 324.482C191.941 324.023 191.941 323.304 192.739 322.845L202.578 317.138C203.012 316.912 203.495 316.794 203.985 316.794C204.474 316.794 204.957 316.912 205.391 317.138L274.04 356.751Z" fill="#284C8B"/>
<path d="M360.149 328.274L360.129 338.032L230.734 413.227L230.754 403.468L360.149 328.274Z" fill="#8899B7"/>
<path d="M99.7015 294.296L298.057 294.305L298.057 73.3599C298.019 72.7312 277.093 83.9829 276.746 83.4647C276.4 82.9465 275.923 82.5359 275.368 82.2774L216.761 47.2966C215.302 46.5241 213.686 46.1212 212.046 46.1212C210.407 46.1212 208.791 46.5241 207.332 47.2966L149.087 82.2774C148.533 82.5344 148.059 82.9454 147.718 83.4646C147.377 83.9838 99.7281 69.7065 99.7015 70.3334L99.7015 294.296Z" fill="url(#paint3_linear)"/>
<g filter="url(#filter0_d)">
<path d="M285.434 48.4103C302.16 58.0684 302.221 73.7286 285.616 83.3562L229.77 115.804C213.196 125.462 186.202 125.462 169.475 115.804L113.294 83.3562C96.5671 73.7286 96.4757 58.0684 113.08 48.4103L168.896 15.9931C185.501 6.33498 212.525 6.33498 229.252 15.9931L285.434 48.4103Z" fill="url(#paint4_linear)"/>
<path d="M298.017 61.2143V71.5312C298.017 78.0305 293.874 84.5298 285.617 89.4831V79.1978C293.874 74.0867 297.987 67.5243 298.017 61.2143Z" fill="url(#paint5_linear)"/>
<path d="M100.656 71.1183V60.833C100.656 67.427 104.861 74.0209 113.27 79.0373V89.3227C104.861 84.3062 100.656 77.7123 100.656 71.1183Z" fill="url(#paint6_linear)"/>
<path d="M285.627 79.0368L285.597 89.3221L229.781 122.923V112.638L285.627 79.0368Z" fill="url(#paint7_linear)"/>
<path d="M169.477 112.638L169.447 122.923L113.265 89.3221L113.296 79.0368L169.477 112.638Z" fill="url(#paint8_linear)"/>
<path d="M229.776 112.659V122.944C213.172 132.946 186.178 132.946 169.451 122.944V112.659C186.208 122.66 213.202 122.66 229.776 112.659Z" fill="url(#paint9_linear)"/>
</g>
<path d="M285.434 42.6608C302.16 52.3189 302.221 67.979 285.616 77.6067L229.77 110.054C213.196 119.712 186.202 119.712 169.475 110.054L113.294 77.6067C96.5671 67.979 96.4757 52.3189 113.08 42.6608L168.896 10.2436C185.501 0.585469 212.525 0.585469 229.252 10.2436L285.434 42.6608Z" fill="#F1F8FF"/>
<path d="M298.017 55.4648V65.7817C298.017 72.281 293.874 78.7803 285.617 83.7336V73.4483C293.874 68.3372 297.987 61.7748 298.017 55.4648Z" fill="url(#paint10_linear)"/>
<path d="M100.656 65.3688V55.0835C100.656 61.6775 104.861 68.2714 113.27 73.2878V83.5732C104.861 78.5567 100.656 71.9627 100.656 65.3688Z" fill="url(#paint11_linear)"/>
<path d="M285.627 73.2873L285.597 83.5726L229.781 117.173V106.888L285.627 73.2873Z" fill="url(#paint12_linear)"/>
<path d="M169.477 106.888L169.447 117.173L113.265 83.5726L113.296 73.2873L169.477 106.888Z" fill="url(#paint13_linear)"/>
<path d="M229.776 106.909V117.195C213.172 127.196 186.178 127.196 169.451 117.195V106.909C186.208 116.911 213.202 116.911 229.776 106.909Z" fill="url(#paint14_linear)"/>
<path d="M200.371 59.7946C200.565 65.3145 200.573 70.8421 200.417 76.2918C200.332 79.3323 196.418 81.5231 191.124 81.5543C188.686 81.6345 186.268 81.0812 184.107 79.9483C182.501 79.0205 181.589 77.812 181.573 76.4243C181.238 69.5089 181.238 62.6949 181.191 55.4676V54.9297C181.353 55.6364 181.671 56.2981 182.121 56.866C182.572 57.434 183.144 57.8939 183.795 58.212C185.676 59.1869 187.766 59.6874 189.884 59.6699C193.351 59.727 196.847 59.7686 200.371 59.7946Z" fill="#4164A9"/>
<path d="M235.694 49.3169C235.793 51.1348 235.793 52.9566 235.694 54.7744C235.437 57.7916 232.186 59.6861 227.266 59.7641C218.339 59.8732 209.334 59.8888 200.384 59.8187C196.876 59.7875 193.378 59.7459 189.89 59.6939C187.772 59.7114 185.682 59.2109 183.801 58.236C183.15 57.9179 182.578 57.458 182.127 56.8901C181.677 56.3221 181.359 55.6605 181.197 54.9537C181.174 54.8117 181.159 54.6686 181.151 54.5249C181.049 51.5935 184.636 49.3247 189.438 49.3169C201.343 49.2078 213.147 49.2546 225.621 49.3169C228.88 49.2858 232.303 49.2936 235.694 49.3169Z" fill="#5BC4D6"/>
<path d="M197.307 35.3772C199.178 36.4609 200.16 37.8409 200.184 39.2754C200.184 42.277 195.74 44.7329 190.594 44.7329C188.305 44.7568 186.047 44.2016 184.03 43.119C182.19 42.0587 181.168 40.6554 181.192 39.1273C181.215 37.5992 182.198 36.2816 183.975 35.2291C186.045 34.1419 188.359 33.6049 190.696 33.6698C193.006 33.6859 195.277 34.2724 197.307 35.3772Z" fill="#5BC4D6"/>
<defs>
<filter id="filter0_d" x="0.65625" y="-30.2505" width="397.368" height="321.696" filterUnits="userSpaceOnUse" color-interpolation-filters="sRGB">
<feFlood flood-opacity="0" result="BackgroundImageFix"/>
<feColorMatrix in="SourceAlpha" type="matrix" values="0 0 0 0 0 0 0 0 0 0 0 0 0 0 0 0 0 0 127 0"/>
<feOffset dy="61"/>
<feGaussianBlur stdDeviation="50"/>
<feColorMatrix type="matrix" values="0 0 0 0 0.215104 0 0 0 0 0.287383 0 0 0 0 0.4375 0 0 0 0.9 0"/>
<feBlend mode="normal" in2="BackgroundImageFix" result="effect1_dropShadow"/>
<feBlend mode="normal" in="SourceGraphic" in2="effect1_dropShadow" result="shape"/>
</filter>
<linearGradient id="paint0_linear" x1="246.078" y1="310.966" x2="52.3966" y2="402.7" gradientUnits="userSpaceOnUse">
<stop stop-color="#586B8F"/>
<stop offset="1" stop-color="#003286"/>
</linearGradient>
<linearGradient id="paint1_linear" x1="420.299" y1="365.261" x2="172.323" y2="483.208" gradientUnits="userSpaceOnUse">
<stop stop-color="#586B8F"/>
<stop offset="1" stop-color="#003286"/>
</linearGradient>
<linearGradient id="paint2_linear" x1="219.517" y1="253.478" x2="172.62" y2="439.069" gradientUnits="userSpaceOnUse">
<stop stop-color="#131D35"/>
<stop offset="1" stop-color="#003286"/>
</linearGradient>
<linearGradient id="paint3_linear" x1="212.193" y1="21.207" x2="212.193" y2="281.027" gradientUnits="userSpaceOnUse">
<stop stop-color="#4164A9"/>
<stop offset="1" stop-color="#003286" stop-opacity="0"/>
</linearGradient>
<linearGradient id="paint4_linear" x1="378.753" y1="135.17" x2="136.308" y2="250.326" gradientUnits="userSpaceOnUse">
<stop stop-color="#EBF2FF"/>
<stop offset="1" stop-color="#DDEAFF"/>
</linearGradient>
<linearGradient id="paint5_linear" x1="45.3455" y1="46.1535" x2="197.179" y2="172.61" gradientUnits="userSpaceOnUse">
<stop offset="0.21" stop-color="#C3D1EC"/>
<stop offset="1" stop-color="#95A7CA"/>
</linearGradient>
<linearGradient id="paint6_linear" x1="45.3455" y1="46.1535" x2="197.179" y2="172.61" gradientUnits="userSpaceOnUse">
<stop offset="0.21" stop-color="#C3D1EC"/>
<stop offset="1" stop-color="#95A7CA"/>
</linearGradient>
<linearGradient id="paint7_linear" x1="45.3455" y1="46.1535" x2="197.179" y2="172.61" gradientUnits="userSpaceOnUse">
<stop offset="0.21" stop-color="#C3D1EC"/>
<stop offset="1" stop-color="#95A7CA"/>
</linearGradient>
<linearGradient id="paint8_linear" x1="45.3455" y1="46.1535" x2="197.179" y2="172.61" gradientUnits="userSpaceOnUse">
<stop offset="0.21" stop-color="#C3D1EC"/>
<stop offset="1" stop-color="#95A7CA"/>
</linearGradient>
<linearGradient id="paint9_linear" x1="45.3455" y1="46.1535" x2="197.179" y2="172.61" gradientUnits="userSpaceOnUse">
<stop offset="0.21" stop-color="#C3D1EC"/>
<stop offset="1" stop-color="#95A7CA"/>
</linearGradient>
<linearGradient id="paint10_linear" x1="45.3455" y1="40.404" x2="197.179" y2="166.861" gradientUnits="userSpaceOnUse">
<stop offset="0.21" stop-color="#C3D1EC"/>
<stop offset="1" stop-color="#95A7CA"/>
</linearGradient>
<linearGradient id="paint11_linear" x1="45.3455" y1="40.404" x2="197.179" y2="166.861" gradientUnits="userSpaceOnUse">
<stop offset="0.21" stop-color="#C3D1EC"/>
<stop offset="1" stop-color="#95A7CA"/>
</linearGradient>
<linearGradient id="paint12_linear" x1="45.3455" y1="40.404" x2="197.179" y2="166.861" gradientUnits="userSpaceOnUse">
<stop offset="0.21" stop-color="#C3D1EC"/>
<stop offset="1" stop-color="#95A7CA"/>
</linearGradient>
<linearGradient id="paint13_linear" x1="45.3455" y1="40.404" x2="197.179" y2="166.861" gradientUnits="userSpaceOnUse">
<stop offset="0.21" stop-color="#C3D1EC"/>
<stop offset="1" stop-color="#95A7CA"/>
</linearGradient>
<linearGradient id="paint14_linear" x1="45.3455" y1="40.404" x2="197.179" y2="166.861" gradientUnits="userSpaceOnUse">
<stop offset="0.21" stop-color="#C3D1EC"/>
<stop offset="1" stop-color="#95A7CA"/>
</linearGradient>
</defs>
</svg>
