<svg width="528" height="493" viewBox="0 0 528 493" fill="none" xmlns="http://www.w3.org/2000/svg">
<path d="M411.86 364.573L455.712 389.927C458.194 391.358 462.211 391.358 464.693 389.927L508.545 364.577C511.028 363.142 511.024 360.821 508.545 359.386L464.728 334.075C462.249 332.644 458.229 332.64 455.747 334.075L411.86 359.394C409.382 360.817 409.378 363.138 411.86 364.573Z" fill="url(#paint0_linear)"/>
<path d="M27.8598 228.558L48.4569 240.494C49.6213 241.168 51.5078 241.168 52.6722 240.494L73.2631 228.56C74.4275 227.885 74.4275 226.792 73.2631 226.118L52.6907 214.209C51.5263 213.535 49.6377 213.535 48.4733 214.209L27.868 226.12C26.6974 226.79 26.6954 227.883 27.8598 228.558Z" fill="#374D76"/>
<path d="M4.75203 203.787L46.1597 227.721C48.5005 229.073 52.2931 229.073 54.6339 227.721L96.0292 203.791C98.37 202.439 98.37 200.247 96.0292 198.894L54.6712 175.014C52.3303 173.662 48.5336 173.662 46.1928 175.014L4.76859 198.899C2.41532 200.243 2.41117 202.435 4.75203 203.787Z" fill="url(#paint1_linear)"/>
<path d="M191.902 180.331L213.214 192.65C214.419 193.346 216.371 193.346 217.575 192.65L238.881 180.333C240.086 179.637 240.086 178.509 238.881 177.813L217.595 165.522C216.39 164.826 214.436 164.826 213.231 165.522L191.91 177.815C190.699 178.507 190.697 179.635 191.902 180.331Z" fill="url(#paint2_linear)"/>
<path d="M162.201 476.136L190.597 492.314C192.203 493.229 194.803 493.229 196.409 492.314L224.796 476.138C226.401 475.224 226.401 473.742 224.796 472.828L196.434 456.686C194.829 455.771 192.225 455.771 190.62 456.686L162.213 472.831C160.599 473.74 160.596 475.221 162.201 476.136Z" fill="url(#paint3_linear)"/>
<path d="M376.776 269.061L395.124 279.555C396.162 280.148 397.842 280.148 398.879 279.555L417.222 269.063C418.259 268.47 418.259 267.509 417.222 266.916L398.896 256.445C397.859 255.852 396.176 255.852 395.139 256.445L376.784 266.917C375.741 267.507 375.739 268.468 376.776 269.061Z" fill="url(#paint4_linear)"/>
<path d="M221 480.992L359 481L359 268.872C358.974 268.268 344.415 279.071 344.174 278.573C343.933 278.076 343.601 277.682 343.215 277.433L302.441 243.849C301.425 243.107 300.301 242.72 299.161 242.72C298.02 242.72 296.896 243.107 295.881 243.849L255.358 277.433C254.973 277.68 254.643 278.075 254.406 278.573C254.169 279.072 221.019 265.364 221 265.966L221 480.992Z" fill="url(#paint5_linear)"/>
<path d="M223.55 271.356L283.82 306.192C287.227 308.161 292.747 308.161 296.154 306.192L356.406 271.362C359.813 269.393 359.813 266.203 356.406 264.234L296.209 229.476C292.801 227.508 287.275 227.508 283.868 229.476L223.574 264.24C220.149 266.197 220.143 269.387 223.55 271.356Z" fill="url(#paint6_linear)"/>
<path d="M370.951 163V199.619C370.95 200.298 370.77 200.966 370.431 201.554C370.091 202.142 369.603 202.631 369.015 202.971L350.702 213.602C350.657 213.607 350.614 213.622 350.576 213.644C350.537 213.666 350.503 213.696 350.476 213.732L344.353 217.289C343.981 217.503 343.672 217.812 343.457 218.183C343.242 218.555 343.128 218.977 343.128 219.406C343.128 219.836 343.242 220.258 343.457 220.629C343.672 221.001 343.981 221.31 344.353 221.524L355.736 228.139C356.003 228.294 356.225 228.517 356.379 228.784C356.533 229.052 356.614 229.355 356.614 229.664C356.614 229.973 356.533 230.276 356.379 230.544C356.225 230.812 356.003 231.034 355.736 231.19L326.403 248.189L326.752 248.778L343.813 238.886L350.927 242.99C350.979 243.022 351.038 243.039 351.098 243.038C351.159 243.038 351.218 243.022 351.271 242.992C351.324 242.962 351.368 242.919 351.399 242.867C351.442 242.788 351.452 242.695 351.428 242.608C351.404 242.522 351.347 242.448 351.269 242.402L344.497 238.468L356.079 231.771C356.449 231.555 356.756 231.245 356.97 230.873C357.183 230.501 357.296 230.08 357.296 229.651C357.296 229.222 357.183 228.8 356.97 228.428C356.756 228.056 356.449 227.746 356.079 227.53L344.695 220.922C344.427 220.768 344.203 220.546 344.048 220.278C343.893 220.01 343.811 219.706 343.811 219.396C343.811 219.086 343.893 218.782 344.048 218.514C344.203 218.247 344.427 218.024 344.695 217.871L346.932 216.571L352.405 219.752C352.145 220.02 351.995 220.377 351.988 220.751C351.988 221.811 353.233 222.646 354.806 222.646C355.664 222.678 356.502 222.379 357.146 221.811C357.291 221.674 357.407 221.51 357.489 221.328C357.57 221.146 357.614 220.95 357.618 220.751C357.618 219.69 356.38 218.856 354.799 218.856C354.167 218.848 353.543 219.001 352.986 219.3L347.596 216.174L350.756 214.334L355.47 217.07C355.521 217.102 355.58 217.119 355.641 217.118C355.701 217.118 355.761 217.102 355.813 217.072C355.866 217.042 355.91 216.999 355.942 216.947C355.984 216.868 355.994 216.775 355.97 216.688C355.946 216.602 355.889 216.528 355.812 216.482L351.434 213.944L369.336 203.553C370.027 203.151 370.601 202.575 371 201.882C371.4 201.19 371.612 200.405 371.614 199.605V163H370.951ZM352.973 220.196C353.037 220.13 353.108 220.071 353.185 220.019L353.253 219.971C353.729 219.696 354.271 219.557 354.82 219.567C355.341 219.557 355.857 219.68 356.318 219.923C356.489 219.998 356.638 220.116 356.75 220.266C356.861 220.416 356.932 220.592 356.954 220.778C356.941 221 356.843 221.208 356.681 221.359C356.161 221.791 355.501 222.015 354.827 221.989C353.671 221.989 352.699 221.435 352.692 220.778C352.698 220.667 352.725 220.559 352.773 220.459C352.822 220.359 352.889 220.27 352.973 220.196Z" fill="#374C76"/>
<path d="M303.999 272.092C303.886 271.921 303.748 271.769 303.588 271.64C303.474 271.539 303.351 271.45 303.219 271.373L302.665 271.059L278.859 257.418C278.166 257.018 277.38 256.808 276.581 256.808C275.781 256.808 274.995 257.018 274.303 257.418L268.577 260.708L267.742 261.187L267.66 261.242C267.473 261.355 267.305 261.496 267.161 261.659C266.913 261.93 266.729 262.252 266.623 262.603C266.516 262.954 266.49 263.324 266.546 263.687C266.601 264.049 266.738 264.395 266.945 264.697C267.152 265 267.425 265.252 267.742 265.436L269.24 266.291L269.849 266.64L292.103 279.391C292.795 279.79 293.581 280 294.381 280C295.18 280 295.966 279.79 296.659 279.391L302.467 276.053L303.069 275.704L303.205 275.628C303.5 275.459 303.756 275.23 303.957 274.957C304.158 274.683 304.299 274.37 304.373 274.039C304.446 273.707 304.449 273.364 304.383 273.031C304.316 272.698 304.181 272.383 303.985 272.105L303.999 272.092ZM302.877 275.026L302.535 275.225L301.851 275.615L296.33 278.782C295.74 279.122 295.072 279.301 294.391 279.301C293.71 279.301 293.041 279.122 292.451 278.782L270.506 266.209L269.822 265.812L268.105 264.827C267.835 264.673 267.61 264.45 267.455 264.181C267.3 263.911 267.22 263.605 267.222 263.294C267.221 263.05 267.271 262.809 267.37 262.586C267.469 262.363 267.615 262.164 267.797 262.001C267.89 261.912 267.994 261.834 268.105 261.769L268.358 261.618L269.261 261.098L274.645 258.006C275.234 257.668 275.901 257.491 276.581 257.491C277.26 257.491 277.927 257.668 278.517 258.006L301.947 271.449L302.87 271.982L302.918 272.016C303.101 272.126 303.261 272.27 303.39 272.441C303.542 272.641 303.65 272.871 303.707 273.115C303.764 273.36 303.768 273.615 303.718 273.861C303.669 274.108 303.568 274.341 303.422 274.545C303.276 274.75 303.088 274.921 302.87 275.047L302.877 275.026Z" fill="#4164A9"/>
<path d="M304.827 269.492L304.786 269.451C304.957 268.801 304.519 268.048 303.493 267.453L297.261 263.869C296.739 263.569 296.305 263.136 296.004 262.615C295.702 262.094 295.544 261.502 295.544 260.9V248.654L283.962 243.018V253.279C283.963 253.579 283.885 253.875 283.735 254.135C283.585 254.396 283.369 254.612 283.109 254.763C282.849 254.913 282.554 254.992 282.253 254.992C281.953 254.993 281.657 254.914 281.397 254.763L278.661 253.176C277.074 252.26 274.693 252.095 273.345 252.8L266.087 256.604C265.833 256.701 265.614 256.873 265.458 257.096C265.303 257.319 265.217 257.583 265.212 257.855V259.586C265.212 260.168 265.691 260.797 266.58 261.303L291.351 275.553C292.938 276.469 295.318 276.64 296.659 275.929L303.924 272.132C305.073 271.448 304.827 270.497 304.827 269.492Z" fill="url(#paint7_linear)"/>
<path d="M303.937 270.395L296.672 274.185C295.304 274.869 292.95 274.718 291.363 273.802L266.504 259.497C266.372 259.419 266.247 259.333 266.127 259.237L265.881 259.422V259.655C265.881 259.901 266.141 260.339 266.887 260.756L291.685 275.081C292.568 275.557 293.555 275.803 294.558 275.799C295.164 275.82 295.766 275.698 296.316 275.443L303.54 271.667C304.094 271.325 304.142 270.983 304.122 270.258C304.067 270.299 303.998 270.354 303.937 270.395Z" fill="#4164A9"/>
<path d="M336.89 269.984V218.336C336.9 216.518 336.428 214.731 335.523 213.155C334.619 211.578 333.313 210.269 331.739 209.361L258.467 167.057C257.734 166.629 256.905 166.391 256.056 166.366C255.208 166.341 254.367 166.529 253.61 166.913L250.736 168.493C249.908 168.927 249.214 169.58 248.732 170.381C248.249 171.182 247.996 172.101 248 173.036V224.527C248.002 226.328 248.477 228.097 249.376 229.657C250.275 231.217 251.567 232.515 253.124 233.42L326.41 275.915C329.194 277.537 331.561 276.107 334.434 274.335C335.183 273.882 335.803 273.244 336.233 272.482C336.663 271.72 336.89 270.86 336.89 269.984Z" fill="url(#paint8_linear)"/>
<path d="M331.363 209.969L258.111 167.672C257.447 167.277 256.688 167.069 255.915 167.07C255.224 167.073 254.543 167.235 253.924 167.542L253.712 167.645L253.302 167.871C254.16 167.892 255 168.127 255.744 168.555L329.016 210.859C332.731 212.911 334.168 215.51 334.168 219.841V271.482C334.176 272.392 333.94 273.288 333.484 274.075L333.983 273.802L334.099 273.733C334.745 273.343 335.278 272.793 335.649 272.136C336.019 271.48 336.213 270.738 336.213 269.984V218.336C336.213 216.638 335.764 214.97 334.912 213.501C334.061 212.032 332.836 210.814 331.363 209.969Z" fill="#4164A9"/>
<path d="M291.31 191.28C290.783 190.363 289.887 189.912 289.312 190.22C288.738 190.528 288.703 191.588 289.23 192.477C289.695 193.278 290.598 193.907 291.228 193.538C291.857 193.168 291.843 192.197 291.31 191.28Z" fill="url(#paint9_linear)"/>
<path d="M291.186 191.109C290.851 190.521 290.276 190.22 289.907 190.425C289.537 190.63 289.517 191.28 289.852 191.869C290.187 192.457 290.721 192.785 291.131 192.553C291.542 192.32 291.528 191.691 291.186 191.109Z" fill="url(#paint10_linear)"/>
<path d="M254.56 175.328V221.326L291.07 242.567L320.335 213.301L254.56 175.328Z" fill="#30539A"/>
<path d="M291.069 242.566L327.504 263.691V217.522L320.335 213.301L291.069 242.566Z" fill="#4164A9"/>
<path d="M284.845 245.583V242.648H284.811C284.784 242.645 284.756 242.645 284.729 242.648C284.685 242.624 284.635 242.61 284.585 242.607C284.467 242.607 284.354 242.654 284.271 242.738C284.187 242.821 284.14 242.934 284.14 243.052V246.103C284.142 246.311 284.198 246.515 284.302 246.695C284.406 246.875 284.556 247.025 284.736 247.129L287.014 248.443C287.08 248.483 287.155 248.504 287.232 248.504C287.347 248.502 287.456 248.458 287.54 248.381C287.584 248.34 287.618 248.29 287.642 248.234C287.665 248.179 287.677 248.12 287.677 248.06V247.936L285.44 246.644C285.253 246.538 285.099 246.384 284.994 246.197C284.889 246.01 284.837 245.798 284.845 245.583Z" fill="#B2C5EA"/>
<path d="M287.047 243.941L284.844 242.648V245.583C284.844 245.79 284.9 245.994 285.004 246.173C285.109 246.352 285.259 246.5 285.44 246.602L287.677 247.895V244.967C287.673 244.755 287.613 244.548 287.502 244.368C287.391 244.187 287.234 244.04 287.047 243.941Z" fill="#D2E1FF"/>
<path d="M304.122 210.674L259.69 184.678C259.572 184.609 259.437 184.573 259.299 184.573C259.162 184.573 259.027 184.61 258.908 184.679C258.79 184.749 258.692 184.849 258.625 184.969C258.558 185.089 258.524 185.225 258.527 185.362C258.527 185.618 258.594 185.868 258.721 186.089C258.848 186.31 259.032 186.494 259.252 186.621L303.718 212.617C303.837 212.684 303.972 212.718 304.108 212.717C304.245 212.716 304.379 212.679 304.497 212.609C304.614 212.54 304.712 212.441 304.779 212.322C304.847 212.204 304.882 212.069 304.881 211.932C304.878 211.674 304.806 211.421 304.673 211.2C304.539 210.978 304.349 210.797 304.122 210.674Z" fill="#567AC4"/>
<path d="M288.709 207.924L259.69 190.87C259.572 190.8 259.437 190.764 259.299 190.764C259.162 190.764 259.027 190.801 258.908 190.871C258.79 190.941 258.692 191.041 258.625 191.161C258.558 191.281 258.524 191.416 258.527 191.554C258.526 191.81 258.592 192.062 258.719 192.284C258.847 192.507 259.031 192.691 259.252 192.819L288.265 209.881C288.384 209.949 288.519 209.985 288.657 209.985C288.794 209.985 288.929 209.948 289.048 209.878C289.167 209.809 289.265 209.709 289.333 209.589C289.401 209.47 289.436 209.334 289.434 209.196C289.436 208.939 289.37 208.686 289.242 208.463C289.115 208.24 288.931 208.054 288.709 207.924Z" fill="#567AC4"/>
<path d="M295.181 217.789L259.69 196.828C259.572 196.759 259.437 196.722 259.299 196.723C259.162 196.723 259.027 196.76 258.908 196.829C258.79 196.899 258.692 196.999 258.625 197.119C258.558 197.239 258.524 197.375 258.527 197.512C258.526 197.769 258.592 198.021 258.719 198.243C258.847 198.465 259.031 198.65 259.252 198.778L294.743 219.738C294.862 219.808 294.997 219.844 295.134 219.844C295.271 219.844 295.406 219.807 295.525 219.737C295.643 219.668 295.741 219.568 295.808 219.448C295.875 219.327 295.909 219.192 295.906 219.054C295.907 218.798 295.841 218.546 295.714 218.324C295.587 218.101 295.403 217.917 295.181 217.789Z" fill="#567AC4"/>
<path d="M304.17 223.159L299.826 220.614C299.706 220.545 299.571 220.509 299.433 220.509C299.296 220.51 299.161 220.546 299.042 220.616C298.923 220.685 298.825 220.785 298.757 220.905C298.689 221.025 298.654 221.16 298.656 221.298C298.656 221.554 298.724 221.806 298.853 222.029C298.981 222.251 299.166 222.435 299.388 222.563L303.732 225.108C303.85 225.178 303.985 225.214 304.123 225.214C304.26 225.214 304.395 225.177 304.514 225.107C304.632 225.037 304.73 224.937 304.797 224.817C304.864 224.697 304.898 224.562 304.895 224.424C304.896 224.168 304.83 223.916 304.703 223.694C304.575 223.471 304.391 223.287 304.17 223.159Z" fill="#567AC4"/>
<path d="M272.572 210.319L259.69 202.848C259.572 202.779 259.437 202.742 259.299 202.743C259.162 202.743 259.027 202.78 258.908 202.849C258.79 202.919 258.692 203.019 258.625 203.139C258.558 203.259 258.524 203.395 258.527 203.532C258.526 203.788 258.593 204.04 258.72 204.262C258.847 204.485 259.031 204.669 259.252 204.798L272.134 212.268C272.252 212.338 272.387 212.374 272.525 212.374C272.662 212.374 272.797 212.337 272.916 212.267C273.034 212.197 273.132 212.097 273.199 211.977C273.266 211.857 273.3 211.722 273.297 211.584C273.298 211.328 273.231 211.076 273.104 210.854C272.977 210.632 272.793 210.447 272.572 210.319Z" fill="#567AC4"/>
<path d="M265.731 221.996C265.55 221.996 265.372 221.946 265.217 221.852L259.745 218.698C259.374 218.484 259.066 218.176 258.852 217.805C258.638 217.434 258.526 217.013 258.527 216.585V209.922C258.527 209.647 258.636 209.384 258.829 209.189C259.023 208.994 259.285 208.884 259.56 208.882C259.743 208.882 259.923 208.931 260.08 209.025L265.553 212.186C265.923 212.399 266.231 212.706 266.444 213.076C266.658 213.446 266.771 213.866 266.77 214.293V220.956C266.772 221.095 266.746 221.233 266.691 221.362C266.637 221.49 266.557 221.606 266.456 221.702C266.26 221.887 266.001 221.992 265.731 221.996Z" fill="url(#paint11_linear)"/>
<path d="M277.066 228.987C276.886 228.987 276.71 228.94 276.553 228.851L271.081 225.69C270.707 225.475 270.398 225.165 270.184 224.791C269.97 224.417 269.859 223.993 269.863 223.563V216.9C269.863 216.625 269.971 216.362 270.165 216.167C270.359 215.972 270.621 215.862 270.896 215.86C271.079 215.86 271.259 215.909 271.416 216.004L276.888 219.164C277.258 219.378 277.565 219.685 277.778 220.055C277.992 220.425 278.105 220.844 278.106 221.271V227.941C278.108 228.079 278.08 228.216 278.026 228.343C277.972 228.47 277.892 228.585 277.791 228.68C277.599 228.873 277.339 228.984 277.066 228.987Z" fill="url(#paint12_linear)"/>
<path d="M512.461 216.884C511.962 218.661 511.268 220.378 510.391 222.004C510.331 222.134 510.261 222.264 510.181 222.404C508.924 224.687 507.225 226.696 505.181 228.314H505.121L503.731 229.314C497.551 233.244 489.341 232.914 481.141 228.474L479.351 227.474L409.691 187.144L400.221 181.664L322.221 136.494L317.841 133.954L277.021 110.324L276.851 110.234C272.666 107.844 268.886 104.806 265.651 101.234C263.13 98.4948 260.877 95.5213 258.921 92.3536C254.842 85.8271 252.061 78.5744 250.731 70.9936C249.201 62.1936 250.031 53.7336 253.601 47.3636C255.142 44.5124 257.387 42.1027 260.121 40.3636C262.293 39.0282 264.73 38.1819 267.261 37.8836C270.786 37.5127 274.349 37.947 277.681 39.1536C278.191 39.3236 278.681 39.5136 279.221 39.7236C283.603 41.5871 287.619 44.2146 291.081 47.4836C294.193 43.0224 298.733 39.7559 303.951 38.2236C315.491 34.9036 330.191 40.0536 342.951 53.2236C344.062 47.268 345.963 41.4871 348.601 36.0336C349.061 35.0936 349.541 34.1636 350.061 33.2536C353.892 26.1416 359.532 20.167 366.411 15.9336C367.9 15.0437 369.443 14.2488 371.031 13.5536C374.734 11.9386 378.646 10.8546 382.651 10.3336C402.751 7.63363 426.961 17.9536 448.001 40.7436C478.841 74.1536 492.651 123.154 482.711 157.534C488.576 159.973 493.81 163.71 498.021 168.464C498.891 169.404 499.712 170.364 500.512 171.354C511.612 185.044 516.311 203.584 512.461 216.884Z" fill="url(#paint13_linear)"/>
<path d="M344.117 33.0739C346.842 34.6816 347.638 38.1403 346.492 41.0893C346.262 41.6823 346.04 42.2784 345.826 42.8775C344.307 47.1373 338.574 48.8457 334.938 46.1567C324.791 38.653 314.158 35.8501 305.269 37.9446C305.03 38.0008 304.873 37.6673 305.072 37.5249C305.092 37.5111 305.109 37.4939 305.123 37.4747C313.788 25.4908 329.112 24.2205 344.117 33.0739Z" fill="url(#paint14_linear)"/>
<path d="M304.19 36.67C304.641 37.0687 304.594 37.7802 304.103 38.1298C304.016 38.1919 303.919 38.2387 303.817 38.2694C303.209 38.4511 302.611 38.6564 302.023 38.8844C295.125 41.5592 286.272 42.6568 279.48 39.723C279.411 39.693 279.341 39.6632 279.272 39.6336C278.762 39.4236 278.272 39.2336 277.732 39.0636C274.4 37.857 270.837 37.4227 267.312 37.7936C264.78 38.0919 262.343 38.9381 260.172 40.2736L272.412 31.5136L273.892 30.5136C279.412 26.9736 286.582 26.8536 293.892 30.0436C297.643 31.7187 301.115 33.9536 304.19 36.67Z" fill="url(#paint15_linear)"/>
<path d="M497.22 145.853C496.917 147.007 496.204 148.001 495.233 148.695C491.14 151.62 485.122 147.597 485.587 142.588C488.617 109.97 474.687 69.5843 448.102 40.7838C427.102 17.9938 402.852 7.67384 382.752 10.3738C378.746 10.8948 374.834 11.9788 371.132 13.5938C369.543 14.289 368 15.084 366.512 15.9738L376.732 8.53384L378.002 7.61384C400.072 -7.82616 433.882 0.363838 462.002 30.8438C492.345 63.684 506.196 111.587 497.22 145.853Z" fill="url(#paint16_linear)"/>
<path d="M524.1 212.403C522.658 215.085 520.602 217.388 518.1 219.123L505.27 228.253C507.314 226.635 509.013 224.626 510.27 222.343C510.35 222.203 510.42 222.073 510.48 221.943C511.357 220.318 512.051 218.601 512.55 216.823C516.4 203.573 511.7 185.033 500.7 171.383C499.9 170.383 499.08 169.433 498.21 168.493C496.901 167.016 495.494 165.636 493.999 164.363C489.66 160.67 488.897 153.277 493.532 149.964C495.577 148.502 498.255 148.16 500.471 149.345C504.864 151.693 508.814 154.808 512.13 158.553C513 159.483 513.83 160.453 514.62 161.443C527.17 177.123 531.49 199.243 524.1 212.403Z" fill="url(#paint17_linear)"/>
<path d="M383.201 48.7754C381.868 48.0058 380.201 48.9684 380.202 50.508L380.211 107.799C380.211 108.514 380.592 109.174 381.211 109.531L430.822 138.172C432.155 138.942 433.821 137.98 433.822 136.441L433.831 79.1491C433.831 78.4343 433.45 77.7738 432.831 77.4166L383.201 48.7754Z" fill="url(#paint18_linear)"/>
<path d="M292.352 60.1744C291.018 59.405 289.352 60.3677 289.352 61.9073L289.361 96.7389C289.361 97.4533 289.743 98.1133 290.361 98.4705L320.522 115.882C321.856 116.652 323.522 115.69 323.522 114.15L323.531 79.3188C323.531 78.6039 323.15 77.9432 322.531 77.5859L292.352 60.1744Z" fill="url(#paint19_linear)"/>
<path d="M452.413 162.905C451.079 162.136 449.413 163.098 449.413 164.638L449.422 193.609C449.422 194.324 449.803 194.984 450.422 195.341L475.512 209.822C476.846 210.592 478.512 209.63 478.512 208.09V179.119C478.512 178.404 478.131 177.744 477.512 177.387L452.413 162.905Z" fill="url(#paint20_linear)"/>
<path d="M365.332 120.635C363.999 119.865 362.332 120.828 362.332 122.367V138.389C362.332 139.103 362.713 139.763 363.332 140.121L421.882 173.931C423.215 174.701 424.882 173.739 424.882 172.199V156.168C424.882 155.453 424.501 154.793 423.882 154.436L365.332 120.635Z" fill="url(#paint21_linear)"/>
<path d="M389.242 62.9849C387.908 62.2157 386.241 63.1789 386.242 64.7186L386.25 77.0905C386.25 77.8043 386.631 78.4638 387.249 78.821L397.96 85.01C399.293 85.7805 400.96 84.8183 400.96 83.2783V70.8992C400.96 70.1843 400.579 69.5238 399.959 69.1667L389.242 62.9849Z" fill="#4164A9"/>
<path d="M407.631 101.523C407.491 101.523 407.354 101.489 407.231 101.423L386.341 89.3631C386.241 89.3154 386.153 89.2476 386.081 89.1641C386.009 89.0805 385.955 88.9829 385.922 88.8775C385.89 88.7721 385.879 88.6611 385.892 88.5515C385.904 88.4419 385.939 88.336 385.995 88.2406C386.05 88.1451 386.124 88.0622 386.213 87.9969C386.302 87.9316 386.404 87.8854 386.511 87.8612C386.619 87.8371 386.731 87.8354 386.839 87.8564C386.947 87.8774 387.05 87.9205 387.141 87.9831L408.031 100.043C408.185 100.129 408.306 100.264 408.374 100.426C408.443 100.589 408.455 100.769 408.409 100.939C408.363 101.11 408.261 101.259 408.12 101.365C407.979 101.471 407.807 101.527 407.631 101.523Z" fill="#4164A9"/>
<path d="M412.851 110.573C412.71 110.577 412.571 110.539 412.451 110.463L386.341 95.3934C386.251 95.3416 386.172 95.2725 386.109 95.1902C386.046 95.1078 385.999 95.0138 385.972 94.9135C385.945 94.8132 385.939 94.7086 385.952 94.6056C385.966 94.5026 385.999 94.4033 386.051 94.3134C386.156 94.1292 386.33 93.9941 386.534 93.9379C386.739 93.8816 386.957 93.9088 387.141 94.0134L413.251 109.083C413.403 109.172 413.52 109.308 413.587 109.47C413.653 109.632 413.665 109.812 413.619 109.981C413.574 110.15 413.474 110.3 413.335 110.407C413.197 110.514 413.027 110.572 412.851 110.573Z" fill="#4164A9"/>
<path d="M418.072 119.614C417.932 119.615 417.795 119.581 417.672 119.514L386.342 101.414C386.176 101.299 386.06 101.127 386.016 100.93C385.971 100.734 386.003 100.528 386.104 100.354C386.205 100.18 386.368 100.05 386.56 99.9906C386.753 99.9313 386.96 99.9467 387.142 100.034L418.472 118.134C418.562 118.186 418.641 118.255 418.704 118.337C418.768 118.419 418.814 118.513 418.841 118.614C418.868 118.714 418.875 118.819 418.861 118.922C418.848 119.025 418.814 119.124 418.762 119.214C418.692 119.335 418.592 119.436 418.471 119.506C418.349 119.576 418.212 119.613 418.072 119.614Z" fill="#4164A9"/>
<path d="M297.639 71.852C296.306 71.0837 294.641 72.046 294.641 73.5849V78.4982C294.641 79.2134 295.022 79.874 295.642 80.2311L299.902 82.686C301.235 83.4544 302.901 82.492 302.901 80.9532V76.0398C302.901 75.3247 302.519 74.664 301.899 74.307L297.639 71.852Z" fill="#4164A9"/>
<path d="M306.642 92.7039C306.561 92.7044 306.482 92.6838 306.412 92.6439L294.702 85.8839C294.601 85.8235 294.527 85.7257 294.497 85.6117C294.467 85.4976 294.483 85.3763 294.542 85.2739C294.571 85.2228 294.61 85.178 294.656 85.1421C294.703 85.1063 294.756 85.0801 294.813 85.0652C294.87 85.0503 294.929 85.0469 294.987 85.0553C295.046 85.0636 295.101 85.0836 295.152 85.1139L306.862 91.8739C306.943 91.9251 307.005 92.0008 307.04 92.0899C307.075 92.1791 307.081 92.2771 307.056 92.3697C307.032 92.4623 306.979 92.5446 306.904 92.6048C306.829 92.6649 306.738 92.6996 306.642 92.7039Z" fill="#4164A9"/>
<path d="M309.562 97.774C309.484 97.7777 309.407 97.7567 309.342 97.714L294.702 89.264C294.65 89.2351 294.606 89.1961 294.57 89.1495C294.534 89.103 294.508 89.0497 294.493 88.9928C294.478 88.9359 294.475 88.8767 294.483 88.8185C294.491 88.7603 294.511 88.7044 294.542 88.654C294.602 88.5527 294.7 88.4792 294.814 88.4493C294.928 88.4194 295.049 88.4354 295.152 88.494L309.782 96.944C309.87 96.9902 309.941 97.0651 309.981 97.1566C310.021 97.248 310.029 97.3505 310.004 97.4471C309.978 97.5437 309.92 97.6287 309.84 97.6882C309.76 97.7476 309.662 97.7779 309.562 97.774Z" fill="#4164A9"/>
<path d="M312.491 102.884C312.414 102.888 312.338 102.87 312.271 102.834L294.701 92.6838C294.642 92.6592 294.588 92.6221 294.545 92.5752C294.501 92.5282 294.468 92.4724 294.447 92.4116C294.427 92.3507 294.42 92.2862 294.426 92.2223C294.433 92.1584 294.453 92.0967 294.485 92.0413C294.518 91.9859 294.562 91.938 294.614 91.901C294.666 91.8639 294.726 91.8385 294.789 91.8264C294.852 91.8143 294.917 91.8159 294.98 91.831C295.042 91.846 295.1 91.8743 295.151 91.9138L312.711 102.054C312.8 102.1 312.87 102.175 312.91 102.266C312.951 102.358 312.959 102.46 312.933 102.557C312.908 102.654 312.85 102.739 312.769 102.798C312.689 102.857 312.591 102.888 312.491 102.884Z" fill="#4164A9"/>
<path d="M456.1 172.002C454.767 171.233 453.102 172.196 453.102 173.735V177.048C453.102 177.763 453.483 178.423 454.103 178.781L456.973 180.435C458.306 181.203 459.972 180.241 459.972 178.702V175.389C459.972 174.674 459.59 174.013 458.97 173.656L456.1 172.002Z" fill="#4164A9"/>
<path d="M463.081 189.064C463.015 189.063 462.95 189.046 462.891 189.014L453.151 183.384C453.108 183.36 453.07 183.328 453.04 183.289C453.01 183.25 452.987 183.206 452.974 183.158C452.961 183.111 452.958 183.061 452.964 183.012C452.97 182.963 452.987 182.916 453.011 182.874C453.063 182.79 453.145 182.73 453.24 182.706C453.335 182.682 453.436 182.695 453.521 182.744L463.261 188.364C463.346 188.414 463.409 188.495 463.435 188.59C463.461 188.686 463.449 188.787 463.401 188.874C463.37 188.931 463.323 188.978 463.267 189.012C463.211 189.045 463.147 189.063 463.081 189.064Z" fill="#4164A9"/>
<path d="M465.512 193.283C465.446 193.281 465.381 193.264 465.322 193.233L453.152 186.233C453.109 186.209 453.072 186.176 453.042 186.138C453.011 186.099 452.989 186.054 452.976 186.007C452.95 185.911 452.963 185.809 453.012 185.723C453.061 185.637 453.142 185.574 453.238 185.548C453.333 185.521 453.436 185.534 453.522 185.583L465.702 192.583C465.785 192.635 465.845 192.717 465.869 192.812C465.894 192.907 465.88 193.008 465.832 193.093C465.8 193.15 465.754 193.198 465.697 193.231C465.641 193.265 465.577 193.283 465.512 193.283Z" fill="#4164A9"/>
<path d="M467.952 197.503C467.885 197.502 467.82 197.485 467.762 197.453L453.152 189.013C453.109 188.989 453.072 188.957 453.042 188.918C453.011 188.879 452.989 188.835 452.976 188.787C452.963 188.74 452.96 188.691 452.966 188.642C452.972 188.593 452.988 188.546 453.012 188.503C453.036 188.461 453.069 188.423 453.107 188.393C453.146 188.363 453.191 188.341 453.238 188.328C453.285 188.315 453.335 188.311 453.383 188.317C453.432 188.323 453.479 188.339 453.522 188.363L468.132 196.803C468.217 196.854 468.279 196.935 468.305 197.03C468.331 197.125 468.319 197.227 468.272 197.313C468.239 197.37 468.193 197.417 468.137 197.45C468.081 197.484 468.017 197.502 467.952 197.503Z" fill="#4164A9"/>
<path d="M440.851 72.8335L418.451 59.8935L411.041 47.0535L381.551 30.0335L382.251 28.8135L412.071 46.0335L419.481 58.8635L441.551 71.6135L440.851 72.8335Z" fill="url(#paint22_linear)"/>
<path d="M438.59 51.4336L412.11 36.1936L405.49 24.6236L406.71 23.9336L413.14 35.1636L439.3 50.2136L438.59 51.4336Z" fill="url(#paint23_linear)"/>
<path d="M336.211 86.2334H334.811V113.643H336.211V86.2334Z" fill="url(#paint24_linear)"/>
<path d="M281.312 104.153L272.252 89.0732V67.8532L263.412 51.1532L264.652 50.4932L273.662 67.5032V88.6832L282.512 103.433L281.312 104.153Z" fill="url(#paint25_linear)"/>
<path d="M264.525 69.6388L263.598 70.6875L272.519 78.5777L273.447 77.529L264.525 69.6388Z" fill="url(#paint26_linear)"/>
<path d="M488.781 222.103H487.381V201.283L495.771 186.023L497.001 186.703L488.781 201.643V222.103Z" fill="url(#paint27_linear)"/>
<path d="M261.401 48.4139C261.079 48.9404 260.962 49.5667 261.071 50.1739C261.155 50.7562 261.36 51.3147 261.671 51.8139C261.824 52.0578 262.002 52.2856 262.201 52.4939C263.351 53.7339 264.861 53.8939 265.581 52.8739C266.301 51.8539 265.931 50.0239 264.781 48.7839C263.631 47.5439 262.111 47.3939 261.401 48.4139Z" fill="url(#paint28_linear)"/>
<path d="M261.47 66.5638C261.147 67.0934 261.029 67.7233 261.14 68.3338C261.225 68.9129 261.429 69.4681 261.74 69.9638C261.896 70.2091 262.073 70.44 262.27 70.6538C263.42 71.8838 264.93 72.0538 265.65 71.0238C266.37 69.9938 266 68.1738 264.85 66.9438C263.7 65.7138 262.18 65.5438 261.47 66.5638Z" fill="url(#paint29_linear)"/>
<path d="M279.642 101.034C279.319 101.563 279.201 102.193 279.312 102.804C279.401 103.382 279.605 103.936 279.912 104.434C280.071 104.677 280.248 104.907 280.442 105.124C281.602 106.354 283.112 106.524 283.822 105.494C284.532 104.464 284.172 102.644 283.022 101.414C281.872 100.184 280.362 100.014 279.642 101.034Z" fill="url(#paint30_linear)"/>
<path d="M332.721 83.9935C332.393 84.5213 332.275 85.153 332.391 85.7635C332.475 86.3426 332.68 86.8978 332.991 87.3935C333.147 87.6388 333.324 87.8697 333.521 88.0835C334.671 89.3135 336.181 89.4835 336.891 88.4535C337.601 87.4235 337.251 85.6035 336.091 84.3735C334.931 83.1435 333.431 82.9735 332.721 83.9935Z" fill="url(#paint31_linear)"/>
<path d="M332.722 111.404C332.396 111.928 332.278 112.556 332.392 113.164C332.475 113.746 332.679 114.305 332.992 114.804C333.148 115.049 333.325 115.28 333.522 115.494C334.672 116.724 336.182 116.884 336.892 115.864C337.602 114.844 337.252 113.014 336.092 111.784C334.932 110.554 333.432 110.384 332.722 111.404Z" fill="url(#paint32_linear)"/>
<path d="M359.752 42.8836C359.428 43.4132 359.311 44.0431 359.421 44.6536C359.506 45.2328 359.71 45.7879 360.021 46.2836C360.177 46.529 360.355 46.7599 360.551 46.9736C361.701 48.2036 363.212 48.3636 363.932 47.3436C364.652 46.3236 364.282 44.4936 363.132 43.2636C361.982 42.0336 360.462 41.8836 359.752 42.8836Z" fill="url(#paint33_linear)"/>
<path d="M342.141 137.474C341.813 138.002 341.695 138.633 341.811 139.244C341.895 139.823 342.1 140.378 342.411 140.874C342.567 141.119 342.744 141.35 342.941 141.564C344.091 142.794 345.601 142.964 346.311 141.934C347.021 140.904 346.671 139.084 345.511 137.854C344.351 136.624 342.851 136.454 342.141 137.474Z" fill="url(#paint34_linear)"/>
<path d="M345.152 139.923H343.752V118.863L352.692 113.713L352.702 83.3632L343.842 68.0332L345.062 67.3232L354.102 82.9832L354.092 114.523L345.152 119.673V139.923Z" fill="url(#paint35_linear)"/>
<path d="M342.152 65.4437C341.829 65.9732 341.711 66.6032 341.822 67.2137C341.906 67.7928 342.111 68.3479 342.422 68.8437C342.578 69.089 342.755 69.3199 342.952 69.5337C344.102 70.7637 345.612 70.9237 346.332 69.9037C347.052 68.8837 346.682 67.0537 345.532 65.8237C344.382 64.5937 342.862 64.4237 342.152 65.4437Z" fill="url(#paint36_linear)"/>
<path d="M379.052 26.5835C378.729 27.1097 378.612 27.7362 378.722 28.3435C378.805 28.9231 379.009 29.4786 379.322 29.9735C379.473 30.2221 379.651 30.4535 379.852 30.6635C381.002 31.9035 382.512 32.0635 383.222 31.0435C383.932 30.0235 383.582 28.1835 382.432 26.9535C381.282 25.7235 379.762 25.5635 379.052 26.5835Z" fill="url(#paint37_linear)"/>
<path d="M440.14 70.6033C439.817 71.1291 439.699 71.756 439.81 72.3633C439.895 72.9424 440.099 73.4976 440.41 73.9933C440.564 74.2403 440.741 74.4715 440.94 74.6833C442.09 75.9133 443.6 76.0833 444.32 75.0533C445.04 74.0233 444.67 72.2033 443.52 70.9733C442.37 69.7433 440.85 69.5733 440.14 70.6033Z" fill="url(#paint38_linear)"/>
<path d="M437.21 48.5935C436.877 49.1156 436.759 49.7462 436.88 50.3535C436.96 50.9338 437.165 51.49 437.48 51.9835C437.628 52.2345 437.806 52.4663 438.01 52.6735C439.16 53.9035 440.67 54.0735 441.38 53.0535C442.09 52.0335 441.74 50.1935 440.58 48.9635C439.42 47.7335 437.95 47.5635 437.21 48.5935Z" fill="url(#paint39_linear)"/>
<path d="M403.402 21.6937C403.079 22.2232 402.961 22.8532 403.072 23.4637C403.156 24.0428 403.361 24.5979 403.672 25.0937C403.828 25.339 404.005 25.5699 404.202 25.7837C405.352 27.0137 406.862 27.1837 407.582 26.1537C408.302 25.1237 407.932 23.3037 406.782 22.0737C405.632 20.8437 404.112 20.6737 403.402 21.6937Z" fill="url(#paint40_linear)"/>
<path d="M494.131 183.984C493.8 184.51 493.678 185.142 493.791 185.754C493.88 186.332 494.084 186.886 494.391 187.384C494.55 187.627 494.727 187.857 494.921 188.074C496.081 189.304 497.591 189.474 498.301 188.444C499.011 187.414 498.651 185.594 497.501 184.364C496.351 183.134 494.841 182.964 494.131 183.984Z" fill="url(#paint41_linear)"/>
<path d="M485.502 219.684C485.178 220.213 485.061 220.843 485.171 221.454C485.256 222.033 485.46 222.588 485.771 223.084C485.927 223.329 486.105 223.56 486.301 223.774C487.451 225.004 488.961 225.174 489.671 224.144C490.381 223.114 490.032 221.294 488.882 220.064C487.732 218.834 486.212 218.664 485.502 219.684Z" fill="url(#paint42_linear)"/>
<g opacity="0.95">
<path d="M195.36 356.204L195.333 362.831L92.675 303.549L92.6886 296.936L195.36 356.204Z" fill="#8899B7"/>
<path d="M192.505 357.867L192.491 364.495L90.7537 305.754L90.7672 299.14L192.505 357.867Z" fill="#213556"/>
<path d="M92.6876 296.935V303.549C90.9075 302.649 88.9407 302.18 86.9461 302.18C84.9515 302.18 82.9847 302.649 81.2046 303.549V296.935C82.9825 296.028 84.9501 295.555 86.9461 295.555C88.9421 295.555 90.9097 296.028 92.6876 296.935Z" fill="#8899B7"/>
<path d="M8.52319 349.115C8.14201 349.304 7.81678 349.59 7.5796 349.943C7.34241 350.296 7.20146 350.706 7.17065 351.13V344.516C7.20146 344.092 7.34241 343.683 7.5796 343.329C7.81678 342.976 8.14201 342.69 8.52319 342.501C8.53672 344.489 8.52319 347.14 8.52319 349.115Z" fill="#213556"/>
<path d="M81.2073 296.936L81.1938 303.549L5.05957 347.791L5.08662 341.177L81.2073 296.936Z" fill="#8899B7"/>
<path d="M110.529 405.516L110.502 412.13L8.76465 353.39L8.7917 346.776L110.529 405.516Z" fill="#BFBFBF"/>
<path d="M107.785 407.1L107.772 413.713L5.10083 354.445L5.12789 347.818L107.785 407.1Z" fill="#213556"/>
<path d="M7.11426 351.13V344.516C7.16744 345.007 7.34921 345.476 7.64127 345.875C7.93333 346.274 8.32536 346.589 8.77787 346.788V353.402C8.32536 353.203 7.93333 352.888 7.64127 352.489C7.34921 352.09 7.16744 351.621 7.11426 351.13Z" fill="#BFBFBF"/>
<path d="M2.70459 351.091V344.477C2.77312 343.769 3.02664 343.092 3.4397 342.512C3.85276 341.933 4.41085 341.473 5.05801 341.177V347.791C4.41085 348.087 3.85276 348.547 3.4397 349.126C3.02664 349.706 2.77312 350.383 2.70459 351.091Z" fill="#8899B7"/>
<path d="M105.875 408.207L105.861 414.821L3.19043 355.54L3.21748 348.926L105.875 408.207Z" fill="#8899B7"/>
<path d="M2.70459 351.09V344.476C2.76772 345.198 3.02307 345.889 3.44407 346.479C3.86507 347.069 4.43636 347.536 5.09858 347.83V354.444C4.43636 354.149 3.86507 353.683 3.44407 353.093C3.02307 352.503 2.76772 351.811 2.70459 351.09Z" fill="#213556"/>
<path d="M0 351.089V344.462C0.084472 345.421 0.423623 346.341 0.982392 347.126C1.54116 347.91 2.29929 348.532 3.17847 348.925V355.553C2.29929 355.159 1.54116 354.538 0.982392 353.753C0.423623 352.969 0.084472 352.049 0 351.089Z" fill="#8899B7"/>
<path d="M197.74 359.557V366.238C197.675 365.519 197.419 364.83 196.998 364.242C196.577 363.655 196.007 363.191 195.346 362.898V356.284C195.998 356.571 196.561 357.025 196.982 357.6C197.402 358.174 197.664 358.849 197.74 359.557Z" fill="#8899B7"/>
<path d="M194.226 360.152V366.766C194.175 366.274 193.994 365.804 193.702 365.404C193.41 365.005 193.016 364.691 192.562 364.494V357.88C193.016 358.077 193.41 358.391 193.702 358.79C193.994 359.19 194.175 359.66 194.226 360.152Z" fill="#213556"/>
<path d="M194.224 360.151V366.765C194.194 367.19 194.053 367.599 193.815 367.952C193.578 368.306 193.253 368.591 192.872 368.781V362.18C193.254 361.989 193.58 361.701 193.817 361.345C194.054 360.989 194.195 360.578 194.224 360.151Z" fill="#BFBFBF"/>
<path d="M197.741 359.557V366.238C197.671 366.948 197.416 367.626 197 368.206C196.585 368.785 196.024 369.245 195.374 369.538V362.924C196.033 362.625 196.6 362.155 197.016 361.563C197.432 360.971 197.683 360.278 197.741 359.557Z" fill="#213556"/>
<path d="M200.447 359.571V366.239C200.355 367.182 200.016 368.085 199.466 368.856C198.915 369.628 198.171 370.241 197.309 370.635V364.021C198.179 363.622 198.927 363.001 199.479 362.219C200.03 361.438 200.364 360.524 200.447 359.571Z" fill="#8899B7"/>
<path d="M117.916 405.65V412.224C116.761 412.789 115.487 413.072 114.201 413.048C112.915 413.025 111.652 412.696 110.518 412.088V405.461C111.648 406.077 112.908 406.415 114.194 406.448C115.481 406.481 116.757 406.208 117.916 405.65Z" fill="#BFBFBF"/>
<path d="M119.238 413.712C117.461 414.616 115.496 415.088 113.503 415.088C111.51 415.088 109.545 414.616 107.768 413.712C107.768 411.765 107.768 409.817 107.768 407.87V407.099C109.546 407.999 111.51 408.469 113.503 408.469C115.496 408.469 117.46 407.999 119.238 407.099C119.251 409.073 119.238 411.724 119.238 413.712Z" fill="#213556"/>
<path d="M121.188 408.166V414.78C118.819 415.987 116.198 416.616 113.539 416.616C110.881 416.616 108.26 415.987 105.891 414.78V408.166C108.26 409.371 110.881 409.998 113.539 409.998C116.197 409.998 118.818 409.371 121.188 408.166Z" fill="#8899B7"/>
<path d="M192.75 362.153L192.736 368.781L117.901 412.265L117.914 405.651L192.75 362.153Z" fill="#BFBFBF"/>
<path d="M192.506 357.879C194.615 359.097 194.724 361.017 192.749 362.167L117.913 405.651C116.758 406.217 115.484 406.499 114.198 406.476C112.911 406.452 111.649 406.123 110.515 405.516L8.79055 346.789C6.6806 345.571 6.57241 343.651 8.53359 342.501L83.3153 299.017C84.4698 298.449 85.7428 298.165 87.0291 298.186C88.3155 298.207 89.5784 298.534 90.7137 299.139L192.506 357.879Z" fill="#1D2E4E"/>
<path d="M195.388 362.856L195.361 369.47L119.24 413.711L119.267 407.097L195.388 362.856Z" fill="#213556"/>
<path d="M195.35 356.216C198.529 358.042 198.542 361.018 195.35 362.857L119.216 407.099C117.438 408 115.474 408.469 113.481 408.469C111.488 408.469 109.524 408 107.746 407.099L5.07544 347.831C1.89698 345.991 1.88346 343.016 5.07544 341.176L81.2097 296.935C82.9876 296.028 84.9552 295.555 86.9512 295.555C88.9472 295.555 90.9148 296.028 92.6927 296.935L195.35 356.216ZM117.917 405.652L192.753 362.181C194.728 361.031 194.62 359.111 192.51 357.894L90.7721 299.153C89.6369 298.548 88.374 298.221 87.0876 298.2C85.8012 298.179 84.5283 298.464 83.3737 299.031L8.53795 342.515C6.57677 343.665 6.68496 345.586 8.79491 346.803L110.519 405.462C111.653 406.07 112.916 406.399 114.202 406.422C115.488 406.446 116.762 406.163 117.917 405.598" fill="#213556"/>
<path d="M197.252 355.108C201.485 357.542 201.512 361.532 197.252 363.967L121.185 408.168C118.814 409.374 116.191 410.003 113.53 410.003C110.869 410.003 108.246 409.374 105.874 408.168L3.20341 348.926C-1.01651 346.492 -1.04356 342.515 3.20341 340.067L79.2565 295.826C81.6298 294.625 84.2522 294 86.9118 294C89.5715 294 92.1939 294.625 94.5672 295.826L197.252 355.108ZM119.251 407.099L195.385 362.858C198.537 361.018 198.523 358.043 195.385 356.217L92.7277 296.935C90.9498 296.028 88.9822 295.555 86.9862 295.555C84.9902 295.555 83.0226 296.028 81.2447 296.935L5.11047 341.176C1.95906 343.016 1.97258 345.991 5.11047 347.831L107.781 407.099C109.559 408 111.524 408.469 113.516 408.469C115.509 408.469 117.474 408 119.251 407.099Z" fill="#8899B7"/>
<path d="M83.3168 299.018L8.48096 342.502L83.3168 299.018ZM8.52153 346.627H8.58916H8.52153Z" fill="#213556"/>
<path d="M197.31 363.966L197.297 370.58L121.163 414.821L121.19 408.207L197.31 363.966Z" fill="#8899B7"/>
<path d="M145.837 381.366L166.898 381.367L166.898 357.93C166.894 357.863 164.673 359.057 164.636 359.002C164.599 358.947 164.548 358.903 164.489 358.876L158.267 355.165C158.112 355.083 157.94 355.04 157.766 355.04C157.592 355.04 157.42 355.083 157.265 355.165L151.081 358.876C151.022 358.903 150.972 358.947 150.936 359.002C150.9 359.057 145.84 357.542 145.837 357.609L145.837 381.366Z" fill="url(#paint43_linear)"/>
<path d="M145.837 358.326V357.004C145.855 357.272 145.946 357.53 146.101 357.75C146.256 357.969 146.469 358.141 146.716 358.246V359.575C146.471 359.465 146.261 359.29 146.106 359.071C145.952 358.851 145.859 358.594 145.837 358.326Z" fill="#BBC4D3"/>
<path d="M166.896 357.396V358.718C166.866 359.012 166.759 359.292 166.586 359.53C166.412 359.769 166.179 359.957 165.909 360.076V358.755C166.177 358.634 166.41 358.445 166.583 358.207C166.756 357.969 166.864 357.689 166.896 357.396Z" fill="#BBC4D3"/>
<path d="M165.888 358.736V360.058L159.068 364.023V362.701L165.888 358.736Z" fill="#BBC4D3"/>
<path d="M154.554 362.772V364.094L146.725 359.569V358.24L154.554 362.772Z" fill="#BBC4D3"/>
<path d="M159.062 362.708V364.029C158.371 364.395 157.604 364.592 156.823 364.604C156.041 364.617 155.268 364.445 154.566 364.102V362.78C155.268 363.123 156.041 363.295 156.823 363.282C157.604 363.27 158.371 363.073 159.062 362.708Z" fill="#BBC4D3"/>
<path d="M165.999 356.132C167.219 356.859 167.161 357.999 165.89 358.74L159.063 362.698C158.373 363.064 157.606 363.262 156.825 363.276C156.043 363.29 155.27 363.119 154.567 362.778L146.731 358.26C145.511 357.534 145.576 356.394 146.847 355.653L153.667 351.688C154.358 351.314 155.128 351.11 155.913 351.093C156.699 351.075 157.477 351.244 158.184 351.586L165.999 356.132Z" fill="#DEE5F1"/>
<path d="M157.539 360.526C157.655 360.591 157.655 360.693 157.539 360.758C157.476 360.79 157.407 360.807 157.336 360.807C157.265 360.807 157.195 360.79 157.133 360.758L151.01 357.221C150.901 357.163 150.901 357.054 151.01 356.989C151.073 356.956 151.143 356.939 151.214 356.939C151.284 356.939 151.354 356.956 151.417 356.989L154.271 358.637L154.678 358.405L153.734 357.853C153.652 357.825 153.58 357.772 153.53 357.702C153.479 357.632 153.452 357.547 153.452 357.461C153.452 357.374 153.479 357.29 153.53 357.219C153.58 357.149 153.652 357.096 153.734 357.069L154.416 356.669C154.621 356.559 154.852 356.503 155.084 356.509L154.729 356.306C154.6 356.261 154.489 356.178 154.411 356.067C154.332 355.957 154.29 355.824 154.29 355.689C154.29 355.553 154.332 355.421 154.411 355.31C154.489 355.199 154.6 355.116 154.729 355.071C155.041 354.914 155.385 354.827 155.735 354.815C156.084 354.804 156.433 354.869 156.755 355.006C157.029 354.842 157.34 354.75 157.659 354.74C157.978 354.73 158.294 354.802 158.578 354.948C158.661 354.994 158.737 355.053 158.803 355.122C159.544 354.981 160.31 355.091 160.982 355.435C161.708 355.841 161.81 356.473 161.308 356.967C161.889 357.388 161.868 358.027 161.156 358.419C160.738 358.632 160.275 358.743 159.805 358.743C159.336 358.743 158.873 358.632 158.454 358.419L158.382 358.376C158.377 358.459 158.349 358.538 158.301 358.606C158.254 358.674 158.189 358.728 158.113 358.761L157.387 359.16C157.178 359.27 156.947 359.327 156.711 359.327C156.476 359.327 156.244 359.27 156.036 359.16L155.077 358.608L154.67 358.848L157.539 360.526ZM156.029 355.725C156.237 355.621 156.467 355.567 156.7 355.567C156.933 355.567 157.163 355.621 157.372 355.725L159.696 357.069C160.067 357.286 160.074 357.635 159.696 357.853L158.97 358.281C159.253 358.395 159.557 358.446 159.861 358.433C160.165 358.419 160.463 358.34 160.735 358.202C161.258 357.897 161.265 357.41 160.735 357.112C160.611 357.04 160.611 356.945 160.735 356.887C161.243 356.488 161.12 355.972 160.589 355.667C160.324 355.524 160.033 355.437 159.733 355.413C159.416 355.384 159.096 355.411 158.788 355.493C158.683 355.534 158.567 355.534 158.462 355.493C158.426 355.473 158.398 355.443 158.382 355.405C158.346 355.322 158.282 355.255 158.2 355.217C158.028 355.122 157.83 355.086 157.635 355.112C157.441 355.138 157.259 355.226 157.118 355.362C157.057 355.425 156.976 355.465 156.89 355.477C156.803 355.489 156.714 355.472 156.639 355.427L156.486 355.333C156.282 355.228 156.055 355.174 155.825 355.174C155.595 355.174 155.369 355.228 155.164 355.333C155.095 355.365 155.036 355.416 154.995 355.48C154.953 355.545 154.931 355.619 154.931 355.696C154.931 355.772 154.953 355.847 154.995 355.912C155.036 355.976 155.095 356.027 155.164 356.059L155.331 356.154L156.058 355.718L156.029 355.725ZM158.636 358.005L159.319 357.606C159.464 357.519 159.471 357.381 159.319 357.301L157.002 355.957C156.919 355.915 156.827 355.892 156.733 355.892C156.64 355.892 156.547 355.915 156.464 355.957L155.774 356.357C155.636 356.437 155.636 356.575 155.774 356.662L158.098 358.005C158.181 358.046 158.272 358.068 158.364 358.068C158.455 358.068 158.546 358.046 158.629 358.005H158.636ZM154.155 357.606L156.479 358.95C156.56 358.989 156.65 359.009 156.74 359.009C156.831 359.009 156.92 358.989 157.002 358.95L157.692 358.55C157.837 358.463 157.844 358.325 157.692 358.238L155.368 356.902C155.285 356.859 155.192 356.837 155.099 356.837C155.006 356.837 154.913 356.859 154.83 356.902L154.148 357.301C154.002 357.381 154.002 357.519 154.148 357.606" fill="#385692"/>
<path d="M156.912 358.278C156.939 358.285 156.963 358.301 156.98 358.322C156.997 358.344 157.006 358.371 157.006 358.398C157.006 358.426 156.997 358.453 156.98 358.474C156.963 358.496 156.939 358.512 156.912 358.518C156.849 358.551 156.78 358.568 156.709 358.568C156.638 358.568 156.569 358.551 156.506 358.518L155.489 357.93C155.466 357.92 155.446 357.903 155.432 357.882C155.418 357.86 155.41 357.836 155.41 357.81C155.41 357.785 155.418 357.76 155.432 357.738C155.446 357.717 155.466 357.7 155.489 357.69C155.553 357.658 155.624 357.642 155.696 357.642C155.768 357.642 155.839 357.658 155.903 357.69L156.912 358.278Z" fill="#385692"/>
<path d="M158.538 357.336C158.654 357.409 158.654 357.511 158.538 357.576C158.475 357.609 158.406 357.626 158.335 357.626C158.264 357.626 158.194 357.609 158.132 357.576L157.108 356.988C157.084 356.978 157.064 356.961 157.05 356.94C157.036 356.918 157.029 356.893 157.029 356.868C157.029 356.843 157.036 356.818 157.05 356.796C157.064 356.775 157.084 356.758 157.108 356.748C157.17 356.716 157.24 356.699 157.311 356.699C157.382 356.699 157.451 356.716 157.514 356.748L158.538 357.336Z" fill="#385692"/>
<path d="M156.912 356.398C157.021 356.463 157.028 356.565 156.912 356.63C156.849 356.663 156.779 356.68 156.708 356.68C156.638 356.68 156.568 356.663 156.505 356.63C156.389 356.565 156.389 356.456 156.505 356.398C156.568 356.366 156.638 356.349 156.708 356.349C156.779 356.349 156.849 356.366 156.912 356.398Z" fill="#385692"/>
<path d="M155.285 357.344C155.401 357.409 155.401 357.511 155.285 357.576C155.222 357.609 155.152 357.626 155.082 357.626C155.011 357.626 154.941 357.609 154.878 357.576C154.762 357.511 154.762 357.409 154.878 357.344C154.94 357.31 155.01 357.292 155.082 357.292C155.153 357.292 155.223 357.31 155.285 357.344Z" fill="#385692"/>
<path d="M109.503 402.111L130.564 402.112L130.564 378.675C130.56 378.609 128.339 379.802 128.302 379.747C128.265 379.692 128.214 379.649 128.155 379.621L121.933 375.911C121.778 375.829 121.606 375.786 121.432 375.786C121.258 375.786 121.086 375.829 120.931 375.911L114.747 379.621C114.688 379.649 114.638 379.692 114.602 379.747C114.566 379.802 109.506 378.288 109.503 378.354L109.503 402.111Z" fill="url(#paint44_linear)"/>
<path d="M109.504 379.07V377.749C109.522 378.017 109.613 378.275 109.768 378.494C109.923 378.713 110.136 378.885 110.383 378.99V380.319C110.138 380.209 109.928 380.035 109.773 379.815C109.619 379.595 109.526 379.338 109.504 379.07Z" fill="#BBC4D3"/>
<path d="M130.562 378.143V379.464C130.532 379.758 130.425 380.038 130.252 380.277C130.078 380.515 129.845 380.703 129.575 380.822V379.501C129.843 379.38 130.076 379.191 130.249 378.953C130.422 378.715 130.53 378.435 130.562 378.143Z" fill="#BBC4D3"/>
<path d="M129.552 379.48V380.802L122.733 384.768V383.446L129.552 379.48Z" fill="#BBC4D3"/>
<path d="M118.216 383.518V384.84L110.387 380.315V378.986L118.216 383.518Z" fill="#BBC4D3"/>
<path d="M122.726 383.452V384.774C122.036 385.139 121.269 385.336 120.487 385.349C119.706 385.361 118.933 385.189 118.231 384.847V383.525C118.933 383.868 119.706 384.04 120.487 384.027C121.269 384.014 122.036 383.817 122.726 383.452Z" fill="#BBC4D3"/>
<path d="M129.666 376.877C130.886 377.603 130.828 378.743 129.557 379.484L122.731 383.442C122.041 383.809 121.274 384.007 120.492 384.021C119.711 384.035 118.938 383.864 118.235 383.522L110.399 379.005C109.179 378.279 109.244 377.138 110.515 376.398L117.335 372.432C118.026 372.059 118.796 371.855 119.581 371.837C120.366 371.82 121.145 371.989 121.852 372.331L129.666 376.877Z" fill="#DEE5F1"/>
<path d="M121.205 381.27C121.321 381.336 121.321 381.437 121.205 381.503C121.142 381.535 121.072 381.552 121.001 381.552C120.931 381.552 120.861 381.535 120.798 381.503L114.676 377.966C114.567 377.908 114.567 377.799 114.676 377.733C114.739 377.701 114.808 377.684 114.879 377.684C114.95 377.684 115.02 377.701 115.082 377.733L117.937 379.382L118.343 379.15L117.399 378.598C117.317 378.57 117.246 378.517 117.195 378.447C117.145 378.376 117.118 378.292 117.118 378.205C117.118 378.119 117.145 378.034 117.195 377.964C117.246 377.894 117.317 377.841 117.399 377.813L118.082 377.414C118.287 377.303 118.517 377.248 118.75 377.254L118.394 377.051C118.266 377.006 118.155 376.923 118.076 376.812C117.998 376.701 117.955 376.569 117.955 376.433C117.955 376.298 117.998 376.165 118.076 376.055C118.155 375.944 118.266 375.861 118.394 375.816C118.707 375.659 119.05 375.571 119.4 375.56C119.75 375.549 120.098 375.614 120.42 375.751C120.694 375.587 121.005 375.495 121.324 375.485C121.643 375.475 121.96 375.546 122.243 375.693C122.327 375.739 122.403 375.798 122.468 375.867C123.209 375.725 123.976 375.835 124.647 376.179C125.373 376.586 125.475 377.218 124.974 377.712C125.555 378.133 125.533 378.772 124.821 379.164C124.403 379.377 123.94 379.488 123.471 379.488C123.001 379.488 122.538 379.377 122.12 379.164L122.047 379.12C122.042 379.203 122.014 379.283 121.967 379.351C121.92 379.419 121.854 379.472 121.778 379.505L121.052 379.905C120.844 380.014 120.612 380.071 120.377 380.071C120.142 380.071 119.91 380.014 119.701 379.905L118.743 379.353L118.336 379.593L121.205 381.27ZM119.694 376.47C119.903 376.366 120.133 376.312 120.366 376.312C120.599 376.312 120.829 376.366 121.038 376.47L123.362 377.813C123.732 378.031 123.739 378.38 123.362 378.598L122.635 379.026C122.918 379.139 123.222 379.191 123.527 379.177C123.831 379.163 124.129 379.085 124.4 378.946C124.923 378.641 124.93 378.155 124.4 377.857C124.277 377.784 124.277 377.69 124.4 377.632C124.909 377.232 124.785 376.717 124.255 376.412C123.99 376.268 123.698 376.182 123.398 376.157C123.081 376.128 122.761 376.155 122.454 376.237C122.349 376.279 122.232 376.279 122.127 376.237C122.091 376.218 122.063 376.187 122.047 376.15C122.012 376.067 121.947 376 121.866 375.961C121.693 375.867 121.495 375.83 121.301 375.857C121.106 375.883 120.925 375.97 120.784 376.107C120.722 376.169 120.642 376.21 120.555 376.222C120.468 376.234 120.38 376.216 120.304 376.172L120.152 376.077C119.947 375.973 119.721 375.918 119.491 375.918C119.261 375.918 119.034 375.973 118.83 376.077C118.76 376.109 118.701 376.16 118.66 376.225C118.619 376.289 118.597 376.364 118.597 376.441C118.597 376.517 118.619 376.592 118.66 376.656C118.701 376.721 118.76 376.772 118.83 376.804L118.997 376.898L119.723 376.462L119.694 376.47ZM122.301 378.75L122.984 378.351C123.129 378.263 123.137 378.126 122.984 378.046L120.667 376.702C120.584 376.659 120.492 376.637 120.399 376.637C120.305 376.637 120.213 376.659 120.13 376.702L119.44 377.101C119.302 377.181 119.302 377.319 119.44 377.407L121.764 378.75C121.846 378.791 121.937 378.812 122.029 378.812C122.121 378.812 122.212 378.791 122.294 378.75H122.301ZM117.82 378.351L120.144 379.694C120.226 379.733 120.315 379.754 120.406 379.754C120.496 379.754 120.586 379.733 120.667 379.694L121.357 379.295C121.503 379.208 121.51 379.07 121.357 378.982L119.033 377.646C118.95 377.603 118.858 377.581 118.765 377.581C118.671 377.581 118.579 377.603 118.496 377.646L117.813 378.046C117.668 378.126 117.668 378.263 117.813 378.351" fill="#385692"/>
<path d="M120.579 379.024C120.605 379.03 120.629 379.046 120.646 379.067C120.663 379.089 120.672 379.116 120.672 379.143C120.672 379.171 120.663 379.198 120.646 379.22C120.629 379.241 120.605 379.257 120.579 379.263C120.516 379.296 120.446 379.313 120.375 379.313C120.304 379.313 120.235 379.296 120.172 379.263L119.155 378.675C119.132 378.665 119.112 378.648 119.098 378.627C119.084 378.606 119.077 378.581 119.077 378.555C119.077 378.53 119.084 378.505 119.098 378.484C119.112 378.462 119.132 378.446 119.155 378.435C119.219 378.403 119.29 378.387 119.362 378.387C119.434 378.387 119.505 378.403 119.569 378.435L120.579 379.024Z" fill="#385692"/>
<path d="M122.203 378.082C122.319 378.155 122.319 378.256 122.203 378.322C122.14 378.354 122.07 378.371 122 378.371C121.929 378.371 121.859 378.354 121.796 378.322L120.772 377.733C120.749 377.723 120.729 377.707 120.715 377.685C120.701 377.664 120.694 377.639 120.694 377.614C120.694 377.588 120.701 377.563 120.715 377.542C120.729 377.521 120.749 377.504 120.772 377.494C120.835 377.461 120.905 377.444 120.976 377.444C121.046 377.444 121.116 377.461 121.179 377.494L122.203 378.082Z" fill="#385692"/>
<path d="M120.58 377.144C120.688 377.209 120.696 377.311 120.58 377.376C120.517 377.409 120.447 377.426 120.376 377.426C120.305 377.426 120.236 377.409 120.173 377.376C120.057 377.311 120.057 377.202 120.173 377.144C120.236 377.111 120.305 377.094 120.376 377.094C120.447 377.094 120.517 377.111 120.58 377.144Z" fill="#385692"/>
<path d="M118.951 378.088C119.068 378.154 119.068 378.256 118.951 378.321C118.889 378.353 118.819 378.37 118.748 378.37C118.677 378.37 118.608 378.353 118.545 378.321C118.428 378.256 118.428 378.154 118.545 378.088C118.607 378.054 118.677 378.036 118.748 378.036C118.819 378.036 118.889 378.054 118.951 378.088Z" fill="#385692"/>
<path d="M32.2378 360.809L53.2988 360.81L53.2988 337.373C53.2949 337.306 51.0729 338.5 51.0361 338.445C50.9994 338.39 50.9487 338.346 50.8898 338.319L44.6669 334.608C44.512 334.526 44.3404 334.484 44.1664 334.484C43.9923 334.484 43.8207 334.526 43.6658 334.608L37.4814 338.319C37.4226 338.346 37.3723 338.39 37.3361 338.445C37.2999 338.5 32.2406 336.986 32.2378 337.052L32.2378 360.809Z" fill="url(#paint45_linear)"/>
<path d="M32.2383 337.77V336.448C32.2556 336.716 32.3469 336.974 32.5021 337.193C32.6572 337.412 32.8701 337.584 33.117 337.69V339.019C32.8723 338.908 32.6618 338.734 32.5072 338.514C32.3527 338.294 32.2598 338.037 32.2383 337.77Z" fill="#BBC4D3"/>
<path d="M53.3 336.84V338.162C53.2699 338.456 53.1627 338.736 52.9892 338.974C52.8157 339.213 52.5821 339.401 52.3123 339.52V338.198C52.5808 338.078 52.8132 337.889 52.9864 337.651C53.1597 337.412 53.2677 337.133 53.3 336.84Z" fill="#BBC4D3"/>
<path d="M52.2885 338.178V339.5L45.469 343.465V342.144L52.2885 338.178Z" fill="#BBC4D3"/>
<path d="M40.955 342.216V343.538L33.126 339.014V337.685L40.955 342.216Z" fill="#BBC4D3"/>
<path d="M45.4667 342.152V343.474C44.7761 343.839 44.0089 344.036 43.2277 344.049C42.4464 344.062 41.6733 343.89 40.9712 343.547V342.225C41.6733 342.568 42.4464 342.74 43.2277 342.727C44.0089 342.715 44.7761 342.518 45.4667 342.152Z" fill="#BBC4D3"/>
<path d="M52.3995 335.576C53.6196 336.302 53.5615 337.443 52.2905 338.183L45.4637 342.142C44.7737 342.508 44.0068 342.706 43.2256 342.72C42.4443 342.734 41.6709 342.563 40.9682 342.221L33.1319 337.704C31.9118 336.978 31.9772 335.838 33.2481 335.097L40.0677 331.131C40.7588 330.758 41.5287 330.554 42.3141 330.536C43.0994 330.519 43.8778 330.688 44.585 331.03L52.3995 335.576Z" fill="#DEE5F1"/>
<path d="M43.9401 339.972C44.0563 340.038 44.0563 340.139 43.9401 340.205C43.8772 340.237 43.8075 340.254 43.7367 340.254C43.666 340.254 43.5962 340.237 43.5334 340.205L37.411 336.668C37.3021 336.61 37.3021 336.501 37.411 336.435C37.4739 336.403 37.5436 336.386 37.6144 336.386C37.6852 336.386 37.7549 336.403 37.8178 336.435L40.6719 338.084L41.0786 337.852L40.1345 337.3C40.0525 337.272 39.9812 337.219 39.9307 337.149C39.8802 337.079 39.8531 336.994 39.8531 336.908C39.8531 336.821 39.8802 336.737 39.9307 336.666C39.9812 336.596 40.0525 336.543 40.1345 336.515L40.8172 336.116C41.0222 336.005 41.2525 335.95 41.4853 335.956L41.1295 335.753C41.0013 335.708 40.8902 335.625 40.8116 335.514C40.7329 335.404 40.6907 335.271 40.6907 335.135C40.6907 335 40.7329 334.867 40.8116 334.757C40.8902 334.646 41.0013 334.563 41.1295 334.518C41.4422 334.361 41.7855 334.273 42.1354 334.262C42.4853 334.251 42.8335 334.316 43.1557 334.453C43.4295 334.289 43.7406 334.197 44.0596 334.187C44.3787 334.177 44.695 334.248 44.9786 334.395C45.0622 334.441 45.1381 334.5 45.2038 334.569C45.9445 334.427 46.7114 334.537 47.3825 334.881C48.1088 335.288 48.2105 335.92 47.7094 336.414C48.2904 336.835 48.2686 337.474 47.5568 337.866C47.1384 338.079 46.6755 338.19 46.206 338.19C45.7365 338.19 45.2736 338.079 44.8552 337.866L44.7825 337.823C44.7775 337.905 44.7497 337.985 44.7023 338.053C44.6549 338.121 44.5897 338.174 44.5138 338.208L43.7876 338.607C43.5793 338.716 43.3475 338.774 43.1122 338.774C42.8769 338.774 42.6451 338.716 42.4367 338.607L41.4781 338.055L41.0714 338.295L43.9401 339.972ZM42.4295 335.172C42.6383 335.068 42.8682 335.014 43.1013 335.014C43.3344 335.014 43.5643 335.068 43.773 335.172L46.0971 336.515C46.4675 336.733 46.4747 337.082 46.0971 337.3L45.3708 337.728C45.6537 337.842 45.9575 337.893 46.2619 337.879C46.5663 337.866 46.8642 337.787 47.1356 337.648C47.6585 337.343 47.6658 336.857 47.1356 336.559C47.0122 336.486 47.0122 336.392 47.1356 336.334C47.644 335.934 47.5205 335.419 46.9904 335.114C46.7253 334.971 46.4335 334.884 46.1334 334.859C45.8164 334.83 45.4968 334.857 45.1893 334.939C45.0843 334.981 44.9674 334.981 44.8624 334.939C44.8268 334.92 44.7987 334.889 44.7825 334.852C44.747 334.769 44.6825 334.702 44.601 334.663C44.4286 334.569 44.2308 334.533 44.0361 334.559C43.8415 334.585 43.6603 334.672 43.5189 334.809C43.4578 334.872 43.3774 334.912 43.2905 334.924C43.2036 334.936 43.1152 334.918 43.0395 334.874L42.887 334.78C42.6824 334.675 42.4559 334.621 42.2261 334.621C41.9964 334.621 41.7699 334.675 41.5652 334.78C41.4957 334.811 41.4368 334.863 41.3955 334.927C41.3542 334.991 41.3322 335.066 41.3322 335.143C41.3322 335.219 41.3542 335.294 41.3955 335.358C41.4368 335.423 41.4957 335.474 41.5652 335.506L41.7323 335.6L42.4585 335.165L42.4295 335.172ZM45.0367 337.452L45.7194 337.053C45.8647 336.966 45.8719 336.828 45.7194 336.748L43.4027 335.404C43.3195 335.361 43.2274 335.339 43.134 335.339C43.0405 335.339 42.9484 335.361 42.8652 335.404L42.1753 335.804C42.0373 335.884 42.0373 336.022 42.1753 336.109L44.4993 337.452C44.5817 337.493 44.6724 337.514 44.7644 337.514C44.8564 337.514 44.9471 337.493 45.0295 337.452H45.0367ZM40.5557 337.053L42.8798 338.396C42.9613 338.436 43.0507 338.456 43.1412 338.456C43.2317 338.456 43.3211 338.436 43.4027 338.396L44.0926 337.997C44.2379 337.91 44.2451 337.772 44.0926 337.685L41.7686 336.348C41.6854 336.306 41.5933 336.283 41.4999 336.283C41.4064 336.283 41.3143 336.306 41.2312 336.348L40.5485 336.748C40.4032 336.828 40.4032 336.966 40.5485 337.053" fill="#385692"/>
<path d="M43.3147 337.724C43.3415 337.73 43.3652 337.746 43.3822 337.768C43.3992 337.789 43.4084 337.816 43.4084 337.844C43.4084 337.871 43.3992 337.898 43.3822 337.92C43.3652 337.941 43.3415 337.957 43.3147 337.963C43.2518 337.996 43.1821 338.013 43.1113 338.013C43.0406 338.013 42.9709 337.996 42.908 337.963L41.8912 337.375C41.8679 337.365 41.8481 337.348 41.8341 337.327C41.8202 337.306 41.8127 337.281 41.8127 337.255C41.8127 337.23 41.8202 337.205 41.8341 337.184C41.8481 337.162 41.8679 337.146 41.8912 337.136C41.9555 337.104 42.0264 337.087 42.0982 337.087C42.17 337.087 42.2409 337.104 42.3052 337.136L43.3147 337.724Z" fill="#385692"/>
<path d="M44.9406 336.783C45.0568 336.855 45.0568 336.957 44.9406 337.022C44.8777 337.055 44.808 337.072 44.7373 337.072C44.6665 337.072 44.5968 337.055 44.5339 337.022L43.5099 336.434C43.4866 336.424 43.4667 336.407 43.4528 336.386C43.4388 336.365 43.4314 336.34 43.4314 336.314C43.4314 336.289 43.4388 336.264 43.4528 336.243C43.4667 336.221 43.4866 336.205 43.5099 336.194C43.5727 336.162 43.6425 336.145 43.7132 336.145C43.784 336.145 43.8537 336.162 43.9166 336.194L44.9406 336.783Z" fill="#385692"/>
<path d="M43.3169 335.845C43.4258 335.91 43.4331 336.012 43.3169 336.077C43.254 336.11 43.1843 336.127 43.1135 336.127C43.0427 336.127 42.973 336.11 42.9101 336.077C42.7939 336.012 42.7939 335.903 42.9101 335.845C42.973 335.812 43.0427 335.795 43.1135 335.795C43.1843 335.795 43.254 335.812 43.3169 335.845Z" fill="#385692"/>
<path d="M41.6857 336.791C41.8019 336.856 41.8019 336.958 41.6857 337.023C41.6229 337.056 41.5532 337.072 41.4824 337.072C41.4116 337.072 41.3419 337.056 41.279 337.023C41.1628 336.958 41.1628 336.856 41.279 336.791C41.3413 336.756 41.4113 336.738 41.4824 336.738C41.5535 336.738 41.6235 336.756 41.6857 336.791Z" fill="#385692"/>
<path d="M65.5437 339.243L86.6047 339.244L86.6047 315.807C86.6008 315.74 84.3788 316.934 84.342 316.879C84.3053 316.824 84.2547 316.78 84.1957 316.753L77.9728 313.042C77.8179 312.96 77.6463 312.917 77.4723 312.917C77.2982 312.917 77.1266 312.96 76.9717 313.042L70.7873 316.753C70.7285 316.78 70.6782 316.823 70.642 316.879C70.6058 316.934 65.5465 315.419 65.5437 315.486L65.5437 339.243Z" fill="url(#paint46_linear)"/>
<path d="M65.5432 316.205V314.883C65.5606 315.151 65.6519 315.409 65.807 315.629C65.9621 315.848 66.175 316.02 66.422 316.125V317.454C66.1773 317.344 65.9667 317.169 65.8121 316.95C65.6576 316.73 65.5647 316.473 65.5432 316.205Z" fill="#BBC4D3"/>
<path d="M86.6017 315.275V316.597C86.5716 316.89 86.4644 317.17 86.2909 317.409C86.1174 317.647 85.8839 317.836 85.614 317.955V316.633C85.8826 316.512 86.115 316.323 86.2882 316.085C86.4614 315.847 86.5695 315.568 86.6017 315.275Z" fill="#BBC4D3"/>
<path d="M85.593 316.615V317.937L78.7734 321.902V320.581L85.593 316.615Z" fill="#BBC4D3"/>
<path d="M74.2595 320.651V321.973L66.4304 317.448V316.119L74.2595 320.651Z" fill="#BBC4D3"/>
<path d="M78.7629 320.585V321.907C78.0722 322.273 77.305 322.47 76.5238 322.482C75.7426 322.495 74.9694 322.323 74.2673 321.98V320.658C74.9694 321.001 75.7426 321.173 76.5238 321.16C77.305 321.148 78.0722 320.951 78.7629 320.585Z" fill="#BBC4D3"/>
<path d="M85.7076 314.011C86.9277 314.737 86.8696 315.878 85.5986 316.618L78.7718 320.577C78.0818 320.943 77.3149 321.141 76.5337 321.155C75.7524 321.169 74.979 320.998 74.2763 320.656L66.44 316.139C65.2199 315.413 65.2853 314.273 66.5562 313.532L73.3758 309.567C74.0669 309.193 74.8368 308.989 75.6222 308.971C76.4075 308.954 77.1859 309.123 77.8931 309.465L85.7076 314.011Z" fill="#DEE5F1"/>
<path d="M77.2438 318.41C77.36 318.476 77.36 318.577 77.2438 318.643C77.1809 318.675 77.1112 318.692 77.0405 318.692C76.9697 318.692 76.9 318.675 76.8371 318.643L70.7148 315.106C70.6058 315.048 70.6058 314.939 70.7148 314.873C70.7776 314.841 70.8474 314.824 70.9181 314.824C70.9889 314.824 71.0586 314.841 71.1215 314.873L73.9757 316.522L74.3824 316.29L73.4382 315.738C73.3562 315.71 73.2849 315.657 73.2344 315.587C73.1839 315.517 73.1568 315.432 73.1568 315.346C73.1568 315.259 73.1839 315.175 73.2344 315.104C73.2849 315.034 73.3562 314.981 73.4382 314.953L74.1209 314.554C74.3259 314.443 74.5562 314.388 74.7891 314.394L74.4332 314.191C74.305 314.146 74.1939 314.063 74.1153 313.952C74.0366 313.842 73.9944 313.709 73.9944 313.573C73.9944 313.438 74.0366 313.305 74.1153 313.195C74.1939 313.084 74.305 313.001 74.4332 312.956C74.7459 312.799 75.0892 312.711 75.4391 312.7C75.789 312.689 76.1372 312.754 76.4594 312.891C76.7332 312.727 77.0443 312.635 77.3633 312.625C77.6824 312.615 77.9987 312.686 78.2823 312.833C78.3659 312.879 78.4418 312.938 78.5075 313.007C79.2483 312.865 80.0151 312.975 80.6863 313.319C81.4125 313.726 81.5142 314.358 81.0131 314.852C81.5941 315.273 81.5723 315.912 80.8606 316.304C80.4421 316.517 79.9793 316.628 79.5097 316.628C79.0402 316.628 78.5773 316.517 78.1589 316.304L78.0863 316.261C78.0812 316.343 78.0534 316.423 78.006 316.491C77.9586 316.559 77.8934 316.612 77.8175 316.646L77.0913 317.045C76.883 317.154 76.6512 317.212 76.4159 317.212C76.1806 317.212 75.9488 317.154 75.7405 317.045L74.7818 316.493L74.3751 316.733L77.2438 318.41ZM75.7332 313.61C75.942 313.506 76.1719 313.452 76.405 313.452C76.6381 313.452 76.868 313.506 77.0768 313.61L79.4008 314.953C79.7712 315.171 79.7784 315.52 79.4008 315.738L78.6745 316.166C78.9574 316.28 79.2612 316.331 79.5656 316.317C79.87 316.304 80.1679 316.225 80.4393 316.086C80.9622 315.781 80.9695 315.295 80.4393 314.997C80.3159 314.924 80.3159 314.83 80.4393 314.772C80.9477 314.372 80.8242 313.857 80.2941 313.552C80.0291 313.409 79.7373 313.322 79.4371 313.297C79.1201 313.268 78.8005 313.295 78.493 313.377C78.388 313.419 78.2711 313.419 78.1661 313.377C78.1305 313.358 78.1024 313.327 78.0863 313.29C78.0508 313.207 77.9862 313.14 77.9047 313.101C77.7324 313.007 77.5345 312.971 77.3398 312.997C77.1452 313.023 76.964 313.11 76.8226 313.247C76.7615 313.31 76.6811 313.35 76.5942 313.362C76.5073 313.374 76.4189 313.356 76.3432 313.312L76.1907 313.218C75.9861 313.113 75.7596 313.059 75.5298 313.059C75.3001 313.059 75.0736 313.113 74.8689 313.218C74.7994 313.249 74.7405 313.301 74.6992 313.365C74.6579 313.429 74.6359 313.504 74.6359 313.581C74.6359 313.657 74.6579 313.732 74.6992 313.796C74.7405 313.861 74.7994 313.912 74.8689 313.944L75.036 314.038L75.7622 313.603L75.7332 313.61ZM78.3405 315.89L79.0231 315.491C79.1684 315.404 79.1756 315.266 79.0231 315.186L76.7064 313.842C76.6232 313.799 76.5311 313.777 76.4377 313.777C76.3442 313.777 76.2521 313.799 76.1689 313.842L75.479 314.242C75.341 314.322 75.341 314.459 75.479 314.547L77.803 315.89C77.8854 315.931 77.9761 315.952 78.0681 315.952C78.1601 315.952 78.2508 315.931 78.3332 315.89H78.3405ZM73.8595 315.491L76.1835 316.834C76.265 316.874 76.3544 316.894 76.4449 316.894C76.5354 316.894 76.6248 316.874 76.7064 316.834L77.3963 316.435C77.5416 316.348 77.5488 316.21 77.3963 316.123L75.0723 314.786C74.9892 314.744 74.897 314.721 74.8036 314.721C74.7101 314.721 74.618 314.744 74.5349 314.786L73.8522 315.186C73.7069 315.266 73.7069 315.404 73.8522 315.491" fill="#385692"/>
<path d="M76.6199 316.164C76.6466 316.17 76.6704 316.186 76.6874 316.208C76.7044 316.229 76.7136 316.256 76.7136 316.284C76.7136 316.311 76.7044 316.338 76.6874 316.36C76.6704 316.381 76.6466 316.397 76.6199 316.403C76.557 316.436 76.4873 316.453 76.4165 316.453C76.3458 316.453 76.276 316.436 76.2132 316.403L75.1964 315.815C75.1731 315.805 75.1532 315.788 75.1393 315.767C75.1253 315.746 75.1179 315.721 75.1179 315.695C75.1179 315.67 75.1253 315.645 75.1393 315.624C75.1532 315.602 75.1731 315.586 75.1964 315.575C75.2607 315.543 75.3316 315.527 75.4034 315.527C75.4752 315.527 75.5461 315.543 75.6104 315.575L76.6199 316.164Z" fill="#385692"/>
<path d="M78.2443 315.22C78.3605 315.292 78.3605 315.394 78.2443 315.459C78.1815 315.492 78.1117 315.509 78.041 315.509C77.9702 315.509 77.9005 315.492 77.8376 315.459L76.8136 314.871C76.7903 314.861 76.7704 314.844 76.7565 314.823C76.7425 314.802 76.7351 314.777 76.7351 314.751C76.7351 314.726 76.7425 314.701 76.7565 314.68C76.7704 314.658 76.7903 314.642 76.8136 314.631C76.8765 314.599 76.9462 314.582 77.0169 314.582C77.0877 314.582 77.1574 314.599 77.2203 314.631L78.2443 315.22Z" fill="#385692"/>
<path d="M76.622 314.283C76.731 314.349 76.7382 314.45 76.622 314.516C76.5592 314.548 76.4894 314.565 76.4187 314.565C76.3479 314.565 76.2782 314.548 76.2153 314.516C76.0991 314.45 76.0991 314.341 76.2153 314.283C76.2782 314.251 76.3479 314.234 76.4187 314.234C76.4894 314.234 76.5592 314.251 76.622 314.283Z" fill="#385692"/>
<path d="M74.9882 315.23C75.1044 315.295 75.1044 315.397 74.9882 315.462C74.9254 315.494 74.8556 315.511 74.7849 315.511C74.7141 315.511 74.6444 315.494 74.5815 315.462C74.4653 315.397 74.4653 315.295 74.5815 315.23C74.6438 315.195 74.7138 315.177 74.7849 315.177C74.856 315.177 74.926 315.195 74.9882 315.23Z" fill="#385692"/>
<path d="M74.8405 409.416L132.758 409.419L132.758 344.796C132.747 344.612 126.637 347.903 126.536 347.751C126.435 347.6 126.295 347.48 126.133 347.404L109.021 337.173C108.594 336.947 108.123 336.829 107.644 336.829C107.165 336.829 106.693 336.947 106.267 337.173L89.2604 347.404C89.0987 347.479 88.9604 347.599 88.8608 347.751C88.7613 347.903 74.8483 343.727 74.8405 343.911L74.8405 409.416Z" fill="url(#paint47_linear)"/>
<path d="M129.854 337.402C134.847 340.285 134.866 344.96 129.909 347.833L113.239 357.519C108.292 360.402 100.234 360.402 95.2411 357.519L78.4709 347.833C73.4781 344.96 73.4508 340.285 78.4072 337.402L95.0683 327.726C100.025 324.843 108.091 324.843 113.084 327.726L129.854 337.402Z" fill="url(#paint48_linear)"/>
<path d="M110.92 348.24C111.184 348.386 111.239 348.631 111.03 348.822C110.871 348.935 110.686 349.007 110.492 349.031C110.298 349.055 110.102 349.03 109.92 348.959L109.775 348.895C109.675 348.843 109.595 348.76 109.547 348.658C109.445 348.407 109.29 348.181 109.092 347.995C108.99 347.888 108.881 347.787 108.765 347.694L108.665 347.622C108.53 347.553 108.386 347.504 108.238 347.476C108.109 347.465 107.985 347.424 107.874 347.358L107.728 347.24C105.662 347.836 103.493 347.991 101.362 347.694C101.253 347.825 101.112 347.925 100.953 347.985C100.784 348.031 100.634 348.13 100.526 348.267C100.456 348.375 100.395 348.487 100.344 348.604C100.223 348.82 100.166 349.066 100.18 349.313C100.18 349.568 99.8525 349.786 99.4069 349.804C99.1955 349.812 98.9857 349.765 98.7976 349.668C98.7368 349.637 98.6834 349.594 98.641 349.54C98.5986 349.487 98.5683 349.425 98.552 349.359C98.5516 349.285 98.5729 349.213 98.6134 349.152C98.6539 349.09 98.7116 349.042 98.7794 349.013C99.0355 348.852 99.2629 348.649 99.4524 348.413L99.6798 348.086C99.7707 347.976 99.7343 347.849 99.6798 347.713C99.6503 347.657 99.6349 347.594 99.6349 347.531C99.6349 347.467 99.6503 347.405 99.6798 347.349C98.8 347.118 97.9533 346.776 97.1606 346.33C96.4966 345.953 95.9028 345.464 95.4054 344.884C95.2101 344.921 95.0095 344.921 94.8142 344.884C94.6014 344.839 94.3813 344.839 94.1685 344.884L93.6138 345.012C93.2522 345.095 92.9035 345.227 92.577 345.403C92.4003 345.49 92.2058 345.536 92.0086 345.536C91.8114 345.536 91.6169 345.49 91.4402 345.403C91.1128 345.203 91.131 344.912 91.4402 344.73C91.6239 344.64 91.8268 344.596 92.0313 344.602C92.4426 344.615 92.8541 344.584 93.2591 344.511C93.4518 344.485 93.643 344.448 93.832 344.402C94.0171 344.373 94.1886 344.287 94.3231 344.157C94.4606 344.047 94.623 343.972 94.796 343.938C94.5425 343.328 94.4772 342.655 94.6084 342.007C94.7397 341.359 95.0615 340.765 95.5327 340.301L95.4054 340.228C95.3254 340.187 95.2591 340.124 95.2144 340.046C95.1465 339.954 95.0635 339.874 94.9688 339.81C94.9225 339.786 94.8737 339.768 94.8233 339.755C94.6509 339.685 94.4748 339.624 94.2958 339.573C93.9176 339.45 93.5274 339.368 93.1318 339.328C92.9778 339.315 92.8286 339.269 92.6952 339.191C92.6152 339.161 92.5486 339.103 92.507 339.028C92.4654 338.953 92.4515 338.866 92.4679 338.782C92.5497 338.527 92.959 338.354 93.3773 338.4C93.534 338.412 93.6862 338.459 93.8229 338.536L93.923 338.6C94.0328 338.7 94.1551 338.786 94.2868 338.855C94.4518 338.949 94.6218 339.034 94.796 339.109C94.9575 339.188 95.1247 339.255 95.2962 339.309C95.4968 339.383 95.7111 339.411 95.9238 339.391C96.1086 339.38 96.2939 339.405 96.4694 339.464C96.6604 339.328 96.8605 339.191 97.0878 339.055C98.5574 338.255 100.177 337.769 101.844 337.627C101.835 337.564 101.842 337.499 101.866 337.44C101.89 337.381 101.93 337.329 101.981 337.29C102.09 337.163 102.181 337.045 102.135 336.927C102.118 336.809 102.09 336.694 102.053 336.581C101.969 336.33 101.836 336.099 101.662 335.899C101.435 335.672 101.58 335.381 101.972 335.262C102.294 335.163 102.643 335.192 102.945 335.344L103.09 335.417C103.14 335.462 103.173 335.522 103.185 335.588C103.196 335.654 103.185 335.722 103.154 335.781C103.046 336.004 102.996 336.251 103.008 336.499C102.995 336.614 102.995 336.73 103.008 336.845C103.008 336.963 103.136 337.072 103.299 337.181C103.427 337.255 103.522 337.376 103.563 337.518C105.443 337.53 107.301 337.93 109.02 338.691C109.194 338.598 109.386 338.542 109.584 338.527C109.79 338.521 109.992 338.469 110.175 338.373L110.593 338.118C110.844 337.956 111.063 337.749 111.239 337.509C111.377 337.377 111.546 337.284 111.731 337.237C111.916 337.191 112.11 337.194 112.294 337.245C112.39 337.266 112.482 337.303 112.567 337.354C112.785 337.481 112.876 337.672 112.748 337.854C112.637 337.994 112.479 338.088 112.303 338.118C111.941 338.206 111.59 338.334 111.257 338.5C111.102 338.582 110.957 338.655 110.811 338.746C110.746 338.778 110.689 338.825 110.644 338.884C110.6 338.942 110.57 339.01 110.557 339.082C110.501 339.222 110.398 339.338 110.266 339.409C110.842 339.749 111.329 340.222 111.685 340.788C112.041 341.355 112.256 341.998 112.312 342.665C112.513 342.677 112.711 342.726 112.894 342.811C113.071 342.914 113.271 342.971 113.476 342.974C113.676 342.974 113.876 342.974 114.085 342.974C114.493 342.987 114.901 342.96 115.304 342.893C115.581 342.837 115.869 342.875 116.123 343.002C116.206 343.046 116.275 343.112 116.323 343.193C116.468 343.438 116.232 343.702 115.804 343.775C115.599 343.835 115.382 343.835 115.177 343.775C114.789 343.667 114.394 343.591 113.994 343.547H113.394C113.181 343.534 112.967 343.565 112.767 343.638C112.568 343.709 112.358 343.739 112.148 343.729C111.697 344.849 110.862 345.771 109.793 346.33C109.593 346.449 109.384 346.549 109.165 346.658C109.265 346.767 109.374 346.867 109.356 347.021C109.346 347.089 109.355 347.158 109.382 347.221C109.41 347.284 109.454 347.338 109.511 347.376C109.623 347.477 109.742 347.571 109.866 347.658C109.984 347.749 110.111 347.822 110.238 347.904C110.414 348.001 110.597 348.086 110.784 348.158L110.92 348.24ZM97.9063 339.819L98.2246 339.91C98.9704 340.11 99.6798 340.328 100.407 340.537L101.417 340.846C101.626 340.919 101.881 340.846 101.862 340.683C101.844 340.519 101.862 340.292 101.862 340.092C101.862 339.619 101.862 339.182 101.862 338.682V338.482C100.586 338.626 99.3504 339.018 98.2246 339.637L97.9518 339.819H97.9063ZM99.7707 342.547C99.9708 342.502 100.007 342.347 99.8616 342.265L99.025 341.892L97.1242 340.983L96.7241 340.874C96.3936 341.236 96.1669 341.68 96.0676 342.16C95.9684 342.641 96.0004 343.138 96.1602 343.602L96.4603 343.52C97.1879 343.302 97.9154 343.102 98.6521 342.902L99.7161 342.611L99.7707 342.547ZM108.465 345.939L108.738 345.803C109.588 345.354 110.271 344.643 110.684 343.775H110.366C109.556 343.775 108.738 343.775 107.928 343.775H106.355C106.628 344.039 106.892 344.293 107.146 344.566C107.537 344.975 107.938 345.375 108.31 345.803L108.438 345.939H108.465ZM98.1792 345.803C98.7529 346.131 99.3634 346.391 99.9981 346.576L100.08 346.394C100.244 345.939 100.462 345.485 100.671 345.03C100.753 344.83 100.853 344.639 100.953 344.439C100.953 344.375 100.953 344.311 100.88 344.266C100.78 344.232 100.671 344.232 100.571 344.266L99.5342 344.43C98.7521 344.548 97.97 344.675 97.1788 344.775L96.8332 344.821C97.221 345.225 97.6652 345.571 98.1519 345.848L98.1792 345.803ZM102.035 347.04C103.56 347.201 105.101 347.08 106.582 346.685L106.401 346.576C105.864 346.221 105.346 345.866 104.827 345.503C104.6 345.348 104.372 345.194 104.154 345.03C104.077 344.99 103.991 344.974 103.905 344.984C103.819 344.994 103.738 345.029 103.672 345.084C103.527 345.275 103.372 345.457 103.217 345.648C102.872 346.067 102.517 346.485 102.135 346.912L102.017 347.058L102.035 347.04ZM107.201 342.192L108.11 342.283C108.911 342.374 109.702 342.456 110.493 342.556H110.784C110.713 342.082 110.545 341.628 110.29 341.223C110.035 340.818 109.698 340.469 109.302 340.201L109.129 340.328C108.638 340.701 108.119 341.065 107.601 341.428L106.983 341.847C106.873 341.929 106.892 342.029 106.983 342.092C107.036 342.123 107.095 342.141 107.155 342.147L107.201 342.192ZM103.927 338.636C104.118 339.091 104.272 339.546 104.427 340.01C104.527 340.264 104.591 340.537 104.664 340.792L105.655 340.31C106.264 340.01 106.892 339.71 107.528 339.4L107.756 339.291C106.519 338.779 105.201 338.493 103.863 338.445L103.927 338.609V338.636ZM103.809 341.783L102.899 341.847C102.784 341.849 102.673 341.887 102.581 341.956L102.099 342.411C102.061 342.433 102.034 342.469 102.022 342.512C102.01 342.554 102.015 342.599 102.035 342.638L102.354 343.138C102.377 343.18 102.412 343.215 102.454 343.238C102.507 343.269 102.566 343.29 102.626 343.302L103.536 343.484C103.664 343.516 103.798 343.516 103.927 343.484L104.709 343.202C104.809 343.156 104.891 343.093 104.9 343.02L105 342.483C105 342.411 105 342.32 104.873 342.265L104.227 341.892C104.115 341.835 103.989 341.81 103.863 341.819" fill="white"/>
<path d="M133.609 341.216V344.19C133.609 346.063 132.372 347.937 129.907 349.364V346.4C132.372 344.926 133.6 343.035 133.609 341.216Z" fill="#3C619F"/>
<path d="M74.6965 344.073V341.108C74.6965 343.009 75.9516 344.909 78.4616 346.355V349.32C75.9516 347.874 74.6965 345.973 74.6965 344.073Z" fill="#3C619F"/>
<path d="M129.913 346.353L129.903 349.318L113.242 359.003V356.039L129.913 346.353Z" fill="#3C619F"/>
<path d="M95.2441 356.039L95.235 359.003L78.4648 349.318L78.4739 346.353L95.2441 356.039Z" fill="#3C619F"/>
<path d="M113.24 356.046V359.011C108.283 361.894 100.226 361.894 95.2329 359.011V356.046C100.235 358.929 108.293 358.929 113.24 356.046Z" fill="#3C619F"/>
<path d="M113.728 349.132C113.183 349.569 112.508 349.815 111.809 349.832L99.0771 350.669C98.3376 350.732 97.5957 350.58 96.9399 350.233L87.8455 345.003C87.6048 344.904 87.4019 344.73 87.2662 344.508C87.1305 344.286 87.069 344.026 87.0907 343.766L88.5367 336.409C88.6269 336.137 88.7842 335.892 88.994 335.696C89.2037 335.501 89.4593 335.361 89.7372 335.29L100.56 331.343C101.285 331.096 102.063 331.042 102.815 331.189L114.911 333.635C115.26 333.691 115.596 333.811 115.902 333.99C116.154 334.123 116.37 334.317 116.529 334.554L120.776 341.547C120.902 341.757 120.945 342.006 120.898 342.246C120.851 342.486 120.717 342.701 120.522 342.848L113.728 349.132ZM111.646 348.968C111.945 348.967 112.235 348.861 112.464 348.668L119.258 342.393C119.343 342.329 119.401 342.236 119.419 342.131C119.438 342.026 119.416 341.918 119.358 341.829L115.111 334.854C115.045 334.748 114.95 334.663 114.838 334.608C114.711 334.528 114.568 334.476 114.419 334.454L102.342 332.016C102.018 331.949 101.681 331.971 101.369 332.08L90.5557 336.027C90.4354 336.057 90.3246 336.116 90.2339 336.201C90.1432 336.285 90.0755 336.391 90.0373 336.509L88.6276 343.876C88.6188 343.988 88.6458 344.1 88.7045 344.197C88.7633 344.293 88.851 344.368 88.955 344.412L98.0495 349.632C98.3267 349.786 98.6435 349.852 98.9589 349.823L111.691 348.977" fill="white"/>
</g>
<defs>
<linearGradient id="paint0_linear" x1="410" y1="362.006" x2="510.406" y2="362.006" gradientUnits="userSpaceOnUse">
<stop stop-color="#212E47"/>
<stop offset="1" stop-color="#293B5B"/>
</linearGradient>
<linearGradient id="paint1_linear" x1="2.99955" y1="201.374" x2="97.7853" y2="201.374" gradientUnits="userSpaceOnUse">
<stop stop-color="#212E47"/>
<stop offset="1" stop-color="#293B5B"/>
</linearGradient>
<linearGradient id="paint2_linear" x1="191" y1="179.089" x2="239.785" y2="179.089" gradientUnits="userSpaceOnUse">
<stop stop-color="#212E47"/>
<stop offset="1" stop-color="#293B5B"/>
</linearGradient>
<linearGradient id="paint3_linear" x1="161" y1="474.504" x2="226" y2="474.504" gradientUnits="userSpaceOnUse">
<stop stop-color="#212E47"/>
<stop offset="1" stop-color="#293B5B"/>
</linearGradient>
<linearGradient id="paint4_linear" x1="376" y1="268.003" x2="418" y2="268.003" gradientUnits="userSpaceOnUse">
<stop stop-color="#212E47"/>
<stop offset="1" stop-color="#293B5B"/>
</linearGradient>
<linearGradient id="paint5_linear" x1="299.263" y1="218.8" x2="299.263" y2="468.252" gradientUnits="userSpaceOnUse">
<stop stop-color="#52668D"/>
<stop offset="1" stop-color="#182642" stop-opacity="0"/>
</linearGradient>
<linearGradient id="paint6_linear" x1="220.999" y1="267.843" x2="358.962" y2="267.843" gradientUnits="userSpaceOnUse">
<stop stop-color="#212E47"/>
<stop offset="1" stop-color="#293B5B"/>
</linearGradient>
<linearGradient id="paint7_linear" x1="279.557" y1="271.106" x2="290.721" y2="257.199" gradientUnits="userSpaceOnUse">
<stop stop-color="#CACEFC"/>
<stop offset="0.38" stop-color="#E5E7FE"/>
<stop offset="0.75" stop-color="#F8F9FF"/>
<stop offset="1" stop-color="white"/>
</linearGradient>
<linearGradient id="paint8_linear" x1="31014.7" y1="32975.5" x2="31014.7" y2="15204.8" gradientUnits="userSpaceOnUse">
<stop stop-color="#CACEFC"/>
<stop offset="0.07" stop-color="#D8DBFD"/>
<stop offset="0.19" stop-color="#EAEBFE"/>
<stop offset="0.33" stop-color="#F6F7FE"/>
<stop offset="0.52" stop-color="#FDFDFF"/>
<stop offset="1" stop-color="white"/>
</linearGradient>
<linearGradient id="paint9_linear" x1="1259.72" y1="801.938" x2="1271.48" y2="801.938" gradientUnits="userSpaceOnUse">
<stop stop-color="#B2C7F2"/>
<stop offset="1" stop-color="#4C33C5"/>
</linearGradient>
<linearGradient id="paint10_linear" x1="914.281" y1="582.846" x2="919.103" y2="582.846" gradientUnits="userSpaceOnUse">
<stop stop-color="#5F85CF"/>
<stop offset="1" stop-color="#4711A6"/>
</linearGradient>
<linearGradient id="paint11_linear" x1="262.649" y1="208.882" x2="262.649" y2="221.996" gradientUnits="userSpaceOnUse">
<stop stop-color="#6A87C0"/>
<stop offset="1" stop-color="#30539A"/>
</linearGradient>
<linearGradient id="paint12_linear" x1="273.984" y1="215.86" x2="273.984" y2="228.987" gradientUnits="userSpaceOnUse">
<stop stop-color="#6A87C0"/>
<stop offset="1" stop-color="#30539A"/>
</linearGradient>
<linearGradient id="paint13_linear" x1="288.5" y1="-3.50001" x2="677" y2="395.5" gradientUnits="userSpaceOnUse">
<stop stop-color="#EAF1FF"/>
<stop offset="1" stop-color="#8699BE"/>
</linearGradient>
<linearGradient id="paint14_linear" x1="637.166" y1="252.462" x2="272.254" y2="370.133" gradientUnits="userSpaceOnUse">
<stop stop-color="#586B8F"/>
<stop offset="1" stop-color="#003286"/>
</linearGradient>
<linearGradient id="paint15_linear" x1="637.166" y1="252.462" x2="272.254" y2="370.133" gradientUnits="userSpaceOnUse">
<stop stop-color="#586B8F"/>
<stop offset="1" stop-color="#003286"/>
</linearGradient>
<linearGradient id="paint16_linear" x1="637.166" y1="252.462" x2="272.254" y2="370.133" gradientUnits="userSpaceOnUse">
<stop stop-color="#586B8F"/>
<stop offset="1" stop-color="#003286"/>
</linearGradient>
<linearGradient id="paint17_linear" x1="637.166" y1="252.462" x2="272.254" y2="370.133" gradientUnits="userSpaceOnUse">
<stop stop-color="#586B8F"/>
<stop offset="1" stop-color="#003286"/>
</linearGradient>
<linearGradient id="paint18_linear" x1="407.016" y1="47.0439" x2="407.016" y2="139.904" gradientUnits="userSpaceOnUse">
<stop stop-color="#8CB1F0"/>
<stop offset="1" stop-color="#CCDAF2" stop-opacity="0"/>
</linearGradient>
<linearGradient id="paint19_linear" x1="306.442" y1="58.4434" x2="306.442" y2="117.613" gradientUnits="userSpaceOnUse">
<stop stop-color="#8CB1F0"/>
<stop offset="1" stop-color="#CCDAF2" stop-opacity="0"/>
</linearGradient>
<linearGradient id="paint20_linear" x1="463.962" y1="161.174" x2="463.962" y2="211.554" gradientUnits="userSpaceOnUse">
<stop stop-color="#8CB1F0"/>
<stop offset="1" stop-color="#CCDAF2" stop-opacity="0"/>
</linearGradient>
<linearGradient id="paint21_linear" x1="425" y1="136" x2="325" y2="158" gradientUnits="userSpaceOnUse">
<stop stop-color="#8CB1F0"/>
<stop offset="1" stop-color="#CCDAF2" stop-opacity="0"/>
</linearGradient>
<linearGradient id="paint22_linear" x1="92097.5" y1="13274" x2="95697.5" y2="13274" gradientUnits="userSpaceOnUse">
<stop stop-color="#E9EFFF"/>
<stop offset="1" stop-color="#D4E3FF"/>
</linearGradient>
<linearGradient id="paint23_linear" x1="52896.8" y1="7937.06" x2="54039.9" y2="7937.06" gradientUnits="userSpaceOnUse">
<stop stop-color="#E9EFFF"/>
<stop offset="1" stop-color="#D4E3FF"/>
</linearGradient>
<linearGradient id="paint24_linear" x1="2409.45" y1="9679.73" x2="2411.42" y2="9679.73" gradientUnits="userSpaceOnUse">
<stop stop-color="#E9EFFF"/>
<stop offset="1" stop-color="#D4E3FF"/>
</linearGradient>
<linearGradient id="paint25_linear" x1="27203.3" y1="17618.2" x2="27568.1" y2="17618.2" gradientUnits="userSpaceOnUse">
<stop stop-color="#E9EFFF"/>
<stop offset="1" stop-color="#D4E3FF"/>
</linearGradient>
<linearGradient id="paint26_linear" x1="2242.7" y1="1356.52" x2="2256.49" y2="1356.52" gradientUnits="userSpaceOnUse">
<stop stop-color="#E9EFFF"/>
<stop offset="1" stop-color="#D4E3FF"/>
</linearGradient>
<linearGradient id="paint27_linear" x1="16210.6" y1="16571" x2="16303.1" y2="16571" gradientUnits="userSpaceOnUse">
<stop stop-color="#E9EFFF"/>
<stop offset="1" stop-color="#D4E3FF"/>
</linearGradient>
<linearGradient id="paint28_linear" x1="7186.73" y1="539.626" x2="7210.83" y2="539.626" gradientUnits="userSpaceOnUse">
<stop stop-color="#E9EFFF"/>
<stop offset="1" stop-color="#D4E3FF"/>
</linearGradient>
<linearGradient id="paint29_linear" x1="7188.4" y1="662.867" x2="7212.51" y2="662.867" gradientUnits="userSpaceOnUse">
<stop stop-color="#E9EFFF"/>
<stop offset="1" stop-color="#D4E3FF"/>
</linearGradient>
<linearGradient id="paint30_linear" x1="7289.61" y1="897.295" x2="7313.69" y2="897.295" gradientUnits="userSpaceOnUse">
<stop stop-color="#E9EFFF"/>
<stop offset="1" stop-color="#D4E3FF"/>
</linearGradient>
<linearGradient id="paint31_linear" x1="7596.2" y1="781.406" x2="7620.31" y2="781.406" gradientUnits="userSpaceOnUse">
<stop stop-color="#E9EFFF"/>
<stop offset="1" stop-color="#D4E3FF"/>
</linearGradient>
<linearGradient id="paint32_linear" x1="7594.87" y1="967.208" x2="7618.97" y2="967.208" gradientUnits="userSpaceOnUse">
<stop stop-color="#E9EFFF"/>
<stop offset="1" stop-color="#D4E3FF"/>
</linearGradient>
<linearGradient id="paint33_linear" x1="7770.16" y1="500.904" x2="7794.27" y2="500.904" gradientUnits="userSpaceOnUse">
<stop stop-color="#E9EFFF"/>
<stop offset="1" stop-color="#D4E3FF"/>
</linearGradient>
<linearGradient id="paint34_linear" x1="7651.9" y1="1145.12" x2="7676.01" y2="1145.12" gradientUnits="userSpaceOnUse">
<stop stop-color="#E9EFFF"/>
<stop offset="1" stop-color="#D4E3FF"/>
</linearGradient>
<linearGradient id="paint35_linear" x1="15773.5" y1="25745.2" x2="15880.6" y2="25745.2" gradientUnits="userSpaceOnUse">
<stop stop-color="#E9EFFF"/>
<stop offset="1" stop-color="#D4E3FF"/>
</linearGradient>
<linearGradient id="paint36_linear" x1="7665.96" y1="654.829" x2="7690.06" y2="654.829" gradientUnits="userSpaceOnUse">
<stop stop-color="#E9EFFF"/>
<stop offset="1" stop-color="#D4E3FF"/>
</linearGradient>
<linearGradient id="paint37_linear" x1="7866.07" y1="390.908" x2="7890.11" y2="390.908" gradientUnits="userSpaceOnUse">
<stop stop-color="#E9EFFF"/>
<stop offset="1" stop-color="#D4E3FF"/>
</linearGradient>
<linearGradient id="paint38_linear" x1="8246.26" y1="690.146" x2="8270.36" y2="690.146" gradientUnits="userSpaceOnUse">
<stop stop-color="#E9EFFF"/>
<stop offset="1" stop-color="#D4E3FF"/>
</linearGradient>
<linearGradient id="paint39_linear" x1="8218.6" y1="540.647" x2="8242.72" y2="540.647" gradientUnits="userSpaceOnUse">
<stop stop-color="#E9EFFF"/>
<stop offset="1" stop-color="#D4E3FF"/>
</linearGradient>
<linearGradient id="paint40_linear" x1="8028.52" y1="357.711" x2="8052.62" y2="357.711" gradientUnits="userSpaceOnUse">
<stop stop-color="#E9EFFF"/>
<stop offset="1" stop-color="#D4E3FF"/>
</linearGradient>
<linearGradient id="paint41_linear" x1="8558.88" y1="1461.43" x2="8583.01" y2="1461.43" gradientUnits="userSpaceOnUse">
<stop stop-color="#E9EFFF"/>
<stop offset="1" stop-color="#D4E3FF"/>
</linearGradient>
<linearGradient id="paint42_linear" x1="8495.52" y1="1704.22" x2="8519.57" y2="1704.22" gradientUnits="userSpaceOnUse">
<stop stop-color="#E9EFFF"/>
<stop offset="1" stop-color="#D4E3FF"/>
</linearGradient>
<linearGradient id="paint43_linear" x1="157.782" y1="324.221" x2="157.782" y2="379.958" gradientUnits="userSpaceOnUse">
<stop stop-color="#5BC4D6"/>
<stop offset="1" stop-color="#003286" stop-opacity="0"/>
</linearGradient>
<linearGradient id="paint44_linear" x1="121.448" y1="344.967" x2="121.448" y2="400.704" gradientUnits="userSpaceOnUse">
<stop stop-color="#5BC4D6"/>
<stop offset="1" stop-color="#003286" stop-opacity="0"/>
</linearGradient>
<linearGradient id="paint45_linear" x1="44.1819" y1="303.665" x2="44.1819" y2="359.402" gradientUnits="userSpaceOnUse">
<stop stop-color="#5BC4D6"/>
<stop offset="1" stop-color="#003286" stop-opacity="0"/>
</linearGradient>
<linearGradient id="paint46_linear" x1="77.4878" y1="282.098" x2="77.4878" y2="337.835" gradientUnits="userSpaceOnUse">
<stop stop-color="#5BC4D6"/>
<stop offset="1" stop-color="#003286" stop-opacity="0"/>
</linearGradient>
<linearGradient id="paint47_linear" x1="107.687" y1="251.851" x2="107.687" y2="405.535" gradientUnits="userSpaceOnUse">
<stop stop-color="#5BC4D6"/>
<stop offset="1" stop-color="#003286" stop-opacity="0"/>
</linearGradient>
<linearGradient id="paint48_linear" x1="157.71" y1="363.3" x2="85.3406" y2="397.674" gradientUnits="userSpaceOnUse">
<stop stop-color="#586B8F"/>
<stop offset="1" stop-color="#003286"/>
</linearGradient>
</defs>
</svg>
