<svg width="115" height="40" viewBox="0 0 115 40" fill="none" xmlns="http://www.w3.org/2000/svg">
<path d="M15.4727 15.5181C16.6597 15.5181 17.8184 15.9951 18.7793 16.9211C23.6402 21.4951 28.4164 26.2374 32.9947 31.0078C34.9447 33.0282 34.8882 35.9466 32.9099 37.967C31.8925 39.0053 30.5642 39.5665 29.2077 39.5665C27.9924 39.5665 26.862 39.1175 25.9576 38.2196C21.3228 33.814 16.8858 29.3522 12.1661 24.6379L11.7422 24.217C10.753 23.2349 10.2161 21.916 10.2726 20.513C10.3009 19.166 10.8944 17.9033 11.9118 17.0053L11.94 16.9772L11.9683 16.9492C13.014 16.0232 14.2292 15.5181 15.4727 15.5181Z" fill="#E2E8F2"/>
<path d="M5.18561 5.3877C6.59868 5.3877 7.87044 5.92086 8.83132 6.87494C10.7814 8.83922 10.7248 12.1504 8.74654 14.0586C7.78565 14.9846 6.54215 15.4897 5.21387 15.4897C3.82907 15.4897 2.52905 14.9566 1.5399 13.9464C0.579016 12.9923 0.0703125 11.7015 0.0703125 10.3545C0.0703125 9.00759 0.635539 7.74483 1.59642 6.79075C2.55731 5.8928 3.82907 5.3877 5.18561 5.3877Z" fill="#5BC4D6"/>
<path d="M28.7833 0C30.0551 1.23469 31.2421 2.3852 32.316 3.56377C34.1812 5.6403 34.1812 8.10968 32.3725 10.0178C27.7659 14.8163 22.9898 19.5586 18.1853 24.1046C17.2527 24.9745 16.1223 25.4515 14.9353 25.4515C13.6918 25.4515 12.4765 24.9464 11.5157 24.0204C9.56563 22.1403 9.45258 19.3061 11.2613 17.4821C15.6983 12.9081 20.1919 8.47448 24.9398 3.78826C26.1833 2.55357 27.4833 1.26275 28.7833 0Z" fill="#5BC4D6"/>
<path d="M42.0098 9.54102H44.6098V15.3777H44.7511L49.7816 9.54102H52.8904V9.68132L47.9164 15.3216L53.3991 23.0104V23.1507H50.2621L46.1924 17.342L44.6098 19.1379V23.1226H42.0098V9.54102Z" fill="#E4EAF1"/>
<path d="M54.8408 9.54102H57.4409V20.7374H63.2344V23.1788H54.8408V9.54102Z" fill="#E4EAF1"/>
<path d="M71.2888 23.4592C70.2714 23.4592 69.3105 23.2628 68.4344 22.898C67.5583 22.5332 66.7952 22.0281 66.1735 21.3827C65.5235 20.7372 65.043 19.9796 64.6756 19.1097C64.3082 18.2398 64.1387 17.3138 64.1387 16.3316C64.1387 15.3495 64.3082 14.4235 64.6756 13.5536C65.043 12.6837 65.5517 11.926 66.1735 11.2806C66.8235 10.6352 67.5583 10.1301 68.4344 9.76533C69.3105 9.40053 70.2431 9.2041 71.2888 9.2041C72.3062 9.2041 73.2671 9.40053 74.1432 9.76533C75.0193 10.1301 75.7823 10.6352 76.4041 11.2806C77.0541 11.926 77.5345 12.6837 77.9019 13.5536C78.2693 14.4235 78.4389 15.3495 78.4389 16.3316C78.4389 17.3138 78.2693 18.2398 77.9019 19.1097C77.5345 19.9796 77.0258 20.7372 76.4041 21.3827C75.7541 22.0281 75.0193 22.5332 74.1432 22.898C73.2388 23.2908 72.3062 23.4592 71.2888 23.4592ZM71.2888 21.0459C71.9388 21.0459 72.5323 20.9337 73.0692 20.7092C73.6345 20.4847 74.1149 20.176 74.5388 19.7551C74.9628 19.3623 75.2736 18.8571 75.528 18.2679C75.7541 17.6786 75.8954 17.0612 75.8954 16.3597C75.8954 15.6582 75.7823 15.0128 75.528 14.4515C75.3019 13.8623 74.9628 13.3852 74.5388 12.9643C74.1149 12.5714 73.6345 12.2347 73.0692 12.0102C72.504 11.7857 71.9105 11.6735 71.2888 11.6735C70.6388 11.6735 70.0453 11.7857 69.5083 12.0102C68.9431 12.2347 68.4626 12.5434 68.0387 12.9643C67.6148 13.3572 67.3039 13.8623 67.0496 14.4515C66.8235 15.0408 66.6822 15.6582 66.6822 16.3597C66.6822 17.0612 66.7952 17.7066 67.0496 18.2679C67.2757 18.8571 67.6148 19.3342 68.0387 19.7551C68.4626 20.148 68.9431 20.4847 69.5083 20.7092C70.0453 20.9337 70.6388 21.0459 71.2888 21.0459Z" fill="#E4EAF1"/>
<path d="M78.8057 9.54102H81.6035L84.4297 17.7349L84.9384 19.4747H85.0797L85.6166 17.7349L88.5558 9.54102H91.3537L86.3514 23.1507H83.6384L78.8057 9.54102Z" fill="#E4EAF1"/>
<path d="M95.5649 11.9823V15.1533H101.076V17.5946H95.5649V20.7655H101.669V23.2068H92.9648V9.54102H101.669V11.9823H95.5649Z" fill="#E4EAF1"/>
<path d="M104.043 9.54102H109.045C109.723 9.54102 110.374 9.65326 110.91 9.87775C111.476 10.1022 111.956 10.3829 112.352 10.7757C112.747 11.1686 113.058 11.6175 113.284 12.1226C113.511 12.6558 113.624 13.217 113.624 13.8344C113.624 14.2834 113.539 14.7323 113.397 15.1252C113.256 15.518 113.03 15.8828 112.776 16.2196C112.521 16.5563 112.182 16.8369 111.843 17.0895C111.476 17.342 111.108 17.5385 110.713 17.6788L110.684 17.8191L114.358 23.0384V23.1788H111.391L107.858 18.0716H106.643V23.1788H104.043V9.54102ZM109.045 15.6864C109.639 15.6864 110.119 15.518 110.487 15.1533C110.854 14.7885 111.052 14.3395 111.052 13.8063C111.052 13.5538 111.024 13.3293 110.939 13.1048C110.854 12.8803 110.741 12.6839 110.571 12.4874C110.402 12.3191 110.204 12.1788 109.95 12.0665C109.695 11.9543 109.413 11.8982 109.102 11.8982H106.671V15.6864H109.045Z" fill="#E4EAF1"/>
<path d="M47.3512 32.9158C47.0686 33.2526 46.7295 33.5051 46.3338 33.7016C45.9381 33.8699 45.5142 33.9822 45.0338 33.9822C44.6099 33.9822 44.2142 33.898 43.8468 33.7577C43.4794 33.5893 43.1685 33.3929 42.8859 33.1403C42.6316 32.8878 42.4055 32.5511 42.2642 32.1863C42.0946 31.8215 42.0381 31.4286 42.0381 31.0077C42.0381 30.5868 42.1229 30.1939 42.2642 29.8291C42.4337 29.4643 42.6316 29.1557 42.8859 28.875C43.1403 28.6225 43.4794 28.398 43.8468 28.2577C44.2142 28.0893 44.6099 28.0332 45.0338 28.0332C45.486 28.0332 45.9099 28.1174 46.249 28.2858C46.5882 28.4541 46.899 28.6786 47.1816 28.9873L46.4186 29.7169C46.249 29.5204 46.0512 29.3521 45.8251 29.2398C45.599 29.1276 45.3447 29.0715 45.0338 29.0715C44.7794 29.0715 44.5251 29.1276 44.2707 29.2118C44.0446 29.296 43.8186 29.4363 43.649 29.6046C43.4794 29.773 43.3381 29.9694 43.2251 30.222C43.112 30.4745 43.0838 30.7271 43.0838 31.0357C43.0838 31.3444 43.1403 31.597 43.2251 31.8495C43.3381 32.1021 43.4512 32.2985 43.649 32.4669C43.8186 32.6352 44.0164 32.7755 44.2707 32.8597C44.4968 32.9439 44.7512 33 45.0338 33C45.3447 33 45.6555 32.9439 45.8816 32.8036C46.136 32.6633 46.3621 32.4949 46.5316 32.2424L47.3512 32.9158Z" fill="#E4EAF1"/>
<path d="M59.4755 28.1172H60.5495V32.8034H62.9799V33.8136H59.4473V28.1172H59.4755Z" fill="#E4EAF1"/>
<path d="M77.6471 33.9822C77.2231 33.9822 76.8275 33.898 76.4601 33.7577C76.0927 33.5893 75.7818 33.3929 75.4992 33.1123C75.2449 32.8316 75.0188 32.523 74.8775 32.1582C74.7362 31.7934 74.6514 31.4005 74.6514 30.9796C74.6514 30.5587 74.7362 30.1658 74.8775 29.801C75.0188 29.4362 75.2449 29.1276 75.4992 28.8469C75.7536 28.5663 76.0927 28.3699 76.4601 28.2015C76.8275 28.0332 77.2231 27.9771 77.6471 27.9771C78.071 27.9771 78.4666 28.0612 78.834 28.2015C79.2014 28.3418 79.5123 28.5663 79.7949 28.8469C80.0493 29.1276 80.2754 29.4362 80.4167 29.801C80.558 30.1658 80.6428 30.5587 80.6428 30.9796C80.6428 31.4005 80.558 31.7934 80.4167 32.1582C80.2754 32.523 80.0493 32.8316 79.7949 33.1123C79.5406 33.3929 79.2014 33.5893 78.834 33.7577C78.4666 33.898 78.071 33.9822 77.6471 33.9822ZM77.6471 32.9439C77.9014 32.9439 78.1558 32.8878 78.4101 32.8036C78.6362 32.7194 78.834 32.5791 79.0319 32.4107C79.2014 32.2424 79.3427 32.0459 79.4558 31.7934C79.5688 31.5408 79.5971 31.2883 79.5971 30.9796C79.5971 30.6709 79.5406 30.4184 79.4558 30.1658C79.3427 29.9133 79.2297 29.7168 79.0319 29.5485C78.8623 29.3801 78.6645 29.2398 78.4101 29.1556C78.184 29.0714 77.9297 29.0153 77.6471 29.0153C77.3645 29.0153 77.1384 29.0714 76.884 29.1556C76.6579 29.2398 76.4601 29.3801 76.2623 29.5485C76.0927 29.7168 75.9514 29.9133 75.8383 30.1658C75.7253 30.4184 75.697 30.6709 75.697 30.9796C75.697 31.2883 75.7536 31.5408 75.8383 31.7934C75.9514 32.0459 76.0644 32.2424 76.2623 32.4107C76.4318 32.5791 76.6297 32.7194 76.884 32.8036C77.1384 32.9158 77.3927 32.9439 77.6471 32.9439Z" fill="#E4EAF1"/>
<path d="M94.9152 33.982C94.5761 33.982 94.2652 33.9258 93.9826 33.8136C93.7 33.7014 93.4739 33.533 93.276 33.3366C93.0782 33.1401 92.9369 32.8876 92.8239 32.5789C92.7108 32.2702 92.6543 31.9335 92.6543 31.5687V28.1172H93.7282V31.6248C93.7282 31.8213 93.7565 31.9896 93.813 32.158C93.8695 32.3264 93.9261 32.4667 94.0391 32.5789C94.1521 32.6912 94.2652 32.7753 94.4065 32.8595C94.5478 32.9156 94.7174 32.9718 94.9152 32.9718C95.113 32.9718 95.2826 32.9437 95.4239 32.8595C95.5652 32.8034 95.6783 32.6912 95.7913 32.5789C95.8761 32.4667 95.9609 32.3264 96.0174 32.158C96.0739 31.9896 96.1022 31.8213 96.1022 31.6248V28.1172H97.1761V31.5687C97.1761 31.9335 97.1196 32.2422 97.0065 32.5509C96.8935 32.8595 96.7522 33.1121 96.5544 33.3085C96.3565 33.533 96.1304 33.6733 95.8478 33.8136C95.5652 33.9258 95.2543 33.982 94.9152 33.982Z" fill="#E4EAF1"/>
<path d="M109.441 28.1172H111.391C111.844 28.1172 112.268 28.1733 112.635 28.3136C113.002 28.4539 113.313 28.6504 113.568 28.9029C113.822 29.1555 114.02 29.4641 114.161 29.8009C114.302 30.1657 114.359 30.5305 114.359 30.9514C114.359 31.3723 114.302 31.7651 114.161 32.1299C114.02 32.4947 113.822 32.7753 113.568 33.0279C113.313 33.2805 113.002 33.4769 112.635 33.6172C112.268 33.7575 111.872 33.8136 111.391 33.8136H109.441V28.1172ZM111.363 32.8315C111.674 32.8315 111.957 32.7753 112.211 32.6912C112.465 32.607 112.663 32.4667 112.804 32.3264C112.974 32.158 113.087 31.9616 113.172 31.7371C113.257 31.5126 113.285 31.26 113.285 30.9794C113.285 30.6988 113.257 30.4463 113.172 30.2218C113.087 29.9973 112.974 29.8009 112.804 29.6325C112.635 29.4641 112.437 29.3519 112.211 29.2677C111.957 29.1835 111.702 29.1274 111.363 29.1274H110.544V32.8034H111.363V32.8315Z" fill="#E4EAF1"/>
</svg>
