<svg width="576" height="369" viewBox="0 0 576 369" fill="none" xmlns="http://www.w3.org/2000/svg">
<path d="M165.049 72.8345L114.662 72.8345C109.803 72.8345 105.865 68.9064 105.865 64.061L105.865 54.4101C105.865 49.5647 101.926 45.6366 97.0668 45.6366L41.0001 45.6366" stroke="url(#paint0_linear)" stroke-linecap="round" stroke-dasharray="10 10"/>
<path d="M574.725 1H506.598C500.028 1 494.702 6.31735 494.702 12.8766V25.9409C494.702 32.5002 489.377 37.8176 482.807 37.8176H407" stroke="url(#paint1_linear)" stroke-linecap="round" stroke-dasharray="10 10"/>
<g style="mix-blend-mode:multiply">
<path d="M466.6 227.003L505.25 249.32L466.6 271.636L427.94 249.32L466.6 227.003Z" fill="#9F99D1"/>
</g>
<path style="mix-blend-mode:multiply" opacity="0.8" d="M453.764 225.831H466.589V270.59H453.764L415 248.211L453.764 225.831Z" fill="#E9F1FC"/>
<path d="M505.25 248.274L466.6 270.59L466.59 267.28L505.25 244.953V248.274Z" fill="url(#paint2_linear)"/>
<path d="M466.589 270.59L427.939 248.274V244.953L466.589 267.28V270.59Z" fill="url(#paint3_linear)"/>
<path d="M466.59 222.637L505.25 244.954L466.59 267.281L427.94 244.954L466.59 222.637Z" fill="white"/>
<path d="M466.589 231.127L490.545 244.954L466.589 258.791L442.643 244.954L466.589 231.127Z" fill="#D2E1FF"/>
<path d="M466.59 233.319L481.963 242.196L466.59 251.072L451.229 242.196L466.59 233.319Z" fill="white"/>
<path d="M466.59 251.074V253.831L481.963 244.954V242.197L466.59 251.074Z" fill="url(#paint4_linear)"/>
<path d="M466.589 251.074V253.831L451.227 244.954V242.197L466.589 251.074Z" fill="#4164A9"/>
<path d="M432.033 244.034C432.033 243.585 432.66 243.219 433.443 243.219C434.226 243.219 434.853 243.585 434.853 244.034V244.953C434.853 245.402 434.216 245.767 433.443 245.767C432.67 245.767 432.033 245.402 432.033 244.953V244.034Z" fill="url(#paint5_linear)"/>
<path d="M434.884 244.034C434.884 244.483 434.247 244.848 433.474 244.848C432.702 244.848 432.065 244.483 432.065 244.034C432.065 243.585 432.691 243.219 433.474 243.219C434.258 243.219 434.884 243.585 434.884 244.034Z" fill="white"/>
<path d="M465.179 224.913C465.179 224.464 465.816 224.098 466.589 224.098C467.362 224.098 467.999 224.464 467.999 224.913V225.832C467.999 226.281 467.372 226.646 466.589 226.646C465.806 226.646 465.179 226.281 465.179 225.832V224.913Z" fill="url(#paint6_linear)"/>
<path d="M467.999 224.913C467.999 225.362 467.372 225.727 466.589 225.727C465.806 225.727 465.179 225.362 465.179 224.913C465.179 224.464 465.816 224.098 466.589 224.098C467.362 224.098 467.999 224.464 467.999 224.913Z" fill="white"/>
<path d="M465.179 263.155C465.179 262.706 465.816 262.34 466.589 262.34C467.362 262.34 467.999 262.706 467.999 263.155V264.084C467.999 264.533 467.372 264.899 466.589 264.899C465.806 264.899 465.179 264.533 465.179 264.084V263.155Z" fill="url(#paint7_linear)"/>
<path d="M467.999 263.155C467.999 263.614 467.372 263.969 466.589 263.969C465.806 263.969 465.179 263.614 465.179 263.155C465.179 262.695 465.816 262.34 466.589 262.34C467.362 262.34 467.999 262.706 467.999 263.155Z" fill="white"/>
<path d="M466.589 246.352C462.609 246.352 459.383 244.491 459.383 242.196C459.383 239.9 462.609 238.04 466.589 238.04C470.568 238.04 473.794 239.9 473.794 242.196C473.794 244.491 470.568 246.352 466.589 246.352Z" fill="url(#paint8_linear)"/>
<g style="mix-blend-mode:overlay">
<path d="M503.124 194.492L497.661 197.685V191.299L503.124 188.106V194.492ZM514 188.217L508.538 191.41V185.024L514 181.831V188.217ZM492.231 200.782L486.769 203.976V197.589L492.231 194.396V200.782ZM481.355 207.057L475.892 210.25V203.864L481.355 200.671V207.057ZM470.462 207.057V213.444L465 216.637V210.33L470.462 207.057ZM514 163.023L475.892 185.024V178.638L514 156.637V163.023ZM486.769 185.024L514 169.314V175.7L486.769 191.41V185.024Z" fill="#BEC8D7"/>
</g>
<path d="M44 193.964L44.1216 151.2L73.4275 165.063V207.786L44 193.964Z" fill="#EBF3FF"/>
<path d="M132.12 180.222L73.4275 207.785V165.022C92.9648 155.834 112.529 146.646 132.12 137.459V180.222Z" fill="url(#paint9_linear)"/>
<path d="M102.815 123.637L132.121 137.459C112.503 146.66 92.9385 155.848 73.4283 165.022L44.1223 151.2C63.6596 142.039 83.2239 132.851 102.815 123.637Z" fill="url(#paint10_linear)"/>
<path d="M121.176 171.223V147.511L128.229 144.228V167.94L121.176 171.223ZM80.8452 190.193V166.481L87.8981 163.076V186.869L80.8452 190.193ZM90.9381 185.451V161.738L97.991 158.334V182.127L90.9381 185.451ZM100.991 180.72V157.008L108.165 153.603V177.397L100.991 180.72ZM111.043 175.978L111.124 152.266L118.177 148.861V172.654L111.043 175.978Z" fill="#4967A2"/>
<path d="M132 180.137L203 216.637L156 254.137L73 208.137L132 180.137Z" fill="url(#paint11_linear)"/>
<path d="M154 252.736L154.3 147.236L226.6 181.436V286.836L154 252.736Z" fill="#EBF3FF"/>
<path d="M371.4 218.837L226.6 286.837V181.337C274.8 158.67 323.066 136.004 371.4 113.337V218.837Z" fill="url(#paint12_linear)"/>
<path d="M299.101 79.2363L371.401 113.336C323.001 136.036 274.734 158.703 226.601 181.336L154.301 147.236C202.501 124.636 250.767 101.97 299.101 79.2363Z" fill="url(#paint13_linear)"/>
<path d="M344.4 196.637V138.137L361.8 130.037V188.537L344.4 196.637ZM244.9 243.437V184.937L262.3 176.537V235.237L244.9 243.437ZM269.8 231.737V173.237L287.2 164.837V223.537L269.8 231.737ZM294.6 220.067V161.567L312.3 153.167V211.867L294.6 220.067ZM319.4 208.367L319.6 149.867L337 141.467V200.167L319.4 208.367Z" fill="#4967A2"/>
<path d="M360.5 334.137L213 359.137L167.5 305.637L324 284.637L360.5 334.137Z" fill="url(#paint14_linear)"/>
<path d="M212.4 357.629L212.309 325.406L190.226 335.852V368.044L212.4 357.629Z" fill="url(#paint15_linear)"/>
<path d="M146.001 347.274L190.227 368.044V335.821C175.505 328.898 160.763 321.975 146.001 315.052V347.274Z" fill="url(#paint16_linear)"/>
<path d="M168.083 304.637L146 315.052C160.783 321.985 175.525 328.908 190.226 335.821L212.309 325.406C197.587 318.503 182.845 311.58 168.083 304.637Z" fill="url(#paint17_linear)"/>
<path d="M154.246 340.494V322.627L148.932 320.153V338.02L154.246 340.494ZM184.636 354.788V336.921L179.322 334.355V352.284L184.636 354.788ZM177.031 351.215V333.347L171.717 330.781V348.71L177.031 351.215ZM169.457 347.65V329.783L164.051 327.217V345.146L169.457 347.65ZM161.882 344.077L161.821 326.209L156.507 323.644V341.572L161.882 344.077Z" fill="#4967A2"/>
<path d="M95 140.926V130.437L97.2222 131.481V141.992L95 140.926Z" fill="#8CABE2"/>
<path d="M111.644 135.192L97.2217 141.97V131.459C102.044 129.17 106.822 126.948 111.644 124.681V135.192Z" fill="white"/>
<path d="M109.422 123.637L111.644 124.703C106.822 126.992 102.044 129.214 97.2222 131.481L95 130.414C99.8222 128.192 104.6 125.926 109.422 123.637Z" fill="#C6D9F7"/>
<path d="M102.138 274.237L58.1628 299.788C56.3816 300.693 54.412 301.165 52.4143 301.165C50.4165 301.165 48.4469 300.693 46.6658 299.788L2.40031 274.237C1.73947 273.941 1.16945 273.474 0.74877 272.884C0.328095 272.295 0.0719191 271.604 0.0065918 270.883V277.248C0.0731697 277.966 0.330044 278.654 0.750762 279.241C1.17148 279.827 1.74086 280.291 2.40031 280.584L46.6476 306.135C48.4311 307.043 50.404 307.516 52.4052 307.516C54.4064 307.516 56.3793 307.043 58.1628 306.135L102.138 280.584C102.79 280.291 103.353 279.828 103.767 279.245C104.182 278.662 104.433 277.979 104.496 277.266V270.901C104.434 271.616 104.183 272.302 103.769 272.889C103.355 273.475 102.792 273.941 102.138 274.237Z" fill="url(#paint18_linear)"/>
<path d="M102.138 274.237L58.1628 299.788C56.3816 300.693 54.412 301.165 52.4143 301.165C50.4165 301.165 48.4469 300.693 46.6658 299.788L2.40031 274.237C1.73947 273.941 1.16945 273.474 0.74877 272.884C0.328095 272.295 0.0719191 271.604 0.0065918 270.883V277.248C0.0731697 277.966 0.330044 278.654 0.750762 279.241C1.17148 279.827 1.74086 280.291 2.40031 280.584L46.6476 306.135C48.4311 307.043 50.404 307.516 52.4052 307.516C54.4064 307.516 56.3793 307.043 58.1628 306.135L102.138 280.584C102.79 280.291 103.353 279.828 103.767 279.245C104.182 278.662 104.433 277.979 104.496 277.266V270.901C104.434 271.616 104.183 272.302 103.769 272.889C103.355 273.475 102.792 273.941 102.138 274.237Z" fill="url(#paint19_linear)"/>
<path d="M102.138 267.546C105.33 269.359 105.348 272.369 102.138 274.219L58.163 299.77C56.3818 300.675 54.4122 301.146 52.4145 301.146C50.4167 301.146 48.4472 300.675 46.666 299.77L2.40051 274.237C-0.791097 272.424 -0.809231 269.413 2.40051 267.564L46.3758 242.013C48.1593 241.105 50.1322 240.632 52.1334 240.632C54.1346 240.632 56.1075 241.105 57.891 242.013L102.138 267.546Z" fill="url(#paint20_linear)"/>
<path d="M85.9352 267.855C86.748 268.325 87.714 268.626 88.2975 269.362C88.3213 269.392 88.3443 269.422 88.3667 269.453C88.6663 269.87 88.8275 270.37 88.8275 270.883C88.8275 271.396 88.6663 271.896 88.3667 272.313C88.3458 272.342 88.3244 272.37 88.3023 272.398C87.718 273.14 86.746 273.443 85.9293 273.917L56.3295 291.085C55.0858 291.72 53.7092 292.051 52.3128 292.051C50.9163 292.051 49.5397 291.72 48.2961 291.085L17.3411 273.222C15.1106 271.935 15.0924 269.831 17.3411 268.562L48.1691 250.663C49.416 250.028 50.7955 249.697 52.1949 249.697C53.5943 249.697 54.9738 250.028 56.2207 250.663L85.9352 267.855Z" fill="url(#paint21_linear)"/>
<path style="mix-blend-mode:lighten" opacity="0.2" d="M51.7233 254.56C52.4114 254.97 53.028 255.49 53.5489 256.099C54.3142 253.641 56.6537 252.879 59.4092 254.473C61.6943 255.793 63.6844 258.387 64.7385 261.135C65.1455 261.161 65.5399 261.286 65.8873 261.499C67.3791 262.359 68.5868 264.449 68.5868 266.175C68.5868 266.211 68.5868 266.245 68.5868 266.281C69.0793 266.329 69.5544 266.488 69.9762 266.746C71.8825 267.847 73.4287 270.525 73.4287 272.726C73.4287 274.927 71.8763 275.82 69.9762 274.719L51.7233 264.183C49.4211 262.855 47.5552 259.623 47.5552 256.965C47.5552 254.307 49.4211 253.231 51.7233 254.56Z" fill="#B1C0DD"/>
<path style="mix-blend-mode:lighten" opacity="0.4" d="M50.1437 255.543C50.8319 255.954 51.4485 256.474 51.9693 257.083C52.7347 254.624 55.0741 253.862 57.8296 255.456C60.1147 256.776 62.1048 259.37 63.1589 262.119C63.5664 262.144 63.9615 262.268 64.3092 262.482C65.7995 263.344 67.0073 265.432 67.0073 267.158C67.0073 267.195 67.0073 267.229 67.0073 267.265C67.4996 267.313 67.9746 267.473 68.3966 267.731C70.3045 268.833 71.8491 271.509 71.8491 273.711C71.8491 275.912 70.3045 276.806 68.3966 275.704L50.1437 265.166C47.8415 263.837 45.9756 260.607 45.9756 257.949C45.9756 255.292 47.8415 254.214 50.1437 255.543Z" fill="#B1C0DD"/>
<g style="mix-blend-mode:lighten" opacity="0.6">
<path d="M48.2812 256.768C48.9697 257.178 49.5864 257.698 50.1068 258.308C50.8721 255.849 53.2115 255.087 55.967 256.681C58.2521 258.001 60.2423 260.595 61.2963 263.344C61.7038 263.369 62.0989 263.493 62.4467 263.707C63.9369 264.569 65.1447 266.657 65.1447 268.383C65.1447 268.42 65.1447 268.454 65.1447 268.49C65.637 268.538 66.112 268.698 66.5341 268.956C68.442 270.058 69.9866 272.734 69.9866 274.935C69.9866 277.137 68.442 278.031 66.5341 276.929L48.2812 266.391C45.979 265.062 44.113 261.832 44.113 259.174C44.113 256.516 45.979 255.439 48.2812 256.768Z" fill="#B1C0DD"/>
</g>
<path d="M38.1484 260.757L43.2123 257.808C43.9683 257.357 45.0193 257.413 46.182 258.085C46.5737 258.315 46.941 258.584 47.278 258.888L49.3147 257.718C50.4355 256.929 52.0593 256.965 53.8647 258.006C56.1499 259.326 58.14 261.92 59.1941 264.669C59.6011 264.694 59.9957 264.818 60.3428 265.032C61.8347 265.892 63.0424 267.982 63.0424 269.708C63.0424 269.745 63.0424 269.778 63.0424 269.815C63.5349 269.863 64.01 270.022 64.4318 270.281C66.3381 271.382 67.8843 274.059 67.8843 276.261C67.8843 277.347 67.504 278.124 66.8892 278.485L66.8737 278.495L61.875 281.396L60.7884 276.144L46.196 267.715C44.3331 266.638 42.7512 264.311 42.2188 262.052L38.1484 260.757Z" fill="#B1C0DD"/>
<path d="M41.1666 261.003C41.8553 261.413 42.4724 261.934 42.9937 262.543C43.7575 260.084 46.0985 259.322 48.854 260.916C51.1375 262.235 53.1292 264.829 54.1818 267.579C54.5892 267.603 54.9843 267.728 55.3321 267.942C56.8224 268.802 58.0317 270.891 58.0317 272.618C58.0317 272.653 58.0317 272.688 58.0317 272.725C58.5243 272.772 58.9995 272.931 59.421 273.191C61.3274 274.291 62.8735 276.969 62.8735 279.17C62.8735 281.372 61.3212 282.264 59.421 281.164L41.1666 270.628C38.866 269.299 37 266.067 37 263.409C37 260.751 38.866 259.676 41.1666 261.003Z" fill="#294B8C"/>
<path d="M223 19V114.622L293.5 150L372 113.5V19H223Z" fill="url(#paint22_linear)"/>
<path d="M324.751 70.8842C323.019 70.8803 321.304 71.226 319.708 71.9005C319.746 71.5631 319.764 71.2237 319.763 70.8842C319.766 69.1825 319.317 67.5104 318.463 66.0388C317.608 64.5671 316.379 63.3486 314.899 62.5075C313.42 61.6665 311.744 61.2331 310.042 61.2516C308.341 61.2701 306.675 61.7398 305.214 62.6128C304.896 58.819 303.133 55.2921 300.29 52.7604C297.446 50.2286 293.739 48.8853 289.934 49.0077C286.129 49.1301 282.516 50.7089 279.841 53.4181C277.167 56.1273 275.634 59.7602 275.561 63.5666C273.207 62.6297 270.675 62.2242 268.147 62.3793C265.618 62.5343 263.155 63.2461 260.933 64.4636C258.712 65.6811 256.787 67.3743 255.295 69.4223C253.804 71.4702 252.784 73.8223 252.307 76.3104C251.831 78.7985 251.909 81.3612 252.538 83.8153C253.167 86.2693 254.33 88.5542 255.944 90.5065C257.559 92.4589 259.585 94.0305 261.877 95.1091C264.169 96.1876 266.671 96.7465 269.205 96.7457H324.751C326.449 96.7457 328.13 96.4113 329.699 95.7614C331.268 95.1116 332.693 94.1591 333.894 92.9584C335.095 91.7577 336.047 90.3322 336.697 88.7634C337.347 87.1945 337.682 85.513 337.682 83.8149C337.682 82.1169 337.347 80.4354 336.697 78.8665C336.047 77.2977 335.095 75.8722 333.894 74.6715C332.693 73.4708 331.268 72.5183 329.699 71.8685C328.13 71.2186 326.449 70.8842 324.751 70.8842Z" fill="url(#paint23_linear)"/>
<path d="M330.225 70.8842C328.493 70.8803 326.778 71.226 325.182 71.9005C325.22 71.5631 325.239 71.2237 325.237 70.8842C325.24 69.1825 324.791 67.5104 323.937 66.0388C323.083 64.5671 321.853 63.3486 320.374 62.5075C318.894 61.6665 317.218 61.2331 315.517 61.2516C313.815 61.2701 312.149 61.7398 310.688 62.6128C310.37 58.819 308.607 55.2921 305.764 52.7604C302.92 50.2286 299.214 48.8853 295.408 49.0077C291.603 49.1301 287.99 50.7089 285.315 53.4181C282.641 56.1273 281.108 59.7602 281.035 63.5666C278.681 62.6297 276.149 62.2242 273.621 62.3793C271.092 62.5343 268.629 63.2461 266.407 64.4636C264.186 65.6811 262.261 67.3743 260.769 69.4223C259.278 71.4702 258.258 73.8223 257.781 76.3104C257.305 78.7985 257.384 81.3612 258.012 83.8153C258.641 86.2693 259.804 88.5542 261.419 90.5065C263.033 92.4589 265.059 94.0305 267.351 95.1091C269.643 96.1876 272.145 96.7465 274.679 96.7457H330.225C331.923 96.7457 333.604 96.4113 335.173 95.7614C336.742 95.1116 338.168 94.1591 339.368 92.9584C340.569 91.7577 341.522 90.3322 342.171 88.7634C342.821 87.1945 343.156 85.513 343.156 83.8149C343.156 82.1169 342.821 80.4354 342.171 78.8665C341.522 77.2977 340.569 75.8722 339.368 74.6715C338.168 73.4708 336.742 72.5183 335.173 71.8685C333.604 71.2186 331.923 70.8842 330.225 70.8842Z" fill="url(#paint24_linear)"/>
<defs>
<linearGradient id="paint0_linear" x1="-199.8" y1="59.2356" x2="210.821" y2="59.2356" gradientUnits="userSpaceOnUse">
<stop offset="0.444265" stop-color="#4164A9"/>
<stop offset="1" stop-color="white" stop-opacity="0"/>
</linearGradient>
<linearGradient id="paint1_linear" x1="81.4173" y1="19.4087" x2="567.885" y2="19.4087" gradientUnits="userSpaceOnUse">
<stop stop-color="#4164A9"/>
<stop offset="1" stop-color="white" stop-opacity="0"/>
</linearGradient>
<linearGradient id="paint2_linear" x1="-18608.4" y1="13414.8" x2="-18608.4" y2="13941.2" gradientUnits="userSpaceOnUse">
<stop stop-color="#DDE8FF"/>
<stop offset="1" stop-color="#E4F1FF"/>
</linearGradient>
<linearGradient id="paint3_linear" x1="-19357.3" y1="13723" x2="-20798.6" y2="13723" gradientUnits="userSpaceOnUse">
<stop stop-color="#BECEFA"/>
<stop offset="0.5" stop-color="#D3E2FD"/>
<stop offset="1" stop-color="#E4F1FF"/>
</linearGradient>
<linearGradient id="paint4_linear" x1="-7289.46" y1="6185.8" x2="-7289.46" y2="6294.22" gradientUnits="userSpaceOnUse">
<stop stop-color="#DDE8FF"/>
<stop offset="1" stop-color="#E4F1FF"/>
</linearGradient>
<linearGradient id="paint5_linear" x1="-1100.78" y1="1548.3" x2="-1100.78" y2="1554.29" gradientUnits="userSpaceOnUse">
<stop stop-color="#BECEFA"/>
<stop offset="0.5" stop-color="#D3E2FD"/>
<stop offset="1" stop-color="#E4F1FF"/>
</linearGradient>
<linearGradient id="paint6_linear" x1="-978.227" y1="1482.51" x2="-978.227" y2="1488.47" gradientUnits="userSpaceOnUse">
<stop stop-color="#BECEFA"/>
<stop offset="0.5" stop-color="#D3E2FD"/>
<stop offset="1" stop-color="#E4F1FF"/>
</linearGradient>
<linearGradient id="paint7_linear" x1="-978.227" y1="1619.61" x2="-978.227" y2="1625.62" gradientUnits="userSpaceOnUse">
<stop stop-color="#BECEFA"/>
<stop offset="0.5" stop-color="#D3E2FD"/>
<stop offset="1" stop-color="#E4F1FF"/>
</linearGradient>
<linearGradient id="paint8_linear" x1="-7006.04" y1="4484.1" x2="-6824.17" y2="4484.1" gradientUnits="userSpaceOnUse">
<stop stop-color="#DDE8FF"/>
<stop offset="1" stop-color="#E4F1FF"/>
</linearGradient>
<linearGradient id="paint9_linear" x1="56.9787" y1="122.629" x2="129.118" y2="140.315" gradientUnits="userSpaceOnUse">
<stop offset="0.21" stop-color="#C3D1EC"/>
<stop offset="1" stop-color="#95A7CA"/>
</linearGradient>
<linearGradient id="paint10_linear" x1="168.121" y1="169.411" x2="69.398" y2="227.161" gradientUnits="userSpaceOnUse">
<stop stop-color="#EBF2FF"/>
<stop offset="1" stop-color="#C1D8FF"/>
</linearGradient>
<linearGradient id="paint11_linear" x1="109" y1="193.637" x2="148.5" y2="220.137" gradientUnits="userSpaceOnUse">
<stop stop-color="#CBDCF1"/>
<stop offset="1" stop-color="#DEE7F5"/>
</linearGradient>
<linearGradient id="paint12_linear" x1="186.019" y1="76.7501" x2="363.991" y2="120.384" gradientUnits="userSpaceOnUse">
<stop offset="0.21" stop-color="#C3D1EC"/>
<stop offset="1" stop-color="#95A7CA"/>
</linearGradient>
<linearGradient id="paint13_linear" x1="460.214" y1="192.165" x2="216.658" y2="334.639" gradientUnits="userSpaceOnUse">
<stop stop-color="#EBF2FF"/>
<stop offset="1" stop-color="#C1D8FF"/>
</linearGradient>
<linearGradient id="paint14_linear" x1="168" y1="334.637" x2="348.5" y2="327.637" gradientUnits="userSpaceOnUse">
<stop stop-color="#D7E3F3"/>
<stop offset="1" stop-color="#D7E3F3" stop-opacity="0"/>
</linearGradient>
<linearGradient id="paint15_linear" x1="201.313" y1="325.406" x2="201.313" y2="368.044" gradientUnits="userSpaceOnUse">
<stop stop-color="#4164A9"/>
<stop offset="1" stop-color="#DEE8F5"/>
</linearGradient>
<linearGradient id="paint16_linear" x1="202.621" y1="303.877" x2="148.264" y2="317.204" gradientUnits="userSpaceOnUse">
<stop offset="0.21" stop-color="#C3D1EC"/>
<stop offset="1" stop-color="#95A7CA"/>
</linearGradient>
<linearGradient id="paint17_linear" x1="118.874" y1="339.128" x2="193.263" y2="382.644" gradientUnits="userSpaceOnUse">
<stop stop-color="#EBF2FF"/>
<stop offset="1" stop-color="#C1D8FF"/>
</linearGradient>
<linearGradient id="paint18_linear" x1="43066.2" y1="13827.2" x2="47555.7" y2="9244.77" gradientUnits="userSpaceOnUse">
<stop stop-color="#A3AEEB"/>
<stop offset="0.15" stop-color="#B1BCED"/>
<stop offset="0.72" stop-color="#E0ECF4"/>
<stop offset="1" stop-color="#F2FFF7"/>
</linearGradient>
<linearGradient id="paint19_linear" x1="-29.2766" y1="263.157" x2="50.7119" y2="330.179" gradientUnits="userSpaceOnUse">
<stop offset="0.21" stop-color="#C3D1EC"/>
<stop offset="1" stop-color="#95A7CA"/>
</linearGradient>
<linearGradient id="paint20_linear" x1="-29.2972" y1="227.871" x2="93.1705" y2="296.716" gradientUnits="userSpaceOnUse">
<stop stop-color="#E9F1FF"/>
<stop offset="1" stop-color="white"/>
</linearGradient>
<linearGradient id="paint21_linear" x1="118.759" y1="296.543" x2="28.8871" y2="339.254" gradientUnits="userSpaceOnUse">
<stop stop-color="#EBF2FF"/>
<stop offset="1" stop-color="#DDEAFF"/>
</linearGradient>
<linearGradient id="paint22_linear" x1="287.227" y1="150" x2="287.227" y2="27" gradientUnits="userSpaceOnUse">
<stop stop-color="#4164A9"/>
<stop offset="1" stop-color="#DDE7F5"/>
</linearGradient>
<linearGradient id="paint23_linear" x1="223.856" y1="102.943" x2="371.772" y2="-11.1932" gradientUnits="userSpaceOnUse">
<stop offset="0.218763" stop-color="#B1C9FA"/>
<stop offset="1" stop-color="#33518D"/>
</linearGradient>
<linearGradient id="paint24_linear" x1="229.33" y1="102.943" x2="374.328" y2="43.5139" gradientUnits="userSpaceOnUse">
<stop stop-color="#6B8ED1"/>
<stop offset="1" stop-color="#33518D"/>
</linearGradient>
</defs>
</svg>
