<svg width="550" height="388" viewBox="0 0 550 388" fill="none" xmlns="http://www.w3.org/2000/svg">
<path d="M436 388L548.875 388L549.832 322.634C549.811 322.216 536.946 330.932 536.749 330.587C533.251 324.468 529.582 321.211 533.251 326.142L502.613 306.517C501.783 306.003 500.863 305.735 499.931 305.735C498.998 305.735 498.078 306.003 497.248 306.517L464.103 329.797C463.788 329.968 463.518 330.242 463.324 330.587C463.13 330.933 436.015 321.431 436 321.848L436 388Z" fill="url(#paint0_linear)"/>
<path d="M547.304 319.338C550.766 321.336 550.78 324.58 547.304 326.578L499.543 354.344C497.608 355.33 495.467 355.843 493.296 355.843C491.124 355.843 488.984 355.33 487.049 354.344L438.987 326.591C435.511 324.58 435.497 321.35 438.987 319.338L486.748 291.585C488.684 290.597 490.827 290.081 493.002 290.081C495.176 290.081 497.319 290.597 499.256 291.585L547.304 319.338Z" fill="url(#paint1_linear)"/>
<path d="M547.345 302.491L499.584 330.244C497.649 331.23 495.509 331.743 493.337 331.743C491.166 331.743 489.025 331.23 487.09 330.244L439.029 302.491C438.305 302.176 437.681 301.671 437.221 301.031C436.761 300.39 436.482 299.637 436.415 298.851L436.319 305.762C436.392 306.548 436.673 307.3 437.132 307.942C437.592 308.584 438.213 309.092 438.933 309.416L487.008 337.169C488.943 338.154 491.084 338.668 493.255 338.668C495.427 338.668 497.567 338.154 499.502 337.169L547.263 309.416C547.97 309.096 548.58 308.595 549.029 307.962C549.479 307.33 549.752 306.589 549.822 305.817L549.918 298.906C549.843 299.677 549.566 300.415 549.114 301.045C548.662 301.675 548.052 302.174 547.345 302.491Z" fill="url(#paint2_linear)"/>
<path d="M547.345 302.491L499.584 330.244C497.649 331.23 495.509 331.743 493.337 331.743C491.166 331.743 489.025 331.23 487.09 330.244L439.029 302.491C438.305 302.176 437.681 301.671 437.221 301.031C436.761 300.39 436.482 299.637 436.415 298.851L436.319 305.762C436.392 306.548 436.673 307.3 437.132 307.942C437.592 308.584 438.213 309.092 438.933 309.416L487.008 337.169C488.943 338.154 491.084 338.668 493.255 338.668C495.427 338.668 497.567 338.154 499.502 337.169L547.263 309.416C547.97 309.096 548.58 308.595 549.029 307.962C549.479 307.33 549.752 306.589 549.822 305.817L549.918 298.906C549.843 299.677 549.566 300.415 549.114 301.045C548.662 301.675 548.052 302.174 547.345 302.491Z" fill="url(#paint3_linear)"/>
<path d="M547.303 295.252C550.766 297.25 550.779 300.494 547.303 302.492L499.543 330.245C497.608 331.23 495.467 331.744 493.296 331.744C491.124 331.744 488.983 331.23 487.048 330.245L438.987 302.492C435.511 300.494 435.497 297.25 438.987 295.252L486.747 267.499C488.685 266.514 490.828 266 493.001 266C495.175 266 497.318 266.514 499.255 267.499L547.303 295.252Z" fill="url(#paint4_linear)"/>
<path d="M495.087 302.455C495.227 306.421 495.233 310.392 495.121 314.308C495.059 316.492 492.247 318.066 488.444 318.089C486.692 318.146 484.955 317.749 483.403 316.935C482.249 316.268 481.593 315.4 481.582 314.403C481.341 309.435 481.341 304.539 481.308 299.346V298.96C481.424 299.468 481.652 299.943 481.976 300.351C482.299 300.759 482.71 301.09 483.178 301.318C484.53 302.019 486.031 302.378 487.553 302.366C490.044 302.407 492.555 302.437 495.087 302.455Z" fill="#4164A9"/>
<path d="M520.468 294.926C520.539 296.232 520.539 297.541 520.468 298.847C520.283 301.014 517.948 302.376 514.413 302.432C508 302.51 501.53 302.521 495.1 302.471C492.579 302.448 490.066 302.418 487.56 302.381C486.038 302.394 484.537 302.034 483.186 301.334C482.717 301.105 482.306 300.775 481.983 300.367C481.659 299.959 481.431 299.483 481.315 298.976C481.298 298.873 481.287 298.771 481.281 298.667C481.208 296.561 483.785 294.931 487.235 294.926C495.789 294.847 504.269 294.881 513.231 294.926C515.573 294.903 518.032 294.909 520.468 294.926Z" fill="#5BC4D6"/>
<path d="M492.889 284.91C494.233 285.689 494.939 286.68 494.956 287.711C494.956 289.867 491.763 291.632 488.066 291.632C486.421 291.649 484.799 291.25 483.35 290.472C482.028 289.711 481.294 288.702 481.311 287.605C481.328 286.507 482.033 285.56 483.311 284.804C484.797 284.023 486.46 283.637 488.139 283.684C489.799 283.695 491.431 284.117 492.889 284.91Z" fill="#5BC4D6"/>
<path d="M376.112 200.07H403.294C408.817 200.07 413.294 204.547 413.294 210.07V269.364" stroke="url(#paint5_linear)" stroke-width="2" stroke-linecap="round"/>
<circle cx="379.493" cy="200.493" r="5.49279" fill="#C9D8EF"/>
<path d="M99.1641 169.492C99.5572 170.077 100.07 170.572 100.669 170.943C100.779 171.008 100.894 171.063 101.014 171.106C100.396 170.871 99.791 170.604 99.2004 170.308L99.1641 169.492Z" fill="#747878"/>
<path d="M98.9276 137.83C98.6375 137.631 98.3473 137.431 98.0391 137.25L98.2386 137.377L98.8188 137.74L98.9276 137.83Z" fill="#6C7070"/>
<path d="M211.691 382.469L318.691 381.215V149.469L211.691 201.255V382.469Z" fill="url(#paint6_linear)"/>
<path d="M105.691 382.254L211.691 382.469V198.714L105.694 147.469L105.691 382.254Z" fill="url(#paint7_linear)"/>
<path d="M314.307 55.1552C320.835 58.9271 320.871 65.0383 314.307 68.7921L224.343 121.091C220.692 122.948 216.653 123.916 212.556 123.916C208.459 123.916 204.421 122.948 200.769 121.091L110.316 68.7739C103.787 65.002 103.751 58.8908 110.225 55.1189L200.207 2.83819C203.856 0.97272 207.896 0 211.994 0C216.092 0 220.132 0.97272 223.781 2.83819L314.307 55.1552Z" fill="url(#paint8_linear)"/>
<path d="M314.307 144.066C320.835 147.82 320.871 153.931 314.307 157.703L224.343 209.984C220.694 211.849 216.654 212.822 212.556 212.822C208.458 212.822 204.418 211.849 200.769 209.984L110.316 157.631C103.787 153.859 103.751 147.747 110.225 143.994L200.207 91.6948C203.857 89.8336 207.896 88.8633 211.994 88.8633C216.091 88.8633 220.131 89.8336 223.781 91.6948L314.307 144.066Z" fill="url(#paint9_linear)"/>
<path d="M314.379 68.7732L224.416 121.072C220.764 122.929 216.725 123.897 212.629 123.897C208.532 123.897 204.493 122.929 200.841 121.072L110.316 68.7732C107.034 66.9598 105.383 64.3847 105.401 61.9004L105.238 118.479C105.238 120.963 106.87 123.448 110.153 125.352L200.715 177.578C204.364 179.444 208.403 180.416 212.502 180.416C216.6 180.416 220.64 179.444 224.289 177.578L314.252 125.297C317.48 123.484 319.094 120.981 319.094 118.515L319.257 61.9729C319.221 64.4754 317.607 66.9598 314.379 68.7732Z" fill="url(#paint10_linear)"/>
<path d="M314.379 68.7732L224.416 121.072C220.764 122.929 216.725 123.897 212.629 123.897C208.532 123.897 204.493 122.929 200.841 121.072L110.316 68.7732C107.034 66.9598 105.383 64.3847 105.401 61.9004L105.238 118.479C105.238 120.963 106.87 123.448 110.153 125.352L200.715 177.578C204.364 179.444 208.403 180.416 212.502 180.416C216.6 180.416 220.64 179.444 224.289 177.578L314.252 125.297C317.48 123.484 319.094 120.981 319.094 118.515L319.257 61.9729C319.221 64.4754 317.607 66.9598 314.379 68.7732Z" fill="url(#paint11_linear)"/>
<path d="M314.307 55.1552C320.836 58.9271 320.872 65.0383 314.307 68.7921L224.344 121.091C220.692 122.948 216.653 123.916 212.557 123.916C208.46 123.916 204.421 122.948 200.769 121.091L110.316 68.7739C103.788 65.002 103.752 58.8908 110.226 55.1189L200.207 2.83819C203.856 0.97272 207.896 0 211.994 0C216.093 0 220.133 0.97272 223.782 2.83819L314.307 55.1552Z" fill="url(#paint12_linear)"/>
<path d="M294.705 56.4796C299.963 59.508 300 64.4405 294.705 67.4871L222.023 109.721C219.08 111.223 215.824 112.005 212.521 112.005C209.217 112.005 205.961 111.223 203.018 109.721L129.865 67.4871C124.588 64.4405 124.57 59.508 129.865 56.4796L202.547 14.2452C205.493 12.7437 208.752 11.961 212.058 11.961C215.365 11.961 218.624 12.7437 221.57 14.2452L294.705 56.4796Z" fill="url(#paint13_linear)"/>
<path d="M154 223V287H0" stroke="url(#paint14_linear)" stroke-width="26"/>
<path d="M271 201V308H425" stroke="url(#paint15_linear)" stroke-width="26"/>
<path d="M201.787 38.6328L214.827 44.3226L211.226 45.6918L197.755 43.6076L206.575 47.4571L203.825 48.5027L190.785 42.8105L194.386 41.4437L207.857 43.5256L199.037 39.6761L201.787 38.6328Z" fill="#4164A9"/>
<path d="M211.694 30.6096C213.971 29.7446 217.577 29.8079 219.735 30.7503L235.371 37.5795C237.529 38.5173 237.434 39.9896 235.16 40.8617L220.284 46.5117L221.748 46.5351L223.085 48.4223C229.647 49.0272 235.897 50.2041 241.282 51.8451L245.589 51.0246L255.323 55.2726L253.013 56.9653C256.664 59.2651 259.114 61.8885 260.142 64.5939L264.672 65.2668L264.323 71.0176L259.713 71.5286C258.337 74.1942 255.558 76.7238 251.616 78.8924L253.698 80.6624L243.438 84.5611L239.244 83.5905C233.656 85.0417 227.268 85.9959 220.642 86.371L219.055 88.1973L204.921 87.9628L203.587 86.0756C197.025 85.4684 190.773 84.2939 185.388 82.6528L181.081 83.4733L171.348 79.2229L173.658 77.5303C170.005 75.2304 167.56 72.6071 166.532 69.9016L162 69.2288L162.374 63.471L166.98 62.9576C168.361 60.299 171.14 57.7647 175.08 55.5938L172.995 53.8261L176.752 52.3984L170.23 49.5547C168.072 48.6169 168.169 47.1423 170.443 46.2725L211.694 30.6096ZM239.922 53.3502C234.492 51.6084 228.038 50.3916 221.253 49.8337L220.102 49.7375L218.891 48.0261L216.409 47.9839L208.117 51.1324C220.673 50.5393 233.367 52.4148 242.215 56.276C257.318 62.8685 256.65 73.1557 240.727 79.1995C224.805 85.2433 199.564 84.8049 184.461 78.2149C169.797 71.8147 170.05 61.9401 184.644 55.8447L179.361 53.5401L177.615 54.2036L179.51 55.8072L178.799 56.1823C174.608 58.3672 171.735 60.9789 170.488 63.7359L170.278 64.2048L166.096 64.6736L165.859 68.1785L169.97 68.7881L170.124 69.2569C171.007 72.0514 173.535 74.7569 177.432 77.0825L178.098 77.4811L176.001 79.0166L181.924 81.5955L185.833 80.8499L186.759 81.1477C192.192 82.8919 198.647 84.1063 205.43 84.6643L206.584 84.758L207.792 86.4718L216.39 86.6195L217.811 84.955L218.972 84.9011C225.814 84.5869 232.409 83.5999 238.055 82.0503L239.022 81.7854L242.812 82.6645L249.05 80.2943L247.155 78.6884L247.865 78.3157C252.054 76.1307 254.925 73.519 256.174 70.762L256.385 70.2932L260.564 69.8243L260.801 66.3218L256.69 65.7122L256.539 65.2433C255.655 62.4488 253.125 59.7434 249.228 57.4154L248.564 57.0192L250.659 55.4836L244.736 52.9048L240.829 53.6503L239.922 53.3409V53.3502ZM232.634 38.6228L216.984 31.7936C216.122 31.478 215.178 31.4614 214.305 31.7467L173.052 47.4166C172.294 47.7049 172.263 48.1949 172.981 48.5091L188.631 55.3383C189.493 55.655 190.438 55.6715 191.31 55.3852L195.435 53.8191L200.114 55.8587C200.479 55.9831 200.876 55.9831 201.242 55.8587C201.374 55.8095 201.462 55.7415 201.479 55.6618L201.753 51.4278L232.575 39.7199C233.333 39.4316 233.364 38.9416 232.646 38.6275L232.634 38.6228ZM203.824 69.8079L220.258 63.5483C216.513 61.9671 212.687 60.5782 208.797 59.387L194.388 64.8589C197.411 66.7126 200.558 68.3629 203.805 69.7985L203.824 69.8079ZM206.411 70.9379C210.154 72.5191 213.976 73.9095 217.863 75.1038L232.279 69.6273C229.256 67.7749 226.11 66.1247 222.864 64.6877L206.411 70.9379ZM222.995 62.4981L238.098 56.7613C234.184 55.2211 229.569 54.0817 224.582 53.3784L211.587 58.3297C215.411 59.516 219.28 60.9297 223.014 62.5051L222.995 62.4981ZM203.658 71.9858L188.588 77.7108C192.552 79.2722 197.16 80.4139 202.078 81.1031L215.108 76.1565C211.192 74.9397 207.29 73.5097 203.665 71.9858H203.658ZM191.633 65.9115L178.603 70.8582C179.951 72.9048 182.433 74.8436 185.98 76.5738L201.05 70.8488C197.806 69.4024 194.658 67.7533 191.625 65.9115H191.633ZM240.701 57.9148L225.631 63.6398C228.876 65.0862 232.025 66.7353 235.058 68.5771L248.088 63.6304C246.74 61.5837 244.26 59.6449 240.711 57.9148H240.701ZM237.126 69.911C240.232 72.0444 242.355 74.0981 242.919 75.8025C248.18 72.7548 250.187 69.0248 248.95 65.4192L237.126 69.911ZM177.731 69.0506L189.557 64.5588C186.449 62.4254 184.326 60.3717 183.762 58.6673C178.503 61.715 176.494 65.4449 177.731 69.0506ZM218.242 77.0802L206.418 81.572C215.167 82.3246 224.442 81.7666 232.279 79.8419C228.14 79.4949 223.255 78.4891 218.242 77.0802ZM221.038 76.0182C229.147 78.2383 235.688 78.9697 238.117 78.0484C240.545 77.127 239.202 74.4193 234.326 70.9707L221.038 76.0182ZM187.785 56.9325C186.601 58.1375 188.157 60.5428 192.348 63.5085L205.615 58.4657C204.253 58.0953 202.914 57.7624 201.602 57.4693C200.104 57.5842 198.489 57.3967 197.359 56.9043L195.29 56.0017L193.914 56.5245C192.225 57.1669 189.804 57.2935 187.78 56.9325H187.785ZM208.437 57.4013L220.282 52.9001C215.343 52.4749 210.375 52.4694 205.435 52.8837L205.252 55.7275C205.233 55.8708 205.186 56.0089 205.113 56.134C205.039 56.2591 204.942 56.3687 204.826 56.4566C206.014 56.7441 207.216 57.0567 208.434 57.3943" fill="#4164A9"/>
<path d="M211.413 34.9798C213.687 34.1171 217.293 34.178 219.449 35.1205L216.706 36.152C215.844 35.8364 214.899 35.8199 214.026 36.1051L211.276 37.1507C210.515 37.4391 210.487 37.9291 211.205 38.2432C212.067 38.5588 213.011 38.5753 213.884 38.2901L216.635 37.2445C218.909 36.3794 222.515 36.4451 224.673 37.3852C226.831 38.3253 226.734 39.7952 224.46 40.6673L221.709 41.7129C219.435 42.578 215.829 42.5147 213.671 41.5722L216.421 40.529C217.284 40.8457 218.23 40.8622 219.103 40.5759L221.854 39.5303C222.609 39.2419 222.643 38.7519 221.922 38.4401C221.061 38.1234 220.115 38.1069 219.243 38.3932L216.488 39.4342C214.213 40.2992 210.608 40.2359 208.449 39.2935C206.291 38.351 206.391 36.8835 208.663 36.0113L211.413 34.9798Z" fill="#4164A9"/>
<path d="M181.167 46.4672C184.957 45.0254 190.968 45.1309 194.564 46.7017C198.16 48.2724 197.987 50.7176 194.197 52.1571L190.077 53.7349L177.035 48.0427L181.167 46.4672ZM191.591 51.0201C193.865 50.155 193.96 48.6874 191.804 47.7379C189.648 46.7884 186.038 46.7345 183.763 47.5972L182.389 48.12L190.207 51.5358L191.584 51.013" fill="#4164A9"/>
<defs>
<linearGradient id="paint0_linear" x1="500.557" y1="261.095" x2="500.557" y2="383.599" gradientUnits="userSpaceOnUse">
<stop stop-color="#4164A9"/>
<stop offset="1" stop-color="#003286" stop-opacity="0"/>
</linearGradient>
<linearGradient id="paint1_linear" x1="596.35" y1="362.818" x2="456.864" y2="429.065" gradientUnits="userSpaceOnUse">
<stop stop-color="#F4F8FF"/>
<stop offset="1" stop-color="#EFF5FF"/>
</linearGradient>
<linearGradient id="paint2_linear" x1="57916.2" y1="14274.6" x2="64939.7" y2="7104.6" gradientUnits="userSpaceOnUse">
<stop stop-color="#A3AEEB"/>
<stop offset="0.15" stop-color="#B1BCED"/>
<stop offset="0.72" stop-color="#E0ECF4"/>
<stop offset="1" stop-color="#F2FFF7"/>
</linearGradient>
<linearGradient id="paint3_linear" x1="404.483" y1="290.455" x2="491.426" y2="363.323" gradientUnits="userSpaceOnUse">
<stop offset="0.21" stop-color="#C3D1EC"/>
<stop offset="1" stop-color="#95A7CA"/>
</linearGradient>
<linearGradient id="paint4_linear" x1="596.349" y1="338.717" x2="456.878" y2="404.976" gradientUnits="userSpaceOnUse">
<stop stop-color="#EBF2FF"/>
<stop offset="1" stop-color="#DDEAFF"/>
</linearGradient>
<linearGradient id="paint5_linear" x1="394.703" y1="200.07" x2="394.703" y2="269.364" gradientUnits="userSpaceOnUse">
<stop stop-color="#D2E1FF"/>
<stop offset="1" stop-color="#D2E1FF" stop-opacity="0"/>
</linearGradient>
<linearGradient id="paint6_linear" x1="258.009" y1="382.967" x2="258.009" y2="161.935" gradientUnits="userSpaceOnUse">
<stop stop-color="#DBE4F1"/>
<stop offset="0.779106" stop-color="#405E99"/>
</linearGradient>
<linearGradient id="paint7_linear" x1="152.117" y1="391.5" x2="152.117" y2="170.5" gradientUnits="userSpaceOnUse">
<stop stop-color="#DBE4F1"/>
<stop offset="1" stop-color="#405E99"/>
</linearGradient>
<linearGradient id="paint8_linear" x1="144.1" y1="94.1074" x2="269.171" y2="35.1895" gradientUnits="userSpaceOnUse">
<stop stop-color="#F2FFF7"/>
<stop offset="1" stop-color="white"/>
</linearGradient>
<linearGradient id="paint9_linear" x1="373" y1="168.5" x2="157.023" y2="333.772" gradientUnits="userSpaceOnUse">
<stop stop-color="#F4F8FF"/>
<stop offset="1" stop-color="#B0C0DE"/>
</linearGradient>
<linearGradient id="paint10_linear" x1="84606.4" y1="36325.4" x2="113634" y2="17568" gradientUnits="userSpaceOnUse">
<stop stop-color="#A3AEEB"/>
<stop offset="0.15" stop-color="#B1BCED"/>
<stop offset="0.72" stop-color="#E0ECF4"/>
<stop offset="1" stop-color="#F2FFF7"/>
</linearGradient>
<linearGradient id="paint11_linear" x1="45.2591" y1="36.9083" x2="262.878" y2="152.352" gradientUnits="userSpaceOnUse">
<stop offset="0.21" stop-color="#C3D1EC"/>
<stop offset="1" stop-color="#95A7CA"/>
</linearGradient>
<linearGradient id="paint12_linear" x1="45.471" y1="-26.1307" x2="296.101" y2="114.601" gradientUnits="userSpaceOnUse">
<stop offset="0.21" stop-color="#E4EEFF"/>
<stop offset="1" stop-color="#EBF2FF"/>
</linearGradient>
<linearGradient id="paint13_linear" x1="77.4839" y1="-9.13582" x2="256.515" y2="81.6843" gradientUnits="userSpaceOnUse">
<stop offset="0.21" stop-color="#C3D1EC"/>
<stop offset="1" stop-color="#95A7CA"/>
</linearGradient>
<linearGradient id="paint14_linear" x1="149.5" y1="224.488" x2="75.7515" y2="322.815" gradientUnits="userSpaceOnUse">
<stop offset="0.0572917" stop-color="#637CAD"/>
<stop offset="0.364583" stop-color="#224A99"/>
<stop offset="0.536458" stop-color="#3A5C9F"/>
<stop offset="1" stop-color="#DAE4F1"/>
</linearGradient>
<linearGradient id="paint15_linear" x1="243.5" y1="218" x2="404.5" y2="308" gradientUnits="userSpaceOnUse">
<stop offset="0.145466" stop-color="#415F9A"/>
<stop offset="0.338542" stop-color="#224A99"/>
<stop offset="1" stop-color="#DFE7F3"/>
</linearGradient>
</defs>
</svg>
