<svg width="490" height="489" viewBox="0 0 490 489" fill="none" xmlns="http://www.w3.org/2000/svg">
<path d="M168.478 416.648C168.434 416.656 168.389 416.656 168.345 416.648L115.171 385.912C115.135 385.898 115.102 385.877 115.075 385.849C115.048 385.821 115.028 385.788 115.015 385.752C115.002 385.715 114.998 385.677 115.001 385.638C115.005 385.6 115.017 385.563 115.037 385.529C115.056 385.496 115.083 385.467 115.115 385.445C115.146 385.423 115.183 385.409 115.221 385.402C115.259 385.396 115.298 385.397 115.335 385.407C115.372 385.418 115.407 385.436 115.436 385.46L168.478 416.081L294.334 343.417C294.373 343.391 294.419 343.377 294.467 343.377C294.514 343.377 294.56 343.391 294.599 343.417L378.465 391.836L433.791 359.887C433.853 359.856 433.924 359.849 433.991 359.867C434.058 359.885 434.116 359.927 434.154 359.985C434.187 360.046 434.195 360.118 434.177 360.185C434.159 360.253 434.116 360.311 434.057 360.348L378.607 392.367C378.566 392.389 378.52 392.4 378.474 392.4C378.428 392.4 378.382 392.389 378.341 392.367L294.484 343.948L168.611 416.612C168.569 416.632 168.524 416.644 168.478 416.648Z" fill="#2F456C"/>
<path d="M489.733 453.848C489.69 453.856 489.645 453.856 489.601 453.848L417.282 412.088L382.216 432.233C382.178 432.258 382.134 432.272 382.088 432.272C382.042 432.272 381.997 432.258 381.959 432.233L206.108 330.675C206.068 330.651 206.034 330.618 206.011 330.578C205.987 330.537 205.975 330.491 205.975 330.445C205.975 330.398 205.987 330.352 206.011 330.312C206.034 330.271 206.068 330.238 206.108 330.214L286.255 284.036C286.316 284 286.388 283.991 286.456 284.009C286.524 284.027 286.583 284.072 286.618 284.133C286.653 284.194 286.663 284.267 286.644 284.335C286.626 284.403 286.581 284.461 286.52 284.496L206.763 330.445L382.092 431.675L417.149 411.521C417.19 411.499 417.236 411.488 417.282 411.488C417.328 411.488 417.374 411.499 417.415 411.521L489.866 453.352C489.917 453.381 489.957 453.426 489.979 453.48C490.002 453.534 490.005 453.594 489.99 453.651C489.975 453.707 489.942 453.757 489.895 453.793C489.849 453.828 489.792 453.848 489.733 453.848Z" fill="#2F456C"/>
<path d="M326.829 488.79C326.786 488.802 326.74 488.802 326.697 488.79L273.018 457.797C272.977 457.774 272.944 457.74 272.92 457.7C272.897 457.66 272.885 457.614 272.885 457.567C272.885 457.52 272.897 457.474 272.92 457.434C272.944 457.394 272.977 457.36 273.018 457.337L339.784 418.791C339.845 418.756 339.918 418.746 339.986 418.765C340.054 418.783 340.112 418.827 340.147 418.888C340.183 418.95 340.192 419.022 340.174 419.09C340.156 419.158 340.111 419.216 340.05 419.252L273.637 457.567L326.927 488.329C326.957 488.347 326.984 488.37 327.005 488.398C327.026 488.426 327.041 488.458 327.049 488.492C327.058 488.526 327.059 488.561 327.053 488.596C327.047 488.63 327.034 488.663 327.015 488.692C326.993 488.721 326.965 488.744 326.933 488.761C326.901 488.778 326.865 488.788 326.829 488.79Z" fill="#2F456C"/>
<path d="M345.666 469.85C345.623 469.862 345.577 469.862 345.533 469.85L115.171 336.795C115.135 336.781 115.102 336.76 115.075 336.732C115.048 336.705 115.028 336.671 115.015 336.635C115.002 336.599 114.998 336.56 115.001 336.521C115.005 336.483 115.017 336.446 115.037 336.412C115.056 336.379 115.083 336.351 115.115 336.329C115.146 336.307 115.183 336.292 115.221 336.285C115.259 336.279 115.298 336.281 115.335 336.291C115.372 336.301 115.407 336.319 115.436 336.344L345.843 469.346C345.873 469.362 345.9 469.385 345.921 469.411C345.942 469.438 345.957 469.469 345.966 469.502C345.976 469.535 345.978 469.57 345.974 469.604C345.969 469.638 345.958 469.67 345.941 469.7C345.917 469.751 345.877 469.793 345.828 469.82C345.779 469.847 345.722 469.858 345.666 469.85Z" fill="#2F456C"/>
<path d="M230.058 432.923C230.015 432.935 229.969 432.935 229.925 432.923L153.772 388.976C153.733 388.954 153.7 388.922 153.676 388.883C153.653 388.844 153.64 388.8 153.64 388.754C153.64 388.708 153.652 388.662 153.675 388.622C153.699 388.581 153.732 388.548 153.772 388.524L220.539 349.978C220.569 349.961 220.603 349.95 220.637 349.945C220.672 349.941 220.707 349.943 220.741 349.952C220.775 349.961 220.806 349.977 220.834 349.998C220.861 350.019 220.885 350.046 220.902 350.076C220.919 350.105 220.931 350.138 220.935 350.172C220.939 350.206 220.937 350.24 220.928 350.273C220.919 350.306 220.903 350.337 220.882 350.364C220.861 350.391 220.835 350.413 220.805 350.43L154.392 388.754L229.987 432.392L411.373 327.673C411.402 327.655 411.435 327.644 411.469 327.64C411.503 327.635 411.537 327.638 411.57 327.647C411.603 327.656 411.634 327.672 411.661 327.693C411.688 327.714 411.711 327.74 411.727 327.77C411.745 327.8 411.756 327.834 411.76 327.868C411.765 327.903 411.763 327.938 411.754 327.972C411.745 328.006 411.729 328.037 411.708 328.065C411.686 328.093 411.66 328.116 411.63 328.133L230.191 432.888C230.151 432.912 230.105 432.924 230.058 432.923Z" fill="#2F456C"/>
<path d="M338.618 457.062C337.894 457.088 337.175 456.929 336.528 456.602L194.423 374.561C194.294 374.496 194.181 374.403 194.093 374.288C194.005 374.172 193.946 374.039 193.918 373.896C193.918 373.569 194.432 373.206 194.866 372.958L224.397 355.903C225.301 355.419 226.312 355.172 227.337 355.186C228.062 355.159 228.781 355.317 229.427 355.646L371.523 437.688C371.673 437.776 372.028 438.007 372.028 438.263C372.028 438.52 371.824 438.866 371.08 439.299L341.549 456.345C340.647 456.825 339.639 457.072 338.618 457.062ZM194.467 373.896C194.52 373.986 194.597 374.06 194.689 374.109L336.785 456.142C337.508 456.434 338.287 456.563 339.066 456.52C339.845 456.477 340.605 456.263 341.292 455.894L370.823 438.857C371.081 438.727 371.306 438.539 371.479 438.308C371.414 438.252 371.342 438.205 371.266 438.166L229.17 356.107C228.603 355.821 227.972 355.684 227.337 355.708C226.412 355.7 225.499 355.922 224.681 356.355L195.132 373.409C194.885 373.535 194.661 373.699 194.467 373.896Z" fill="#2F456C"/>
<path d="M88.4927 383.593L178.284 382.343V151.275L88.4927 202.909V383.593Z" fill="url(#paint0_linear)"/>
<path d="M0 383.594H88.5189V202.61L0.00244186 151.05L0 383.594Z" fill="url(#paint1_linear)"/>
<path d="M0 151.35L88.5415 202.91L178.283 151.275L89.6417 99.6658L0 151.35Z" fill="url(#paint2_linear)"/>
<path d="M88.7473 145.651V186.183L144.683 154.002V113.495L88.7473 145.651Z" fill="url(#paint3_linear)"/>
<path d="M88.7708 145.649V186.181L33.6106 154.025V113.543L88.7708 145.649Z" fill="url(#paint4_linear)"/>
<path d="M49.1864 130.145L41.6101 125.67V151.924L49.1864 156.425V130.145Z" fill="url(#paint5_linear)"/>
<path d="M64.2692 138.998L56.7678 134.572V160.852L64.2692 165.253V138.998Z" fill="url(#paint6_linear)"/>
<path d="M79.345 147.825L71.9187 143.5V169.78L79.345 174.08V147.825Z" fill="url(#paint7_linear)"/>
<path d="M128.773 129.745L136.099 125.67V151.924L128.773 156V129.745Z" fill="#CAEDF3"/>
<path d="M113.576 138.773L121.002 134.572V160.852L113.576 165.053V138.773Z" fill="#CAEDF3"/>
<path d="M98.3477 147.825L105.899 143.5V169.78L98.3477 174.08V147.825Z" fill="#CAEDF3"/>
<path d="M33.6106 113.544L88.7708 145.65L144.681 113.494L89.471 81.3134L33.6106 113.544Z" fill="url(#paint8_linear)"/>
<path d="M88.9414 107.468V130.647L117.897 113.994V90.8145L88.9414 107.468Z" fill="url(#paint9_linear)"/>
<path d="M88.9478 107.467V130.646L60.3926 113.993V90.839L88.9478 107.467Z" fill="url(#paint10_linear)"/>
<path d="M88.9414 107.468V109.743L117.897 93.0899V90.8145L88.9414 107.468Z" fill="#2B467B"/>
<path d="M88.9478 107.467V109.743L60.3926 93.0894V90.839L88.9478 107.467Z" fill="#2B467B"/>
<path d="M60.3926 90.8386L88.9478 107.467L117.903 90.8136L89.323 74.1855L60.3926 90.8386Z" fill="#4F6AA2"/>
<path d="M64.417 90.9388L88.8466 105.166L113.601 90.9138L89.1466 76.6862L64.417 90.9388Z" fill="url(#paint11_linear)"/>
<g style="mix-blend-mode:screen">
<path style="mix-blend-mode:screen" d="M76.7913 98.0906L88.9185 105.167L101.221 98.0906L89.0685 91.0143L76.7913 98.0906Z" fill="#405F99"/>
</g>
<path d="M150.028 178.555L160.029 173.554V382.893H150.028V178.555Z" fill="url(#paint12_linear)"/>
<path d="M130.023 190.465L140.025 185.464V382.3H130.023V190.465Z" fill="url(#paint13_linear)"/>
<path d="M110.021 203.56L120.022 198.559V382.893H110.021V203.56Z" fill="url(#paint14_linear)"/>
<path d="M27.9507 178.555L17.9488 173.554V382.893H27.9507V178.555Z" fill="url(#paint15_linear)"/>
<path d="M47.9553 190.465L37.9535 185.464V382.3H47.9553V190.465Z" fill="url(#paint16_linear)"/>
<path d="M67.9578 203.56L57.9559 198.559V382.893H67.9578V203.56Z" fill="url(#paint17_linear)"/>
<path d="M383.598 319.326C389.262 322.598 389.293 327.9 383.598 331.157L305.548 376.53C302.38 378.141 298.876 378.981 295.321 378.981C291.767 378.981 288.263 378.141 285.095 376.53L206.62 331.141C200.956 327.869 200.925 322.567 206.542 319.295L284.607 273.937C287.773 272.319 291.278 271.475 294.834 271.475C298.389 271.475 301.894 272.319 305.06 273.937L383.598 319.326Z" fill="url(#paint18_linear)"/>
<path d="M383.661 331.141L305.61 376.515C302.442 378.126 298.938 378.966 295.384 378.966C291.83 378.966 288.326 378.126 285.158 376.515L206.62 331.141C203.772 329.568 202.34 327.334 202.356 325.179L202.215 374.265C202.215 376.42 203.631 378.576 206.478 380.228L285.048 425.538C288.213 427.156 291.718 428 295.274 428C298.829 428 302.334 427.156 305.5 425.538L383.55 380.18C386.351 378.607 387.751 376.436 387.751 374.296L387.893 325.242C387.861 327.413 386.461 329.568 383.661 331.141Z" fill="url(#paint19_linear)"/>
<path d="M383.661 331.141L305.61 376.515C302.442 378.126 298.938 378.966 295.384 378.966C291.83 378.966 288.326 378.126 285.158 376.515L206.62 331.141C203.772 329.568 202.34 327.334 202.356 325.179L202.215 374.265C202.215 376.42 203.631 378.576 206.478 380.228L285.048 425.538C288.213 427.156 291.718 428 295.274 428C298.829 428 302.334 427.156 305.5 425.538L383.55 380.18C386.351 378.607 387.751 376.436 387.751 374.296L387.893 325.242C387.861 327.413 386.461 329.568 383.661 331.141Z" fill="url(#paint20_linear)"/>
<path d="M383.598 319.326C389.262 322.598 389.294 327.9 383.598 331.157L305.548 376.53C302.38 378.141 298.876 378.981 295.322 378.981C291.768 378.981 288.264 378.141 285.095 376.53L206.62 331.141C200.957 327.869 200.925 322.567 206.542 319.295L284.608 273.937C287.774 272.319 291.278 271.475 294.834 271.475C298.39 271.475 301.894 272.319 305.06 273.937L383.598 319.326Z" fill="url(#paint21_linear)"/>
<path d="M366.592 320.474C371.155 323.102 371.186 327.381 366.592 330.024L303.535 366.666C300.982 367.968 298.157 368.647 295.291 368.647C292.425 368.647 289.6 367.968 287.047 366.666L223.581 330.024C219.003 327.381 218.987 323.102 223.581 320.474L286.638 283.833C289.194 282.53 292.021 281.851 294.89 281.851C297.758 281.851 300.586 282.53 303.142 283.833L366.592 320.474Z" fill="#324974"/>
<path d="M221.36 184.267V328.889L294.947 370.928L369.731 328.889V184.267H221.36Z" fill="url(#paint22_linear)"/>
<path d="M33.5032 0V113.671L89.1423 144.781L144.183 113.671V0H33.5032Z" fill="url(#paint23_linear)"/>
<path d="M199.215 214.63H218.378C219.131 214.63 219.747 213.99 219.747 213.209C219.747 212.427 219.131 211.788 218.378 211.788H199.215C198.462 211.788 197.846 212.427 197.846 213.209C197.846 213.99 198.462 214.63 199.215 214.63ZM219.966 217.187C219.842 216.534 219.281 216.05 218.624 216.05H198.969C198.312 216.05 197.75 216.534 197.627 217.187L196.258 224.292C196.094 225.173 196.737 225.997 197.6 225.997H197.846V233.101C197.846 233.883 198.462 234.522 199.215 234.522H210.165C210.918 234.522 211.534 233.883 211.534 233.101V225.997H217.009V233.101C217.009 233.883 217.625 234.522 218.378 234.522C219.131 234.522 219.747 233.883 219.747 233.101V225.997H219.993C220.855 225.997 221.499 225.173 221.334 224.292L219.966 217.187ZM208.796 231.68H200.584V225.997H208.796V231.68Z" fill="white" fill-opacity="0.1"/>
<path d="M95.4433 33.3441C110.168 24.8435 122.142 31.6674 122.19 48.5862C122.238 65.5051 110.341 86.107 95.617 94.6132C80.8926 103.119 68.9194 96.2833 68.8715 79.37C68.8236 62.4567 80.72 41.8503 95.4433 33.3441Z" fill="#4164A9"/>
<path d="M106.565 26.9304L114.412 31.4952C109.564 28.6784 102.852 29.0747 95.4423 33.3523L87.5952 28.7875C95.0047 24.5054 101.717 24.1091 106.565 26.9304Z" fill="#99A8C4"/>
<path d="M76.6478 96.4694L68.8008 91.9045C64.0132 89.1211 61.0472 83.2102 61.0238 74.8042C60.976 57.8808 72.8724 37.2834 87.5957 28.7794L95.4427 33.3443C80.7194 41.8493 68.823 62.4468 68.8709 79.3701C68.8943 87.775 71.8614 93.6881 76.6478 96.4694Z" fill="#99A8C4"/>
<path d="M95.4499 41.4875C106.185 35.2895 114.965 40.1954 115.134 52.4177V52.9994C115.034 65.3247 106.388 80.2543 95.7191 86.5046L95.4324 86.6708C84.6775 92.7915 75.9244 87.751 75.8895 75.37C75.8554 62.93 84.6302 47.7329 95.4499 41.4875ZM95.5745 85.5499C105.897 79.5903 114.271 65.0887 114.236 53.2262C114.201 41.3637 105.776 36.5625 95.4524 42.522C85.1287 48.4815 76.7562 62.9823 76.7911 74.8457C76.826 86.709 85.2509 91.511 95.5704 85.5507" fill="white"/>
<path d="M80.1156 65.0388L88.2173 85.6827C82.5935 85.7891 78.7022 81.4084 78.6805 73.7521C78.6714 71.0407 79.16 68.0718 80.1156 65.0388Z" fill="white"/>
<path d="M106.622 43.3149C104.97 44.2688 103.797 46.6021 103.806 48.3836C103.811 49.9774 104.613 50.8648 105.472 51.965C106.116 52.884 106.868 54.108 106.875 56.4986C106.875 58.1547 106.332 60.3957 105.61 63.4918L103.949 70.9071L97.807 53.6235C98.8191 52.9779 99.6866 52.3597 99.7323 52.3273C100.621 51.6933 100.532 50.2674 99.6733 50.7634C99.6201 50.7958 96.8955 52.6148 95.1347 53.631C93.4803 54.5866 90.8387 55.8746 90.7 55.946C89.7859 56.4695 89.7087 58.055 90.5978 57.6004C90.641 57.5822 91.457 57.2282 92.3644 56.7695L95.0084 63.5068L91.3606 78.3291L85.1709 60.9175C86.1855 60.2702 87.0522 59.6529 87.0979 59.6204C87.9853 58.9864 87.8955 57.5614 87.0372 58.0574C86.9848 58.0899 84.2602 59.908 82.4994 60.925C82.1837 61.107 81.8106 61.3131 81.4192 61.5275C84.4106 54.5384 89.5782 48.0837 95.4621 44.6884C99.8437 42.1582 103.84 41.7801 106.846 43.2035C106.768 43.2426 106.697 43.2725 106.622 43.3149Z" fill="white"/>
<path d="M110.382 48.1488C110.382 47.506 110.342 46.8638 110.263 46.226C111.627 48.2867 112.346 51.0695 112.351 54.316C112.371 61.4513 109.022 69.6253 104.027 75.8681L109.121 55.8167C110.071 52.5029 110.382 50.1123 110.382 48.1488Z" fill="white"/>
<path d="M101.035 78.8553C101.066 78.9265 101.107 78.9931 101.156 79.0531C99.4109 80.7698 97.5297 82.2448 95.5695 83.374C93.9591 84.3038 92.3571 84.9628 90.8115 85.3317L95.8146 65.5553L101.035 78.8553Z" fill="white"/>
<path d="M302.445 276.241C317.169 267.741 329.143 274.564 329.191 291.483C329.239 308.402 317.343 329.004 302.618 337.51C287.894 346.017 275.921 339.18 275.873 322.267C275.825 305.354 287.721 284.747 302.445 276.241Z" fill="#4164A9"/>
<path d="M313.566 269.827L321.413 274.392C316.566 271.575 309.853 271.972 302.444 276.249L294.596 271.685C302.006 267.403 308.718 267.006 313.566 269.827Z" fill="#99A8C4"/>
<path d="M283.649 339.366L275.802 334.802C271.014 332.018 268.048 326.107 268.025 317.701C267.977 300.778 279.874 280.18 294.597 271.677L302.444 276.241C287.721 284.746 275.824 305.344 275.872 322.267C275.896 330.672 278.863 336.585 283.649 339.366Z" fill="#99A8C4"/>
<path d="M315.308 288.764C316.911 287.835 318.227 288.589 318.232 290.438L318.28 307.257C318.285 309.106 316.977 311.382 315.375 312.311L291.337 326.258C289.735 327.186 288.419 326.433 288.414 324.583L288.366 307.765C288.361 305.916 289.669 303.64 291.271 302.71L315.308 288.764ZM291.271 304.389C291.055 304.52 290.86 304.683 290.692 304.871L302.439 310.126C302.717 310.25 303.029 310.212 303.339 310.031C303.649 309.85 303.961 309.528 304.239 309.083L315.895 290.254C315.69 290.275 315.492 290.341 315.316 290.447L291.278 304.394L291.271 304.389ZM315.377 310.633L307.343 306.335L305.209 309.784C304.678 310.642 304.012 311.303 303.345 311.69C302.678 312.076 302.01 312.189 301.475 311.948L299.327 310.996L291.293 324.593L315.37 310.629L315.377 310.633ZM289.867 323.736C289.862 323.97 289.918 324.201 290.029 324.406L298.235 310.5L289.831 306.739C289.826 306.799 289.819 306.858 289.82 306.917L289.867 323.736V323.736ZM316.823 308.102L316.775 291.283C316.774 291.228 316.77 291.173 316.763 291.119L308.432 304.572L316.665 308.957C316.763 308.682 316.817 308.393 316.823 308.102Z" fill="#E4EAF1"/>
<defs>
<linearGradient id="paint0_linear" x1="127.362" y1="384.09" x2="127.362" y2="163.704" gradientUnits="userSpaceOnUse">
<stop stop-color="#182642" stop-opacity="0"/>
<stop offset="0.779106" stop-color="#405E99"/>
</linearGradient>
<linearGradient id="paint1_linear" x1="38.318" y1="406.938" x2="38.318" y2="163.492" gradientUnits="userSpaceOnUse">
<stop stop-color="#182642" stop-opacity="0"/>
<stop offset="1" stop-color="#405E99"/>
</linearGradient>
<linearGradient id="paint2_linear" x1="88.5498" y1="155.327" x2="85.5953" y2="24.2472" gradientUnits="userSpaceOnUse">
<stop stop-color="#283C64"/>
<stop offset="1" stop-color="#003286" stop-opacity="0"/>
</linearGradient>
<linearGradient id="paint3_linear" x1="29.3152" y1="115.466" x2="162.851" y2="78.6004" gradientUnits="userSpaceOnUse">
<stop offset="0.21" stop-color="#243658"/>
<stop offset="1" stop-color="#4164A9"/>
</linearGradient>
<linearGradient id="paint4_linear" x1="-24.9979" y1="115.513" x2="106.932" y2="79.5703" gradientUnits="userSpaceOnUse">
<stop offset="0.21" stop-color="#243658"/>
<stop offset="1" stop-color="#4164A9"/>
</linearGradient>
<linearGradient id="paint5_linear" x1="45.3983" y1="125.67" x2="45.3983" y2="156.425" gradientUnits="userSpaceOnUse">
<stop stop-color="#52BACC"/>
<stop offset="1" stop-color="#88D6E3"/>
</linearGradient>
<linearGradient id="paint6_linear" x1="60.5185" y1="134.572" x2="60.5185" y2="165.253" gradientUnits="userSpaceOnUse">
<stop stop-color="#52BACC"/>
<stop offset="1" stop-color="#88D6E3"/>
</linearGradient>
<linearGradient id="paint7_linear" x1="75.6319" y1="143.5" x2="75.6319" y2="174.08" gradientUnits="userSpaceOnUse">
<stop stop-color="#52BACC"/>
<stop offset="1" stop-color="#88D6E3"/>
</linearGradient>
<linearGradient id="paint8_linear" x1="2.48289" y1="67.7463" x2="108.007" y2="121.538" gradientUnits="userSpaceOnUse">
<stop stop-color="#243658"/>
<stop offset="1" stop-color="#405E99"/>
</linearGradient>
<linearGradient id="paint9_linear" x1="58.1759" y1="91.8947" x2="127.833" y2="73.7285" gradientUnits="userSpaceOnUse">
<stop offset="0.21" stop-color="#243658"/>
<stop offset="1" stop-color="#4164A9"/>
</linearGradient>
<linearGradient id="paint10_linear" x1="30.0522" y1="91.9185" x2="98.8612" y2="74.2103" gradientUnits="userSpaceOnUse">
<stop offset="0.21" stop-color="#243658"/>
<stop offset="1" stop-color="#4164A9"/>
</linearGradient>
<linearGradient id="paint11_linear" x1="12.1582" y1="77.4585" x2="103.473" y2="20.8829" gradientUnits="userSpaceOnUse">
<stop offset="0.21" stop-color="#243658"/>
<stop offset="1" stop-color="#4164A9"/>
</linearGradient>
<linearGradient id="paint12_linear" x1="154.357" y1="403.908" x2="154.358" y2="184.754" gradientUnits="userSpaceOnUse">
<stop stop-color="#182642" stop-opacity="0"/>
<stop offset="1" stop-color="#324B7B"/>
</linearGradient>
<linearGradient id="paint13_linear" x1="134.353" y1="402.06" x2="134.353" y2="195.995" gradientUnits="userSpaceOnUse">
<stop stop-color="#182642" stop-opacity="0"/>
<stop offset="1" stop-color="#324B7B"/>
</linearGradient>
<linearGradient id="paint14_linear" x1="114.35" y1="401.397" x2="114.35" y2="208.421" gradientUnits="userSpaceOnUse">
<stop stop-color="#182642" stop-opacity="0"/>
<stop offset="1" stop-color="#324B7B"/>
</linearGradient>
<linearGradient id="paint15_linear" x1="23.6211" y1="403.908" x2="23.6208" y2="184.754" gradientUnits="userSpaceOnUse">
<stop stop-color="#182642" stop-opacity="0"/>
<stop offset="1" stop-color="#3A5589"/>
</linearGradient>
<linearGradient id="paint16_linear" x1="43.6257" y1="402.06" x2="43.6254" y2="195.995" gradientUnits="userSpaceOnUse">
<stop stop-color="#182642" stop-opacity="0"/>
<stop offset="1" stop-color="#3A5589"/>
</linearGradient>
<linearGradient id="paint17_linear" x1="63.6282" y1="401.397" x2="63.6279" y2="208.421" gradientUnits="userSpaceOnUse">
<stop stop-color="#182642" stop-opacity="0"/>
<stop offset="1" stop-color="#3A5589"/>
</linearGradient>
<linearGradient id="paint18_linear" x1="235.93" y1="353.12" x2="344.439" y2="302.004" gradientUnits="userSpaceOnUse">
<stop stop-color="#F2FFF7"/>
<stop offset="1" stop-color="white"/>
</linearGradient>
<linearGradient id="paint19_linear" x1="73513.5" y1="31786.6" x2="98697" y2="15513.1" gradientUnits="userSpaceOnUse">
<stop stop-color="#A3AEEB"/>
<stop offset="0.15" stop-color="#B1BCED"/>
<stop offset="0.72" stop-color="#E0ECF4"/>
<stop offset="1" stop-color="#F2FFF7"/>
</linearGradient>
<linearGradient id="paint20_linear" x1="150.178" y1="303.496" x2="338.979" y2="403.653" gradientUnits="userSpaceOnUse">
<stop offset="0.21" stop-color="#243658"/>
<stop offset="1" stop-color="#405E99"/>
</linearGradient>
<linearGradient id="paint21_linear" x1="294.489" y1="329.434" x2="291.41" y2="192.943" gradientUnits="userSpaceOnUse">
<stop stop-color="#283C64"/>
<stop offset="1" stop-color="#003286" stop-opacity="0"/>
</linearGradient>
<linearGradient id="paint22_linear" x1="285.587" y1="388.3" x2="285.587" y2="201.617" gradientUnits="userSpaceOnUse">
<stop stop-color="#5BC4D6"/>
<stop offset="1" stop-color="#182642" stop-opacity="0"/>
</linearGradient>
<linearGradient id="paint23_linear" x1="78.5852" y1="163.35" x2="78.5852" y2="-23.3326" gradientUnits="userSpaceOnUse">
<stop stop-color="#5BC4D6"/>
<stop offset="1" stop-color="#182642" stop-opacity="0"/>
</linearGradient>
</defs>
</svg>
