<svg width="321" height="437" viewBox="0 0 321 437" fill="none" xmlns="http://www.w3.org/2000/svg">
<g opacity="0.05">
<path d="M320.294 343.939V308.493H308.264C298.96 296.271 287.185 286.147 273.706 278.781C211.374 242.77 110.204 242.77 47.6292 278.781C34.1506 286.147 22.3756 296.271 13.0717 308.493H0.879639V343.939C0.879639 367.516 16.4629 391.173 47.6292 409.178C109.962 445.189 211.131 445.189 273.706 409.178C304.711 391.173 320.294 367.516 320.294 343.939Z" fill="#4164A9"/>
<path d="M160.666 400.709C248.87 400.709 320.373 359.426 320.373 308.502C320.373 257.577 248.87 216.294 160.666 216.294C72.4621 216.294 0.95874 257.577 0.95874 308.502C0.95874 359.426 72.4621 400.709 160.666 400.709Z" fill="#BECEFA"/>
<path d="M160.666 400.709C248.87 400.709 320.373 359.426 320.373 308.502C320.373 257.577 248.87 216.294 160.666 216.294C72.4621 216.294 0.95874 257.577 0.95874 308.502C0.95874 359.426 72.4621 400.709 160.666 400.709Z" fill="#D2E1FF"/>
<path d="M236.637 352.413C194.651 376.635 126.586 376.635 84.6001 352.413C73.2917 346.426 63.913 337.355 57.5518 326.253C46.7324 305.098 73.7001 289.757 102.686 273.124C144.672 248.902 174.466 242.846 216.452 267.069C245.276 283.782 274.586 305.098 263.686 326.172C257.402 337.354 248.005 346.471 236.637 352.413Z" fill="#24126A"/>
<path d="M84.6006 300.097C126.586 275.874 194.652 275.874 236.637 300.097C247.997 306.013 257.394 315.101 263.686 326.257C274.586 305.103 265.543 281.284 236.637 264.651C194.652 240.428 126.586 240.428 84.6006 264.651C55.6951 281.284 46.7329 305.022 57.5523 326.257C63.8669 315.118 73.2576 306.036 84.6006 300.097Z" fill="#4164A9"/>
</g>
<path d="M257.119 304.658C257.119 305.271 256.649 306 255.415 306.81C254.206 307.603 252.391 308.387 250.005 309.144C245.241 310.656 238.321 312.025 229.74 313.178C212.584 315.481 188.867 316.907 162.66 316.907C136.453 316.907 112.737 315.481 95.5811 313.178C86.9995 312.025 80.0797 310.656 75.3155 309.144C72.9299 308.387 71.1144 307.603 69.9054 306.81C68.6715 306 68.2019 305.271 68.2019 304.658C68.2019 304.045 68.6715 303.316 69.9054 302.507C71.1144 301.714 72.9299 300.93 75.3155 300.172C80.0797 298.66 86.9995 297.291 95.5811 296.139C112.737 293.836 136.453 292.409 162.66 292.409C188.867 292.409 212.584 293.836 229.74 296.139C238.321 297.291 245.241 298.66 250.005 300.172C252.391 300.93 254.206 301.714 255.415 302.507C256.649 303.316 257.119 304.045 257.119 304.658Z" fill="#202F4D" stroke="#354668"/>
<path d="M200.518 24.6122C198.57 24.6079 196.641 24.9966 194.846 25.7552C194.889 25.3757 194.91 24.9941 194.908 24.6122C194.911 22.6983 194.407 20.8179 193.446 19.1628C192.485 17.5077 191.102 16.1372 189.438 15.1913C187.774 14.2455 185.89 13.7581 183.976 13.7789C182.062 13.7997 180.188 14.328 178.545 15.3098C178.188 11.043 176.205 7.07651 173.007 4.22915C169.81 1.3818 165.641 -0.129005 161.361 0.00864325C157.082 0.146292 153.018 1.92188 150.01 4.96885C147.002 8.01582 145.278 12.1015 145.196 16.3825C142.548 15.3287 139.701 14.8727 136.857 15.0471C134.014 15.2215 131.243 16.0219 128.745 17.3912C126.246 18.7605 124.081 20.6648 122.404 22.9681C120.727 25.2713 119.579 27.9166 119.043 30.7149C118.507 33.5131 118.596 36.3953 119.303 39.1553C120.01 41.9152 121.319 44.4849 123.134 46.6806C124.95 48.8764 127.228 50.6439 129.806 51.8569C132.384 53.0699 135.198 53.6985 138.047 53.6976H200.518C202.427 53.6976 204.318 53.3214 206.083 52.5906C207.847 51.8598 209.45 50.7885 210.801 49.4381C212.151 48.0877 213.223 46.4846 213.953 44.7201C214.684 42.9557 215.06 41.0647 215.06 39.1549C215.06 37.2451 214.684 35.354 213.953 33.5896C213.223 31.8252 212.151 30.2221 210.801 28.8716C209.45 27.5212 207.847 26.45 206.083 25.7192C204.318 24.9883 202.427 24.6122 200.518 24.6122Z" fill="url(#paint0_linear)"/>
<path d="M206.673 24.6122C204.725 24.6079 202.796 24.9966 201.002 25.7552C201.045 25.3757 201.065 24.9941 201.064 24.6122C201.067 22.6983 200.562 20.8179 199.601 19.1628C198.641 17.5077 197.258 16.1372 195.594 15.1913C193.93 14.2455 192.045 13.7581 190.131 13.7789C188.218 13.7997 186.344 14.328 184.701 15.3098C184.343 11.043 182.361 7.07651 179.163 4.22915C175.965 1.3818 171.796 -0.129005 167.517 0.00864325C163.237 0.146292 159.174 1.92188 156.166 4.96885C153.157 8.01582 151.434 12.1015 151.351 16.3825C148.704 15.3287 145.857 14.8727 143.013 15.0471C140.169 15.2215 137.399 16.0219 134.9 17.3912C132.402 18.7605 130.237 20.6648 128.56 22.9681C126.883 25.2713 125.735 27.9166 125.199 30.7149C124.663 33.5131 124.752 36.3953 125.459 39.1553C126.166 41.9152 127.474 44.4849 129.29 46.6806C131.105 48.8764 133.383 50.6439 135.962 51.8569C138.54 53.0699 141.354 53.6985 144.203 53.6976H206.673C208.583 53.6976 210.474 53.3214 212.238 52.5906C214.003 51.8598 215.606 50.7885 216.956 49.4381C218.307 48.0877 219.378 46.4846 220.109 44.7201C220.84 42.9557 221.216 41.0647 221.216 39.1549C221.216 37.2451 220.84 35.354 220.109 33.5896C219.378 31.8252 218.307 30.2221 216.956 28.8716C215.606 27.5212 214.003 26.45 212.238 25.7192C210.474 24.9883 208.583 24.6122 206.673 24.6122Z" fill="url(#paint1_linear)"/>
<g opacity="0.3">
<path d="M194.125 65.5652C194.021 65.5981 193.92 65.6389 193.822 65.6872C193.048 66.0753 192.578 66.9313 192.555 68.1281C192.533 69.325 193.011 70.6761 193.769 71.8605C194.507 73.0491 195.534 74.0304 196.755 74.712L211.735 82.5749C212.757 83.1099 213.683 83.1696 214.36 82.8238L217.756 81.1218C218.431 80.7834 218.854 80.0494 218.863 78.9968C218.822 77.8314 218.454 76.701 217.801 75.7347C217.16 74.6971 216.264 73.8406 215.198 73.2465C214.834 73.0545 214.442 72.9194 214.036 72.8459C213.793 71.2212 213.198 69.6691 212.295 68.2973C211.175 66.5381 209.62 64.9979 207.893 64.0922C206.534 63.3781 204.817 62.9725 203.449 63.6592L201.117 64.8262C200.02 64.0101 198.445 63.3532 197.218 63.9678L193.819 65.6697C193.918 65.6273 194.021 65.5923 194.125 65.5652Z" fill="url(#paint2_linear)"/>
<path d="M193.769 71.8705C193.01 70.6761 192.545 69.3349 192.555 68.1381C192.575 65.722 194.49 64.7615 196.834 65.9932C197.438 66.3169 197.993 66.7249 198.482 67.205C199.303 65.0054 201.691 64.351 204.498 65.8215C206.223 66.7272 207.778 68.2675 208.9 70.0267C209.804 71.3993 210.398 72.9522 210.642 74.5777C211.048 74.6506 211.44 74.7848 211.806 74.9758C212.87 75.5719 213.766 76.428 214.409 77.464C215.061 78.4299 215.428 79.5593 215.469 80.7237C215.449 82.8287 213.782 83.6648 211.737 82.5948L196.757 74.7319C195.534 74.0478 194.505 73.063 193.769 71.8705Z" fill="url(#paint3_linear)"/>
</g>
<g opacity="0.3">
<path d="M103.87 76.1161C103.974 76.149 104.075 76.1898 104.173 76.2381C104.947 76.6262 105.418 77.4822 105.44 78.679C105.462 79.8759 104.985 81.227 104.226 82.4114C103.489 83.6 102.461 84.5813 101.24 85.263L86.2605 93.1258C85.2378 93.6608 84.3122 93.7205 83.6354 93.3747L80.2389 91.6727C79.5646 91.3343 79.1416 90.6003 79.1316 89.5477C79.173 88.3823 79.5412 87.2519 80.1941 86.2856C80.8355 85.248 81.7314 84.3915 82.7968 83.7974C83.1615 83.6054 83.5533 83.4703 83.9588 83.3968C84.2024 81.7721 84.7968 80.22 85.7006 78.8482C86.8203 77.089 88.3755 75.5488 90.1023 74.6431C91.4609 73.929 93.1778 73.5234 94.5463 74.2101L96.8778 75.3771C97.9752 74.561 99.5502 73.9041 100.777 74.5187L104.176 76.2206C104.077 76.1782 103.974 76.1432 103.87 76.1161Z" fill="url(#paint4_linear)"/>
<path d="M104.226 82.4215C104.984 81.2271 105.45 79.8859 105.44 78.6891C105.42 76.273 103.504 75.3125 101.16 76.5442C100.556 76.8679 100.002 77.2759 99.5128 77.756C98.6917 75.5564 96.3029 74.902 93.4962 76.3725C91.7718 77.2783 90.2167 78.8185 89.0945 80.5777C88.1904 81.9503 87.5961 83.5032 87.3527 85.1287C86.9466 85.2016 86.5539 85.3358 86.1882 85.5268C85.1243 86.123 84.2288 86.979 83.5855 88.0151C82.9339 88.9809 82.5666 90.1103 82.5255 91.2747C82.5454 93.3797 84.2125 94.2158 86.2579 93.1458L101.237 85.283C102.46 84.5989 103.489 83.614 104.226 82.4215Z" fill="url(#paint5_linear)"/>
</g>
<rect width="42.1694" height="57.1726" rx="5" transform="matrix(-0.965926 -0.258819 -0.258819 0.965926 232.12 98.5132)" fill="#273C65"/>
<rect width="24.9963" height="3.40859" rx="1.70429" transform="matrix(-0.866025 -0.5 -0.5 0.866025 221.515 115.626)" fill="#365082"/>
<rect width="24.9963" height="3.40859" rx="1.70429" transform="matrix(-0.866025 -0.5 -0.5 0.866025 218.862 120.218)" fill="#365082"/>
<rect width="24.9963" height="3.40859" rx="1.70429" transform="matrix(-0.866025 -0.5 -0.5 0.866025 216.212 124.81)" fill="#365082"/>
<rect width="42.1694" height="52.44" rx="5" transform="matrix(-0.977606 0.210445 0.210445 0.977606 198.879 81.161)" fill="url(#paint6_linear)"/>
<rect width="42.1694" height="57.1726" rx="5" transform="matrix(-0.977606 0.210445 0.210445 0.977606 195.091 77.3735)" fill="url(#paint7_linear)"/>
<rect width="24.9963" height="3.40859" rx="1.70429" transform="matrix(-0.977369 0.211542 0.211542 0.977369 189.389 100.476)" fill="#6EBDDD"/>
<rect width="24.9963" height="3.40859" rx="1.70429" transform="matrix(-0.977369 0.211542 0.211542 0.977369 190.508 105.658)" fill="#6EBDDD"/>
<rect width="24.9963" height="3.40859" rx="1.70429" transform="matrix(-0.977369 0.211542 0.211542 0.977369 191.631 110.841)" fill="#6EBDDD"/>
<rect x="105.509" y="80.9279" width="42.1694" height="57.1726" rx="5" transform="rotate(-15 105.509 80.9279)" fill="#273C65"/>
<rect x="116.113" y="98.0405" width="24.9963" height="3.40859" rx="1.70429" transform="rotate(-30 116.113 98.0405)" fill="#365082"/>
<rect x="118.767" y="102.632" width="24.9963" height="3.40859" rx="1.70429" transform="rotate(-30 118.767 102.632)" fill="#365082"/>
<rect x="121.417" y="107.224" width="24.9963" height="3.40859" rx="1.70429" transform="rotate(-30 121.417 107.224)" fill="#365082"/>
<rect x="138.748" y="63.5758" width="42.1694" height="52.44" rx="5" transform="rotate(12.1484 138.748 63.5758)" fill="url(#paint8_linear)"/>
<rect x="142.536" y="59.7883" width="42.1694" height="57.1726" rx="5" transform="rotate(12.1484 142.536 59.7883)" fill="url(#paint9_linear)"/>
<rect x="148.239" y="82.8909" width="24.9963" height="3.40859" rx="1.70429" transform="rotate(12.2127 148.239 82.8909)" fill="#5C80C7"/>
<rect x="147.119" y="88.0723" width="24.9963" height="3.40859" rx="1.70429" transform="rotate(12.2127 147.119 88.0723)" fill="#5C80C7"/>
<rect x="145.996" y="93.255" width="24.9963" height="3.40859" rx="1.70429" transform="rotate(12.2127 145.996 93.255)" fill="#5C80C7"/>
<path d="M292.32 350.233C292.213 350.235 292.107 350.213 292.009 350.169C291.912 350.126 291.824 350.061 291.754 349.981C291.688 349.906 291.636 349.82 291.603 349.725C291.57 349.631 291.556 349.532 291.562 349.432C291.568 349.332 291.593 349.235 291.636 349.145C291.68 349.055 291.74 348.975 291.815 348.909C309.864 332.73 318.348 313.942 316.336 294.639C314.04 272.586 297.811 251.806 270.631 236.113C268.841 235.101 266.98 234.09 265.11 233.079C264.94 232.981 264.813 232.822 264.755 232.635C264.697 232.447 264.711 232.245 264.796 232.068C264.842 231.981 264.904 231.904 264.98 231.841C265.056 231.778 265.143 231.731 265.237 231.702C265.331 231.673 265.429 231.662 265.527 231.671C265.625 231.68 265.72 231.709 265.807 231.754C267.688 232.766 269.569 233.777 271.379 234.788C298.984 250.724 315.486 271.928 317.842 294.447C319.865 314.246 311.249 333.458 292.816 350.001C292.685 350.137 292.509 350.22 292.32 350.233Z" fill="#243555"/>
<path d="M158.906 392.248C116.962 392.248 76.8591 382.743 46.7667 365.371C16.6742 347.999 0 324.783 0 300.11C0 275.438 16.6034 252.231 46.7464 234.829C89.7414 210.005 152.242 201.552 209.879 212.755C210.074 212.797 210.246 212.913 210.358 213.079C210.469 213.245 210.511 213.448 210.475 213.645C210.457 213.743 210.42 213.837 210.365 213.92C210.31 214.004 210.239 214.075 210.156 214.131C210.073 214.187 209.98 214.225 209.882 214.244C209.784 214.263 209.683 214.262 209.585 214.242C152.303 203.119 90.1964 211.491 47.5048 236.144C17.8472 253.233 1.51676 275.954 1.51676 300.11C1.51676 324.267 17.8472 346.968 47.5048 364.087C81.5813 383.765 128.631 393.27 176.611 390.196C176.711 390.189 176.811 390.202 176.905 390.234C177 390.265 177.087 390.316 177.163 390.382C177.238 390.447 177.299 390.527 177.343 390.617C177.388 390.706 177.414 390.804 177.42 390.903C177.431 391.104 177.363 391.301 177.231 391.452C177.099 391.603 176.913 391.697 176.712 391.712C170.746 392.076 164.811 392.255 158.906 392.248Z" fill="#243555"/>
<path d="M208.503 196.596V165.867C208.503 165.867 163.254 162.045 160.635 162.045C158.016 162.045 111.279 166.089 111.279 166.089V196.748C111.277 197.005 111.34 197.259 111.461 197.486C111.7 197.909 112.05 198.258 112.473 198.497C113.756 199.165 115.228 199.379 116.649 199.104C145.244 194.19 174.464 194.149 203.073 198.983C205.298 199.367 207.634 198.639 208.291 197.355C208.432 197.127 208.506 196.864 208.503 196.596Z" fill="#7CD8E8"/>
<path d="M112.523 167.778C112.1 167.539 111.751 167.19 111.512 166.767C110.844 165.483 112.098 164.128 114.323 163.733C144.504 158.546 175.346 158.505 205.54 163.612C207.765 163.986 209.039 165.341 208.382 166.645C207.725 167.95 205.348 168.668 203.164 168.273C174.555 163.44 145.335 163.481 116.739 168.395C115.305 168.676 113.817 168.458 112.523 167.778Z" fill="url(#paint10_linear)"/>
<path d="M313.14 257.166V232.524L283.553 196.455L265.463 188.366V219.217C265.512 219.572 265.65 219.91 265.864 220.198C266.078 220.486 266.361 220.715 266.687 220.865C292.34 235.679 307.133 255.022 310.096 275.003C312.534 271.821 314.6 268.371 316.254 264.72C315.38 262.137 314.34 259.614 313.14 257.166Z" fill="#7CD8E8"/>
<path d="M319.165 280.897V250.279L313.21 260.674L306.132 277.702L296.495 292.02L291.561 294.811V325.49C291.597 325.86 291.73 326.213 291.947 326.515C292.163 326.817 292.456 327.056 292.794 327.209C293.09 327.375 293.401 327.511 293.724 327.613C295.747 328.261 298.315 327.836 299.438 326.663C312.724 312.78 319.509 296.884 319.145 280.968L319.165 280.897Z" fill="url(#paint11_linear)"/>
<path d="M292.795 296.48C291.501 295.731 291.157 294.559 292.087 293.588C324.313 259.916 313.868 217.376 266.697 190.145C265.059 189.195 265.059 187.658 266.697 186.717C267.616 186.248 268.633 186.004 269.665 186.004C270.696 186.004 271.713 186.248 272.632 186.717C297.497 201.076 313.079 219.267 317.771 239.298C322.281 258.733 315.749 278.825 299.439 295.924C298.316 297.097 295.758 297.521 293.725 296.874C293.403 296.775 293.091 296.643 292.795 296.48Z" fill="url(#paint12_linear)"/>
<path d="M317.77 239.339C313.109 219.267 297.496 201.076 272.632 186.758C271.669 186.244 270.587 186 269.497 186.05C270.474 186.057 271.435 186.3 272.298 186.758C297.163 201.116 312.745 219.307 317.427 239.339C321.936 258.773 315.404 278.865 299.094 295.964C298.183 296.758 297.017 297.2 295.808 297.208C297.131 297.266 298.428 296.822 299.438 295.964C315.768 278.875 322.28 258.773 317.77 239.339Z" fill="white"/>
<path d="M100.896 200.722V170.084L81.8456 175.383L66.314 180.337C66.314 180.337 55.7675 186.526 55.272 186.718C54.7765 186.91 46.4141 191.662 46.4141 191.662L34.0374 198.427L25.6548 206.618C25.6548 206.618 18.5766 216.143 18.3238 216.234C18.071 216.325 3.15625 237.812 3.15625 237.812V268.572C3.21023 268.924 3.35006 269.258 3.56342 269.544C3.77678 269.83 4.05713 270.058 4.37977 270.21C5.09849 270.598 5.8911 270.828 6.70546 270.888C8.99071 271.09 11.1445 270.19 11.4984 268.865C16.4329 250.583 31.0545 233.99 53.7755 220.875C67.7929 212.954 82.8119 206.955 98.4288 203.038C100.057 202.644 100.987 201.693 100.896 200.722Z" fill="url(#paint13_linear)"/>
<path d="M4.43006 239.44C3.52 238.904 3.03464 238.146 3.24699 237.347C8.46463 218.054 23.8951 200.53 47.8902 186.667C62.6745 178.321 78.5129 171.999 94.9804 167.869C97.0938 167.323 99.5812 167.869 100.532 169.083C101.482 170.296 100.532 171.742 98.4285 172.288C82.8301 176.203 67.8283 182.195 53.8258 190.105C31.1047 203.25 16.4832 219.813 11.5487 238.095C11.1948 239.42 9.04099 240.32 6.75575 240.118C5.94139 240.058 5.14878 239.828 4.43006 239.44Z" fill="url(#paint14_linear)"/>
<path d="M3.75167 237.883C8.9592 218.59 24.42 201.066 48.3847 187.213C63.1694 178.865 79.0075 172.54 95.475 168.405C96.3249 168.175 97.2133 168.125 98.0838 168.257C98.9543 168.389 99.7877 168.702 100.531 169.174V169.123C99.5803 167.91 97.0928 167.364 94.9795 167.91C78.512 172.039 62.6736 178.362 47.8893 186.707C23.8942 200.571 8.45361 218.054 3.24608 237.387C3.17511 237.738 3.21371 238.101 3.35664 238.429C3.49957 238.756 3.73988 239.032 4.0449 239.218C3.89429 239.034 3.78921 238.817 3.73825 238.585C3.68729 238.353 3.69189 238.113 3.75167 237.883Z" fill="#68D2E4"/>
<path d="M177.106 371.216V340.476L155.234 341.376L133.231 338.14L115.232 335.784L102.471 333.378L82.4705 328.322L60.3157 319.949L48.6873 311.658L29.748 298.897L23.4586 291.404L12.2851 274.689L7.4315 259.097L2.03185 260.108V290.929C2.02682 291.01 2.02682 291.091 2.03185 291.172C5.55073 312.295 21.8205 332.205 47.848 347.231C80.9032 366.312 126.608 375.999 173.233 373.794C175.559 373.663 177.258 372.52 177.106 371.216Z" fill="url(#paint15_linear)"/>
<path d="M47.8898 316.471C21.8623 301.445 5.59256 281.535 2.07368 260.412C1.86134 259.077 3.54999 257.894 5.85546 257.772C8.16093 257.651 10.2136 258.612 10.4361 259.946C13.7628 279.947 29.1731 298.806 53.8355 313.043C85.1818 331.113 128.43 340.284 172.598 338.201C174.913 338.09 176.935 339.091 177.128 340.426C177.32 341.76 175.591 342.923 173.285 343.034C126.65 345.239 80.945 335.552 47.8898 316.471Z" fill="url(#paint16_linear)"/>
<path d="M173.871 342.579C127.236 344.784 81.5311 335.096 48.486 316.016C22.4484 300.939 6.2191 281.039 2.66989 259.916C2.63726 259.674 2.66039 259.428 2.73751 259.197C2.81463 258.966 2.94369 258.755 3.1148 258.581C2.78667 258.755 2.51629 259.021 2.33671 259.346C2.15714 259.671 2.07614 260.041 2.10363 260.411C5.62251 281.535 21.8922 301.445 47.9198 316.471C80.975 335.552 126.68 345.239 173.305 343.034C174.556 343.045 175.764 342.579 176.682 341.73C175.836 342.254 174.866 342.547 173.871 342.579Z" fill="#68D2E4"/>
<circle cx="76.1986" cy="172.915" r="11.1344" fill="#6FB4CA"/>
<path d="M72.978 127.49H253.223L240.898 300.452C240.711 303.069 238.534 305.097 235.91 305.097H89.8658C87.2376 305.097 85.058 303.062 84.8776 300.44L72.978 127.49Z" fill="url(#paint17_linear)"/>
<path d="M94.0798 127.49H230.363L221.048 300.366C220.905 303.019 218.712 305.097 216.055 305.097H108.066C105.406 305.097 103.211 303.014 103.073 300.357L94.0798 127.49Z" fill="url(#paint18_linear)" fill-opacity="0.2"/>
<rect x="58.0308" y="109.026" width="211.898" height="28.1358" rx="6" fill="#48A2B1"/>
<rect x="58.03" y="102.871" width="211.898" height="29.8943" rx="6" fill="#5BC4D6"/>
<path d="M76.4944 178.487C89.5132 211.662 124.797 258.106 161.781 178.487" stroke="url(#paint19_linear)" stroke-width="8" stroke-linecap="round"/>
<circle cx="161.803" cy="172.036" r="11.1344" fill="#6FB4CA"/>
<defs>
<linearGradient id="paint0_linear" x1="87.0452" y1="60.6679" x2="253.401" y2="-67.6967" gradientUnits="userSpaceOnUse">
<stop offset="0.218763" stop-color="#B1C9FA"/>
<stop offset="1" stop-color="#33518D"/>
</linearGradient>
<linearGradient id="paint1_linear" x1="93.2007" y1="60.6679" x2="256.274" y2="-6.16996" gradientUnits="userSpaceOnUse">
<stop stop-color="#6B8ED1"/>
<stop offset="1" stop-color="#33518D"/>
</linearGradient>
<linearGradient id="paint2_linear" x1="177.127" y1="51.1132" x2="227.639" y2="80.4746" gradientUnits="userSpaceOnUse">
<stop stop-color="#212E47"/>
<stop offset="1" stop-color="#43A0B0"/>
</linearGradient>
<linearGradient id="paint3_linear" x1="188.821" y1="74.0051" x2="217.685" y2="67.038" gradientUnits="userSpaceOnUse">
<stop stop-color="#1D6572"/>
<stop offset="1" stop-color="#5BC4D6"/>
</linearGradient>
<linearGradient id="paint4_linear" x1="120.868" y1="61.6641" x2="70.3563" y2="91.0255" gradientUnits="userSpaceOnUse">
<stop stop-color="#212E47"/>
<stop offset="1" stop-color="#43A0B0"/>
</linearGradient>
<linearGradient id="paint5_linear" x1="109.173" y1="84.5562" x2="80.3096" y2="77.589" gradientUnits="userSpaceOnUse">
<stop stop-color="#1D6572"/>
<stop offset="1" stop-color="#5BC4D6"/>
</linearGradient>
<linearGradient id="paint6_linear" x1="21.0847" y1="1.05449e-07" x2="25.4848" y2="77.8802" gradientUnits="userSpaceOnUse">
<stop stop-color="#304F8D"/>
<stop offset="1" stop-color="#4164A9"/>
</linearGradient>
<linearGradient id="paint7_linear" x1="21.0847" y1="0" x2="21.0847" y2="57.1726" gradientUnits="userSpaceOnUse">
<stop stop-color="#59B0C9"/>
<stop offset="1" stop-color="#4C71B9"/>
</linearGradient>
<linearGradient id="paint8_linear" x1="159.832" y1="63.5758" x2="164.232" y2="141.456" gradientUnits="userSpaceOnUse">
<stop stop-color="#304F8D"/>
<stop offset="1" stop-color="#4164A9"/>
</linearGradient>
<linearGradient id="paint9_linear" x1="163.621" y1="59.7883" x2="163.621" y2="116.961" gradientUnits="userSpaceOnUse">
<stop stop-color="#4164A9"/>
<stop offset="1" stop-color="#4C71B9"/>
</linearGradient>
<linearGradient id="paint10_linear" x1="29509.4" y1="1770.88" x2="34672.9" y2="1770.88" gradientUnits="userSpaceOnUse">
<stop stop-color="#55BDCF"/>
<stop offset="0.29" stop-color="#7EDEEF"/>
<stop offset="0.64" stop-color="#ABE2EB"/>
<stop offset="1" stop-color="white"/>
</linearGradient>
<linearGradient id="paint11_linear" x1="283.824" y1="233.907" x2="319.404" y2="237.624" gradientUnits="userSpaceOnUse">
<stop offset="0.21" stop-color="#243658"/>
<stop offset="1" stop-color="#405E99"/>
</linearGradient>
<linearGradient id="paint12_linear" x1="16501.8" y1="20767.4" x2="19353.6" y2="20767.4" gradientUnits="userSpaceOnUse">
<stop stop-color="#55BDCF"/>
<stop offset="0.29" stop-color="#7EDEEF"/>
<stop offset="0.64" stop-color="#ABE2EB"/>
<stop offset="1" stop-color="white"/>
</linearGradient>
<linearGradient id="paint13_linear" x1="-24.2372" y1="148.821" x2="93.569" y2="182.369" gradientUnits="userSpaceOnUse">
<stop offset="0.21" stop-color="#243658"/>
<stop offset="1" stop-color="#405E99"/>
</linearGradient>
<linearGradient id="paint14_linear" x1="29546.7" y1="13587.4" x2="34735.7" y2="13587.4" gradientUnits="userSpaceOnUse">
<stop stop-color="#55BDCF"/>
<stop offset="0.29" stop-color="#7EDEEF"/>
<stop offset="0.64" stop-color="#ABE2EB"/>
<stop offset="1" stop-color="white"/>
</linearGradient>
<linearGradient id="paint15_linear" x1="-47.0404" y1="234.845" x2="143.068" y2="319.868" gradientUnits="userSpaceOnUse">
<stop offset="0.21" stop-color="#243658"/>
<stop offset="1" stop-color="#405E99"/>
</linearGradient>
<linearGradient id="paint16_linear" x1="52944.7" y1="16101.3" x2="62243.6" y2="16101.3" gradientUnits="userSpaceOnUse">
<stop stop-color="#55BDCF"/>
<stop offset="0.29" stop-color="#7EDEEF"/>
<stop offset="0.64" stop-color="#ABE2EB"/>
<stop offset="1" stop-color="white"/>
</linearGradient>
<linearGradient id="paint17_linear" x1="151.002" y1="305.097" x2="151.002" y2="-39.5669" gradientUnits="userSpaceOnUse">
<stop stop-color="#5BC4D6"/>
<stop offset="1" stop-color="#182642" stop-opacity="0.96"/>
</linearGradient>
<linearGradient id="paint18_linear" x1="153.074" y1="284.874" x2="153.074" y2="-21.982" gradientUnits="userSpaceOnUse">
<stop stop-color="#5BC4D6"/>
<stop offset="1" stop-color="#6A80AB"/>
</linearGradient>
<linearGradient id="paint19_linear" x1="201.887" y1="187.932" x2="-24.7045" y2="187.932" gradientUnits="userSpaceOnUse">
<stop stop-color="#3F8097"/>
<stop offset="1" stop-color="#5BC4D6"/>
</linearGradient>
</defs>
</svg>
