<svg width="578" height="355" viewBox="0 0 578 355" fill="none" xmlns="http://www.w3.org/2000/svg">
<path d="M1.86011 181.573L45.7124 206.927C48.1945 208.358 52.2111 208.358 54.6931 206.927L98.5454 181.577C101.028 180.142 101.024 177.821 98.5454 176.386L54.7276 151.075C52.2494 149.644 48.229 149.64 45.7469 151.075L1.86011 176.394C-0.618118 177.817 -0.621954 180.138 1.86011 181.573Z" fill="url(#paint0_linear)"/>
<path d="M387.857 303.459L416.245 320.07C417.852 321.008 420.452 321.008 422.059 320.07L450.448 303.462C452.055 302.522 452.052 301.001 450.448 300.061L422.082 283.478C420.477 282.54 417.875 282.537 416.268 283.478L387.857 300.066C386.252 300.999 386.25 302.519 387.857 303.459Z" fill="url(#paint1_linear)"/>
<path d="M350.741 128.48L368.211 118.426C369.2 117.858 370.8 117.858 371.789 118.426L389.259 128.478C390.248 129.047 390.246 129.968 389.259 130.536L371.803 140.574C370.815 141.141 369.214 141.143 368.225 140.574L350.741 130.533C349.754 129.969 349.752 129.049 350.741 128.48Z" fill="url(#paint2_linear)"/>
<path d="M399.55 265.906C399.526 265.911 399.501 265.911 399.476 265.906L370.094 248.923C370.074 248.915 370.056 248.903 370.042 248.888C370.027 248.873 370.015 248.854 370.008 248.834C370.001 248.814 369.999 248.793 370.001 248.771C370.003 248.75 370.009 248.73 370.02 248.711C370.031 248.693 370.046 248.677 370.063 248.665C370.081 248.653 370.101 248.645 370.122 248.641C370.143 248.637 370.164 248.638 370.185 248.644C370.206 248.65 370.225 248.66 370.241 248.673L399.55 265.593L469.093 225.442C469.115 225.427 469.14 225.419 469.166 225.419C469.193 225.419 469.218 225.427 469.24 225.442L515.581 252.196L546.152 234.543C546.186 234.525 546.225 234.521 546.262 234.531C546.299 234.541 546.331 234.564 546.352 234.596C546.371 234.63 546.375 234.67 546.365 234.707C546.355 234.745 546.331 234.777 546.299 234.797L515.659 252.49C515.636 252.502 515.611 252.508 515.586 252.508C515.56 252.508 515.535 252.502 515.512 252.49L469.176 225.735L399.623 265.887C399.6 265.898 399.575 265.904 399.55 265.906Z" fill="#6587C9"/>
<path d="M577.066 286.461C577.041 286.465 577.016 286.465 576.992 286.461L537.032 263.386L517.656 274.517C517.635 274.531 517.61 274.539 517.585 274.539C517.559 274.539 517.535 274.531 517.514 274.517L420.345 218.4C420.323 218.387 420.304 218.369 420.291 218.346C420.278 218.324 420.271 218.299 420.271 218.273C420.271 218.247 420.278 218.222 420.291 218.199C420.304 218.177 420.323 218.159 420.345 218.146L464.631 192.629C464.665 192.61 464.705 192.604 464.742 192.614C464.78 192.624 464.812 192.649 464.832 192.683C464.851 192.717 464.856 192.757 464.846 192.794C464.836 192.832 464.811 192.864 464.778 192.883L420.707 218.273L517.587 274.209L536.958 263.073C536.981 263.061 537.006 263.054 537.032 263.054C537.057 263.054 537.082 263.061 537.105 263.073L577.139 286.187C577.167 286.203 577.189 286.228 577.201 286.258C577.214 286.288 577.216 286.321 577.207 286.352C577.199 286.383 577.181 286.411 577.155 286.43C577.129 286.45 577.098 286.461 577.066 286.461Z" fill="#6587C9"/>
<path d="M487.046 305.768C487.022 305.774 486.997 305.774 486.973 305.768L457.312 288.642C457.289 288.629 457.271 288.611 457.258 288.589C457.245 288.566 457.238 288.541 457.238 288.515C457.238 288.489 457.245 288.464 457.258 288.442C457.271 288.419 457.289 288.401 457.312 288.388L494.205 267.089C494.238 267.07 494.278 267.064 494.316 267.074C494.354 267.084 494.386 267.109 494.405 267.143C494.425 267.177 494.43 267.217 494.42 267.254C494.41 267.292 494.385 267.324 494.351 267.343L457.654 288.515L487.1 305.513C487.117 305.523 487.131 305.536 487.143 305.551C487.155 305.566 487.163 305.584 487.168 305.603C487.172 305.622 487.173 305.641 487.17 305.66C487.167 305.679 487.159 305.698 487.149 305.714C487.137 305.729 487.121 305.742 487.103 305.752C487.086 305.761 487.066 305.766 487.046 305.768Z" fill="#6587C9"/>
<path d="M497.457 295.303C497.433 295.309 497.408 295.309 497.384 295.303L370.094 221.781C370.074 221.774 370.056 221.762 370.042 221.747C370.027 221.731 370.015 221.713 370.008 221.693C370.001 221.673 369.999 221.651 370.001 221.63C370.003 221.609 370.009 221.588 370.02 221.57C370.031 221.552 370.046 221.536 370.063 221.524C370.081 221.511 370.101 221.503 370.122 221.5C370.143 221.496 370.164 221.497 370.185 221.503C370.206 221.508 370.225 221.518 370.241 221.532L497.555 295.024C497.572 295.033 497.586 295.045 497.598 295.06C497.61 295.075 497.618 295.092 497.623 295.11C497.628 295.128 497.63 295.148 497.627 295.166C497.625 295.185 497.619 295.203 497.609 295.219C497.596 295.248 497.574 295.271 497.547 295.286C497.519 295.301 497.488 295.307 497.457 295.303Z" fill="#6587C9"/>
<path d="M433.575 274.899C433.551 274.906 433.525 274.906 433.501 274.899L391.422 250.615C391.4 250.603 391.382 250.586 391.369 250.564C391.356 250.543 391.349 250.518 391.349 250.493C391.349 250.467 391.356 250.442 391.369 250.42C391.381 250.397 391.4 250.379 391.422 250.366L428.315 229.067C428.332 229.057 428.35 229.051 428.369 229.048C428.388 229.046 428.408 229.047 428.426 229.052C428.445 229.057 428.463 229.066 428.478 229.078C428.493 229.089 428.506 229.104 428.516 229.121C428.525 229.137 428.531 229.155 428.534 229.174C428.536 229.193 428.535 229.212 428.53 229.23C428.525 229.248 428.516 229.265 428.505 229.28C428.493 229.295 428.478 229.307 428.462 229.316L391.765 250.493L433.536 274.605L533.762 216.742C533.779 216.732 533.797 216.726 533.816 216.723C533.834 216.721 533.853 216.722 533.872 216.727C533.89 216.732 533.907 216.741 533.922 216.753C533.937 216.764 533.949 216.779 533.958 216.795C533.968 216.812 533.974 216.831 533.977 216.85C533.979 216.869 533.978 216.888 533.973 216.907C533.968 216.925 533.959 216.943 533.947 216.958C533.936 216.974 533.921 216.986 533.904 216.996L433.648 274.879C433.626 274.893 433.601 274.899 433.575 274.899Z" fill="#6587C9"/>
<path d="M493.562 288.237C493.161 288.251 492.764 288.164 492.407 287.983L413.885 242.65C413.813 242.614 413.751 242.563 413.703 242.499C413.654 242.435 413.621 242.361 413.606 242.283C413.606 242.102 413.89 241.901 414.13 241.764L430.448 232.34C430.947 232.073 431.506 231.936 432.072 231.944C432.472 231.929 432.87 232.017 433.227 232.198L511.744 277.531C511.827 277.58 512.023 277.708 512.023 277.85C512.023 277.991 511.91 278.182 511.499 278.422L495.181 287.841C494.683 288.106 494.126 288.242 493.562 288.237ZM413.91 242.283C413.939 242.332 413.981 242.373 414.032 242.4L492.549 287.728C492.948 287.89 493.379 287.961 493.809 287.937C494.24 287.914 494.66 287.796 495.039 287.591L511.357 278.177C511.5 278.106 511.624 278.002 511.719 277.874C511.683 277.843 511.644 277.817 511.602 277.796L433.085 232.453C432.771 232.295 432.423 232.219 432.072 232.233C431.561 232.228 431.056 232.351 430.604 232.59L414.277 242.014C414.14 242.083 414.017 242.174 413.91 242.283Z" fill="#6587C9"/>
<path style="mix-blend-mode:lighten" opacity="0.2" d="M461.515 148.701C465.018 150.789 468.156 153.434 470.808 156.532C474.704 144.023 486.612 140.143 500.638 148.258C512.269 154.975 522.4 168.179 527.765 182.166C529.837 182.298 531.844 182.935 533.613 184.023C541.206 188.4 547.354 199.036 547.354 207.823C547.354 208.005 547.354 208.179 547.354 208.361C549.861 208.604 552.279 209.415 554.426 210.731C564.13 216.334 572 229.965 572 241.17C572 252.375 564.098 256.918 554.426 251.316L461.515 197.685C449.797 190.921 440.298 174.469 440.298 160.941C440.298 147.413 449.797 141.937 461.515 148.701Z" fill="#B1C0DD"/>
<path style="mix-blend-mode:lighten" opacity="0.4" d="M453.478 153.702C456.98 155.793 460.119 158.44 462.77 161.541C466.666 149.024 478.574 145.144 492.6 153.259C504.232 159.976 514.362 173.18 519.728 187.175C521.802 187.301 523.813 187.936 525.583 189.024C533.169 193.409 539.317 204.038 539.317 212.825C539.317 213.014 539.317 213.188 539.317 213.37C541.823 213.616 544.241 214.426 546.389 215.74C556.1 221.351 563.963 234.974 563.963 246.179C563.963 257.384 556.1 261.935 546.389 256.325L453.478 202.686C441.759 195.922 432.261 179.478 432.261 165.95C432.261 152.422 441.759 146.938 453.478 153.702Z" fill="#B1C0DD"/>
<g style="mix-blend-mode:lighten" opacity="0.6">
<path d="M443.996 159.938C447.501 162.027 450.64 164.675 453.289 167.777C457.185 155.26 469.093 151.38 483.119 159.496C494.751 166.212 504.881 179.417 510.246 193.411C512.321 193.537 514.332 194.172 516.102 195.26C523.688 199.646 529.835 210.274 529.835 219.061C529.835 219.251 529.835 219.424 529.835 219.606C532.342 219.852 534.759 220.663 536.908 221.977C546.619 227.587 554.482 241.21 554.482 252.415C554.482 263.62 546.619 268.172 536.908 262.561L443.996 208.923C432.278 202.159 422.78 185.715 422.78 172.186C422.78 158.658 432.278 153.174 443.996 159.938Z" fill="#B1C0DD"/>
</g>
<path d="M392.42 180.246L418.196 165.232C422.044 162.94 427.394 163.225 433.313 166.646C435.307 167.814 437.176 169.183 438.891 170.732L449.259 164.774C454.964 160.759 463.229 160.941 472.419 166.243C484.051 172.96 494.181 186.164 499.547 200.159C501.619 200.283 503.627 200.919 505.394 202.008C512.988 206.385 519.136 217.021 519.136 225.808C519.136 225.998 519.136 226.164 519.136 226.354C521.643 226.597 524.061 227.408 526.208 228.724C535.912 234.327 543.782 247.958 543.782 259.163C543.782 264.694 541.846 268.645 538.717 270.486L538.638 270.534L513.194 285.302L507.662 258.57L433.384 215.662C423.901 210.178 415.849 198.333 413.139 186.836L392.42 180.246Z" fill="#B1C0DD"/>
<path d="M407.781 181.494C411.287 183.584 414.428 186.232 417.082 189.333C420.97 176.816 432.886 172.936 446.912 181.051C458.535 187.768 468.674 200.972 474.031 214.967C476.105 215.093 478.116 215.728 479.887 216.816C487.473 221.193 493.628 231.83 493.628 240.617C493.628 240.798 493.628 240.972 493.628 241.162C496.136 241.402 498.555 242.213 500.7 243.532C510.404 249.135 518.274 262.766 518.274 273.971C518.274 285.176 510.372 289.719 500.7 284.117L407.781 230.486C396.07 223.722 386.572 207.27 386.572 193.742C386.572 180.214 396.07 174.738 407.781 181.494Z" fill="#294B8C"/>
<g style="mix-blend-mode:overlay">
<path d="M94.8903 250.007L87.7422 254.187V245.827L94.8903 241.647V250.007ZM109.124 241.793L101.976 245.973V237.613L109.124 233.433V241.793ZM80.6359 258.242L73.4878 262.422V254.062L80.6359 249.882V258.242ZM66.4024 266.456L59.2543 270.636V262.276L66.4024 258.096V266.456ZM52.148 266.456V274.816L45 278.997V270.741L52.148 266.456ZM109.124 208.812L59.2543 237.613V229.252L109.124 200.451V208.812ZM73.4878 237.613L109.124 217.046V225.407L73.4878 245.973V237.613Z" fill="#BEC8D7"/>
</g>
<path d="M332.757 349.582L120.176 349.59L120.176 155.852C120.216 155.301 142.644 165.167 143.015 164.713C143.386 164.259 143.897 163.899 144.492 163.672L207.302 132.999C208.866 132.321 210.598 131.968 212.355 131.968C214.112 131.968 215.844 132.321 217.407 132.999L279.83 163.672C280.423 163.897 280.931 164.258 281.296 164.713C281.662 165.168 332.728 152.649 332.757 153.199L332.757 349.582Z" fill="url(#paint3_linear)"/>
<path d="M124.914 146.251C118.423 149.984 118.387 156.06 124.914 159.811L214.366 211.794C217.994 213.649 222.011 214.616 226.086 214.616C230.161 214.616 234.178 213.649 237.806 211.794L327.745 159.738C334.236 155.988 334.272 149.912 327.835 146.179L238.365 94.1777C234.736 92.3271 230.719 91.3623 226.645 91.3623C222.571 91.3623 218.555 92.3271 214.925 94.1777L124.914 146.251Z" fill="#A0B2D4"/>
<path d="M148.667 354.997L76.4439 355L76.4439 289.178C76.4575 288.991 84.077 292.343 84.2031 292.189C84.3292 292.034 84.5028 291.912 84.7051 291.835L106.044 281.414C106.576 281.184 107.164 281.064 107.761 281.064C108.358 281.064 108.946 281.184 109.478 281.414L130.685 291.835C130.887 291.912 131.059 292.034 131.183 292.189C131.308 292.343 148.657 288.09 148.667 288.277L148.667 354.997Z" fill="url(#paint4_linear)"/>
<path d="M78.0545 285.916C75.8492 287.184 75.8369 289.248 78.0545 290.522L108.445 308.183C109.678 308.814 111.043 309.142 112.427 309.142C113.811 309.142 115.176 308.814 116.409 308.183L146.965 290.498C149.17 289.224 149.183 287.159 146.996 285.891L116.599 268.224C115.366 267.595 114.001 267.268 112.617 267.268C111.233 267.268 109.868 267.595 108.635 268.224L78.0545 285.916Z" fill="#A0B2D4"/>
<path opacity="0.5" d="M295.938 158.784L226.067 199.122V187.46L295.938 147.121V158.784Z" fill="url(#paint5_linear)"/>
<path opacity="0.5" d="M226.064 199.122L156.171 158.784L156.192 147.121L226.064 187.46V199.122Z" fill="url(#paint6_linear)"/>
<path opacity="0.8" d="M226.067 106.777L295.938 147.116L226.067 187.455L156.195 147.116L226.067 106.777Z" fill="url(#paint7_linear)"/>
<path opacity="0.5" d="M283.373 145.47C283.373 144.655 284.523 143.986 285.923 143.986C287.323 143.986 288.473 144.655 288.473 145.47V147.121C288.473 147.937 287.323 148.605 285.923 148.605C284.523 148.605 283.373 147.937 283.373 147.121V145.47Z" fill="url(#paint8_linear)"/>
<path opacity="0.5" d="M288.473 145.47C288.473 146.264 287.323 146.933 285.923 146.933C284.523 146.933 283.373 146.264 283.373 145.47C283.373 144.676 284.523 143.986 285.923 143.986C287.323 143.986 288.473 144.655 288.473 145.47Z" fill="white"/>
<path opacity="0.5" d="M163.633 145.47C163.633 144.655 164.783 143.986 166.183 143.986C167.584 143.986 168.733 144.655 168.733 145.47V147.121C168.733 147.937 167.584 148.605 166.183 148.605C164.783 148.605 163.633 147.937 163.633 147.121V145.47Z" fill="url(#paint9_linear)"/>
<path opacity="0.5" d="M168.733 145.47C168.733 146.264 167.584 146.933 166.183 146.933C164.783 146.933 163.633 146.264 163.633 145.47C163.633 144.676 164.783 143.986 166.183 143.986C167.584 143.986 168.733 144.655 168.733 145.47Z" fill="white"/>
<path opacity="0.5" d="M223.512 110.901C223.512 110.085 224.641 109.417 226.062 109.417C227.484 109.417 228.612 110.085 228.612 110.901V112.552C228.612 113.367 227.463 114.036 226.062 114.036C224.662 114.036 223.512 113.367 223.512 112.552V110.901Z" fill="url(#paint10_linear)"/>
<path opacity="0.5" d="M228.612 110.901C228.612 111.716 227.463 112.364 226.062 112.364C224.662 112.364 223.512 111.716 223.512 110.901C223.512 110.085 224.641 109.417 226.062 109.417C227.484 109.417 228.612 110.085 228.612 110.901Z" fill="white"/>
<path opacity="0.5" d="M223.512 180.021C223.512 179.206 224.641 178.558 226.062 178.558C227.484 178.558 228.612 179.206 228.612 180.021V181.693C228.612 182.508 227.463 183.156 226.062 183.156C224.662 183.156 223.512 182.508 223.512 181.693V180.021Z" fill="url(#paint11_linear)"/>
<path opacity="0.5" d="M228.612 180.021C228.612 180.836 227.463 181.505 226.062 181.505C224.662 181.505 223.512 180.836 223.512 180.021C223.512 179.206 224.641 178.558 226.062 178.558C227.484 178.558 228.612 179.206 228.612 180.021Z" fill="white"/>
<path opacity="0.5" d="M295.938 135.477L226.067 175.816V164.153L295.938 123.814V135.477Z" fill="url(#paint12_linear)"/>
<path opacity="0.5" d="M226.064 175.816L156.171 135.477L156.192 123.814L226.064 164.153V175.816Z" fill="url(#paint13_linear)"/>
<path opacity="0.8" d="M226.067 83.4761L295.938 123.815L226.067 164.153L156.195 123.815L226.067 83.4761Z" fill="url(#paint14_linear)"/>
<path opacity="0.5" d="M283.373 122.244C283.373 121.429 284.523 120.781 285.923 120.781C287.323 120.781 288.473 121.429 288.473 122.244V123.916C288.473 124.732 287.323 125.379 285.923 125.379C284.523 125.379 283.373 124.732 283.373 123.916V122.244Z" fill="url(#paint15_linear)"/>
<path opacity="0.5" d="M288.473 122.244C288.473 123.059 287.323 123.728 285.923 123.728C284.523 123.728 283.373 123.059 283.373 122.244C283.373 121.429 284.523 120.781 285.923 120.781C287.323 120.781 288.473 121.325 288.473 122.244Z" fill="white"/>
<path opacity="0.5" d="M163.633 122.244C163.633 121.429 164.783 120.781 166.183 120.781C167.584 120.781 168.733 121.429 168.733 122.244V123.916C168.733 124.732 167.584 125.379 166.183 125.379C164.783 125.379 163.633 124.732 163.633 123.916V122.244Z" fill="url(#paint16_linear)"/>
<path opacity="0.5" d="M168.733 122.244C168.733 123.059 167.584 123.728 166.183 123.728C164.783 123.728 163.633 123.059 163.633 122.244C163.633 121.429 164.783 120.781 166.183 120.781C167.584 120.781 168.733 121.325 168.733 122.244Z" fill="white"/>
<path opacity="0.5" d="M223.512 87.5743C223.512 86.7592 224.641 86.1113 226.062 86.1113C227.484 86.1113 228.612 86.7592 228.612 87.5743V89.2465C228.612 90.0616 227.463 90.7094 226.062 90.7094C224.662 90.7094 223.512 90.0616 223.512 89.2465V87.5743Z" fill="url(#paint17_linear)"/>
<path opacity="0.5" d="M228.612 87.5743C228.612 88.3894 227.463 89.0583 226.062 89.0583C224.662 89.0583 223.512 88.3894 223.512 87.5743C223.512 86.7592 224.641 86.1113 226.062 86.1113C227.484 86.1113 228.612 86.7174 228.612 87.5743Z" fill="white"/>
<path opacity="0.5" d="M223.512 156.711C223.512 155.896 224.641 155.248 226.062 155.248C227.484 155.248 228.612 155.896 228.612 156.711V158.383C228.612 159.198 227.463 159.846 226.062 159.846C224.662 159.846 223.512 159.198 223.512 158.383V156.711Z" fill="url(#paint18_linear)"/>
<path opacity="0.5" d="M228.612 156.711C228.612 157.526 227.463 158.174 226.062 158.174C224.662 158.174 223.512 157.526 223.512 156.711C223.512 155.896 224.641 155.248 226.062 155.248C227.484 155.248 228.612 155.896 228.612 156.711Z" fill="white"/>
<path opacity="0.5" d="M295.938 112.151L226.067 152.49V140.848L295.938 100.509V112.151Z" fill="url(#paint19_linear)"/>
<path opacity="0.5" d="M226.064 152.49L156.171 112.151L156.192 100.509L226.064 140.848V152.49Z" fill="url(#paint20_linear)"/>
<path opacity="0.5" d="M226.067 60.1509L295.938 100.51L226.067 140.849L156.195 100.51L226.067 60.1509Z" fill="white"/>
<path opacity="0.5" d="M283.373 98.8384C283.373 98.0232 284.523 97.3545 285.923 97.3545C287.323 97.3545 288.473 98.0232 288.473 98.8384V100.51C288.473 101.305 287.323 101.974 285.923 101.974C284.523 101.974 283.373 101.305 283.373 100.51V98.8384Z" fill="url(#paint21_linear)"/>
<path opacity="0.5" d="M288.473 98.8384C288.473 99.6535 287.323 100.301 285.923 100.301C284.523 100.301 283.373 99.6535 283.373 98.8384C283.373 98.0232 284.523 97.3545 285.923 97.3545C287.323 97.3545 288.473 98.0232 288.473 98.8384Z" fill="white"/>
<path opacity="0.5" d="M163.633 98.8384C163.633 98.0232 164.783 97.3545 166.183 97.3545C167.584 97.3545 168.733 98.0232 168.733 98.8384V100.51C168.733 101.305 167.584 101.974 166.183 101.974C164.783 101.974 163.633 101.305 163.633 100.51V98.8384Z" fill="url(#paint22_linear)"/>
<path opacity="0.5" d="M168.733 98.8384C168.733 99.6535 167.584 100.301 166.183 100.301C164.783 100.301 163.633 99.6535 163.633 98.8384C163.633 98.0232 164.783 97.3545 166.183 97.3545C167.584 97.3545 168.733 98.0232 168.733 98.8384Z" fill="white"/>
<path opacity="0.5" d="M223.512 64.2692C223.512 63.4541 224.641 62.8062 226.062 62.8062C227.484 62.8062 228.612 63.4541 228.612 64.2692V65.9413C228.612 66.7564 227.463 67.4044 226.062 67.4044C224.662 67.4044 223.512 66.7564 223.512 65.9413V64.2692Z" fill="url(#paint23_linear)"/>
<path opacity="0.5" d="M228.612 64.2692C228.612 65.0844 227.463 65.7323 226.062 65.7323C224.662 65.7323 223.512 65.0844 223.512 64.2692C223.512 63.4541 224.641 62.8062 226.062 62.8062C227.484 62.8062 228.612 63.4541 228.612 64.2692Z" fill="white"/>
<path opacity="0.5" d="M223.512 133.41C223.512 132.595 224.641 131.926 226.062 131.926C227.484 131.926 228.612 132.595 228.612 133.41V135.061C228.612 135.876 227.463 136.545 226.062 136.545C224.662 136.545 223.512 135.876 223.512 135.061V133.41Z" fill="url(#paint24_linear)"/>
<path opacity="0.5" d="M228.612 133.41C228.612 134.225 227.463 134.873 226.062 134.873C224.662 134.873 223.512 134.225 223.512 133.41C223.512 132.595 224.641 131.926 226.062 131.926C227.484 131.926 228.612 132.699 228.612 133.41Z" fill="white"/>
<g style="mix-blend-mode:multiply">
<path d="M226.064 60.1509L295.936 100.51L226.064 140.849L156.192 100.51L226.064 60.1509Z" fill="#9F99D1"/>
</g>
<path d="M295.936 98.6096L226.064 138.948V127.306L295.936 86.9678V98.6096Z" fill="url(#paint25_linear)"/>
<path d="M226.064 138.948L156.171 98.6096L156.192 86.9678L226.064 127.306V138.948Z" fill="#4164A9"/>
<path d="M226.064 46.6055L295.936 86.965L226.064 127.304L156.192 86.965L226.064 46.6055Z" fill="#A0B2D4"/>
<path d="M223.515 50.7248C223.515 49.9097 224.644 49.2617 226.065 49.2617C227.486 49.2617 228.615 49.9097 228.615 50.7248V52.3968C228.615 53.212 227.465 53.8599 226.065 53.8599C224.665 53.8599 223.515 53.212 223.515 52.3968V50.7248Z" fill="url(#paint26_linear)"/>
<path d="M228.615 50.7248C228.615 51.5399 227.465 52.1878 226.065 52.1878C224.665 52.1878 223.515 51.5399 223.515 50.7248C223.515 49.9097 224.644 49.2617 226.065 49.2617C227.486 49.2617 228.615 49.9097 228.615 50.7248Z" fill="white"/>
<path d="M223.515 119.865C223.515 119.05 224.644 118.381 226.065 118.381C227.486 118.381 228.615 119.05 228.615 119.865V121.516C228.615 122.332 227.465 123 226.065 123C224.665 123 223.515 122.332 223.515 121.516V119.865Z" fill="url(#paint27_linear)"/>
<path d="M228.615 119.865C228.615 120.68 227.465 121.328 226.065 121.328C224.665 121.328 223.515 120.68 223.515 119.865C223.515 119.05 224.644 118.381 226.065 118.381C227.486 118.381 228.615 119.05 228.615 119.865Z" fill="white"/>
<path d="M295.936 75.3052L226.064 115.644V103.981L295.936 63.6426V75.3052Z" fill="url(#paint28_linear)"/>
<path d="M226.064 115.644L156.171 75.3052L156.192 63.6426L226.064 103.981V115.644Z" fill="#4164A9"/>
<path d="M226.064 23.3037L295.936 63.6425L226.064 103.981L156.192 63.6425L226.064 23.3037Z" fill="#A0B2D4"/>
<path d="M223.515 27.4191C223.515 26.6039 224.644 25.9351 226.065 25.9351C227.486 25.9351 228.615 26.6039 228.615 27.4191V29.0702C228.615 29.8853 227.465 30.5542 226.065 30.5542C224.665 30.5542 223.515 29.8853 223.515 29.0702V27.4191Z" fill="url(#paint29_linear)"/>
<path d="M228.615 27.4191C228.615 28.2342 227.465 28.8822 226.065 28.8822C224.665 28.8822 223.515 28.2342 223.515 27.4191C223.515 26.6039 224.644 25.9351 226.065 25.9351C227.486 25.9351 228.615 26.6039 228.615 27.4191Z" fill="white"/>
<path d="M223.515 96.5393C223.515 95.7241 224.644 95.0762 226.065 95.0762C227.486 95.0762 228.615 95.7241 228.615 96.5393V98.2113C228.615 99.0264 227.465 99.6744 226.065 99.6744C224.665 99.6744 223.515 99.0264 223.515 98.2113V96.5393Z" fill="url(#paint30_linear)"/>
<path d="M228.615 96.5393C228.615 97.3544 227.465 98.0231 226.065 98.0231C224.665 98.0231 223.515 97.3544 223.515 96.5393C223.515 95.7241 224.644 95.0762 226.065 95.0762C227.486 95.0762 228.615 95.7241 228.615 96.5393Z" fill="white"/>
<path d="M295.936 51.9996L226.064 92.3383V80.6755L295.936 40.3369V51.9996Z" fill="url(#paint31_linear)"/>
<path d="M226.064 92.3383L156.171 51.9996L156.192 40.3369L226.064 80.6755V92.3383Z" fill="#4164A9"/>
<path d="M226.065 0L295.936 40.3386L226.065 80.6772L156.193 40.3386L226.065 0Z" fill="#A0B2D4"/>
<path d="M226.064 17.4072L265.755 40.3354L226.064 63.2428L186.352 40.3354L226.064 17.4072Z" fill="#4164A9"/>
<path d="M226.064 24.2866L253.842 40.3385L226.064 56.3694L198.266 40.3385L226.064 24.2866Z" fill="white"/>
<path d="M234.946 41.1093L233.274 42.0708L223.032 36.1558L224.704 35.1943L234.946 41.1093ZM230.348 43.7847L220.085 37.8488L221.778 36.8873L232.02 42.8023L230.348 43.7847ZM227.401 45.4776L217.159 39.5627L218.831 38.5803L229.073 44.4952L227.401 45.4776Z" fill="#A0B2D4"/>
<path d="M226.064 56.3678V63.2443L253.842 47.2132V40.3369L226.064 56.3678Z" fill="url(#paint32_linear)"/>
<path d="M226.064 56.3678V63.2443L198.266 47.2132V40.3369L226.064 56.3678Z" fill="#CED7E9"/>
<path d="M223.515 4.09297C223.515 3.27783 224.644 2.62988 226.065 2.62988C227.486 2.62988 228.615 3.27783 228.615 4.09297V5.76501C228.615 6.58014 227.465 7.2281 226.065 7.2281C224.665 7.2281 223.515 6.58014 223.515 5.76501V4.09297Z" fill="url(#paint33_linear)"/>
<path d="M228.615 4.09297C228.615 4.9081 227.465 5.57691 226.065 5.57691C224.665 5.57691 223.515 4.9081 223.515 4.09297C223.515 3.27783 224.644 2.62988 226.065 2.62988C227.486 2.62988 228.615 3.27783 228.615 4.09297Z" fill="white"/>
<path d="M223.515 73.2341C223.515 72.4189 224.644 71.771 226.065 71.771C227.486 71.771 228.615 72.4189 228.615 73.2341V74.9061C228.615 75.7213 227.465 76.3692 226.065 76.3692C224.665 76.3692 223.515 75.7213 223.515 74.9061V73.2341Z" fill="url(#paint34_linear)"/>
<path d="M228.615 73.2341C228.615 74.0492 227.465 74.6972 226.065 74.6972C224.665 74.6972 223.515 74.0492 223.515 73.2341C223.515 72.4189 224.644 71.771 226.065 71.771C227.486 71.771 228.615 72.4189 228.615 73.2341Z" fill="white"/>
<path opacity="0.5" d="M110.728 293.574C110.728 293.3 111.106 293.076 111.583 293.076C112.06 293.076 112.439 293.3 112.439 293.574V294.128C112.439 294.401 112.053 294.626 111.583 294.626C111.113 294.626 110.728 294.401 110.728 294.128V293.574Z" fill="url(#paint35_linear)"/>
<path opacity="0.5" d="M112.439 293.574C112.439 293.847 112.053 294.065 111.583 294.065C111.113 294.065 110.728 293.847 110.728 293.574C110.728 293.3 111.106 293.076 111.583 293.076C112.06 293.076 112.439 293.3 112.439 293.574Z" fill="white"/>
<path opacity="0.5" d="M110.728 285.746C110.728 285.472 111.106 285.255 111.583 285.255C112.06 285.255 112.439 285.472 112.439 285.746V286.307C112.439 286.58 112.053 286.798 111.583 286.798C111.113 286.798 110.728 286.58 110.728 286.307V285.746Z" fill="url(#paint36_linear)"/>
<path opacity="0.5" d="M112.439 285.746C112.439 286.019 112.053 286.244 111.583 286.244C111.113 286.244 110.728 286.019 110.728 285.746C110.728 285.472 111.106 285.255 111.583 285.255C112.06 285.255 112.439 285.458 112.439 285.746Z" fill="white"/>
<path opacity="0.5" d="M130.814 289.525C130.814 289.252 131.2 289.027 131.67 289.027C132.14 289.027 132.526 289.252 132.526 289.525V290.086C132.526 290.353 132.14 290.577 131.67 290.577C131.2 290.577 130.814 290.353 130.814 290.086V289.525Z" fill="url(#paint37_linear)"/>
<path opacity="0.5" d="M132.526 289.525C132.526 289.799 132.14 290.016 131.67 290.016C131.2 290.016 130.814 289.799 130.814 289.525C130.814 289.252 131.2 289.027 131.67 289.027C132.14 289.027 132.526 289.252 132.526 289.525Z" fill="white"/>
<path opacity="0.5" d="M90.6356 289.525C90.6356 289.252 91.0214 289.027 91.4913 289.027C91.9612 289.027 92.3469 289.252 92.3469 289.525V290.086C92.3469 290.353 91.9612 290.577 91.4913 290.577C91.0214 290.577 90.6356 290.353 90.6356 290.086V289.525Z" fill="url(#paint38_linear)"/>
<path opacity="0.5" d="M92.3469 289.525C92.3469 289.799 91.9612 290.016 91.4913 290.016C91.0214 290.016 90.6356 289.799 90.6356 289.525C90.6356 289.252 91.0214 289.027 91.4913 289.027C91.9612 289.027 92.3469 289.252 92.3469 289.525Z" fill="white"/>
<path opacity="0.5" d="M110.728 277.925C110.728 277.652 111.106 277.434 111.583 277.434C112.06 277.434 112.439 277.652 112.439 277.925V278.486C112.439 278.76 112.053 278.977 111.583 278.977C111.113 278.977 110.728 278.76 110.728 278.486V277.925Z" fill="url(#paint39_linear)"/>
<path opacity="0.5" d="M112.439 277.925C112.439 278.199 112.053 278.416 111.583 278.416C111.113 278.416 110.728 278.199 110.728 277.925C110.728 277.652 111.106 277.434 111.583 277.434C112.06 277.434 112.439 277.652 112.439 277.925Z" fill="white"/>
<path opacity="0.5" d="M110.728 301.127C110.728 300.853 111.106 300.629 111.583 300.629C112.06 300.629 112.439 300.853 112.439 301.127V301.681C112.439 301.954 112.053 302.179 111.583 302.179C111.113 302.179 110.728 301.954 110.728 301.681V301.127Z" fill="url(#paint40_linear)"/>
<path opacity="0.5" d="M112.439 301.127C112.439 301.4 112.053 301.618 111.583 301.618C111.113 301.618 110.728 301.4 110.728 301.127C110.728 300.853 111.106 300.629 111.583 300.629C112.06 300.629 112.439 300.888 112.439 301.127Z" fill="white"/>
<path d="M135.032 289.449L111.586 302.985V299.078L135.032 285.542V289.449Z" fill="url(#paint41_linear)"/>
<path d="M111.584 302.985L88.131 289.449L88.138 285.542L111.584 299.078V302.985Z" fill="#4164A9"/>
<path d="M111.586 271.999L135.032 285.542L111.586 299.078L88.1397 285.542L111.586 271.999Z" fill="#A0B2D4"/>
<path d="M110.73 273.38C110.73 273.107 111.109 272.889 111.586 272.889C112.063 272.889 112.442 273.107 112.442 273.38V273.941C112.442 274.215 112.056 274.432 111.586 274.432C111.116 274.432 110.73 274.215 110.73 273.941V273.38Z" fill="url(#paint42_linear)"/>
<path d="M112.442 273.38C112.442 273.654 112.056 273.871 111.586 273.871C111.116 273.871 110.73 273.654 110.73 273.38C110.73 273.107 111.109 272.889 111.586 272.889C112.063 272.889 112.442 273.107 112.442 273.38Z" fill="white"/>
<path d="M110.73 296.58C110.73 296.307 111.109 296.083 111.586 296.083C112.063 296.083 112.442 296.307 112.442 296.58V297.135C112.442 297.408 112.056 297.632 111.586 297.632C111.116 297.632 110.73 297.408 110.73 297.135V296.58Z" fill="url(#paint43_linear)"/>
<path d="M112.442 296.58C112.442 296.854 112.056 297.071 111.586 297.071C111.116 297.071 110.73 296.854 110.73 296.58C110.73 296.307 111.109 296.083 111.586 296.083C112.063 296.083 112.442 296.307 112.442 296.58Z" fill="white"/>
<path d="M135.032 281.629L111.586 295.165V291.251L135.032 277.715V281.629Z" fill="url(#paint44_linear)"/>
<path d="M111.584 295.165L88.131 281.629L88.138 277.715L111.584 291.251V295.165Z" fill="#4164A9"/>
<path d="M111.586 264.179L135.032 277.715L111.586 291.251L88.1397 277.715L111.586 264.179Z" fill="#A0B2D4"/>
<path d="M110.73 265.559C110.73 265.286 111.109 265.062 111.586 265.062C112.063 265.062 112.442 265.286 112.442 265.559V266.114C112.442 266.387 112.056 266.612 111.586 266.612C111.116 266.612 110.73 266.387 110.73 266.114V265.559Z" fill="url(#paint45_linear)"/>
<path d="M112.442 265.559C112.442 265.833 112.056 266.05 111.586 266.05C111.116 266.05 110.73 265.833 110.73 265.559C110.73 265.286 111.109 265.062 111.586 265.062C112.063 265.062 112.442 265.286 112.442 265.559Z" fill="white"/>
<path d="M110.73 288.754C110.73 288.481 111.109 288.263 111.586 288.263C112.063 288.263 112.442 288.481 112.442 288.754V289.315C112.442 289.589 112.056 289.806 111.586 289.806C111.116 289.806 110.73 289.589 110.73 289.315V288.754Z" fill="url(#paint46_linear)"/>
<path d="M112.442 288.754C112.442 289.028 112.056 289.252 111.586 289.252C111.116 289.252 110.73 289.028 110.73 288.754C110.73 288.481 111.109 288.263 111.586 288.263C112.063 288.263 112.442 288.481 112.442 288.754Z" fill="white"/>
<path d="M135.032 273.808L111.586 287.344V283.431L135.032 269.895V273.808Z" fill="url(#paint47_linear)"/>
<path d="M111.584 287.344L88.131 273.808L88.138 269.895L111.584 283.431V287.344Z" fill="#4164A9"/>
<path d="M111.586 256.359L135.032 269.895L111.586 283.431L88.1399 269.895L111.586 256.359Z" fill="#A0B2D4"/>
<path d="M111.584 262.2L124.903 269.894L111.584 277.581L98.2589 269.894L111.584 262.2Z" fill="#4164A9"/>
<path d="M111.585 264.509L120.906 269.896L111.585 275.275L102.257 269.896L111.585 264.509Z" fill="white"/>
<path d="M114.564 270.153L114.003 270.476L110.567 268.491L111.128 268.168L114.564 270.153ZM113.021 271.051L109.578 269.059L110.146 268.737L113.582 270.721L113.021 271.051ZM112.032 271.619L108.596 269.634L109.157 269.305L112.593 271.289L112.032 271.619Z" fill="white"/>
<path d="M111.585 275.274V277.581L120.906 272.202V269.895L111.585 275.274Z" fill="url(#paint48_linear)"/>
<path d="M111.584 275.274V277.581L102.256 272.202V269.895L111.584 275.274Z" fill="#CED7E9"/>
<path d="M110.73 257.733C110.73 257.46 111.109 257.242 111.586 257.242C112.063 257.242 112.442 257.46 112.442 257.733V258.294C112.442 258.568 112.056 258.785 111.586 258.785C111.116 258.785 110.73 258.568 110.73 258.294V257.733Z" fill="url(#paint49_linear)"/>
<path d="M112.442 257.733C112.442 258.007 112.056 258.231 111.586 258.231C111.116 258.231 110.73 258.007 110.73 257.733C110.73 257.46 111.109 257.242 111.586 257.242C112.063 257.242 112.442 257.46 112.442 257.733Z" fill="white"/>
<path d="M110.73 280.935C110.73 280.661 111.109 280.444 111.586 280.444C112.063 280.444 112.442 280.661 112.442 280.935V281.496C112.442 281.769 112.056 281.987 111.586 281.987C111.116 281.987 110.73 281.769 110.73 281.496V280.935Z" fill="url(#paint50_linear)"/>
<path d="M112.442 280.935C112.442 281.208 112.056 281.426 111.586 281.426C111.116 281.426 110.73 281.208 110.73 280.935C110.73 280.661 111.109 280.444 111.586 280.444C112.063 280.444 112.442 280.661 112.442 280.935Z" fill="white"/>
<defs>
<linearGradient id="paint0_linear" x1="-0.000479255" y1="179.006" x2="100.406" y2="179.006" gradientUnits="userSpaceOnUse">
<stop stop-color="#212E47"/>
<stop offset="1" stop-color="#293B5B"/>
</linearGradient>
<linearGradient id="paint1_linear" x1="386.652" y1="301.778" x2="451.653" y2="301.778" gradientUnits="userSpaceOnUse">
<stop stop-color="#212E47"/>
<stop offset="1" stop-color="#293B5B"/>
</linearGradient>
<linearGradient id="paint2_linear" x1="350" y1="129.497" x2="390" y2="129.497" gradientUnits="userSpaceOnUse">
<stop stop-color="#212E47"/>
<stop offset="1" stop-color="#293B5B"/>
</linearGradient>
<linearGradient id="paint3_linear" x1="212.198" y1="131.503" x2="212.198" y2="337.947" gradientUnits="userSpaceOnUse">
<stop stop-color="#405E99"/>
<stop offset="0.854167" stop-color="#182642" stop-opacity="0"/>
</linearGradient>
<linearGradient id="paint4_linear" x1="107.708" y1="280.906" x2="107.708" y2="351.044" gradientUnits="userSpaceOnUse">
<stop stop-color="#405E99"/>
<stop offset="0.854167" stop-color="#182642" stop-opacity="0"/>
</linearGradient>
<linearGradient id="paint5_linear" x1="-42627.6" y1="30056.2" x2="-42627.6" y2="31137.8" gradientUnits="userSpaceOnUse">
<stop stop-color="#DDE8FF"/>
<stop offset="1" stop-color="#E4F1FF"/>
</linearGradient>
<linearGradient id="paint6_linear" x1="-45046.7" y1="30254.9" x2="-45046.7" y2="31497.2" gradientUnits="userSpaceOnUse">
<stop stop-color="#BECEFA"/>
<stop offset="0.5" stop-color="#D3E2FD"/>
<stop offset="1" stop-color="#E4F1FF"/>
</linearGradient>
<linearGradient id="paint7_linear" x1="226.067" y1="106.777" x2="226.067" y2="171.251" gradientUnits="userSpaceOnUse">
<stop stop-color="#374C75"/>
<stop offset="1" stop-color="#192944"/>
</linearGradient>
<linearGradient id="paint8_linear" x1="-2783.6" y1="2794.19" x2="-2783.6" y2="2803.98" gradientUnits="userSpaceOnUse">
<stop stop-color="#BECEFA"/>
<stop offset="0.5" stop-color="#D3E2FD"/>
<stop offset="1" stop-color="#E4F1FF"/>
</linearGradient>
<linearGradient id="paint9_linear" x1="-3195.51" y1="2794.19" x2="-3195.51" y2="2803.98" gradientUnits="userSpaceOnUse">
<stop stop-color="#BECEFA"/>
<stop offset="0.5" stop-color="#D3E2FD"/>
<stop offset="1" stop-color="#E4F1FF"/>
</linearGradient>
<linearGradient id="paint10_linear" x1="-2989.52" y1="2683.29" x2="-2989.52" y2="2693.08" gradientUnits="userSpaceOnUse">
<stop stop-color="#BECEFA"/>
<stop offset="0.5" stop-color="#D3E2FD"/>
<stop offset="1" stop-color="#E4F1FF"/>
</linearGradient>
<linearGradient id="paint11_linear" x1="-2989.52" y1="2892.88" x2="-2989.52" y2="2902.63" gradientUnits="userSpaceOnUse">
<stop stop-color="#BECEFA"/>
<stop offset="0.5" stop-color="#D3E2FD"/>
<stop offset="1" stop-color="#E4F1FF"/>
</linearGradient>
<linearGradient id="paint12_linear" x1="-42627.6" y1="29453.1" x2="-42627.6" y2="30534.7" gradientUnits="userSpaceOnUse">
<stop stop-color="#DDE8FF"/>
<stop offset="1" stop-color="#E4F1FF"/>
</linearGradient>
<linearGradient id="paint13_linear" x1="-45046.7" y1="29651.2" x2="-45046.7" y2="30893.5" gradientUnits="userSpaceOnUse">
<stop stop-color="#BECEFA"/>
<stop offset="0.5" stop-color="#D3E2FD"/>
<stop offset="1" stop-color="#E4F1FF"/>
</linearGradient>
<linearGradient id="paint14_linear" x1="226.067" y1="83.4761" x2="226.067" y2="147.95" gradientUnits="userSpaceOnUse">
<stop stop-color="#374C75"/>
<stop offset="1" stop-color="#192944"/>
</linearGradient>
<linearGradient id="paint15_linear" x1="-2783.6" y1="2707.78" x2="-2783.6" y2="2717.53" gradientUnits="userSpaceOnUse">
<stop stop-color="#BECEFA"/>
<stop offset="0.5" stop-color="#D3E2FD"/>
<stop offset="1" stop-color="#E4F1FF"/>
</linearGradient>
<linearGradient id="paint16_linear" x1="-3195.51" y1="2707.78" x2="-3195.51" y2="2717.53" gradientUnits="userSpaceOnUse">
<stop stop-color="#BECEFA"/>
<stop offset="0.5" stop-color="#D3E2FD"/>
<stop offset="1" stop-color="#E4F1FF"/>
</linearGradient>
<linearGradient id="paint17_linear" x1="-2989.52" y1="2596.99" x2="-2989.52" y2="2606.74" gradientUnits="userSpaceOnUse">
<stop stop-color="#BECEFA"/>
<stop offset="0.5" stop-color="#D3E2FD"/>
<stop offset="1" stop-color="#E4F1FF"/>
</linearGradient>
<linearGradient id="paint18_linear" x1="-2989.52" y1="2818.3" x2="-2989.52" y2="2828.05" gradientUnits="userSpaceOnUse">
<stop stop-color="#BECEFA"/>
<stop offset="0.5" stop-color="#D3E2FD"/>
<stop offset="1" stop-color="#E4F1FF"/>
</linearGradient>
<linearGradient id="paint19_linear" x1="-42627.6" y1="28837.9" x2="-42627.6" y2="29919.6" gradientUnits="userSpaceOnUse">
<stop stop-color="#DDE8FF"/>
<stop offset="1" stop-color="#E4F1FF"/>
</linearGradient>
<linearGradient id="paint20_linear" x1="-45046.7" y1="29036.4" x2="-45046.7" y2="30278.3" gradientUnits="userSpaceOnUse">
<stop stop-color="#BECEFA"/>
<stop offset="0.5" stop-color="#D3E2FD"/>
<stop offset="1" stop-color="#E4F1FF"/>
</linearGradient>
<linearGradient id="paint21_linear" x1="-2783.6" y1="2644.55" x2="-2783.6" y2="2654.3" gradientUnits="userSpaceOnUse">
<stop stop-color="#BECEFA"/>
<stop offset="0.5" stop-color="#D3E2FD"/>
<stop offset="1" stop-color="#E4F1FF"/>
</linearGradient>
<linearGradient id="paint22_linear" x1="-3195.51" y1="2644.55" x2="-3195.51" y2="2654.3" gradientUnits="userSpaceOnUse">
<stop stop-color="#BECEFA"/>
<stop offset="0.5" stop-color="#D3E2FD"/>
<stop offset="1" stop-color="#E4F1FF"/>
</linearGradient>
<linearGradient id="paint23_linear" x1="-2989.52" y1="2522.48" x2="-2989.52" y2="2532.18" gradientUnits="userSpaceOnUse">
<stop stop-color="#BECEFA"/>
<stop offset="0.5" stop-color="#D3E2FD"/>
<stop offset="1" stop-color="#E4F1FF"/>
</linearGradient>
<linearGradient id="paint24_linear" x1="-2989.52" y1="2755.55" x2="-2989.52" y2="2765.34" gradientUnits="userSpaceOnUse">
<stop stop-color="#BECEFA"/>
<stop offset="0.5" stop-color="#D3E2FD"/>
<stop offset="1" stop-color="#E4F1FF"/>
</linearGradient>
<linearGradient id="paint25_linear" x1="-42627.6" y1="27328.3" x2="-42627.6" y2="28409.5" gradientUnits="userSpaceOnUse">
<stop stop-color="#CDD6E8"/>
<stop offset="1" stop-color="#E4F1FF"/>
</linearGradient>
<linearGradient id="paint26_linear" x1="-2989.52" y1="2479.14" x2="-2989.52" y2="2488.84" gradientUnits="userSpaceOnUse">
<stop stop-color="#BECEFA"/>
<stop offset="0.5" stop-color="#D3E2FD"/>
<stop offset="1" stop-color="#E4F1FF"/>
</linearGradient>
<linearGradient id="paint27_linear" x1="-2989.52" y1="2712" x2="-2989.52" y2="2721.79" gradientUnits="userSpaceOnUse">
<stop stop-color="#BECEFA"/>
<stop offset="0.5" stop-color="#D3E2FD"/>
<stop offset="1" stop-color="#E4F1FF"/>
</linearGradient>
<linearGradient id="paint28_linear" x1="-42627.6" y1="27316" x2="-42627.6" y2="28397.6" gradientUnits="userSpaceOnUse">
<stop stop-color="#CDD6E8"/>
<stop offset="1" stop-color="#E4F1FF"/>
</linearGradient>
<linearGradient id="paint29_linear" x1="-2989.52" y1="2415.32" x2="-2989.52" y2="2425.11" gradientUnits="userSpaceOnUse">
<stop stop-color="#BECEFA"/>
<stop offset="0.5" stop-color="#D3E2FD"/>
<stop offset="1" stop-color="#E4F1FF"/>
</linearGradient>
<linearGradient id="paint30_linear" x1="-2989.52" y1="2625.75" x2="-2989.52" y2="2635.5" gradientUnits="userSpaceOnUse">
<stop stop-color="#BECEFA"/>
<stop offset="0.5" stop-color="#D3E2FD"/>
<stop offset="1" stop-color="#E4F1FF"/>
</linearGradient>
<linearGradient id="paint31_linear" x1="-42627.6" y1="27292.7" x2="-42627.6" y2="28374.3" gradientUnits="userSpaceOnUse">
<stop stop-color="#CDD6E8"/>
<stop offset="1" stop-color="#E4F1FF"/>
</linearGradient>
<linearGradient id="paint32_linear" x1="-17090" y1="12042" x2="-17090" y2="12252" gradientUnits="userSpaceOnUse">
<stop stop-color="#DDE8FF"/>
<stop offset="1" stop-color="#E4F1FF"/>
</linearGradient>
<linearGradient id="paint33_linear" x1="-2989.52" y1="2329.92" x2="-2989.52" y2="2339.67" gradientUnits="userSpaceOnUse">
<stop stop-color="#BECEFA"/>
<stop offset="0.5" stop-color="#D3E2FD"/>
<stop offset="1" stop-color="#E4F1FF"/>
</linearGradient>
<linearGradient id="paint34_linear" x1="-2989.52" y1="2551.17" x2="-2989.52" y2="2560.88" gradientUnits="userSpaceOnUse">
<stop stop-color="#BECEFA"/>
<stop offset="0.5" stop-color="#D3E2FD"/>
<stop offset="1" stop-color="#E4F1FF"/>
</linearGradient>
<linearGradient id="paint35_linear" x1="-967.435" y1="1156.76" x2="-967.435" y2="1160.05" gradientUnits="userSpaceOnUse">
<stop stop-color="#BECEFA"/>
<stop offset="0.5" stop-color="#D3E2FD"/>
<stop offset="1" stop-color="#E4F1FF"/>
</linearGradient>
<linearGradient id="paint36_linear" x1="-967.435" y1="1127.8" x2="-967.435" y2="1131.07" gradientUnits="userSpaceOnUse">
<stop stop-color="#BECEFA"/>
<stop offset="0.5" stop-color="#D3E2FD"/>
<stop offset="1" stop-color="#E4F1FF"/>
</linearGradient>
<linearGradient id="paint37_linear" x1="-898.337" y1="1143.76" x2="-898.337" y2="1147.03" gradientUnits="userSpaceOnUse">
<stop stop-color="#BECEFA"/>
<stop offset="0.5" stop-color="#D3E2FD"/>
<stop offset="1" stop-color="#E4F1FF"/>
</linearGradient>
<linearGradient id="paint38_linear" x1="-1036.56" y1="1143.76" x2="-1036.56" y2="1147.03" gradientUnits="userSpaceOnUse">
<stop stop-color="#BECEFA"/>
<stop offset="0.5" stop-color="#D3E2FD"/>
<stop offset="1" stop-color="#E4F1FF"/>
</linearGradient>
<linearGradient id="paint39_linear" x1="-967.435" y1="1102.8" x2="-967.435" y2="1106.06" gradientUnits="userSpaceOnUse">
<stop stop-color="#BECEFA"/>
<stop offset="0.5" stop-color="#D3E2FD"/>
<stop offset="1" stop-color="#E4F1FF"/>
</linearGradient>
<linearGradient id="paint40_linear" x1="-967.435" y1="1181.01" x2="-967.435" y2="1184.29" gradientUnits="userSpaceOnUse">
<stop stop-color="#BECEFA"/>
<stop offset="0.5" stop-color="#D3E2FD"/>
<stop offset="1" stop-color="#E4F1FF"/>
</linearGradient>
<linearGradient id="paint41_linear" x1="-14268.4" y1="9426.63" x2="-14268.4" y2="9789.43" gradientUnits="userSpaceOnUse">
<stop stop-color="#CDD6E8"/>
<stop offset="1" stop-color="#E4F1FF"/>
</linearGradient>
<linearGradient id="paint42_linear" x1="-967.432" y1="1088.26" x2="-967.432" y2="1091.51" gradientUnits="userSpaceOnUse">
<stop stop-color="#BECEFA"/>
<stop offset="0.5" stop-color="#D3E2FD"/>
<stop offset="1" stop-color="#E4F1FF"/>
</linearGradient>
<linearGradient id="paint43_linear" x1="-967.432" y1="1166.39" x2="-967.432" y2="1169.68" gradientUnits="userSpaceOnUse">
<stop stop-color="#BECEFA"/>
<stop offset="0.5" stop-color="#D3E2FD"/>
<stop offset="1" stop-color="#E4F1FF"/>
</linearGradient>
<linearGradient id="paint44_linear" x1="-14268.4" y1="9422.48" x2="-14268.4" y2="9785.43" gradientUnits="userSpaceOnUse">
<stop stop-color="#CDD6E8"/>
<stop offset="1" stop-color="#E4F1FF"/>
</linearGradient>
<linearGradient id="paint45_linear" x1="-967.432" y1="1066.84" x2="-967.432" y2="1070.13" gradientUnits="userSpaceOnUse">
<stop stop-color="#BECEFA"/>
<stop offset="0.5" stop-color="#D3E2FD"/>
<stop offset="1" stop-color="#E4F1FF"/>
</linearGradient>
<linearGradient id="paint46_linear" x1="-967.432" y1="1137.45" x2="-967.432" y2="1140.72" gradientUnits="userSpaceOnUse">
<stop stop-color="#BECEFA"/>
<stop offset="0.5" stop-color="#D3E2FD"/>
<stop offset="1" stop-color="#E4F1FF"/>
</linearGradient>
<linearGradient id="paint47_linear" x1="-14268.4" y1="9414.66" x2="-14268.4" y2="9777.61" gradientUnits="userSpaceOnUse">
<stop stop-color="#CDD6E8"/>
<stop offset="1" stop-color="#E4F1FF"/>
</linearGradient>
<linearGradient id="paint48_linear" x1="-5698.99" y1="4297.15" x2="-5698.99" y2="4367.64" gradientUnits="userSpaceOnUse">
<stop stop-color="#DDE8FF"/>
<stop offset="1" stop-color="#E4F1FF"/>
</linearGradient>
<linearGradient id="paint49_linear" x1="-967.432" y1="1038.19" x2="-967.432" y2="1041.46" gradientUnits="userSpaceOnUse">
<stop stop-color="#BECEFA"/>
<stop offset="0.5" stop-color="#D3E2FD"/>
<stop offset="1" stop-color="#E4F1FF"/>
</linearGradient>
<linearGradient id="paint50_linear" x1="-967.432" y1="1112.43" x2="-967.432" y2="1115.69" gradientUnits="userSpaceOnUse">
<stop stop-color="#BECEFA"/>
<stop offset="0.5" stop-color="#D3E2FD"/>
<stop offset="1" stop-color="#E4F1FF"/>
</linearGradient>
</defs>
</svg>
