<svg width="493" height="453" viewBox="0 0 493 453" fill="none" xmlns="http://www.w3.org/2000/svg">
<path d="M164.731 452.092L378.639 452.099L378.639 257.254C378.598 256.699 356.031 266.622 355.657 266.165C355.284 265.708 354.77 265.346 354.171 265.118L290.968 234.269C289.395 233.588 287.652 233.232 285.884 233.232C284.116 233.232 282.374 233.588 280.8 234.269L217.988 265.118C217.391 265.344 216.88 265.707 216.512 266.165C216.145 266.623 164.76 254.032 164.731 254.585L164.731 452.092Z" fill="url(#paint0_linear)"/>
<path d="M341.014 449.564L490.665 449.564L491.934 362.947C491.905 362.393 474.849 373.943 474.587 373.486C469.951 365.376 465.086 361.061 469.951 367.595L429.331 341.59C428.23 340.909 427.011 340.553 425.774 340.553C424.537 340.553 423.318 340.909 422.217 341.59L378.273 372.438C377.856 372.665 377.498 373.028 377.241 373.485C376.984 373.943 341.034 361.353 341.014 361.905L341.014 449.564Z" fill="url(#paint1_linear)"/>
<path d="M102.898 405.316C106.091 407.129 106.109 410.14 102.898 411.989L58.8994 437.54C57.1173 438.445 55.1466 438.917 53.1478 438.917C51.149 438.917 49.1784 438.445 47.3963 437.54L3.10782 411.989C-0.0854548 410.176 -0.103598 407.166 3.10782 405.316L47.106 379.765C48.8905 378.857 50.8643 378.384 52.8666 378.384C54.8689 378.384 56.8428 378.857 58.6272 379.765L102.898 405.316Z" fill="url(#paint2_linear)"/>
<path d="M102.898 389.829L58.8994 415.381C57.1173 416.285 55.1467 416.757 53.1479 416.757C51.1491 416.757 49.1785 416.285 47.3964 415.381L3.10786 389.829C2.44667 389.533 1.87635 389.066 1.45546 388.476C1.03456 387.887 0.778252 387.196 0.712891 386.475V392.84C0.779503 393.558 1.03651 394.246 1.45745 394.833C1.87839 395.419 2.44806 395.883 3.10786 396.176L47.3782 421.728C49.1627 422.635 51.1366 423.108 53.1388 423.108C55.1411 423.108 57.115 422.635 58.8994 421.728L102.898 396.176C103.55 395.883 104.113 395.42 104.528 394.837C104.942 394.254 105.194 393.571 105.256 392.858V386.493C105.195 387.208 104.944 387.894 104.53 388.481C104.115 389.067 103.552 389.533 102.898 389.829Z" fill="url(#paint3_linear)"/>
<path d="M102.898 389.829L58.8994 415.381C57.1173 416.285 55.1467 416.757 53.1479 416.757C51.1491 416.757 49.1785 416.285 47.3964 415.381L3.10786 389.829C2.44667 389.533 1.87635 389.066 1.45546 388.476C1.03456 387.887 0.778252 387.196 0.712891 386.475V392.84C0.779503 393.558 1.03651 394.246 1.45745 394.833C1.87839 395.419 2.44806 395.883 3.10786 396.176L47.3782 421.728C49.1627 422.635 51.1366 423.108 53.1388 423.108C55.1411 423.108 57.115 422.635 58.8994 421.728L102.898 396.176C103.55 395.883 104.113 395.42 104.528 394.837C104.942 394.254 105.194 393.571 105.256 392.858V386.493C105.195 387.208 104.944 387.894 104.53 388.481C104.115 389.067 103.552 389.533 102.898 389.829Z" fill="url(#paint4_linear)"/>
<path d="M102.898 383.137C106.091 384.951 106.109 387.961 102.898 389.811L58.8994 415.362C57.1173 416.266 55.1466 416.738 53.1478 416.738C51.149 416.738 49.1784 416.266 47.3963 415.362L3.10782 389.829C-0.0854548 388.016 -0.103598 385.005 3.10782 383.156L47.106 357.605C48.8905 356.697 50.8643 356.224 52.8666 356.224C54.8689 356.224 56.8428 356.697 58.6272 357.605L102.898 383.137Z" fill="url(#paint5_linear)"/>
<path d="M86.6873 383.447C87.4999 383.917 88.4656 384.218 89.0494 384.953C89.0733 384.983 89.0966 385.014 89.1191 385.045C89.419 385.462 89.5803 385.962 89.5803 386.475C89.5803 386.988 89.419 387.488 89.1191 387.905C89.0981 387.934 89.0764 387.963 89.0542 387.991C88.4695 388.732 87.4979 389.035 86.6814 389.508L57.0653 406.677C55.8209 407.312 54.4437 407.643 53.0465 407.643C51.6493 407.643 50.272 407.312 49.0277 406.677L18.0565 388.815C15.8249 387.527 15.8067 385.423 18.0565 384.154L48.9006 366.256C50.1482 365.62 51.5284 365.289 52.9285 365.289C54.3286 365.289 55.7089 365.62 56.9564 366.256L86.6873 383.447Z" fill="url(#paint6_linear)"/>
<path d="M87.9094 372.058C90.141 373.345 90.1592 375.431 87.9094 376.718L57.0653 394.581C55.8209 395.216 54.4437 395.547 53.0465 395.547C51.6493 395.547 50.272 395.216 49.0277 394.581L18.0565 376.718C15.8249 375.431 15.8067 373.345 18.0565 372.058L48.81 354.196C50.0575 353.56 51.4377 353.229 52.8378 353.229C54.2379 353.229 55.6182 353.56 56.8657 354.196L87.9094 372.058Z" fill="url(#paint7_linear)"/>
<path d="M47.6588 378.081C47.5267 377.52 46.9985 377.091 46.3713 377.091C45.645 377.091 45.0508 377.685 45.0508 378.411C45.0508 379.137 45.645 379.731 46.3713 379.731C46.9985 379.731 47.4937 379.302 47.6588 378.741H49.0123C49.2104 378.741 49.3424 378.609 49.3424 378.411V372.967H52.6436V377.157C52.0824 377.289 51.6533 377.817 51.6533 378.444C51.6533 379.17 52.2475 379.764 52.9738 379.764C53.7 379.764 54.2943 379.17 54.2943 378.444C54.2943 377.817 53.8651 377.322 53.3039 377.157V372.967H56.6051V378.411C56.6051 378.609 56.7372 378.741 56.9353 378.741H58.2888C58.4208 379.302 58.949 379.731 59.5763 379.731C60.3025 379.731 60.8968 379.137 60.8968 378.411C60.8968 377.685 60.3025 377.091 59.5763 377.091C58.949 377.091 58.4538 377.52 58.2888 378.081H57.2654V372.967H58.1237C59.6423 372.967 60.8968 371.713 60.8968 370.195C60.8968 368.744 59.8073 367.589 58.3878 367.424C58.1237 366.302 57.1333 365.477 55.9449 365.477C55.2186 365.477 54.5584 365.774 54.0962 366.302C53.535 365.246 52.4456 364.553 51.2241 364.553C49.5735 364.553 48.22 365.807 48.0549 367.424C46.4373 367.259 45.0508 368.579 45.0508 370.162C45.0508 371.68 46.3053 372.934 47.8238 372.934H48.6822V378.081H47.6588ZM46.3713 379.071C46.0081 379.071 45.711 378.774 45.711 378.411C45.711 378.048 46.0081 377.751 46.3713 377.751C46.7344 377.751 47.0315 378.048 47.0315 378.411C47.0315 378.774 46.7344 379.071 46.3713 379.071ZM59.5763 377.751C59.9394 377.751 60.2365 378.048 60.2365 378.411C60.2365 378.774 59.9394 379.071 59.5763 379.071C59.2131 379.071 58.916 378.774 58.916 378.411C58.916 378.048 59.2131 377.751 59.5763 377.751ZM53.634 378.411C53.634 378.774 53.3369 379.071 52.9738 379.071C52.6106 379.071 52.3135 378.774 52.3135 378.411C52.3135 378.048 52.6106 377.751 52.9738 377.751C53.3369 377.751 53.634 378.048 53.634 378.411Z" fill="#5C638B"/>
<path d="M373.87 158.687C380.401 162.458 380.438 168.57 373.87 172.323L283.859 224.622C280.206 226.479 276.165 227.447 272.066 227.447C267.967 227.447 263.926 226.479 260.273 224.622L169.772 172.305C163.241 168.533 163.204 162.422 169.682 158.65L259.71 106.369C263.361 104.504 267.403 103.531 271.504 103.531C275.604 103.531 279.646 104.504 283.297 106.369L373.87 158.687Z" fill="url(#paint8_linear)"/>
<path d="M373.87 247.598C380.401 251.352 380.438 257.463 373.87 261.235L283.859 313.516C280.208 315.381 276.166 316.354 272.066 316.354C267.966 316.354 263.924 315.381 260.273 313.516L169.772 261.163C163.241 257.391 163.204 251.28 169.682 247.526L259.71 195.227C263.363 193.366 267.404 192.396 271.504 192.396C275.603 192.396 279.645 193.366 283.297 195.227L373.87 247.598Z" fill="url(#paint9_linear)"/>
<path d="M373.942 172.304L283.931 224.603C280.278 226.46 276.237 227.428 272.138 227.428C268.039 227.428 263.998 226.46 260.344 224.603L169.772 172.304C166.488 170.491 164.837 167.916 164.855 165.432L164.691 222.01C164.691 224.494 166.324 226.979 169.608 228.883L260.217 281.109C263.868 282.975 267.91 283.947 272.011 283.947C276.111 283.947 280.153 282.975 283.804 281.109L373.814 228.828C377.044 227.015 378.659 224.513 378.659 222.046L378.822 165.504C378.786 168.007 377.171 170.491 373.942 172.304Z" fill="url(#paint10_linear)"/>
<path d="M373.942 172.304L283.931 224.603C280.278 226.46 276.237 227.428 272.138 227.428C268.039 227.428 263.998 226.46 260.344 224.603L169.772 172.304C166.488 170.491 164.837 167.916 164.855 165.432L164.691 222.01C164.691 224.494 166.324 226.979 169.608 228.883L260.217 281.109C263.868 282.975 267.91 283.947 272.011 283.947C276.111 283.947 280.153 282.975 283.804 281.109L373.814 228.828C377.044 227.015 378.659 224.513 378.659 222.046L378.822 165.504C378.786 168.007 377.171 170.491 373.942 172.304Z" fill="url(#paint11_linear)"/>
<path d="M373.87 158.687C380.401 162.458 380.438 168.57 373.87 172.323L283.859 224.622C280.206 226.479 276.165 227.447 272.066 227.447C267.967 227.447 263.926 226.479 260.273 224.622L169.772 172.305C163.241 168.533 163.204 162.422 169.682 158.65L259.71 106.369C263.361 104.504 267.403 103.531 271.504 103.531C275.604 103.531 279.646 104.504 283.297 106.369L373.87 158.687Z" fill="url(#paint12_linear)"/>
<path d="M354.256 160.011C359.518 163.039 359.554 167.972 354.256 171.018L281.537 213.253C278.593 214.754 275.335 215.537 272.029 215.537C268.724 215.537 265.466 214.754 262.522 213.253L189.331 171.018C184.051 167.972 184.033 163.039 189.331 160.011L262.05 117.776C264.998 116.275 268.259 115.492 271.567 115.492C274.875 115.492 278.136 116.275 281.083 117.776L354.256 160.011Z" fill="url(#paint13_linear)"/>
<path d="M259.945 18.6015C261.042 19.2491 262.064 20.0153 262.993 20.8864L309.658 63.9369C314.192 68.1154 316.908 73.9025 317.224 80.0582L317.097 139.067C317.097 148.623 313.813 156.33 307.445 161.97C302.154 166.348 295.898 169.406 289.192 170.892C280.915 172.869 272.401 173.674 263.9 173.286C262.356 173.157 260.864 172.666 259.546 171.853C257.917 170.867 256.443 169.645 255.173 168.226C246.192 158.214 237.79 147.697 230.008 136.727C223.174 127.252 217.107 117.246 211.864 106.806C205.532 93.822 202.357 82.3975 202.375 72.8589L202.538 13.8503C202.538 8.41009 205.623 5.43611 210.177 6.50602L256.933 17.3865C257.986 17.6565 258.999 18.065 259.945 18.6015Z" fill="url(#paint14_linear)"/>
<path d="M320.416 57.6983L273.751 14.6479C272.812 13.7804 271.785 13.0145 270.685 12.363C269.731 11.7958 268.697 11.374 267.618 11.1117L220.881 0.231251C219.356 -0.199529 217.724 -0.0240638 216.327 0.72088L205.567 6.97715C206.965 6.2322 208.597 6.05674 210.121 6.48752L256.877 17.368C257.951 17.6448 258.983 18.0657 259.944 18.6192C261.041 19.2668 262.063 20.0331 262.992 20.9041L309.657 63.9545C314.191 68.1331 316.907 73.9201 317.223 80.0758L317.096 139.066C317.096 148.623 313.812 156.33 307.444 161.969C305.763 163.435 303.939 164.729 302.001 165.832L312.76 159.576C314.694 158.473 316.517 157.186 318.203 155.731C324.571 150.074 327.819 142.367 327.855 132.81L328.018 73.8014C327.688 67.6468 324.959 61.8663 320.416 57.6983Z" fill="url(#paint15_linear)"/>
<path d="M259.692 27.7948C260.062 27.9958 260.404 28.2459 260.708 28.5383L307.355 71.5889C308.842 72.9557 309.734 74.8498 309.841 76.8659L309.677 135.875C309.783 139.395 309.11 142.895 307.709 146.127C306.307 149.358 304.21 152.241 301.567 154.571C296.686 158.583 290.922 161.38 284.748 162.731C276.886 164.61 268.802 165.391 260.726 165.052C260.223 165.013 259.737 164.851 259.311 164.581C258.773 164.274 258.294 163.875 257.895 163.402C249.346 153.882 241.35 143.88 233.946 133.445C227.661 124.738 222.079 115.545 217.254 105.953C211.938 95.0726 209.252 85.6428 209.271 77.9721L209.434 18.9635C209.434 17.1501 210.468 16.2071 211.938 16.5516L258.694 27.4321C259.044 27.499 259.38 27.6215 259.692 27.7948Z" fill="url(#paint16_linear)"/>
<path d="M260.709 28.5384C260.405 28.2459 260.063 27.9958 259.692 27.7949C259.385 27.6025 259.048 27.4617 258.695 27.3778L223.968 19.3081C234.164 55.5764 257.425 106.914 309.696 131.74L309.841 76.8114C309.735 74.7954 308.842 72.9012 307.356 71.5344L260.709 28.5384Z" fill="url(#paint17_linear)"/>
<path opacity="0.42" d="M189.911 222.392C192.08 223.794 193.885 225.69 195.178 227.925C196.471 230.16 197.215 232.67 197.349 235.249L197.204 285.77C197.204 290.504 193.848 292.389 189.729 290.014L118.969 249.158C116.8 247.755 114.995 245.859 113.702 243.624C112.408 241.389 111.664 238.879 111.53 236.3L111.675 185.779C111.675 181.046 115.032 179.141 119.151 181.517L189.911 222.392Z" fill="#4164A9"/>
<path opacity="0.5" d="M176.61 229.645C178.779 231.048 180.584 232.944 181.877 235.179C183.17 237.414 183.915 239.924 184.049 242.503L183.904 293.024C183.904 297.757 180.529 299.643 176.41 297.268L105.65 256.411C103.485 255.007 101.683 253.11 100.393 250.875C99.103 248.64 98.3615 246.131 98.2295 243.554L98.3747 193.032C98.3747 188.299 101.731 186.395 105.85 188.771L176.61 229.645Z" fill="#43B1C4"/>
<path d="M120.839 250.591C121.232 251.176 121.745 251.671 122.344 252.042C122.453 252.107 122.569 252.162 122.689 252.205C122.069 251.976 121.463 251.71 120.875 251.407L120.839 250.591Z" fill="#747878"/>
<path d="M120.604 218.93C120.314 218.731 120.024 218.531 119.716 218.35L119.915 218.477L120.477 218.84L120.604 218.93Z" fill="#6C7070"/>
<path d="M120.076 245.386L120.475 245.604L120.076 245.386Z" fill="#747878"/>
<path d="M121.818 246.185C121.503 246.098 121.171 246.098 120.856 246.185V245.804C121.167 245.953 121.489 246.081 121.818 246.185Z" fill="#747878"/>
<path d="M122 219.944L122.653 220.488C122.036 219.934 121.375 219.431 120.676 218.983L120.93 219.128V218.766C121.228 219.208 121.589 219.605 122 219.944Z" fill="#747878"/>
<path d="M119.804 212.799L120.947 213.524V214.34C120.625 214.473 120.356 214.709 120.182 215.011C120.008 215.313 119.939 215.664 119.985 216.009C120.028 216.999 120.355 217.956 120.928 218.765V219.128L119.785 218.403C113.344 214.776 108.101 217.677 108.083 225.076C108.295 229.108 109.46 233.032 111.481 236.527C113.503 240.023 116.323 242.99 119.713 245.187L120.076 245.386L120.511 245.622L120.856 245.785V246.166C120.535 246.296 120.267 246.528 120.093 246.827C119.919 247.125 119.849 247.474 119.894 247.816C119.936 248.812 120.264 249.775 120.838 250.591V251.407L120.511 251.244L119.695 250.79C110.623 245.531 103.184 232.747 103.202 222.265C103.22 211.783 110.659 207.54 119.804 212.799Z" fill="white"/>
<path d="M121.407 213.983L121.763 214.22C121.816 214.239 121.864 214.271 121.901 214.311C129.113 219.875 134.073 227.526 135.976 236.022C135.976 236.022 135.976 236.186 135.976 236.259C135.983 236.338 135.983 236.417 135.976 236.496C135.976 236.605 135.976 236.678 135.976 236.733C135.976 236.788 135.976 236.915 135.976 236.988C135.976 237.061 135.976 237.153 135.976 237.226C135.976 237.299 135.976 237.408 135.976 237.481C135.976 237.554 135.976 237.664 135.976 237.736V238.229C135.976 238.339 135.976 238.412 135.976 238.466V238.703C135.983 238.782 135.983 238.862 135.976 238.941V239.397C135.983 239.476 135.983 239.555 135.976 239.634V240.601C135.986 240.692 135.986 240.783 135.976 240.874V242.225C135.976 242.352 135.976 242.389 135.976 242.443C135.981 242.516 135.981 242.589 135.976 242.662C135.976 242.79 135.976 242.827 135.976 242.881C135.969 242.954 135.969 243.027 135.976 243.1C135.981 243.173 135.981 243.246 135.976 243.319C135.976 243.502 135.976 243.648 135.976 243.775C135.976 243.903 135.976 243.921 135.976 243.976C135.976 244.031 135.976 244.122 135.976 244.177C135.984 244.243 135.984 244.311 135.976 244.377C135.976 244.469 135.976 244.523 135.976 244.578C135.97 244.645 135.97 244.712 135.976 244.779C135.984 244.839 135.984 244.901 135.976 244.961C135.971 245.034 135.971 245.107 135.976 245.18C135.967 245.247 135.967 245.314 135.976 245.381C134.217 251.547 128.721 254.12 121.881 251.857H121.743C121.612 251.814 121.487 251.759 121.367 251.693C120.714 251.32 120.155 250.822 119.726 250.234C119.101 249.413 118.744 248.444 118.699 247.442C118.649 247.098 118.725 246.747 118.915 246.447C119.104 246.146 119.397 245.913 119.746 245.782C120.087 245.683 120.453 245.683 120.794 245.782H120.913C122.635 246.426 124.541 246.523 126.329 246.056H126.547H126.744H126.962H127.14L127.337 245.965L127.515 245.873L127.713 245.764L127.891 245.654L128.089 245.527L128.247 245.417L128.405 245.29L128.583 245.162L128.741 245.016L128.899 244.852L129.057 244.706L129.215 244.541V244.45V244.341L129.354 244.158L129.472 243.976L129.611 243.775C129.657 243.712 129.697 243.645 129.729 243.575C129.763 243.511 129.802 243.45 129.848 243.392C129.874 243.322 129.907 243.255 129.947 243.191C129.986 243.121 130.019 243.048 130.046 242.973L130.164 242.735V242.516C130.171 242.438 130.171 242.358 130.164 242.279V242.042C130.243 241.805 130.243 241.805 130.322 241.568C130.322 241.458 130.322 241.385 130.322 241.312C130.322 241.239 130.322 241.13 130.322 241.057C130.317 240.966 130.317 240.874 130.322 240.783C130.322 240.51 130.322 240.51 130.322 240.238L130.322 240.236C130.332 240.145 130.332 240.053 130.322 239.962C130.322 239.853 130.322 239.762 130.322 239.689C130.322 239.616 130.322 239.47 130.322 239.397C130.322 239.324 130.322 239.178 130.322 239.087V238.776C130.322 238.667 130.322 238.557 130.322 238.466C130.322 238.375 130.322 238.284 130.322 238.174V237.882C130.334 237.773 130.334 237.663 130.322 237.554C130.334 237.451 130.334 237.347 130.322 237.244C130.322 237.116 130.322 237.025 130.322 236.915C130.322 236.806 130.322 236.697 130.322 236.587C130.322 236.478 130.322 236.386 130.322 236.295C130.322 236.204 130.322 236.076 130.322 235.967V235.657V235.328V235C130.322 234.671 130.184 234.343 130.105 234.033C130.026 233.723 130.105 233.814 130.006 233.723L129.828 233.066C128.389 228.524 125.715 224.398 122.059 221.08L121.822 220.879L121.585 220.66L121.466 220.569L121.328 220.459L121.17 220.332C120.913 220.131 120.675 219.93 120.438 219.766C119.99 219.424 119.597 219.025 119.272 218.58C118.647 217.766 118.29 216.803 118.244 215.807C118.193 215.46 118.269 215.107 118.458 214.803C118.648 214.5 118.921 214.116 119.272 213.983C119.582 213.794 119.958 213.827 120.329 213.801C120.699 213.776 121.07 213.838 121.407 213.983Z" fill="#4164A9"/>
<path d="M122.777 214.848L122.45 214.612C122.23 214.47 121.983 214.373 121.725 214.326C121.467 214.279 121.202 214.284 120.945 214.34V213.524C121.562 214.014 122.178 214.376 122.777 214.848Z" fill="#4164A9"/>
<path d="M158.614 273.024C159.007 273.609 159.521 274.103 160.119 274.475C160.229 274.54 160.344 274.594 160.464 274.638C159.846 274.403 159.241 274.136 158.651 273.84L158.614 273.024Z" fill="#747878"/>
<path d="M158.377 241.361C158.087 241.161 157.797 240.962 157.488 240.78L157.688 240.907L158.268 241.27L158.377 241.361Z" fill="#6C7070"/>
<path d="M157.854 267.82L158.252 268.037L157.854 267.82Z" fill="#747878"/>
<path d="M159.594 268.616C159.281 268.517 158.946 268.517 158.633 268.616V268.235C158.944 268.385 159.265 268.512 159.594 268.616Z" fill="#747878"/>
<path d="M159.776 242.377C160.009 242.538 160.228 242.72 160.429 242.921C159.811 242.367 159.15 241.863 158.451 241.416L158.705 241.561V241.216C159.005 241.652 159.366 242.043 159.776 242.377Z" fill="#747878"/>
<path d="M157.582 235.232L158.725 235.939V236.773C158.144 236.955 157.781 237.535 157.763 238.442C157.806 239.432 158.133 240.389 158.707 241.198V241.561C158.344 241.307 157.945 241.071 157.564 240.835C151.123 237.208 145.897 240.11 145.861 247.509C146.069 251.535 147.225 255.456 149.237 258.951C151.249 262.446 154.058 265.416 157.437 267.62L157.799 267.819L158.235 268.055L158.58 268.218V268.599C158.261 268.731 157.994 268.964 157.821 269.262C157.647 269.56 157.576 269.907 157.618 270.249C157.663 271.245 157.99 272.207 158.561 273.024V273.858L158.235 273.695L157.418 273.241C148.347 267.982 140.908 255.198 140.926 244.716C140.944 234.234 148.365 229.973 157.582 235.232Z" fill="white"/>
<path d="M158.661 236.006L159.036 236.243L159.174 236.334C166.355 241.891 171.292 249.533 173.18 258.015C173.188 258.094 173.188 258.173 173.18 258.252C173.176 258.331 173.176 258.41 173.18 258.489C173.175 258.568 173.175 258.647 173.18 258.726C173.18 258.835 173.18 258.908 173.18 258.981C173.18 259.054 173.18 259.145 173.18 259.199C173.18 259.254 173.18 259.4 173.18 259.473C173.18 259.546 173.18 259.655 173.18 259.728V260.22C173.18 260.457 173.18 260.457 173.18 260.693C173.174 260.772 173.174 260.851 173.18 260.93V261.149C173.186 261.228 173.186 261.307 173.18 261.386V261.623C173.165 261.701 173.165 261.781 173.18 261.859V262.315C173.187 262.406 173.187 262.497 173.18 262.588V263.991C173.173 264.064 173.173 264.137 173.18 264.21C173.18 264.337 173.18 264.374 173.18 264.428C173.184 264.501 173.184 264.574 173.18 264.647C173.18 264.775 173.18 264.811 173.18 264.866C173.172 264.938 173.172 265.012 173.18 265.084C173.185 265.157 173.185 265.23 173.18 265.303C173.18 265.485 173.18 265.631 173.18 265.758C173.18 265.886 173.18 265.904 173.18 265.959C173.18 266.014 173.18 266.105 173.18 266.159C173.185 266.226 173.185 266.293 173.18 266.36V266.56C173.174 266.627 173.174 266.694 173.18 266.76C173.188 266.821 173.188 266.882 173.18 266.943C173.185 267.016 173.185 267.089 173.18 267.161V267.362C171.427 273.52 165.95 276.089 159.134 273.83H158.996C158.866 273.786 158.741 273.731 158.622 273.666C157.971 273.293 157.414 272.796 156.987 272.208C156.367 271.387 156.012 270.421 155.963 269.421C155.911 269.168 155.933 268.907 156.026 268.664C156.118 268.421 156.279 268.206 156.491 268.039C156.703 267.873 156.959 267.761 157.233 267.716C157.507 267.67 157.789 267.693 158.051 267.781H158.169C159.885 268.424 161.784 268.52 163.567 268.054H163.783L163.98 267.963H164.197H164.394L164.571 267.872L164.748 267.763L164.945 267.671L165.123 267.562L165.32 267.435L165.477 267.325C165.576 267.325 165.615 267.325 165.635 267.198L165.812 267.052L165.97 266.925L166.147 266.76L166.305 266.615C166.342 266.554 166.388 266.499 166.443 266.451V266.36V266.25L166.581 266.068L166.718 265.886C166.718 265.777 166.718 265.74 166.837 265.686C166.955 265.631 166.837 265.54 166.955 265.485C166.988 265.421 167.028 265.36 167.073 265.303C167.079 265.23 167.079 265.157 167.073 265.084L167.191 264.884C167.191 264.775 167.191 264.72 167.29 264.647C167.312 264.57 167.345 264.497 167.388 264.428V264.192V263.955V263.718C167.394 263.639 167.394 263.56 167.388 263.481C167.388 263.372 167.388 263.299 167.388 263.226C167.388 263.153 167.388 263.044 167.388 262.971C167.383 262.88 167.383 262.789 167.388 262.698C167.394 262.607 167.394 262.515 167.388 262.424C167.388 262.315 167.388 262.224 167.388 262.151C167.388 262.06 167.388 261.969 167.388 261.878C167.388 261.787 167.388 261.677 167.388 261.604C167.388 261.532 167.388 261.386 167.388 261.313C167.388 261.24 167.388 261.094 167.388 261.003V260.693C167.398 260.59 167.398 260.487 167.388 260.384V260.092C167.379 259.995 167.379 259.898 167.388 259.801C167.4 259.692 167.4 259.582 167.388 259.473C167.399 259.37 167.399 259.266 167.388 259.163C167.388 259.035 167.388 258.926 167.388 258.835C167.388 258.744 167.388 258.616 167.388 258.507C167.397 258.404 167.397 258.3 167.388 258.197C167.388 258.088 167.388 257.997 167.388 257.888V257.578V257.25V256.922C167.388 256.594 167.25 256.266 167.171 255.956C167.164 255.853 167.164 255.75 167.171 255.647C167.171 255.41 167.034 255.191 166.975 254.991C165.54 250.455 162.875 246.334 159.233 243.02L159.016 242.82L158.76 242.601L158.661 242.51L158.523 242.401L158.366 242.273C158.131 242.069 157.881 241.88 157.617 241.709C157.171 241.367 156.779 240.969 156.455 240.524C155.833 239.712 155.477 238.75 155.431 237.755C155.431 236.844 155.844 236.261 156.475 236.079C156.799 235.888 157.173 235.781 157.557 235.768C157.942 235.756 158.323 235.838 158.661 236.006Z" fill="#CAEDF3"/>
<g style="mix-blend-mode:multiply" opacity="0.5">
<path style="mix-blend-mode:multiply" opacity="0.5" d="M151.466 343.346C151.882 343.491 152.243 343.762 152.498 344.121C152.753 344.48 152.891 344.91 152.891 345.35C152.891 345.791 152.753 346.22 152.498 346.579C152.243 346.938 151.882 347.209 151.466 347.354L132.034 358.706C130.96 359.251 129.773 359.535 128.568 359.535C127.364 359.535 126.177 359.251 125.103 358.706L105.453 347.354C105.037 347.209 104.676 346.938 104.421 346.579C104.166 346.22 104.028 345.791 104.028 345.35C104.028 344.91 104.166 344.48 104.421 344.121C104.676 343.762 105.037 343.491 105.453 343.346L124.994 332.012C126.064 331.466 127.249 331.182 128.45 331.182C129.652 331.182 130.837 331.466 131.907 332.012L151.466 343.346Z" fill="#E6EFFF"/>
</g>
<path d="M151.485 330.799L132.035 342.151C130.961 342.696 129.774 342.98 128.569 342.98C127.365 342.98 126.178 342.696 125.104 342.151L105.454 330.799C105.053 330.626 104.706 330.348 104.45 329.993C104.194 329.639 104.04 329.222 104.003 328.786V339.195C104.044 339.632 104.2 340.049 104.455 340.406C104.71 340.763 105.055 341.046 105.454 341.226L125.104 352.56C126.178 353.105 127.365 353.389 128.569 353.389C129.774 353.389 130.961 353.105 132.035 352.56L151.557 341.226C151.953 341.052 152.295 340.776 152.547 340.425C152.799 340.074 152.952 339.662 152.991 339.231V328.822C152.943 329.257 152.777 329.671 152.512 330.019C152.247 330.368 151.892 330.637 151.485 330.799Z" fill="url(#paint18_linear)"/>
<path d="M128.404 353.647C127.14 353.674 125.89 353.374 124.775 352.777L105.126 341.443C104.678 341.241 104.294 340.923 104.013 340.52C103.731 340.118 103.565 339.647 103.529 339.158V328.749H104.11C104.143 329.141 104.282 329.517 104.512 329.836C104.742 330.155 105.055 330.406 105.416 330.562L125.066 341.914C126.096 342.433 127.233 342.703 128.386 342.703C129.539 342.703 130.676 342.433 131.706 341.914L151.229 330.562C151.573 330.412 151.872 330.174 152.095 329.871C152.318 329.569 152.457 329.213 152.499 328.84H153.098V339.249C153.061 339.728 152.898 340.19 152.623 340.585C152.349 340.98 151.974 341.295 151.537 341.497L132.033 352.813C130.916 353.402 129.666 353.689 128.404 353.647ZM104.219 330.254V339.14C104.252 339.53 104.389 339.903 104.616 340.222C104.842 340.541 105.15 340.793 105.507 340.953L125.156 352.287C126.183 352.815 127.322 353.091 128.477 353.091C129.632 353.091 130.77 352.815 131.797 352.287L151.301 340.953C151.658 340.796 151.965 340.543 152.189 340.224C152.413 339.904 152.545 339.529 152.571 339.14V330.2C152.284 330.505 151.954 330.768 151.592 330.98L132.033 342.404C130.909 342.977 129.666 343.276 128.404 343.276C127.143 343.276 125.899 342.977 124.775 342.404L105.126 331.07C104.787 330.842 104.481 330.567 104.219 330.254Z" fill="white"/>
<path d="M151.466 326.792C151.882 326.937 152.243 327.208 152.498 327.567C152.753 327.926 152.891 328.355 152.891 328.796C152.891 329.236 152.753 329.666 152.498 330.025C152.243 330.384 151.882 330.655 151.466 330.8L132.034 342.152C130.96 342.697 129.773 342.98 128.568 342.98C127.364 342.98 126.177 342.697 125.103 342.152L105.453 330.8C105.037 330.655 104.676 330.384 104.421 330.025C104.166 329.666 104.028 329.236 104.028 328.796C104.028 328.355 104.166 327.926 104.421 327.567C104.676 327.208 105.037 326.937 105.453 326.792L124.994 315.458C126.064 314.912 127.249 314.627 128.45 314.627C129.652 314.627 130.837 314.912 131.907 315.458L151.466 326.792Z" fill="url(#paint19_linear)"/>
<path d="M144.734 321.352L130.89 329.403C130.128 329.789 129.286 329.99 128.432 329.99C127.578 329.99 126.736 329.789 125.974 329.403L112.076 321.352C111.799 321.218 111.56 321.017 111.383 320.766C111.205 320.516 111.094 320.224 111.06 319.919V328.75C111.094 329.055 111.205 329.347 111.383 329.598C111.56 329.848 111.799 330.05 112.076 330.183L126.01 338.216C126.772 338.602 127.614 338.803 128.468 338.803C129.323 338.803 130.165 338.602 130.927 338.216L144.752 330.183C145.027 330.051 145.264 329.853 145.441 329.605C145.619 329.358 145.731 329.07 145.768 328.768V319.955C145.727 320.256 145.61 320.541 145.429 320.785C145.249 321.029 145.01 321.224 144.734 321.352Z" fill="url(#paint20_linear)"/>
<path d="M144.735 318.523C146.096 319.303 146.114 320.572 144.735 321.352L130.891 329.403C130.129 329.789 129.287 329.99 128.433 329.99C127.579 329.99 126.736 329.789 125.974 329.403L112.884 321.82C112.347 321.508 111.701 321.308 111.34 320.803C111.158 320.548 111.06 320.242 111.06 319.928C111.06 319.615 111.158 319.309 111.34 319.054C111.701 318.548 112.347 318.348 112.883 318.036L125.902 310.471C126.664 310.086 127.506 309.885 128.36 309.885C129.214 309.885 130.057 310.086 130.819 310.471L144.735 318.523Z" fill="url(#paint21_linear)"/>
<g opacity="0.42">
<path opacity="0.42" d="M154.188 83.8657L153.97 162.949L105.055 134.714L105.272 55.6309L154.188 83.8657Z" fill="#5C638B"/>
</g>
<g opacity="0.42">
<path opacity="0.42" d="M161.661 80.1304L161.48 148.26L119.351 123.942L119.532 55.8125L161.661 80.1304Z" fill="#4164A9"/>
</g>
<path d="M148.148 87.4936L147.912 166.577L99.0146 138.342L99.2324 59.2588L148.148 87.4936Z" fill="#CAEDF3"/>
<path d="M117.518 96.5779V98.0649C117.521 98.2675 117.469 98.467 117.369 98.6431C117.269 98.8192 117.124 98.9655 116.948 99.067C116.773 99.1685 116.574 99.2215 116.371 99.2207C116.168 99.2199 115.969 99.1652 115.795 99.0623L108.719 95.0002C108.546 94.8981 108.402 94.7522 108.304 94.577C108.205 94.4019 108.154 94.2039 108.156 94.0029V92.5159C108.156 92.316 108.208 92.1194 108.307 91.9459C108.406 91.7724 108.55 91.628 108.722 91.527C108.895 91.4261 109.091 91.3721 109.291 91.3706C109.491 91.3691 109.688 91.4201 109.862 91.5185L116.938 95.5805C117.114 95.6803 117.261 95.8253 117.363 96.0006C117.465 96.1759 117.519 96.3751 117.518 96.5779Z" fill="#7796D1"/>
<path d="M139.907 116.816V118.321C139.908 118.521 139.856 118.717 139.756 118.891C139.657 119.065 139.514 119.209 139.341 119.31C139.169 119.411 138.973 119.465 138.773 119.466C138.573 119.468 138.376 119.417 138.202 119.318L108.755 102.435C108.577 102.337 108.429 102.192 108.326 102.017C108.224 101.841 108.171 101.641 108.174 101.438V99.9509C108.173 99.751 108.225 99.5545 108.325 99.381C108.424 99.2074 108.567 99.063 108.74 98.962C108.912 98.8611 109.108 98.8072 109.308 98.8057C109.508 98.8042 109.705 98.8552 109.879 98.9535L139.326 115.819C139.501 115.921 139.646 116.067 139.747 116.241C139.849 116.416 139.904 116.614 139.907 116.816Z" fill="#7796D1"/>
<g opacity="0.53">
<path opacity="0.53" d="M127.769 124.758V126.245C127.769 126.445 127.717 126.642 127.618 126.815C127.519 126.989 127.376 127.133 127.203 127.234C127.031 127.335 126.834 127.389 126.634 127.391C126.434 127.392 126.238 127.341 126.063 127.243L108.755 117.323C108.577 117.225 108.429 117.08 108.326 116.905C108.224 116.729 108.171 116.529 108.174 116.326V114.839C108.172 114.636 108.223 114.437 108.323 114.261C108.424 114.085 108.569 113.938 108.744 113.837C108.92 113.735 109.119 113.682 109.322 113.683C109.524 113.684 109.723 113.739 109.898 113.842L127.207 123.761C127.38 123.863 127.523 124.009 127.622 124.184C127.721 124.359 127.771 124.557 127.769 124.758Z" fill="#7796D1"/>
</g>
<path d="M135.353 121.639V123.144C135.355 123.347 135.304 123.546 135.204 123.722C135.103 123.898 134.958 124.045 134.783 124.146C134.607 124.248 134.408 124.301 134.205 124.3C134.003 124.299 133.804 124.244 133.629 124.141L108.754 109.888C108.578 109.788 108.431 109.643 108.329 109.468C108.227 109.293 108.173 109.094 108.174 108.891V107.386C108.175 107.185 108.229 106.987 108.33 106.814C108.432 106.64 108.577 106.497 108.752 106.397C108.927 106.298 109.125 106.246 109.326 106.248C109.527 106.25 109.724 106.304 109.897 106.406L134.772 120.66C134.948 120.757 135.094 120.898 135.196 121.07C135.298 121.243 135.352 121.439 135.353 121.639Z" fill="#7796D1"/>
<g style="mix-blend-mode:multiply" opacity="0.5">
<path d="M489.461 219.111C492.4 220.816 492.418 223.554 489.461 225.259L459.524 242.65C457.878 243.49 456.056 243.928 454.208 243.928C452.36 243.928 450.538 243.49 448.892 242.65L418.755 225.259C415.816 223.554 415.798 220.816 418.755 219.111L448.71 201.721C450.353 200.881 452.172 200.442 454.017 200.442C455.863 200.442 457.682 200.881 459.324 201.721L489.461 219.111Z" fill="url(#paint22_linear)"/>
</g>
<path d="M489.463 199.871L459.526 217.262C457.88 218.102 456.058 218.54 454.21 218.54C452.362 218.54 450.54 218.102 448.894 217.262L418.758 199.871C418.146 199.597 417.619 199.165 417.23 198.62C416.841 198.075 416.604 197.437 416.544 196.77V212.746C416.587 213.408 416.812 214.046 417.192 214.589C417.573 215.133 418.095 215.562 418.703 215.829L448.84 233.22C450.487 234.056 452.308 234.492 454.156 234.492C456.003 234.492 457.824 234.056 459.472 233.22L489.463 215.829C490.063 215.559 490.581 215.135 490.963 214.6C491.346 214.064 491.58 213.437 491.64 212.782V196.806C491.592 197.467 491.364 198.102 490.98 198.643C490.596 199.183 490.071 199.608 489.463 199.871Z" fill="url(#paint23_linear)"/>
<path d="M454.227 234.96C452.295 234.989 450.386 234.534 448.675 233.637L418.539 216.246C417.856 215.935 417.27 215.446 416.842 214.83C416.414 214.214 416.16 213.494 416.107 212.746V196.77H417.015C417.08 197.356 417.299 197.914 417.65 198.389C418 198.863 418.469 199.237 419.01 199.472L449.147 216.863C450.723 217.667 452.467 218.086 454.236 218.086C456.006 218.086 457.75 217.667 459.325 216.863L489.262 199.49C489.79 199.253 490.247 198.883 490.588 198.415C490.928 197.948 491.141 197.399 491.204 196.824H492.111V212.801C492.055 213.536 491.801 214.243 491.376 214.846C490.951 215.449 490.371 215.927 489.698 216.228L459.761 233.619C458.063 234.534 456.157 234.997 454.227 234.96ZM417.051 199.037V212.746C417.108 213.332 417.321 213.893 417.669 214.368C418.017 214.844 418.487 215.217 419.029 215.448L449.165 232.839C450.741 233.643 452.485 234.062 454.254 234.062C456.024 234.062 457.768 233.643 459.344 232.839L489.281 215.448C489.811 215.217 490.27 214.851 490.614 214.386C490.958 213.921 491.174 213.375 491.24 212.801V199.073C490.808 199.545 490.306 199.949 489.752 200.27L459.815 217.642C458.096 218.51 456.198 218.961 454.272 218.961C452.347 218.961 450.448 218.51 448.73 217.642L418.593 200.252C418.013 199.939 417.491 199.528 417.051 199.037Z" fill="white"/>
<path d="M489.461 193.724C492.4 195.428 492.418 198.167 489.461 199.871L459.524 217.262C457.878 218.102 456.056 218.541 454.208 218.541C452.36 218.541 450.538 218.102 448.892 217.262L418.755 199.871C415.816 198.167 415.798 195.428 418.755 193.724L448.71 176.333C450.353 175.493 452.172 175.055 454.017 175.055C455.863 175.055 457.682 175.493 459.324 176.333L489.461 193.724Z" fill="url(#paint24_linear)"/>
<path d="M479.209 185.381L457.999 197.694C456.829 198.284 455.536 198.591 454.225 198.591C452.915 198.591 451.622 198.284 450.452 197.694L429.096 185.363C428.66 185.175 428.284 184.871 428.009 184.484C427.734 184.097 427.57 183.642 427.536 183.168V196.697C427.583 197.166 427.752 197.616 428.026 198C428.299 198.385 428.668 198.692 429.096 198.891L450.47 211.204C451.634 211.802 452.925 212.114 454.235 212.114C455.544 212.114 456.835 211.802 457.999 211.204L479.209 198.891C479.638 198.7 480.008 198.397 480.279 198.014C480.551 197.632 480.714 197.183 480.751 196.715V183.205C480.714 183.673 480.551 184.121 480.279 184.504C480.008 184.887 479.638 185.19 479.209 185.381Z" fill="url(#paint25_linear)"/>
<path d="M478.032 180.359C478.804 180.805 479.721 181.096 480.265 181.802C480.282 181.825 480.299 181.847 480.315 181.87C480.593 182.26 480.742 182.727 480.742 183.206C480.742 183.685 480.593 184.152 480.315 184.542C480.301 184.561 480.288 184.58 480.273 184.598C479.728 185.316 478.8 185.61 478.021 186.063L458 197.695C456.83 198.285 455.537 198.592 454.227 198.592C452.916 198.592 451.623 198.285 450.453 197.695L430.255 186.032C429.485 185.588 428.571 185.298 428.028 184.595C428.01 184.572 427.992 184.548 427.975 184.523C427.697 184.133 427.548 183.667 427.548 183.188C427.548 182.709 427.697 182.242 427.975 181.852C427.988 181.834 428.002 181.815 428.015 181.797C428.56 181.078 429.49 180.783 430.271 180.33L450.308 168.681C451.475 168.091 452.764 167.784 454.072 167.784C455.38 167.784 456.67 168.091 457.837 168.681L478.032 180.359Z" fill="url(#paint26_linear)"/>
<path opacity="0.42" d="M98.2314 155.731C97.2516 155.169 96.417 155.622 96.417 156.747V167.137C96.4542 167.756 96.6381 168.356 96.9536 168.889C97.2692 169.422 97.7072 169.872 98.2314 170.202L107.303 175.425C108.283 175.987 109.118 175.534 109.118 174.409V164.018C109.08 163.4 108.896 162.8 108.581 162.267C108.265 161.734 107.827 161.284 107.303 160.954L98.2314 155.731Z" fill="#D2E1FF"/>
<path opacity="0.42" d="M192.577 260.909C191.597 260.347 190.763 260.8 190.763 261.924V272.315C190.8 272.933 190.984 273.534 191.299 274.067C191.615 274.6 192.053 275.05 192.577 275.38L201.649 280.602C202.629 281.165 203.463 280.711 203.463 279.587V269.196C203.426 268.578 203.242 267.978 202.927 267.445C202.611 266.912 202.173 266.462 201.649 266.131L192.577 260.909Z" fill="#52BACC"/>
<path d="M488.581 358.581C493.172 361.228 493.19 365.526 488.581 368.174L425.26 404.968C422.695 406.273 419.857 406.954 416.978 406.954C414.099 406.954 411.261 406.273 408.695 404.968L344.975 368.192C340.366 365.526 340.348 361.246 344.975 358.581L408.296 321.805C410.863 320.495 413.705 319.812 416.588 319.812C419.47 319.812 422.312 320.495 424.879 321.805L488.581 358.581Z" fill="url(#paint27_linear)"/>
<path d="M488.637 336.257L425.315 373.033C422.75 374.339 419.912 375.019 417.033 375.019C414.154 375.019 411.316 374.339 408.75 373.033L345.03 336.257C344.071 335.839 343.243 335.171 342.633 334.322C342.023 333.473 341.654 332.475 341.565 331.433L341.438 340.591C341.535 341.632 341.907 342.629 342.516 343.48C343.125 344.33 343.948 345.004 344.903 345.433L408.641 382.209C411.207 383.515 414.045 384.195 416.924 384.195C419.803 384.195 422.641 383.515 425.207 382.209L488.528 345.433C489.465 345.009 490.274 344.345 490.87 343.507C491.466 342.669 491.828 341.688 491.921 340.663L492.048 331.506C491.949 332.528 491.581 333.506 490.982 334.34C490.383 335.175 489.574 335.836 488.637 336.257Z" fill="url(#paint28_linear)"/>
<path d="M488.637 336.257L425.315 373.033C422.75 374.339 419.912 375.019 417.033 375.019C414.154 375.019 411.316 374.339 408.75 373.033L345.03 336.257C344.071 335.839 343.243 335.171 342.633 334.322C342.023 333.473 341.654 332.475 341.565 331.433L341.438 340.591C341.535 341.632 341.907 342.629 342.516 343.48C343.125 344.33 343.948 345.004 344.903 345.433L408.641 382.209C411.207 383.515 414.045 384.195 416.924 384.195C419.803 384.195 422.641 383.515 425.207 382.209L488.528 345.433C489.465 345.009 490.274 344.345 490.87 343.507C491.466 342.669 491.828 341.688 491.921 340.663L492.048 331.506C491.949 332.528 491.581 333.506 490.982 334.34C490.383 335.175 489.574 335.836 488.637 336.257Z" fill="url(#paint29_linear)"/>
<path d="M488.581 326.664C493.172 329.311 493.19 333.609 488.581 336.257L425.26 373.033C422.695 374.338 419.857 375.019 416.978 375.019C414.099 375.019 411.261 374.338 408.695 373.033L344.975 336.257C340.366 333.609 340.348 329.311 344.975 326.664L408.296 289.887C410.865 288.582 413.706 287.901 416.588 287.901C419.47 287.901 422.311 288.582 424.879 289.887L488.581 326.664Z" fill="url(#paint30_linear)"/>
<path d="M408.371 339.678L418.516 345.332C419.22 345.639 419.984 345.783 420.752 345.752C421.519 345.722 422.27 345.517 422.947 345.154L426.667 343.084C427.977 342.349 428.121 341.242 426.988 340.616L416.842 334.963C416.139 334.655 415.374 334.511 414.607 334.542C413.839 334.573 413.089 334.777 412.412 335.14L408.692 337.211C407.39 337.937 407.246 339.053 408.371 339.678Z" fill="white"/>
<path d="M408.371 338.487L418.516 344.124C419.22 344.431 419.984 344.575 420.752 344.544C421.519 344.514 422.27 344.309 422.947 343.946L426.667 341.876C427.977 341.149 428.121 340.042 426.988 339.408L416.842 333.755C416.139 333.447 415.374 333.303 414.607 333.334C413.839 333.365 413.089 333.569 412.412 333.932L408.692 336.003C407.39 336.755 407.246 337.853 408.371 338.487Z" fill="#BACBEA"/>
<path d="M421.661 339.771L414.863 335.977V327.518L421.661 331.312V339.771Z" fill="#D2E1FF"/>
<path d="M421.662 339.771L423.42 338.664V332.495L421.637 331.92L421.662 339.771Z" fill="#AFC2E9"/>
<path d="M449.359 309.02C449.225 308.193 448.908 307.405 448.431 306.715C447.954 306.025 447.329 305.45 446.602 305.032L397.049 276.596C396.741 276.421 396.392 276.329 396.038 276.329C395.684 276.329 395.336 276.421 395.028 276.596L392.491 278.092C392.798 277.917 393.145 277.825 393.498 277.825C393.85 277.825 394.197 277.917 394.504 278.092L444.015 306.502C444.727 306.911 445.34 307.472 445.812 308.143C446.284 308.815 446.603 309.581 446.746 310.389C446.81 310.718 446.844 311.052 446.848 311.386V344.124C446.849 344.594 446.729 345.058 446.497 345.468C446.266 345.878 445.932 346.222 445.529 346.464L447.947 345.112C448.39 344.883 448.762 344.536 449.021 344.11C449.281 343.684 449.418 343.194 449.418 342.695V309.924C449.424 309.622 449.404 309.319 449.359 309.02Z" fill="#D2E1FF"/>
<path d="M392.397 278.159H392.457H392.516C392.822 277.984 393.169 277.892 393.522 277.892C393.875 277.892 394.222 277.984 394.528 278.159L444.04 306.569C444.9 307.063 445.615 307.774 446.112 308.632C446.609 309.489 446.871 310.463 446.872 311.454V344.123C446.871 344.602 446.744 345.071 446.505 345.486C446.266 345.9 445.922 346.245 445.508 346.485C445.094 346.725 444.624 346.853 444.146 346.855C443.667 346.857 443.196 346.734 442.78 346.498L394.266 318.949C393.418 318.467 392.713 317.769 392.223 316.926C391.733 316.082 391.475 315.125 391.476 314.149V279.9C391.466 279.555 391.546 279.213 391.708 278.908C391.869 278.603 392.107 278.345 392.397 278.159Z" fill="#4164A9"/>
<path d="M417.015 312.959C416.86 312.858 416.731 312.722 416.638 312.562C416.546 312.402 416.492 312.222 416.482 312.037C416.482 311.699 416.719 311.556 417.024 311.733L422.181 314.708C422.331 314.813 422.455 314.95 422.545 315.109C422.634 315.269 422.686 315.447 422.697 315.629C422.697 315.976 422.451 316.103 422.164 315.933L417.015 312.959Z" fill="#C4D1EA"/>
<path d="M426.45 322.727C428.118 324.231 429.124 326.333 429.248 328.575C429.248 330.992 427.558 331.955 425.418 330.755C423.536 329.523 422.217 327.597 421.749 325.397L409.481 318.324C408.915 317.954 408.444 317.454 408.107 316.866C407.771 316.279 407.578 315.62 407.545 314.944V311.742C407.522 311.495 407.567 311.247 407.676 311.025C407.785 310.803 407.953 310.615 408.162 310.482C407.792 309.891 407.585 309.211 407.562 308.514V305.277C407.539 305.03 407.585 304.781 407.695 304.559C407.806 304.336 407.976 304.149 408.187 304.018C407.817 303.426 407.61 302.747 407.587 302.049V298.812C407.587 297.587 408.433 297.122 409.532 297.705L424.548 306.367C425.118 306.734 425.592 307.233 425.929 307.821C426.266 308.409 426.456 309.07 426.484 309.747V312.984C426.509 313.231 426.466 313.48 426.358 313.704C426.251 313.927 426.084 314.117 425.875 314.251C426.244 314.844 426.451 315.523 426.475 316.22V319.448C426.501 319.696 426.457 319.946 426.348 320.17C426.239 320.394 426.069 320.583 425.858 320.716C426.215 321.285 426.419 321.937 426.45 322.609V322.727ZM408.644 305.894V309.13C408.656 309.43 408.738 309.723 408.885 309.984C409.032 310.246 409.239 310.469 409.49 310.635L424.514 319.296C425.004 319.584 425.359 319.364 425.359 318.798V315.57C425.348 315.269 425.265 314.975 425.118 314.712C424.971 314.449 424.764 314.225 424.514 314.057L409.523 305.395C409.033 305.116 408.678 305.336 408.678 305.894H408.644ZM408.661 299.429V302.666C408.673 302.966 408.755 303.258 408.902 303.52C409.049 303.781 409.256 304.004 409.506 304.17L424.531 312.832C425.021 313.111 425.376 312.891 425.376 312.333V309.088C425.365 308.79 425.282 308.498 425.135 308.238C424.988 307.978 424.781 307.756 424.531 307.592L409.54 298.948C409.05 298.66 408.695 298.88 408.695 299.438L408.661 299.429ZM422.223 321.181C422.443 321.325 422.61 321.54 422.696 321.789C423.123 321.561 423.606 321.455 424.09 321.485C424.573 321.515 425.039 321.679 425.435 321.958C425.412 321.672 425.323 321.394 425.177 321.147C425.03 320.9 424.83 320.689 424.59 320.53L409.506 311.868C409.016 311.581 408.661 311.801 408.661 312.358V315.587C408.673 315.887 408.755 316.181 408.902 316.444C409.049 316.707 409.256 316.932 409.506 317.099L421.631 324.096C421.62 323.484 421.781 322.881 422.096 322.355L417.023 319.423C416.868 319.322 416.739 319.186 416.646 319.026C416.554 318.866 416.5 318.687 416.49 318.502C416.49 318.164 416.727 318.029 417.023 318.198L422.189 321.172L422.223 321.181ZM425.452 329.53C426.966 330.375 428.2 329.699 428.209 327.958C428.157 327.008 427.882 326.084 427.406 325.26C426.93 324.437 426.266 323.737 425.469 323.217C423.956 322.372 422.713 323.048 422.713 324.789C422.762 325.739 423.036 326.665 423.512 327.489C423.988 328.313 424.653 329.012 425.452 329.53Z" fill="#C4D1EA"/>
<path d="M427.381 325.914C427.643 326.302 427.685 326.674 427.507 326.86L425.613 328.525C425.512 328.618 425.351 328.592 425.182 328.525C425.063 328.45 424.959 328.352 424.878 328.238L423.238 325.947C423.001 325.609 422.95 325.187 423.128 325.018C423.19 324.97 423.265 324.945 423.343 324.945C423.421 324.945 423.497 324.97 423.559 325.018C423.683 325.093 423.789 325.194 423.872 325.314L425.098 327.004L426.662 325.677C426.704 325.634 426.76 325.607 426.819 325.599C426.879 325.592 426.94 325.604 426.992 325.635H427.059C427.184 325.705 427.293 325.8 427.381 325.914Z" fill="#C4D1EA"/>
<path d="M412.314 314.413C412.74 314.691 413.095 315.065 413.351 315.505C413.606 315.946 413.755 316.44 413.785 316.948C413.785 317.877 413.117 318.258 412.305 317.793C411.882 317.513 411.531 317.138 411.28 316.697C411.029 316.257 410.885 315.764 410.859 315.258C410.859 314.32 411.502 313.948 412.314 314.413ZM412.314 316.568C412.542 316.703 412.719 316.568 412.719 316.339C412.712 316.2 412.672 316.064 412.603 315.942C412.534 315.82 412.438 315.716 412.322 315.638C412.094 315.511 411.916 315.638 411.908 315.875C411.913 316.015 411.952 316.151 412.023 316.272C412.094 316.393 412.194 316.495 412.314 316.568Z" fill="#C4D1EA"/>
<path d="M412.323 311.328C411.895 311.051 411.539 310.677 411.284 310.236C411.028 309.796 410.88 309.301 410.852 308.793C410.852 307.863 411.519 307.491 412.331 307.948C412.758 308.225 413.114 308.599 413.369 309.04C413.625 309.48 413.773 309.974 413.802 310.483C413.802 311.421 413.134 311.801 412.323 311.328ZM412.323 309.181C412.094 309.046 411.917 309.181 411.917 309.401C411.923 309.541 411.962 309.677 412.031 309.799C412.1 309.921 412.197 310.025 412.314 310.102C412.542 310.229 412.72 310.102 412.72 309.874C412.716 309.735 412.678 309.599 412.608 309.478C412.539 309.357 412.441 309.255 412.323 309.181Z" fill="#C4D1EA"/>
<path d="M412.339 304.863C411.911 304.586 411.554 304.212 411.297 303.771C411.04 303.331 410.89 302.837 410.859 302.328C410.859 301.39 411.536 301.018 412.339 301.483C412.768 301.758 413.126 302.132 413.384 302.572C413.641 303.013 413.79 303.508 413.819 304.018C413.819 304.956 413.159 305.336 412.339 304.863ZM412.339 302.699C412.111 302.573 411.933 302.699 411.933 302.936C411.94 303.077 411.981 303.214 412.051 303.336C412.122 303.458 412.22 303.561 412.339 303.637C412.559 303.764 412.745 303.637 412.745 303.401C412.738 303.26 412.697 303.123 412.627 303.001C412.556 302.879 412.457 302.776 412.339 302.699Z" fill="#C4D1EA"/>
<path d="M417.032 306.494C416.877 306.394 416.748 306.258 416.655 306.098C416.562 305.937 416.509 305.758 416.499 305.573C416.499 305.235 416.744 305.1 417.04 305.269L422.198 308.244C422.349 308.348 422.472 308.487 422.559 308.648C422.646 308.81 422.693 308.99 422.697 309.173C422.706 309.239 422.696 309.305 422.666 309.365C422.637 309.424 422.591 309.474 422.534 309.506C422.476 309.539 422.41 309.554 422.344 309.549C422.278 309.544 422.215 309.519 422.164 309.477L417.032 306.494Z" fill="#C4D1EA"/>
<path d="M447.023 177.051V180.24V183.429V186.619C447.023 187.089 447.329 187.458 447.789 187.744C448.251 188.031 448.887 188.247 449.595 188.409C451.012 188.733 452.749 188.845 454.037 188.845C455.325 188.845 457.061 188.733 458.479 188.409C459.187 188.247 459.823 188.031 460.284 187.744C460.745 187.458 461.051 187.089 461.051 186.619V183.429V180.24V177.051C461.051 176.581 460.745 176.211 460.284 175.925C459.823 175.639 459.187 175.422 458.479 175.26C457.061 174.936 455.325 174.824 454.037 174.824C452.749 174.824 451.012 174.936 449.595 175.26C448.887 175.422 448.251 175.639 447.789 175.925C447.329 176.211 447.023 176.581 447.023 177.051ZM448.287 180.211V178.43C449.014 178.744 449.982 178.952 450.977 179.083C452.042 179.223 453.146 179.277 454.037 179.277C454.929 179.277 456.034 179.223 457.098 179.082C458.095 178.951 459.063 178.743 459.79 178.429L459.794 180.175C459.776 180.201 459.74 180.237 459.677 180.28C459.601 180.333 459.495 180.39 459.359 180.449C459.085 180.568 458.698 180.691 458.204 180.803C457.215 181.027 455.806 181.203 454.037 181.203C452.268 181.203 450.858 181.027 449.87 180.808C449.376 180.698 448.989 180.578 448.717 180.465C448.58 180.408 448.475 180.353 448.399 180.304C448.338 180.265 448.304 180.233 448.287 180.211ZM448.287 183.4V181.62C449.014 181.933 449.982 182.141 450.977 182.272C452.042 182.412 453.146 182.466 454.037 182.466C454.929 182.466 456.034 182.412 457.098 182.272C458.095 182.14 459.063 181.932 459.79 181.618L459.794 183.365C459.776 183.39 459.74 183.426 459.677 183.47C459.601 183.522 459.495 183.579 459.359 183.638C459.085 183.757 458.698 183.881 458.204 183.993C457.215 184.217 455.806 184.393 454.037 184.393C452.268 184.393 450.858 184.217 449.87 183.997C449.376 183.888 448.989 183.767 448.717 183.654C448.58 183.597 448.475 183.543 448.399 183.494C448.338 183.454 448.304 183.422 448.287 183.4ZM454.037 187.582C452.268 187.582 450.858 187.406 449.87 187.187C449.376 187.077 448.989 186.957 448.717 186.843C448.58 186.787 448.475 186.732 448.399 186.683C448.338 186.644 448.304 186.612 448.287 186.59V184.809C449.014 185.123 449.982 185.33 450.977 185.462C452.042 185.602 453.146 185.656 454.037 185.656C454.929 185.656 456.034 185.602 457.098 185.461C458.095 185.33 459.063 185.122 459.79 184.807L459.794 186.554C459.776 186.58 459.74 186.615 459.677 186.659C459.601 186.711 459.495 186.768 459.359 186.828C459.085 186.946 458.698 187.07 458.204 187.182C457.215 187.406 455.806 187.582 454.037 187.582ZM454.037 176.087C455.75 176.087 457.126 176.252 458.109 176.466C458.601 176.573 458.993 176.692 459.279 176.808C459.421 176.866 459.536 176.922 459.623 176.975C459.668 177.002 459.703 177.028 459.731 177.051C459.703 177.074 459.668 177.099 459.623 177.126C459.536 177.179 459.422 177.235 459.279 177.293C458.993 177.409 458.601 177.528 458.11 177.635C457.126 177.849 455.75 178.014 454.037 178.014C452.324 178.014 450.948 177.849 449.964 177.635C449.473 177.528 449.081 177.409 448.795 177.293C448.652 177.235 448.538 177.179 448.451 177.126C448.406 177.099 448.371 177.073 448.343 177.051C448.371 177.028 448.406 177.002 448.451 176.975C448.538 176.922 448.652 176.866 448.795 176.808C449.081 176.692 449.473 176.573 449.964 176.466C450.948 176.252 452.324 176.087 454.037 176.087Z" fill="#5C638B" stroke="#5C638B" stroke-width="0.2"/>
<path d="M128.376 318.331C128.159 318.331 127.947 318.395 127.767 318.515C127.586 318.636 127.446 318.807 127.363 319.007C127.28 319.208 127.258 319.428 127.3 319.641C127.343 319.854 127.447 320.049 127.601 320.202C127.754 320.356 127.949 320.46 128.162 320.502C128.375 320.545 128.595 320.523 128.796 320.44C128.996 320.357 129.168 320.216 129.288 320.036C129.409 319.856 129.473 319.644 129.473 319.427C129.473 319.136 129.357 318.858 129.151 318.652C128.946 318.447 128.667 318.331 128.376 318.331ZM128.376 319.792C128.304 319.792 128.233 319.771 128.173 319.731C128.113 319.691 128.066 319.634 128.038 319.567C128.011 319.5 128.003 319.427 128.018 319.356C128.032 319.285 128.066 319.22 128.118 319.169C128.169 319.117 128.234 319.083 128.305 319.069C128.376 319.054 128.449 319.062 128.516 319.089C128.583 319.117 128.64 319.164 128.68 319.224C128.72 319.284 128.742 319.355 128.742 319.427C128.742 319.524 128.703 319.617 128.635 319.685C128.566 319.754 128.473 319.792 128.376 319.792Z" fill="#5C638B"/>
<path d="M130.672 319.519C130.674 319.489 130.675 319.458 130.675 319.427C130.675 319.396 130.674 319.366 130.672 319.334L130.889 318.88C130.936 318.782 130.958 318.674 130.954 318.565C130.95 318.456 130.919 318.35 130.865 318.256L130.634 317.857C130.58 317.763 130.503 317.683 130.411 317.625C130.319 317.567 130.214 317.532 130.106 317.524L129.602 317.484C129.551 317.452 129.498 317.422 129.444 317.393L129.158 316.976C129.096 316.887 129.014 316.814 128.917 316.763C128.821 316.712 128.714 316.686 128.605 316.686H128.144C128.035 316.686 127.928 316.713 127.832 316.763C127.736 316.814 127.653 316.887 127.592 316.977L127.305 317.394C127.251 317.422 127.199 317.452 127.147 317.485L126.644 317.525C126.535 317.533 126.43 317.568 126.338 317.626C126.246 317.684 126.17 317.763 126.115 317.858L125.885 318.257C125.83 318.351 125.8 318.457 125.795 318.565C125.791 318.674 125.814 318.782 125.86 318.88L126.077 319.335C126.076 319.365 126.075 319.396 126.075 319.427C126.075 319.458 126.076 319.488 126.077 319.52L125.861 319.974C125.814 320.072 125.791 320.18 125.795 320.289C125.8 320.398 125.83 320.504 125.885 320.598L126.115 320.997C126.17 321.091 126.246 321.171 126.338 321.229C126.43 321.287 126.535 321.322 126.644 321.33L127.147 321.37C127.198 321.402 127.251 321.432 127.305 321.461L127.592 321.878C127.653 321.967 127.736 322.04 127.832 322.091C127.928 322.141 128.036 322.168 128.144 322.167H128.605C128.714 322.167 128.821 322.141 128.917 322.09C129.014 322.04 129.096 321.966 129.158 321.877L129.444 321.46C129.499 321.432 129.551 321.401 129.602 321.369L130.106 321.329C130.214 321.321 130.319 321.286 130.411 321.228C130.503 321.17 130.58 321.091 130.634 320.996L130.865 320.597C130.919 320.503 130.95 320.397 130.954 320.289C130.958 320.18 130.936 320.072 130.889 319.974L130.672 319.519ZM129.943 319.427C129.943 319.448 129.943 319.47 129.941 319.489C129.935 319.603 129.957 319.717 130.006 319.82L130.215 320.26L130.017 320.603L129.529 320.642C129.418 320.651 129.312 320.687 129.218 320.747C129.179 320.772 129.138 320.795 129.098 320.816C128.999 320.867 128.914 320.941 128.85 321.033L128.573 321.437H128.176L127.898 321.033C127.835 320.941 127.75 320.866 127.651 320.815C127.61 320.794 127.57 320.771 127.53 320.746C127.437 320.686 127.33 320.65 127.22 320.641L126.732 320.603L126.533 320.259L126.743 319.821C126.792 319.718 126.814 319.605 126.807 319.491C126.806 319.47 126.805 319.448 126.805 319.427C126.805 319.405 126.805 319.384 126.807 319.365C126.814 319.251 126.792 319.137 126.743 319.033L126.534 318.594L126.733 318.25L127.221 318.212C127.331 318.203 127.437 318.167 127.53 318.107C127.569 318.082 127.61 318.059 127.65 318.038C127.75 317.987 127.835 317.913 127.898 317.821L128.176 317.417H128.573L128.851 317.821C128.915 317.913 129 317.987 129.099 318.038C129.14 318.059 129.18 318.082 129.219 318.107C129.313 318.167 129.419 318.203 129.53 318.212L130.018 318.25L130.216 318.593L130.007 319.032C129.958 319.135 129.936 319.248 129.942 319.362C129.942 319.384 129.943 319.405 129.943 319.427Z" fill="#5C638B"/>
<path d="M134.312 318.366C134.096 317.152 133.513 316.035 132.641 315.163C131.769 314.292 130.651 313.709 129.437 313.493C129.377 313.257 129.241 313.047 129.048 312.898C128.856 312.748 128.619 312.667 128.375 312.667C128.132 312.667 127.895 312.748 127.702 312.898C127.51 313.047 127.373 313.257 127.313 313.493C126.1 313.709 124.981 314.292 124.109 315.163C123.238 316.035 122.654 317.152 122.438 318.366C122.202 318.425 121.992 318.562 121.842 318.754C121.693 318.947 121.611 319.183 121.611 319.427C121.611 319.671 121.693 319.907 121.842 320.099C121.992 320.292 122.202 320.429 122.438 320.488C122.654 321.701 123.238 322.819 124.109 323.691C124.981 324.562 126.099 325.145 127.313 325.361C127.373 325.597 127.51 325.807 127.702 325.956C127.895 326.106 128.131 326.188 128.375 326.188C128.619 326.188 128.856 326.106 129.048 325.956C129.24 325.807 129.377 325.597 129.437 325.361C130.651 325.145 131.769 324.562 132.641 323.691C133.513 322.819 134.096 321.702 134.312 320.488C134.549 320.429 134.758 320.292 134.908 320.1C135.058 319.907 135.139 319.671 135.139 319.427C135.139 319.183 135.058 318.947 134.908 318.755C134.758 318.562 134.549 318.425 134.312 318.366V318.366ZM128.375 313.397C128.47 313.397 128.561 313.434 128.629 313.5C128.697 313.565 128.737 313.655 128.741 313.749C128.741 313.754 128.74 313.759 128.739 313.764C128.739 313.772 128.737 313.779 128.737 313.786C128.731 313.878 128.691 313.965 128.624 314.028C128.556 314.091 128.468 314.127 128.375 314.127C128.283 314.127 128.194 314.091 128.127 314.028C128.06 313.965 128.019 313.878 128.014 313.786C128.014 313.779 128.012 313.772 128.011 313.764C128.011 313.759 128.011 313.755 128.01 313.75C128.013 313.655 128.053 313.565 128.121 313.5C128.19 313.434 128.281 313.397 128.375 313.397ZM122.695 319.062L122.708 319.063H122.712C122.718 319.063 122.725 319.065 122.731 319.065C122.824 319.07 122.911 319.111 122.975 319.178C123.038 319.245 123.074 319.334 123.074 319.427C123.074 319.519 123.038 319.608 122.975 319.675C122.911 319.743 122.824 319.783 122.731 319.788C122.725 319.788 122.717 319.79 122.71 319.79H122.708L122.695 319.792C122.598 319.792 122.505 319.754 122.436 319.685C122.368 319.617 122.329 319.524 122.329 319.427C122.329 319.33 122.368 319.237 122.436 319.169C122.505 319.1 122.598 319.062 122.695 319.062ZM128.375 325.457C128.281 325.457 128.19 325.42 128.121 325.354C128.053 325.289 128.013 325.199 128.01 325.105C128.01 325.1 128.011 325.095 128.011 325.09C128.011 325.083 128.013 325.075 128.014 325.068C128.019 324.976 128.06 324.889 128.127 324.826C128.194 324.763 128.283 324.727 128.375 324.727C128.467 324.727 128.556 324.763 128.623 324.826C128.691 324.889 128.731 324.976 128.737 325.068C128.737 325.075 128.738 325.083 128.739 325.09C128.739 325.095 128.739 325.099 128.741 325.105C128.737 325.199 128.697 325.289 128.629 325.354C128.561 325.42 128.47 325.457 128.375 325.457ZM129.365 324.628C129.278 324.439 129.138 324.279 128.962 324.167C128.787 324.054 128.583 323.995 128.375 323.995C128.166 323.995 127.962 324.054 127.787 324.167C127.611 324.279 127.472 324.439 127.384 324.628C126.34 324.43 125.379 323.923 124.628 323.172C123.877 322.42 123.369 321.46 123.172 320.416C123.361 320.329 123.521 320.189 123.633 320.014C123.745 319.839 123.805 319.635 123.805 319.426C123.805 319.218 123.745 319.014 123.633 318.839C123.521 318.663 123.361 318.524 123.172 318.436C123.369 317.393 123.877 316.433 124.629 315.682C125.38 314.931 126.341 314.424 127.385 314.226C127.473 314.415 127.612 314.575 127.788 314.687C127.963 314.799 128.167 314.859 128.375 314.859C128.583 314.859 128.787 314.799 128.963 314.687C129.138 314.575 129.278 314.415 129.365 314.226C130.41 314.424 131.37 314.931 132.122 315.682C132.874 316.433 133.381 317.394 133.579 318.437C133.39 318.525 133.23 318.664 133.117 318.84C133.005 319.015 132.945 319.219 132.945 319.427C132.945 319.635 133.005 319.839 133.117 320.014C133.23 320.19 133.39 320.329 133.579 320.416C133.381 321.46 132.874 322.421 132.122 323.172C131.37 323.923 130.41 324.43 129.365 324.628ZM134.056 319.792L134.042 319.791H134.04C134.033 319.791 134.026 319.789 134.019 319.789C133.927 319.784 133.84 319.743 133.776 319.676C133.713 319.609 133.677 319.52 133.677 319.427C133.677 319.335 133.713 319.246 133.776 319.178C133.84 319.111 133.927 319.071 134.019 319.066C134.026 319.066 134.032 319.064 134.039 319.064H134.042L134.056 319.062C134.153 319.062 134.246 319.1 134.314 319.169C134.383 319.237 134.421 319.33 134.421 319.427C134.421 319.524 134.383 319.617 134.314 319.685C134.246 319.754 134.153 319.792 134.056 319.792Z" fill="#5C638B"/>
<path d="M128.376 318.331C128.159 318.331 127.947 318.395 127.767 318.515C127.586 318.636 127.446 318.807 127.363 319.007C127.28 319.208 127.258 319.428 127.3 319.641C127.343 319.854 127.447 320.049 127.601 320.202C127.754 320.356 127.949 320.46 128.162 320.502C128.375 320.545 128.595 320.523 128.796 320.44C128.996 320.357 129.168 320.216 129.288 320.036C129.409 319.856 129.473 319.644 129.473 319.427C129.473 319.136 129.357 318.858 129.151 318.652C128.946 318.447 128.667 318.331 128.376 318.331ZM128.376 319.792C128.304 319.792 128.233 319.771 128.173 319.731C128.113 319.691 128.066 319.634 128.038 319.567C128.011 319.5 128.003 319.427 128.018 319.356C128.032 319.285 128.066 319.22 128.118 319.169C128.169 319.117 128.234 319.083 128.305 319.069C128.376 319.054 128.449 319.062 128.516 319.089C128.583 319.117 128.64 319.164 128.68 319.224C128.72 319.284 128.742 319.355 128.742 319.427C128.742 319.524 128.703 319.617 128.635 319.685C128.566 319.754 128.473 319.792 128.376 319.792Z" fill="#5C638B"/>
<path d="M130.672 319.519C130.674 319.489 130.675 319.458 130.675 319.427C130.675 319.396 130.674 319.366 130.672 319.334L130.889 318.88C130.936 318.782 130.958 318.674 130.954 318.565C130.95 318.456 130.919 318.35 130.865 318.256L130.634 317.857C130.58 317.763 130.503 317.683 130.411 317.625C130.319 317.567 130.214 317.532 130.106 317.524L129.602 317.484C129.551 317.452 129.498 317.422 129.444 317.393L129.158 316.976C129.096 316.887 129.014 316.814 128.917 316.763C128.821 316.712 128.714 316.686 128.605 316.686H128.144C128.035 316.686 127.928 316.713 127.832 316.763C127.736 316.814 127.653 316.887 127.592 316.977L127.305 317.394C127.251 317.422 127.199 317.452 127.147 317.485L126.644 317.525C126.535 317.533 126.43 317.568 126.338 317.626C126.246 317.684 126.17 317.763 126.115 317.858L125.885 318.257C125.83 318.351 125.8 318.457 125.795 318.565C125.791 318.674 125.814 318.782 125.86 318.88L126.077 319.335C126.076 319.365 126.075 319.396 126.075 319.427C126.075 319.458 126.076 319.488 126.077 319.52L125.861 319.974C125.814 320.072 125.791 320.18 125.795 320.289C125.8 320.398 125.83 320.504 125.885 320.598L126.115 320.997C126.17 321.091 126.246 321.171 126.338 321.229C126.43 321.287 126.535 321.322 126.644 321.33L127.147 321.37C127.198 321.402 127.251 321.432 127.305 321.461L127.592 321.878C127.653 321.967 127.736 322.04 127.832 322.091C127.928 322.141 128.036 322.168 128.144 322.167H128.605C128.714 322.167 128.821 322.141 128.917 322.09C129.014 322.04 129.096 321.966 129.158 321.877L129.444 321.46C129.499 321.432 129.551 321.401 129.602 321.369L130.106 321.329C130.214 321.321 130.319 321.286 130.411 321.228C130.503 321.17 130.58 321.091 130.634 320.996L130.865 320.597C130.919 320.503 130.95 320.397 130.954 320.289C130.958 320.18 130.936 320.072 130.889 319.974L130.672 319.519ZM129.943 319.427C129.943 319.448 129.943 319.47 129.941 319.489C129.935 319.603 129.957 319.717 130.006 319.82L130.215 320.26L130.017 320.603L129.529 320.642C129.418 320.651 129.312 320.687 129.218 320.747C129.179 320.772 129.138 320.795 129.098 320.816C128.999 320.867 128.914 320.941 128.85 321.033L128.573 321.437H128.176L127.898 321.033C127.835 320.941 127.75 320.866 127.651 320.815C127.61 320.794 127.57 320.771 127.53 320.746C127.437 320.686 127.33 320.65 127.22 320.641L126.732 320.603L126.533 320.259L126.743 319.821C126.792 319.718 126.814 319.605 126.807 319.491C126.806 319.47 126.805 319.448 126.805 319.427C126.805 319.405 126.805 319.384 126.807 319.365C126.814 319.251 126.792 319.137 126.743 319.033L126.534 318.594L126.733 318.25L127.221 318.212C127.331 318.203 127.437 318.167 127.53 318.107C127.569 318.082 127.61 318.059 127.65 318.038C127.75 317.987 127.835 317.913 127.898 317.821L128.176 317.417H128.573L128.851 317.821C128.915 317.913 129 317.987 129.099 318.038C129.14 318.059 129.18 318.082 129.219 318.107C129.313 318.167 129.419 318.203 129.53 318.212L130.018 318.25L130.216 318.593L130.007 319.032C129.958 319.135 129.936 319.248 129.942 319.362C129.942 319.384 129.943 319.405 129.943 319.427Z" fill="#5C638B"/>
<path d="M134.312 318.366C134.096 317.152 133.513 316.035 132.641 315.163C131.769 314.292 130.651 313.709 129.437 313.493C129.377 313.257 129.241 313.047 129.048 312.898C128.856 312.748 128.619 312.667 128.375 312.667C128.132 312.667 127.895 312.748 127.702 312.898C127.51 313.047 127.373 313.257 127.313 313.493C126.1 313.709 124.981 314.292 124.109 315.163C123.238 316.035 122.654 317.152 122.438 318.366C122.202 318.425 121.992 318.562 121.842 318.754C121.693 318.947 121.611 319.183 121.611 319.427C121.611 319.671 121.693 319.907 121.842 320.099C121.992 320.292 122.202 320.429 122.438 320.488C122.654 321.701 123.238 322.819 124.109 323.691C124.981 324.562 126.099 325.145 127.313 325.361C127.373 325.597 127.51 325.807 127.702 325.956C127.895 326.106 128.131 326.188 128.375 326.188C128.619 326.188 128.856 326.106 129.048 325.956C129.24 325.807 129.377 325.597 129.437 325.361C130.651 325.145 131.769 324.562 132.641 323.691C133.513 322.819 134.096 321.702 134.312 320.488C134.549 320.429 134.758 320.292 134.908 320.1C135.058 319.907 135.139 319.671 135.139 319.427C135.139 319.183 135.058 318.947 134.908 318.755C134.758 318.562 134.549 318.425 134.312 318.366V318.366ZM128.375 313.397C128.47 313.397 128.561 313.434 128.629 313.5C128.697 313.565 128.737 313.655 128.741 313.749C128.741 313.754 128.74 313.759 128.739 313.764C128.739 313.772 128.737 313.779 128.737 313.786C128.731 313.878 128.691 313.965 128.624 314.028C128.556 314.091 128.468 314.127 128.375 314.127C128.283 314.127 128.194 314.091 128.127 314.028C128.06 313.965 128.019 313.878 128.014 313.786C128.014 313.779 128.012 313.772 128.011 313.764C128.011 313.759 128.011 313.755 128.01 313.75C128.013 313.655 128.053 313.565 128.121 313.5C128.19 313.434 128.281 313.397 128.375 313.397ZM122.695 319.062L122.708 319.063H122.712C122.718 319.063 122.725 319.065 122.731 319.065C122.824 319.07 122.911 319.111 122.975 319.178C123.038 319.245 123.074 319.334 123.074 319.427C123.074 319.519 123.038 319.608 122.975 319.675C122.911 319.743 122.824 319.783 122.731 319.788C122.725 319.788 122.717 319.79 122.71 319.79H122.708L122.695 319.792C122.598 319.792 122.505 319.754 122.436 319.685C122.368 319.617 122.329 319.524 122.329 319.427C122.329 319.33 122.368 319.237 122.436 319.169C122.505 319.1 122.598 319.062 122.695 319.062ZM128.375 325.457C128.281 325.457 128.19 325.42 128.121 325.354C128.053 325.289 128.013 325.199 128.01 325.105C128.01 325.1 128.011 325.095 128.011 325.09C128.011 325.083 128.013 325.075 128.014 325.068C128.019 324.976 128.06 324.889 128.127 324.826C128.194 324.763 128.283 324.727 128.375 324.727C128.467 324.727 128.556 324.763 128.623 324.826C128.691 324.889 128.731 324.976 128.737 325.068C128.737 325.075 128.738 325.083 128.739 325.09C128.739 325.095 128.739 325.099 128.741 325.105C128.737 325.199 128.697 325.289 128.629 325.354C128.561 325.42 128.47 325.457 128.375 325.457ZM129.365 324.628C129.278 324.439 129.138 324.279 128.962 324.167C128.787 324.054 128.583 323.995 128.375 323.995C128.166 323.995 127.962 324.054 127.787 324.167C127.611 324.279 127.472 324.439 127.384 324.628C126.34 324.43 125.379 323.923 124.628 323.172C123.877 322.42 123.369 321.46 123.172 320.416C123.361 320.329 123.521 320.189 123.633 320.014C123.745 319.839 123.805 319.635 123.805 319.426C123.805 319.218 123.745 319.014 123.633 318.839C123.521 318.663 123.361 318.524 123.172 318.436C123.369 317.393 123.877 316.433 124.629 315.682C125.38 314.931 126.341 314.424 127.385 314.226C127.473 314.415 127.612 314.575 127.788 314.687C127.963 314.799 128.167 314.859 128.375 314.859C128.583 314.859 128.787 314.799 128.963 314.687C129.138 314.575 129.278 314.415 129.365 314.226C130.41 314.424 131.37 314.931 132.122 315.682C132.874 316.433 133.381 317.394 133.579 318.437C133.39 318.525 133.23 318.664 133.117 318.84C133.005 319.015 132.945 319.219 132.945 319.427C132.945 319.635 133.005 319.839 133.117 320.014C133.23 320.19 133.39 320.329 133.579 320.416C133.381 321.46 132.874 322.421 132.122 323.172C131.37 323.923 130.41 324.43 129.365 324.628ZM134.056 319.792L134.042 319.791H134.04C134.033 319.791 134.026 319.789 134.019 319.789C133.927 319.784 133.84 319.743 133.776 319.676C133.713 319.609 133.677 319.52 133.677 319.427C133.677 319.335 133.713 319.246 133.776 319.178C133.84 319.111 133.927 319.071 134.019 319.066C134.026 319.066 134.032 319.064 134.039 319.064H134.042L134.056 319.062C134.153 319.062 134.246 319.1 134.314 319.169C134.383 319.237 134.421 319.33 134.421 319.427C134.421 319.524 134.383 319.617 134.314 319.685C134.246 319.754 134.153 319.792 134.056 319.792Z" fill="#5C638B"/>
<path d="M96.4557 268.701C97.0585 268.911 97.5811 269.303 97.9509 269.823C98.3207 270.343 98.5194 270.965 98.5194 271.603C98.5194 272.241 98.3207 272.863 97.9509 273.383C97.5811 273.903 97.0585 274.295 96.4557 274.504L68.3169 290.943C66.7619 291.732 65.0425 292.143 63.2987 292.143C61.5548 292.143 59.8355 291.732 58.2804 290.943L29.8264 274.504C29.2236 274.295 28.701 273.903 28.3312 273.383C27.9614 272.863 27.7627 272.241 27.7627 271.603C27.7627 270.965 27.9614 270.343 28.3312 269.823C28.701 269.303 29.2236 268.911 29.8264 268.701L58.1228 252.288C59.6726 251.498 61.3878 251.085 63.1279 251.085C64.8679 251.085 66.5832 251.498 68.133 252.288L96.4557 268.701Z" fill="url(#paint31_linear)"/>
<path d="M86.7068 260.822L66.6602 272.481C65.5566 273.039 64.3371 273.33 63.1002 273.33C61.8633 273.33 60.6437 273.039 59.5401 272.481L39.4147 260.822C39.0137 260.629 38.6684 260.337 38.411 259.974C38.1537 259.611 37.9928 259.189 37.9434 258.747V271.536C37.9928 271.978 38.1537 272.4 38.411 272.763C38.6684 273.126 39.0137 273.417 39.4147 273.61L59.5926 285.243C60.6962 285.802 61.9158 286.093 63.1527 286.093C64.3896 286.093 65.6092 285.802 66.7128 285.243L86.7331 273.61C87.1306 273.42 87.4736 273.132 87.7308 272.774C87.9879 272.416 88.1508 271.999 88.2044 271.562V258.8C88.144 259.235 87.9753 259.648 87.7136 260.001C87.452 260.355 87.1058 260.637 86.7068 260.822Z" fill="url(#paint32_linear)"/>
<path d="M86.7079 256.727C88.6784 257.856 88.7047 259.694 86.7079 260.823L66.6613 272.483C65.5577 273.041 64.3382 273.332 63.1013 273.332C61.8644 273.332 60.6448 273.041 59.5412 272.483L40.5854 261.501C39.8075 261.05 38.8718 260.76 38.3492 260.028C38.0853 259.659 37.9434 259.216 37.9434 258.762C37.9434 258.308 38.0853 257.865 38.3492 257.495C38.8718 256.764 39.8072 256.473 40.5846 256.021L59.4361 245.067C60.5397 244.509 61.7593 244.218 62.9962 244.218C64.2331 244.218 65.4526 244.509 66.5562 245.067L86.7079 256.727Z" fill="url(#paint33_linear)"/>
<path d="M61.5403 255.51C61.2694 255.51 61.0047 255.59 60.7795 255.74C60.5543 255.891 60.3788 256.105 60.2751 256.355C60.1715 256.605 60.1444 256.88 60.1972 257.145C60.25 257.411 60.3805 257.655 60.572 257.846C60.7635 258.038 61.0075 258.168 61.2731 258.221C61.5388 258.274 61.8141 258.246 62.0643 258.143C62.3145 258.039 62.5284 257.864 62.6789 257.639C62.8293 257.414 62.9097 257.149 62.9097 256.878C62.9092 256.516 62.7648 256.168 62.5081 255.911C62.2514 255.655 61.9033 255.51 61.5403 255.51ZM61.5403 257.335C61.45 257.335 61.3617 257.308 61.2867 257.258C61.2116 257.208 61.1531 257.136 61.1186 257.053C61.084 256.97 61.075 256.878 61.0926 256.789C61.1102 256.701 61.1537 256.62 61.2175 256.556C61.2813 256.492 61.3627 256.449 61.4512 256.431C61.5398 256.413 61.6315 256.422 61.715 256.457C61.7984 256.491 61.8697 256.55 61.9198 256.625C61.97 256.7 61.9967 256.788 61.9967 256.878C61.9967 256.999 61.9486 257.115 61.863 257.201C61.7774 257.287 61.6613 257.335 61.5403 257.335Z" fill="#5C638B"/>
<path d="M64.4054 256.994C64.4072 256.956 64.4086 256.917 64.4086 256.879C64.4086 256.84 64.4072 256.802 64.4054 256.763L64.6761 256.196C64.7348 256.074 64.7627 255.939 64.7575 255.803C64.7522 255.667 64.7139 255.535 64.646 255.417L64.3582 254.919C64.2903 254.801 64.1947 254.702 64.0798 254.63C63.9649 254.557 63.834 254.514 63.6986 254.503L63.07 254.454C63.0057 254.413 62.9399 254.375 62.8726 254.34L62.515 253.819C62.438 253.708 62.3349 253.616 62.2147 253.553C62.0946 253.49 61.9608 253.457 61.8251 253.457H61.2495C61.1136 253.457 60.9799 253.49 60.8597 253.553C60.7395 253.617 60.6365 253.708 60.5595 253.82L60.2019 254.34C60.1346 254.376 60.0688 254.414 60.0045 254.455L59.3762 254.504C59.2407 254.514 59.1098 254.558 58.9948 254.63C58.8798 254.703 58.7843 254.802 58.7164 254.92L58.4286 255.418C58.3606 255.535 58.3223 255.668 58.317 255.803C58.3118 255.939 58.3396 256.074 58.3982 256.196L58.6691 256.764C58.6673 256.802 58.6659 256.841 58.6659 256.879C58.6659 256.918 58.6673 256.956 58.6691 256.995L58.3984 257.562C58.3397 257.684 58.3118 257.819 58.3171 257.955C58.3223 258.091 58.3606 258.223 58.4286 258.341L58.7164 258.839C58.7843 258.957 58.8798 259.056 58.9947 259.128C59.1096 259.201 59.2405 259.244 59.3759 259.255L60.0045 259.304C60.0684 259.344 60.1341 259.382 60.2021 259.418L60.5595 259.939C60.6366 260.05 60.7397 260.141 60.8599 260.204C60.98 260.267 61.1137 260.3 61.2495 260.3H61.8248C61.9607 260.3 62.0944 260.267 62.2146 260.204C62.3348 260.141 62.4378 260.049 62.5148 259.937L62.8722 259.417C62.9406 259.382 63.0059 259.344 63.0698 259.303L63.6981 259.254C63.8336 259.243 63.9645 259.2 64.0794 259.128C64.1944 259.055 64.29 258.956 64.3579 258.838L64.6457 258.34C64.7137 258.223 64.752 258.09 64.7573 257.955C64.7625 257.819 64.7347 257.684 64.6761 257.562L64.4054 256.994ZM63.4957 256.879C63.4957 256.906 63.4957 256.932 63.4932 256.956C63.4846 257.098 63.5122 257.241 63.5733 257.37L63.8353 257.919L63.5874 258.348L62.9781 258.396C62.84 258.407 62.7068 258.452 62.5901 258.527C62.5412 258.558 62.4908 258.587 62.4406 258.613C62.3166 258.676 62.2101 258.769 62.1307 258.884L61.7851 259.388H61.2894L60.9425 258.884C60.8636 258.769 60.7577 258.676 60.6342 258.612C60.5826 258.586 60.5324 258.557 60.4831 258.526C60.3663 258.451 60.2332 258.406 60.0951 258.395L59.4859 258.347L59.2381 257.918L59.4999 257.371C59.5608 257.242 59.5884 257.101 59.5802 256.959C59.5788 256.932 59.5777 256.906 59.5777 256.879C59.5777 256.852 59.5777 256.825 59.5802 256.801C59.5887 256.659 59.5612 256.517 59.5001 256.388L59.2392 255.838L59.4871 255.41L60.0965 255.362C60.234 255.35 60.3666 255.305 60.4828 255.231C60.5317 255.2 60.5819 255.171 60.633 255.145C60.7568 255.081 60.8631 254.988 60.9425 254.874L61.2894 254.369H61.7851L62.1323 254.874C62.2117 254.989 62.3181 255.082 62.442 255.145C62.4932 255.171 62.5431 255.2 62.5915 255.231C62.7082 255.305 62.8414 255.35 62.9794 255.362L63.5886 255.409L63.8364 255.838L63.5747 256.386C63.5137 256.514 63.4861 256.656 63.4943 256.798C63.4946 256.825 63.4957 256.852 63.4957 256.879Z" fill="#5C638B"/>
<path d="M68.9515 255.553C68.6818 254.038 67.9536 252.643 66.8651 251.555C65.7767 250.467 64.3805 249.739 62.8651 249.47C62.7905 249.175 62.6197 248.913 62.3795 248.726C62.1394 248.539 61.8438 248.438 61.5394 248.438C61.2351 248.438 60.9394 248.539 60.6993 248.726C60.4592 248.913 60.2883 249.175 60.2137 249.47C58.6983 249.739 57.302 250.467 56.2136 251.555C55.1251 252.643 54.3968 254.038 54.1271 255.553C53.832 255.628 53.5703 255.798 53.3833 256.038C53.1963 256.278 53.0947 256.574 53.0947 256.878C53.0947 257.182 53.1963 257.478 53.3833 257.718C53.5703 257.958 53.832 258.129 54.1271 258.203C54.3968 259.718 55.125 261.113 56.2134 262.201C57.3018 263.289 58.698 264.017 60.2135 264.286C60.2881 264.581 60.4589 264.843 60.6991 265.03C60.9392 265.217 61.2348 265.318 61.5392 265.318C61.8435 265.318 62.1392 265.217 62.3793 265.03C62.6194 264.843 62.7903 264.581 62.8648 264.286C64.3803 264.017 65.7766 263.289 66.865 262.201C67.9535 261.113 68.6818 259.718 68.9515 258.203C69.2465 258.129 69.5083 257.958 69.6953 257.718C69.8823 257.478 69.9839 257.182 69.9839 256.878C69.9839 256.574 69.8823 256.279 69.6953 256.039C69.5083 255.799 69.2465 255.628 68.9515 255.553V255.553ZM61.5393 249.351C61.6575 249.35 61.7711 249.396 61.8562 249.478C61.9414 249.56 61.9914 249.672 61.9958 249.79C61.9958 249.796 61.9944 249.802 61.9937 249.809C61.9937 249.818 61.9914 249.827 61.9907 249.836C61.9839 249.951 61.9334 250.059 61.8495 250.138C61.7656 250.217 61.6547 250.261 61.5394 250.261C61.4242 250.261 61.3132 250.217 61.2294 250.138C61.1455 250.059 61.0949 249.951 61.0881 249.836C61.0881 249.827 61.0863 249.818 61.0851 249.809C61.0851 249.802 61.0851 249.797 61.0831 249.79C61.0874 249.672 61.1373 249.56 61.2224 249.478C61.3075 249.396 61.4211 249.351 61.5393 249.351ZM54.4473 256.422L54.4642 256.424H54.4686C54.4768 256.424 54.4848 256.426 54.4932 256.427C54.6086 256.433 54.7172 256.483 54.7967 256.567C54.8762 256.651 54.9205 256.762 54.9205 256.878C54.9205 256.993 54.8762 257.104 54.7967 257.188C54.7172 257.272 54.6086 257.323 54.4932 257.329C54.4848 257.329 54.4756 257.331 54.467 257.332H54.4642L54.4473 257.334C54.3263 257.334 54.2102 257.286 54.1246 257.201C54.039 257.115 53.9909 256.999 53.9909 256.878C53.9909 256.757 54.039 256.641 54.1246 256.556C54.2102 256.47 54.3263 256.422 54.4473 256.422ZM61.5393 264.406C61.4211 264.406 61.3075 264.36 61.2224 264.278C61.1372 264.196 61.0872 264.085 61.0828 263.966C61.0828 263.96 61.084 263.954 61.0849 263.948C61.0849 263.939 61.0872 263.93 61.0879 263.921C61.0947 263.806 61.1452 263.698 61.2291 263.619C61.313 263.54 61.4239 263.496 61.5392 263.496C61.6544 263.496 61.7654 263.54 61.8492 263.619C61.9331 263.698 61.9837 263.806 61.9905 263.921C61.9905 263.93 61.9923 263.939 61.9935 263.948C61.9935 263.954 61.9935 263.96 61.9955 263.966C61.9912 264.084 61.9412 264.196 61.8561 264.278C61.771 264.36 61.6574 264.406 61.5393 264.406ZM62.7752 263.371C62.666 263.135 62.4916 262.935 62.2725 262.795C62.0533 262.655 61.7987 262.581 61.5386 262.581C61.2785 262.581 61.0239 262.655 60.8048 262.795C60.5857 262.935 60.4112 263.135 60.3021 263.371C58.9983 263.124 57.7992 262.491 56.861 261.553C55.9229 260.615 55.2893 259.417 55.0428 258.113C55.2789 258.004 55.4789 257.83 55.619 257.611C55.7592 257.392 55.8336 257.137 55.8336 256.877C55.8336 256.617 55.7592 256.363 55.619 256.144C55.4789 255.925 55.2789 255.75 55.0428 255.641C55.2896 254.338 55.9236 253.14 56.8619 252.202C57.8003 251.265 58.9995 250.632 60.3032 250.385C60.4123 250.621 60.5866 250.821 60.8057 250.961C61.0247 251.101 61.2792 251.175 61.5392 251.175C61.7992 251.175 62.0537 251.101 62.2727 250.961C62.4917 250.821 62.6661 250.621 62.7752 250.385C64.0791 250.632 65.2785 251.265 66.2169 252.203C67.1554 253.141 67.7892 254.339 68.0358 255.643C67.7998 255.752 67.5999 255.926 67.4597 256.145C67.3196 256.364 67.2452 256.618 67.2452 256.878C67.2452 257.138 67.3196 257.392 67.4597 257.611C67.5999 257.83 67.7998 258.004 68.0358 258.113C67.7892 259.417 67.1554 260.615 66.217 261.553C65.2786 262.491 64.0792 263.125 62.7752 263.371ZM68.6313 257.334L68.6144 257.332H68.6121C68.6034 257.332 68.5947 257.33 68.5858 257.33C68.4704 257.323 68.3618 257.273 68.2823 257.189C68.2029 257.105 68.1586 256.994 68.1586 256.878C68.1586 256.763 68.2029 256.652 68.2823 256.568C68.3618 256.484 68.4704 256.434 68.5858 256.427C68.5938 256.427 68.6023 256.426 68.6105 256.425H68.6144L68.6313 256.422C68.7523 256.422 68.8684 256.47 68.954 256.556C69.0396 256.641 69.0877 256.757 69.0877 256.878C69.0877 256.999 69.0396 257.115 68.954 257.201C68.8684 257.286 68.7523 257.334 68.6313 257.334Z" fill="#5C638B"/>
<path d="M264.8 93.5808L266.831 94.7379V108.489L251.939 99.9651V86.1941L253.97 87.358V84.3912C253.97 80.9938 256.434 79.608 259.385 81.3167C262.336 83.0255 264.8 87.2167 264.8 90.6208V93.5808ZM262.546 92.2892V89.3291C262.49 88.2397 262.176 87.1789 261.627 86.234C261.079 85.289 260.313 84.4868 259.392 83.8933C257.666 82.8977 256.217 83.6579 256.211 85.6896V88.6496L262.546 92.2892ZM260.624 101.6L260.197 97.6845C260.429 97.6244 260.631 97.4829 260.765 97.2861C260.899 97.0894 260.958 96.8509 260.928 96.6149C260.902 96.0846 260.749 95.5684 260.48 95.1095C260.211 94.6506 259.836 94.2625 259.385 93.9777C258.519 93.4799 257.842 93.8634 257.842 94.8523C257.879 95.543 258.13 96.2054 258.559 96.7494L258.113 100.174L260.61 101.6" fill="#E7F7F5"/>
<path d="M259.459 70.7283L278.026 88.085L277.992 101.089C277.992 112.438 273.071 120.296 264.942 122.112L259.31 123.384L253.706 115.654C245.583 104.473 240.791 91.0518 240.845 79.7498L240.859 66.7793L259.459 70.7283ZM275.4 99.5889V88.7309L259.453 73.8027L243.444 70.3852V81.2432C243.444 91.5496 247.804 103.847 255.229 114.039L259.351 119.704L263.446 118.782C270.892 117.127 275.353 109.956 275.386 99.5889" fill="#E7F7F5"/>
<defs>
<linearGradient id="paint0_linear" x1="286.043" y1="308.5" x2="286.043" y2="440.389" gradientUnits="userSpaceOnUse">
<stop stop-color="#4164A9"/>
<stop offset="1" stop-color="#003286" stop-opacity="0"/>
</linearGradient>
<linearGradient id="paint1_linear" x1="426.604" y1="281.4" x2="426.604" y2="443.732" gradientUnits="userSpaceOnUse">
<stop stop-color="#4164A9"/>
<stop offset="1" stop-color="#003286" stop-opacity="0"/>
</linearGradient>
<linearGradient id="paint2_linear" x1="148.088" y1="445.337" x2="19.6234" y2="506.403" gradientUnits="userSpaceOnUse">
<stop stop-color="#F4F8FF"/>
<stop offset="1" stop-color="#EFF5FF"/>
</linearGradient>
<linearGradient id="paint3_linear" x1="43089.3" y1="13942.8" x2="47578.8" y2="9358.08" gradientUnits="userSpaceOnUse">
<stop stop-color="#A3AEEB"/>
<stop offset="0.15" stop-color="#B1BCED"/>
<stop offset="0.72" stop-color="#E0ECF4"/>
<stop offset="1" stop-color="#F2FFF7"/>
</linearGradient>
<linearGradient id="paint4_linear" x1="-28.5856" y1="378.749" x2="51.4105" y2="445.812" gradientUnits="userSpaceOnUse">
<stop offset="0.21" stop-color="#C3D1EC"/>
<stop offset="1" stop-color="#95A7CA"/>
</linearGradient>
<linearGradient id="paint5_linear" x1="-28.6064" y1="343.463" x2="93.8942" y2="412.363" gradientUnits="userSpaceOnUse">
<stop stop-color="#E9F1FF"/>
<stop offset="1" stop-color="white"/>
</linearGradient>
<linearGradient id="paint6_linear" x1="119.527" y1="412.135" x2="29.6257" y2="454.883" gradientUnits="userSpaceOnUse">
<stop stop-color="#EBF2FF"/>
<stop offset="1" stop-color="#DDEAFF"/>
</linearGradient>
<linearGradient id="paint7_linear" x1="135.941" y1="390.327" x2="67.4053" y2="431.162" gradientUnits="userSpaceOnUse">
<stop stop-color="#EBF2FF"/>
<stop offset="0.704463" stop-color="#D2E3FF"/>
</linearGradient>
<linearGradient id="paint8_linear" x1="203.574" y1="197.639" x2="328.687" y2="138.671" gradientUnits="userSpaceOnUse">
<stop stop-color="#F2FFF7"/>
<stop offset="1" stop-color="white"/>
</linearGradient>
<linearGradient id="paint9_linear" x1="378.639" y1="267.034" x2="359.471" y2="258.174" gradientUnits="userSpaceOnUse">
<stop stop-color="#F4F8FF"/>
<stop offset="1" stop-color="#D7E0F1"/>
</linearGradient>
<linearGradient id="paint10_linear" x1="84709.9" y1="36428.8" x2="113744" y2="17657.7" gradientUnits="userSpaceOnUse">
<stop stop-color="#A3AEEB"/>
<stop offset="0.15" stop-color="#B1BCED"/>
<stop offset="0.72" stop-color="#E0ECF4"/>
<stop offset="1" stop-color="#F2FFF7"/>
</linearGradient>
<linearGradient id="paint11_linear" x1="104.681" y1="140.44" x2="322.363" y2="255.978" gradientUnits="userSpaceOnUse">
<stop offset="0.21" stop-color="#C3D1EC"/>
<stop offset="1" stop-color="#95A7CA"/>
</linearGradient>
<linearGradient id="paint12_linear" x1="104.893" y1="77.4005" x2="355.592" y2="218.244" gradientUnits="userSpaceOnUse">
<stop offset="0.21" stop-color="#E4EEFF"/>
<stop offset="1" stop-color="#EBF2FF"/>
</linearGradient>
<linearGradient id="paint13_linear" x1="136.922" y1="94.3953" x2="316.009" y2="185.291" gradientUnits="userSpaceOnUse">
<stop offset="0.21" stop-color="#C3D1EC"/>
<stop offset="1" stop-color="#95A7CA"/>
</linearGradient>
<linearGradient id="paint14_linear" x1="229.264" y1="-31.213" x2="303.581" y2="237.192" gradientUnits="userSpaceOnUse">
<stop stop-color="#7BADDB"/>
<stop offset="0.14" stop-color="#E0ECF4"/>
<stop offset="1" stop-color="#F2FFF7"/>
</linearGradient>
<linearGradient id="paint15_linear" x1="210.015" y1="7.06684" x2="258.388" y2="168.353" gradientUnits="userSpaceOnUse">
<stop stop-color="#4164A9"/>
<stop offset="1" stop-color="white"/>
</linearGradient>
<linearGradient id="paint16_linear" x1="232.179" y1="91.0001" x2="268.167" y2="169.014" gradientUnits="userSpaceOnUse">
<stop stop-color="#5BC4D6"/>
<stop offset="1" stop-color="#5BC4D6" stop-opacity="0"/>
</linearGradient>
<linearGradient id="paint17_linear" x1="321.146" y1="127.602" x2="223.959" y2="43.047" gradientUnits="userSpaceOnUse">
<stop stop-color="#4164A9"/>
<stop offset="1" stop-color="#4164A9" stop-opacity="0"/>
</linearGradient>
<linearGradient id="paint18_linear" x1="90.274" y1="323.598" x2="137.832" y2="351.416" gradientUnits="userSpaceOnUse">
<stop offset="0.21" stop-color="#C3D1EC"/>
<stop offset="1" stop-color="#95A7CA"/>
</linearGradient>
<linearGradient id="paint19_linear" x1="18989.8" y1="10048.2" x2="20308.6" y2="10048.2" gradientUnits="userSpaceOnUse">
<stop stop-color="#F1F6FF"/>
<stop offset="1" stop-color="white"/>
</linearGradient>
<linearGradient id="paint20_linear" x1="101.332" y1="315.937" x2="136.348" y2="334.843" gradientUnits="userSpaceOnUse">
<stop offset="0.21" stop-color="#C3D1EC"/>
<stop offset="1" stop-color="#95A7CA"/>
</linearGradient>
<linearGradient id="paint21_linear" x1="159.959" y1="332.122" x2="117.32" y2="352.37" gradientUnits="userSpaceOnUse">
<stop stop-color="#EBF2FF"/>
<stop offset="1" stop-color="#DDEAFF"/>
</linearGradient>
<linearGradient id="paint22_linear" x1="522.406" y1="248.54" x2="430.127" y2="292.399" gradientUnits="userSpaceOnUse">
<stop stop-color="#F4F8FF"/>
<stop offset="1" stop-color="#EFF5FF"/>
</linearGradient>
<linearGradient id="paint23_linear" x1="395.498" y1="188.815" x2="468.409" y2="231.456" gradientUnits="userSpaceOnUse">
<stop offset="0.21" stop-color="#C3D1EC"/>
<stop offset="1" stop-color="#95A7CA"/>
</linearGradient>
<linearGradient id="paint24_linear" x1="522.406" y1="223.153" x2="430.127" y2="267.012" gradientUnits="userSpaceOnUse">
<stop stop-color="#EBF2FF"/>
<stop offset="1" stop-color="#DDEAFF"/>
</linearGradient>
<linearGradient id="paint25_linear" x1="412.622" y1="177.065" x2="466.303" y2="206.056" gradientUnits="userSpaceOnUse">
<stop offset="0.21" stop-color="#C3D1EC"/>
<stop offset="1" stop-color="#95A7CA"/>
</linearGradient>
<linearGradient id="paint26_linear" x1="502.503" y1="201.86" x2="437.151" y2="232.902" gradientUnits="userSpaceOnUse">
<stop stop-color="#EBF2FF"/>
<stop offset="1" stop-color="#DDEAFF"/>
</linearGradient>
<linearGradient id="paint27_linear" x1="553.607" y1="416.196" x2="368.711" y2="504.056" gradientUnits="userSpaceOnUse">
<stop stop-color="#F4F8FF"/>
<stop offset="1" stop-color="#EFF5FF"/>
</linearGradient>
<linearGradient id="paint28_linear" x1="76548.6" y1="18851" x2="85855.5" y2="9345.05" gradientUnits="userSpaceOnUse">
<stop stop-color="#A3AEEB"/>
<stop offset="0.15" stop-color="#B1BCED"/>
<stop offset="0.72" stop-color="#E0ECF4"/>
<stop offset="1" stop-color="#F2FFF7"/>
</linearGradient>
<linearGradient id="paint29_linear" x1="299.229" y1="320.307" x2="414.449" y2="416.925" gradientUnits="userSpaceOnUse">
<stop offset="0.21" stop-color="#C3D1EC"/>
<stop offset="1" stop-color="#95A7CA"/>
</linearGradient>
<linearGradient id="paint30_linear" x1="553.607" y1="384.259" x2="368.73" y2="472.134" gradientUnits="userSpaceOnUse">
<stop stop-color="#EBF2FF"/>
<stop offset="1" stop-color="#DDEAFF"/>
</linearGradient>
<linearGradient id="paint31_linear" x1="27375.9" y1="14346.2" x2="29285.6" y2="14346.2" gradientUnits="userSpaceOnUse">
<stop stop-color="#F1F6FF"/>
<stop offset="1" stop-color="white"/>
</linearGradient>
<linearGradient id="paint32_linear" x1="23.8576" y1="252.981" x2="74.5638" y2="280.359" gradientUnits="userSpaceOnUse">
<stop offset="0.21" stop-color="#C3D1EC"/>
<stop offset="1" stop-color="#95A7CA"/>
</linearGradient>
<linearGradient id="paint33_linear" x1="108.753" y1="276.42" x2="47.0079" y2="305.74" gradientUnits="userSpaceOnUse">
<stop stop-color="#EBF2FF"/>
<stop offset="1" stop-color="#DDEAFF"/>
</linearGradient>
</defs>
</svg>
